%TF.GenerationSoftware,KiCad,Pcbnew,8.0.8*%
%TF.CreationDate,2025-03-20T21:36:52-04:00*%
%TF.ProjectId,PCB PUERTA,50434220-5055-4455-9254-412e6b696361,rev?*%
%TF.SameCoordinates,Original*%
%TF.FileFunction,Paste,Top*%
%TF.FilePolarity,Positive*%
%FSLAX46Y46*%
G04 Gerber Fmt 4.6, Leading zero omitted, Abs format (unit mm)*
G04 Created by KiCad (PCBNEW 8.0.8) date 2025-03-20 21:36:52*
%MOMM*%
%LPD*%
G01*
G04 APERTURE LIST*
G04 Aperture macros list*
%AMRoundRect*
0 Rectangle with rounded corners*
0 $1 Rounding radius*
0 $2 $3 $4 $5 $6 $7 $8 $9 X,Y pos of 4 corners*
0 Add a 4 corners polygon primitive as box body*
4,1,4,$2,$3,$4,$5,$6,$7,$8,$9,$2,$3,0*
0 Add four circle primitives for the rounded corners*
1,1,$1+$1,$2,$3*
1,1,$1+$1,$4,$5*
1,1,$1+$1,$6,$7*
1,1,$1+$1,$8,$9*
0 Add four rect primitives between the rounded corners*
20,1,$1+$1,$2,$3,$4,$5,0*
20,1,$1+$1,$4,$5,$6,$7,0*
20,1,$1+$1,$6,$7,$8,$9,0*
20,1,$1+$1,$8,$9,$2,$3,0*%
G04 Aperture macros list end*
%ADD10RoundRect,0.135000X0.185000X-0.135000X0.185000X0.135000X-0.185000X0.135000X-0.185000X-0.135000X0*%
%ADD11RoundRect,0.250000X-0.550000X1.250000X-0.550000X-1.250000X0.550000X-1.250000X0.550000X1.250000X0*%
%ADD12RoundRect,0.135000X0.135000X0.185000X-0.135000X0.185000X-0.135000X-0.185000X0.135000X-0.185000X0*%
%ADD13RoundRect,0.135000X-0.185000X0.135000X-0.185000X-0.135000X0.185000X-0.135000X0.185000X0.135000X0*%
%ADD14R,0.508000X1.016000*%
%ADD15RoundRect,0.140000X-0.140000X-0.170000X0.140000X-0.170000X0.140000X0.170000X-0.140000X0.170000X0*%
%ADD16RoundRect,0.147500X-0.172500X0.147500X-0.172500X-0.147500X0.172500X-0.147500X0.172500X0.147500X0*%
%ADD17R,0.760000X1.270000*%
%ADD18R,1.663700X0.558800*%
%ADD19RoundRect,0.147500X0.172500X-0.147500X0.172500X0.147500X-0.172500X0.147500X-0.172500X-0.147500X0*%
%ADD20RoundRect,0.250000X-0.362500X-1.425000X0.362500X-1.425000X0.362500X1.425000X-0.362500X1.425000X0*%
G04 APERTURE END LIST*
D10*
%TO.C,R19*%
X121437400Y-119318500D03*
X121437400Y-118298500D03*
%TD*%
D11*
%TO.C,C7*%
X144246600Y-78292600D03*
X144246600Y-82692600D03*
%TD*%
D12*
%TO.C,R5*%
X108131800Y-89292400D03*
X107111800Y-89292400D03*
%TD*%
D10*
%TO.C,R11*%
X134366000Y-92115100D03*
X134366000Y-91095100D03*
%TD*%
D12*
%TO.C,R2*%
X108131800Y-85736400D03*
X107111800Y-85736400D03*
%TD*%
D13*
%TO.C,R9*%
X125450600Y-125421800D03*
X125450600Y-126441800D03*
%TD*%
D14*
%TO.C,U2*%
X134378700Y-88823800D03*
X136283700Y-88823800D03*
X135331200Y-86893400D03*
%TD*%
D15*
%TO.C,R16*%
X136273600Y-99568000D03*
X137233600Y-99568000D03*
%TD*%
D16*
%TO.C,D10*%
X136245600Y-91145500D03*
X136245600Y-92115500D03*
%TD*%
D14*
%TO.C,U5*%
X142506700Y-130556000D03*
X144411700Y-130556000D03*
X143459200Y-128625600D03*
%TD*%
D17*
%TO.C,SW1*%
X137718800Y-77089000D03*
X136448800Y-77089000D03*
X135178800Y-77089000D03*
X133908800Y-77089000D03*
X133908800Y-84709000D03*
X135178800Y-84709000D03*
X136448800Y-84709000D03*
X137718800Y-84709000D03*
%TD*%
D18*
%TO.C,U3*%
X132480050Y-101828600D03*
X132480050Y-103098600D03*
X132480050Y-104368600D03*
X132480050Y-105638600D03*
X138131550Y-105638600D03*
X138131550Y-104368600D03*
X138131550Y-103098600D03*
X138131550Y-101828600D03*
%TD*%
D19*
%TO.C,D8*%
X123520200Y-126392800D03*
X123520200Y-125422800D03*
%TD*%
%TO.C,D7*%
X120319800Y-126415200D03*
X120319800Y-125445200D03*
%TD*%
D13*
%TO.C,R8*%
X122123200Y-125397800D03*
X122123200Y-126417800D03*
%TD*%
D12*
%TO.C,R4*%
X108157800Y-81875600D03*
X107137800Y-81875600D03*
%TD*%
D16*
%TO.C,D11*%
X137666200Y-121730300D03*
X137666200Y-122700300D03*
%TD*%
D15*
%TO.C,R15*%
X133454200Y-99568000D03*
X134414200Y-99568000D03*
%TD*%
D12*
%TO.C,R1*%
X108129800Y-76592400D03*
X107109800Y-76592400D03*
%TD*%
D14*
%TO.C,U4*%
X121450100Y-116382800D03*
X123355100Y-116382800D03*
X122402600Y-114452400D03*
%TD*%
%TO.C,U6*%
X135773900Y-119584100D03*
X137678900Y-119584100D03*
X136726400Y-117653700D03*
%TD*%
D12*
%TO.C,R6*%
X108129800Y-74052400D03*
X107109800Y-74052400D03*
%TD*%
D20*
%TO.C,R17*%
X132241700Y-95834200D03*
X138166700Y-95834200D03*
%TD*%
D16*
%TO.C,D13*%
X144449800Y-133131700D03*
X144449800Y-134101700D03*
%TD*%
%TO.C,D12*%
X123342400Y-118314000D03*
X123342400Y-119284000D03*
%TD*%
D10*
%TO.C,R18*%
X135761200Y-122709400D03*
X135761200Y-121689400D03*
%TD*%
%TO.C,R20*%
X142494000Y-134101300D03*
X142494000Y-133081300D03*
%TD*%
D13*
%TO.C,R7*%
X118745000Y-125446600D03*
X118745000Y-126466600D03*
%TD*%
D12*
%TO.C,R3*%
X108129800Y-92772200D03*
X107109800Y-92772200D03*
%TD*%
D19*
%TO.C,D9*%
X127254000Y-126390400D03*
X127254000Y-125420400D03*
%TD*%
M02*
