%TF.GenerationSoftware,KiCad,Pcbnew,8.0.8*%
%TF.CreationDate,2025-03-20T21:36:52-04:00*%
%TF.ProjectId,PCB PUERTA,50434220-5055-4455-9254-412e6b696361,rev?*%
%TF.SameCoordinates,Original*%
%TF.FileFunction,Legend,Bot*%
%TF.FilePolarity,Positive*%
%FSLAX46Y46*%
G04 Gerber Fmt 4.6, Leading zero omitted, Abs format (unit mm)*
G04 Created by KiCad (PCBNEW 8.0.8) date 2025-03-20 21:36:52*
%MOMM*%
%LPD*%
G01*
G04 APERTURE LIST*
%ADD10C,0.150000*%
%ADD11C,0.120000*%
G04 APERTURE END LIST*
D10*
X110593094Y-76431419D02*
X110593094Y-75431419D01*
X110593094Y-75431419D02*
X110354999Y-75431419D01*
X110354999Y-75431419D02*
X110212142Y-75479038D01*
X110212142Y-75479038D02*
X110116904Y-75574276D01*
X110116904Y-75574276D02*
X110069285Y-75669514D01*
X110069285Y-75669514D02*
X110021666Y-75859990D01*
X110021666Y-75859990D02*
X110021666Y-76002847D01*
X110021666Y-76002847D02*
X110069285Y-76193323D01*
X110069285Y-76193323D02*
X110116904Y-76288561D01*
X110116904Y-76288561D02*
X110212142Y-76383800D01*
X110212142Y-76383800D02*
X110354999Y-76431419D01*
X110354999Y-76431419D02*
X110593094Y-76431419D01*
X109069285Y-76431419D02*
X109640713Y-76431419D01*
X109354999Y-76431419D02*
X109354999Y-75431419D01*
X109354999Y-75431419D02*
X109450237Y-75574276D01*
X109450237Y-75574276D02*
X109545475Y-75669514D01*
X109545475Y-75669514D02*
X109640713Y-75717133D01*
X110534694Y-84991219D02*
X110534694Y-83991219D01*
X110534694Y-83991219D02*
X110296599Y-83991219D01*
X110296599Y-83991219D02*
X110153742Y-84038838D01*
X110153742Y-84038838D02*
X110058504Y-84134076D01*
X110058504Y-84134076D02*
X110010885Y-84229314D01*
X110010885Y-84229314D02*
X109963266Y-84419790D01*
X109963266Y-84419790D02*
X109963266Y-84562647D01*
X109963266Y-84562647D02*
X110010885Y-84753123D01*
X110010885Y-84753123D02*
X110058504Y-84848361D01*
X110058504Y-84848361D02*
X110153742Y-84943600D01*
X110153742Y-84943600D02*
X110296599Y-84991219D01*
X110296599Y-84991219D02*
X110534694Y-84991219D01*
X109582313Y-84086457D02*
X109534694Y-84038838D01*
X109534694Y-84038838D02*
X109439456Y-83991219D01*
X109439456Y-83991219D02*
X109201361Y-83991219D01*
X109201361Y-83991219D02*
X109106123Y-84038838D01*
X109106123Y-84038838D02*
X109058504Y-84086457D01*
X109058504Y-84086457D02*
X109010885Y-84181695D01*
X109010885Y-84181695D02*
X109010885Y-84276933D01*
X109010885Y-84276933D02*
X109058504Y-84419790D01*
X109058504Y-84419790D02*
X109629932Y-84991219D01*
X109629932Y-84991219D02*
X109010885Y-84991219D01*
X110123266Y-85833580D02*
X110170885Y-85881200D01*
X110170885Y-85881200D02*
X110313742Y-85928819D01*
X110313742Y-85928819D02*
X110408980Y-85928819D01*
X110408980Y-85928819D02*
X110551837Y-85881200D01*
X110551837Y-85881200D02*
X110647075Y-85785961D01*
X110647075Y-85785961D02*
X110694694Y-85690723D01*
X110694694Y-85690723D02*
X110742313Y-85500247D01*
X110742313Y-85500247D02*
X110742313Y-85357390D01*
X110742313Y-85357390D02*
X110694694Y-85166914D01*
X110694694Y-85166914D02*
X110647075Y-85071676D01*
X110647075Y-85071676D02*
X110551837Y-84976438D01*
X110551837Y-84976438D02*
X110408980Y-84928819D01*
X110408980Y-84928819D02*
X110313742Y-84928819D01*
X110313742Y-84928819D02*
X110170885Y-84976438D01*
X110170885Y-84976438D02*
X110123266Y-85024057D01*
X109742313Y-85024057D02*
X109694694Y-84976438D01*
X109694694Y-84976438D02*
X109599456Y-84928819D01*
X109599456Y-84928819D02*
X109361361Y-84928819D01*
X109361361Y-84928819D02*
X109266123Y-84976438D01*
X109266123Y-84976438D02*
X109218504Y-85024057D01*
X109218504Y-85024057D02*
X109170885Y-85119295D01*
X109170885Y-85119295D02*
X109170885Y-85214533D01*
X109170885Y-85214533D02*
X109218504Y-85357390D01*
X109218504Y-85357390D02*
X109789932Y-85928819D01*
X109789932Y-85928819D02*
X109170885Y-85928819D01*
X123832857Y-75677219D02*
X124166190Y-75201028D01*
X124404285Y-75677219D02*
X124404285Y-74677219D01*
X124404285Y-74677219D02*
X124023333Y-74677219D01*
X124023333Y-74677219D02*
X123928095Y-74724838D01*
X123928095Y-74724838D02*
X123880476Y-74772457D01*
X123880476Y-74772457D02*
X123832857Y-74867695D01*
X123832857Y-74867695D02*
X123832857Y-75010552D01*
X123832857Y-75010552D02*
X123880476Y-75105790D01*
X123880476Y-75105790D02*
X123928095Y-75153409D01*
X123928095Y-75153409D02*
X124023333Y-75201028D01*
X124023333Y-75201028D02*
X124404285Y-75201028D01*
X122880476Y-75677219D02*
X123451904Y-75677219D01*
X123166190Y-75677219D02*
X123166190Y-74677219D01*
X123166190Y-74677219D02*
X123261428Y-74820076D01*
X123261428Y-74820076D02*
X123356666Y-74915314D01*
X123356666Y-74915314D02*
X123451904Y-74962933D01*
X122499523Y-74772457D02*
X122451904Y-74724838D01*
X122451904Y-74724838D02*
X122356666Y-74677219D01*
X122356666Y-74677219D02*
X122118571Y-74677219D01*
X122118571Y-74677219D02*
X122023333Y-74724838D01*
X122023333Y-74724838D02*
X121975714Y-74772457D01*
X121975714Y-74772457D02*
X121928095Y-74867695D01*
X121928095Y-74867695D02*
X121928095Y-74962933D01*
X121928095Y-74962933D02*
X121975714Y-75105790D01*
X121975714Y-75105790D02*
X122547142Y-75677219D01*
X122547142Y-75677219D02*
X121928095Y-75677219D01*
X110123266Y-81896580D02*
X110170885Y-81944200D01*
X110170885Y-81944200D02*
X110313742Y-81991819D01*
X110313742Y-81991819D02*
X110408980Y-81991819D01*
X110408980Y-81991819D02*
X110551837Y-81944200D01*
X110551837Y-81944200D02*
X110647075Y-81848961D01*
X110647075Y-81848961D02*
X110694694Y-81753723D01*
X110694694Y-81753723D02*
X110742313Y-81563247D01*
X110742313Y-81563247D02*
X110742313Y-81420390D01*
X110742313Y-81420390D02*
X110694694Y-81229914D01*
X110694694Y-81229914D02*
X110647075Y-81134676D01*
X110647075Y-81134676D02*
X110551837Y-81039438D01*
X110551837Y-81039438D02*
X110408980Y-80991819D01*
X110408980Y-80991819D02*
X110313742Y-80991819D01*
X110313742Y-80991819D02*
X110170885Y-81039438D01*
X110170885Y-81039438D02*
X110123266Y-81087057D01*
X109266123Y-81325152D02*
X109266123Y-81991819D01*
X109504218Y-80944200D02*
X109742313Y-81658485D01*
X109742313Y-81658485D02*
X109123266Y-81658485D01*
X123832857Y-78217219D02*
X124166190Y-77741028D01*
X124404285Y-78217219D02*
X124404285Y-77217219D01*
X124404285Y-77217219D02*
X124023333Y-77217219D01*
X124023333Y-77217219D02*
X123928095Y-77264838D01*
X123928095Y-77264838D02*
X123880476Y-77312457D01*
X123880476Y-77312457D02*
X123832857Y-77407695D01*
X123832857Y-77407695D02*
X123832857Y-77550552D01*
X123832857Y-77550552D02*
X123880476Y-77645790D01*
X123880476Y-77645790D02*
X123928095Y-77693409D01*
X123928095Y-77693409D02*
X124023333Y-77741028D01*
X124023333Y-77741028D02*
X124404285Y-77741028D01*
X122880476Y-78217219D02*
X123451904Y-78217219D01*
X123166190Y-78217219D02*
X123166190Y-77217219D01*
X123166190Y-77217219D02*
X123261428Y-77360076D01*
X123261428Y-77360076D02*
X123356666Y-77455314D01*
X123356666Y-77455314D02*
X123451904Y-77502933D01*
X122547142Y-77217219D02*
X121928095Y-77217219D01*
X121928095Y-77217219D02*
X122261428Y-77598171D01*
X122261428Y-77598171D02*
X122118571Y-77598171D01*
X122118571Y-77598171D02*
X122023333Y-77645790D01*
X122023333Y-77645790D02*
X121975714Y-77693409D01*
X121975714Y-77693409D02*
X121928095Y-77788647D01*
X121928095Y-77788647D02*
X121928095Y-78026742D01*
X121928095Y-78026742D02*
X121975714Y-78121980D01*
X121975714Y-78121980D02*
X122023333Y-78169600D01*
X122023333Y-78169600D02*
X122118571Y-78217219D01*
X122118571Y-78217219D02*
X122404285Y-78217219D01*
X122404285Y-78217219D02*
X122499523Y-78169600D01*
X122499523Y-78169600D02*
X122547142Y-78121980D01*
X110123266Y-89338780D02*
X110170885Y-89386400D01*
X110170885Y-89386400D02*
X110313742Y-89434019D01*
X110313742Y-89434019D02*
X110408980Y-89434019D01*
X110408980Y-89434019D02*
X110551837Y-89386400D01*
X110551837Y-89386400D02*
X110647075Y-89291161D01*
X110647075Y-89291161D02*
X110694694Y-89195923D01*
X110694694Y-89195923D02*
X110742313Y-89005447D01*
X110742313Y-89005447D02*
X110742313Y-88862590D01*
X110742313Y-88862590D02*
X110694694Y-88672114D01*
X110694694Y-88672114D02*
X110647075Y-88576876D01*
X110647075Y-88576876D02*
X110551837Y-88481638D01*
X110551837Y-88481638D02*
X110408980Y-88434019D01*
X110408980Y-88434019D02*
X110313742Y-88434019D01*
X110313742Y-88434019D02*
X110170885Y-88481638D01*
X110170885Y-88481638D02*
X110123266Y-88529257D01*
X109218504Y-88434019D02*
X109694694Y-88434019D01*
X109694694Y-88434019D02*
X109742313Y-88910209D01*
X109742313Y-88910209D02*
X109694694Y-88862590D01*
X109694694Y-88862590D02*
X109599456Y-88814971D01*
X109599456Y-88814971D02*
X109361361Y-88814971D01*
X109361361Y-88814971D02*
X109266123Y-88862590D01*
X109266123Y-88862590D02*
X109218504Y-88910209D01*
X109218504Y-88910209D02*
X109170885Y-89005447D01*
X109170885Y-89005447D02*
X109170885Y-89243542D01*
X109170885Y-89243542D02*
X109218504Y-89338780D01*
X109218504Y-89338780D02*
X109266123Y-89386400D01*
X109266123Y-89386400D02*
X109361361Y-89434019D01*
X109361361Y-89434019D02*
X109599456Y-89434019D01*
X109599456Y-89434019D02*
X109694694Y-89386400D01*
X109694694Y-89386400D02*
X109742313Y-89338780D01*
X110123266Y-92843980D02*
X110170885Y-92891600D01*
X110170885Y-92891600D02*
X110313742Y-92939219D01*
X110313742Y-92939219D02*
X110408980Y-92939219D01*
X110408980Y-92939219D02*
X110551837Y-92891600D01*
X110551837Y-92891600D02*
X110647075Y-92796361D01*
X110647075Y-92796361D02*
X110694694Y-92701123D01*
X110694694Y-92701123D02*
X110742313Y-92510647D01*
X110742313Y-92510647D02*
X110742313Y-92367790D01*
X110742313Y-92367790D02*
X110694694Y-92177314D01*
X110694694Y-92177314D02*
X110647075Y-92082076D01*
X110647075Y-92082076D02*
X110551837Y-91986838D01*
X110551837Y-91986838D02*
X110408980Y-91939219D01*
X110408980Y-91939219D02*
X110313742Y-91939219D01*
X110313742Y-91939219D02*
X110170885Y-91986838D01*
X110170885Y-91986838D02*
X110123266Y-92034457D01*
X109789932Y-91939219D02*
X109170885Y-91939219D01*
X109170885Y-91939219D02*
X109504218Y-92320171D01*
X109504218Y-92320171D02*
X109361361Y-92320171D01*
X109361361Y-92320171D02*
X109266123Y-92367790D01*
X109266123Y-92367790D02*
X109218504Y-92415409D01*
X109218504Y-92415409D02*
X109170885Y-92510647D01*
X109170885Y-92510647D02*
X109170885Y-92748742D01*
X109170885Y-92748742D02*
X109218504Y-92843980D01*
X109218504Y-92843980D02*
X109266123Y-92891600D01*
X109266123Y-92891600D02*
X109361361Y-92939219D01*
X109361361Y-92939219D02*
X109647075Y-92939219D01*
X109647075Y-92939219D02*
X109742313Y-92891600D01*
X109742313Y-92891600D02*
X109789932Y-92843980D01*
X110534694Y-81130419D02*
X110534694Y-80130419D01*
X110534694Y-80130419D02*
X110296599Y-80130419D01*
X110296599Y-80130419D02*
X110153742Y-80178038D01*
X110153742Y-80178038D02*
X110058504Y-80273276D01*
X110058504Y-80273276D02*
X110010885Y-80368514D01*
X110010885Y-80368514D02*
X109963266Y-80558990D01*
X109963266Y-80558990D02*
X109963266Y-80701847D01*
X109963266Y-80701847D02*
X110010885Y-80892323D01*
X110010885Y-80892323D02*
X110058504Y-80987561D01*
X110058504Y-80987561D02*
X110153742Y-81082800D01*
X110153742Y-81082800D02*
X110296599Y-81130419D01*
X110296599Y-81130419D02*
X110534694Y-81130419D01*
X109106123Y-80463752D02*
X109106123Y-81130419D01*
X109344218Y-80082800D02*
X109582313Y-80797085D01*
X109582313Y-80797085D02*
X108963266Y-80797085D01*
X110534694Y-92052419D02*
X110534694Y-91052419D01*
X110534694Y-91052419D02*
X110296599Y-91052419D01*
X110296599Y-91052419D02*
X110153742Y-91100038D01*
X110153742Y-91100038D02*
X110058504Y-91195276D01*
X110058504Y-91195276D02*
X110010885Y-91290514D01*
X110010885Y-91290514D02*
X109963266Y-91480990D01*
X109963266Y-91480990D02*
X109963266Y-91623847D01*
X109963266Y-91623847D02*
X110010885Y-91814323D01*
X110010885Y-91814323D02*
X110058504Y-91909561D01*
X110058504Y-91909561D02*
X110153742Y-92004800D01*
X110153742Y-92004800D02*
X110296599Y-92052419D01*
X110296599Y-92052419D02*
X110534694Y-92052419D01*
X109629932Y-91052419D02*
X109010885Y-91052419D01*
X109010885Y-91052419D02*
X109344218Y-91433371D01*
X109344218Y-91433371D02*
X109201361Y-91433371D01*
X109201361Y-91433371D02*
X109106123Y-91480990D01*
X109106123Y-91480990D02*
X109058504Y-91528609D01*
X109058504Y-91528609D02*
X109010885Y-91623847D01*
X109010885Y-91623847D02*
X109010885Y-91861942D01*
X109010885Y-91861942D02*
X109058504Y-91957180D01*
X109058504Y-91957180D02*
X109106123Y-92004800D01*
X109106123Y-92004800D02*
X109201361Y-92052419D01*
X109201361Y-92052419D02*
X109487075Y-92052419D01*
X109487075Y-92052419D02*
X109582313Y-92004800D01*
X109582313Y-92004800D02*
X109629932Y-91957180D01*
X110412694Y-73307219D02*
X110412694Y-72307219D01*
X110412694Y-72307219D02*
X110174599Y-72307219D01*
X110174599Y-72307219D02*
X110031742Y-72354838D01*
X110031742Y-72354838D02*
X109936504Y-72450076D01*
X109936504Y-72450076D02*
X109888885Y-72545314D01*
X109888885Y-72545314D02*
X109841266Y-72735790D01*
X109841266Y-72735790D02*
X109841266Y-72878647D01*
X109841266Y-72878647D02*
X109888885Y-73069123D01*
X109888885Y-73069123D02*
X109936504Y-73164361D01*
X109936504Y-73164361D02*
X110031742Y-73259600D01*
X110031742Y-73259600D02*
X110174599Y-73307219D01*
X110174599Y-73307219D02*
X110412694Y-73307219D01*
X108984123Y-72307219D02*
X109174599Y-72307219D01*
X109174599Y-72307219D02*
X109269837Y-72354838D01*
X109269837Y-72354838D02*
X109317456Y-72402457D01*
X109317456Y-72402457D02*
X109412694Y-72545314D01*
X109412694Y-72545314D02*
X109460313Y-72735790D01*
X109460313Y-72735790D02*
X109460313Y-73116742D01*
X109460313Y-73116742D02*
X109412694Y-73211980D01*
X109412694Y-73211980D02*
X109365075Y-73259600D01*
X109365075Y-73259600D02*
X109269837Y-73307219D01*
X109269837Y-73307219D02*
X109079361Y-73307219D01*
X109079361Y-73307219D02*
X108984123Y-73259600D01*
X108984123Y-73259600D02*
X108936504Y-73211980D01*
X108936504Y-73211980D02*
X108888885Y-73116742D01*
X108888885Y-73116742D02*
X108888885Y-72878647D01*
X108888885Y-72878647D02*
X108936504Y-72783409D01*
X108936504Y-72783409D02*
X108984123Y-72735790D01*
X108984123Y-72735790D02*
X109079361Y-72688171D01*
X109079361Y-72688171D02*
X109269837Y-72688171D01*
X109269837Y-72688171D02*
X109365075Y-72735790D01*
X109365075Y-72735790D02*
X109412694Y-72783409D01*
X109412694Y-72783409D02*
X109460313Y-72878647D01*
X123832857Y-73137219D02*
X124166190Y-72661028D01*
X124404285Y-73137219D02*
X124404285Y-72137219D01*
X124404285Y-72137219D02*
X124023333Y-72137219D01*
X124023333Y-72137219D02*
X123928095Y-72184838D01*
X123928095Y-72184838D02*
X123880476Y-72232457D01*
X123880476Y-72232457D02*
X123832857Y-72327695D01*
X123832857Y-72327695D02*
X123832857Y-72470552D01*
X123832857Y-72470552D02*
X123880476Y-72565790D01*
X123880476Y-72565790D02*
X123928095Y-72613409D01*
X123928095Y-72613409D02*
X124023333Y-72661028D01*
X124023333Y-72661028D02*
X124404285Y-72661028D01*
X122880476Y-73137219D02*
X123451904Y-73137219D01*
X123166190Y-73137219D02*
X123166190Y-72137219D01*
X123166190Y-72137219D02*
X123261428Y-72280076D01*
X123261428Y-72280076D02*
X123356666Y-72375314D01*
X123356666Y-72375314D02*
X123451904Y-72422933D01*
X122261428Y-72137219D02*
X122166190Y-72137219D01*
X122166190Y-72137219D02*
X122070952Y-72184838D01*
X122070952Y-72184838D02*
X122023333Y-72232457D01*
X122023333Y-72232457D02*
X121975714Y-72327695D01*
X121975714Y-72327695D02*
X121928095Y-72518171D01*
X121928095Y-72518171D02*
X121928095Y-72756266D01*
X121928095Y-72756266D02*
X121975714Y-72946742D01*
X121975714Y-72946742D02*
X122023333Y-73041980D01*
X122023333Y-73041980D02*
X122070952Y-73089600D01*
X122070952Y-73089600D02*
X122166190Y-73137219D01*
X122166190Y-73137219D02*
X122261428Y-73137219D01*
X122261428Y-73137219D02*
X122356666Y-73089600D01*
X122356666Y-73089600D02*
X122404285Y-73041980D01*
X122404285Y-73041980D02*
X122451904Y-72946742D01*
X122451904Y-72946742D02*
X122499523Y-72756266D01*
X122499523Y-72756266D02*
X122499523Y-72518171D01*
X122499523Y-72518171D02*
X122451904Y-72327695D01*
X122451904Y-72327695D02*
X122404285Y-72232457D01*
X122404285Y-72232457D02*
X122356666Y-72184838D01*
X122356666Y-72184838D02*
X122261428Y-72137219D01*
X123832857Y-80757219D02*
X124166190Y-80281028D01*
X124404285Y-80757219D02*
X124404285Y-79757219D01*
X124404285Y-79757219D02*
X124023333Y-79757219D01*
X124023333Y-79757219D02*
X123928095Y-79804838D01*
X123928095Y-79804838D02*
X123880476Y-79852457D01*
X123880476Y-79852457D02*
X123832857Y-79947695D01*
X123832857Y-79947695D02*
X123832857Y-80090552D01*
X123832857Y-80090552D02*
X123880476Y-80185790D01*
X123880476Y-80185790D02*
X123928095Y-80233409D01*
X123928095Y-80233409D02*
X124023333Y-80281028D01*
X124023333Y-80281028D02*
X124404285Y-80281028D01*
X122880476Y-80757219D02*
X123451904Y-80757219D01*
X123166190Y-80757219D02*
X123166190Y-79757219D01*
X123166190Y-79757219D02*
X123261428Y-79900076D01*
X123261428Y-79900076D02*
X123356666Y-79995314D01*
X123356666Y-79995314D02*
X123451904Y-80042933D01*
X122023333Y-80090552D02*
X122023333Y-80757219D01*
X122261428Y-79709600D02*
X122499523Y-80423885D01*
X122499523Y-80423885D02*
X121880476Y-80423885D01*
X110072466Y-77299180D02*
X110120085Y-77346800D01*
X110120085Y-77346800D02*
X110262942Y-77394419D01*
X110262942Y-77394419D02*
X110358180Y-77394419D01*
X110358180Y-77394419D02*
X110501037Y-77346800D01*
X110501037Y-77346800D02*
X110596275Y-77251561D01*
X110596275Y-77251561D02*
X110643894Y-77156323D01*
X110643894Y-77156323D02*
X110691513Y-76965847D01*
X110691513Y-76965847D02*
X110691513Y-76822990D01*
X110691513Y-76822990D02*
X110643894Y-76632514D01*
X110643894Y-76632514D02*
X110596275Y-76537276D01*
X110596275Y-76537276D02*
X110501037Y-76442038D01*
X110501037Y-76442038D02*
X110358180Y-76394419D01*
X110358180Y-76394419D02*
X110262942Y-76394419D01*
X110262942Y-76394419D02*
X110120085Y-76442038D01*
X110120085Y-76442038D02*
X110072466Y-76489657D01*
X109120085Y-77394419D02*
X109691513Y-77394419D01*
X109405799Y-77394419D02*
X109405799Y-76394419D01*
X109405799Y-76394419D02*
X109501037Y-76537276D01*
X109501037Y-76537276D02*
X109596275Y-76632514D01*
X109596275Y-76632514D02*
X109691513Y-76680133D01*
X110534694Y-88547219D02*
X110534694Y-87547219D01*
X110534694Y-87547219D02*
X110296599Y-87547219D01*
X110296599Y-87547219D02*
X110153742Y-87594838D01*
X110153742Y-87594838D02*
X110058504Y-87690076D01*
X110058504Y-87690076D02*
X110010885Y-87785314D01*
X110010885Y-87785314D02*
X109963266Y-87975790D01*
X109963266Y-87975790D02*
X109963266Y-88118647D01*
X109963266Y-88118647D02*
X110010885Y-88309123D01*
X110010885Y-88309123D02*
X110058504Y-88404361D01*
X110058504Y-88404361D02*
X110153742Y-88499600D01*
X110153742Y-88499600D02*
X110296599Y-88547219D01*
X110296599Y-88547219D02*
X110534694Y-88547219D01*
X109058504Y-87547219D02*
X109534694Y-87547219D01*
X109534694Y-87547219D02*
X109582313Y-88023409D01*
X109582313Y-88023409D02*
X109534694Y-87975790D01*
X109534694Y-87975790D02*
X109439456Y-87928171D01*
X109439456Y-87928171D02*
X109201361Y-87928171D01*
X109201361Y-87928171D02*
X109106123Y-87975790D01*
X109106123Y-87975790D02*
X109058504Y-88023409D01*
X109058504Y-88023409D02*
X109010885Y-88118647D01*
X109010885Y-88118647D02*
X109010885Y-88356742D01*
X109010885Y-88356742D02*
X109058504Y-88451980D01*
X109058504Y-88451980D02*
X109106123Y-88499600D01*
X109106123Y-88499600D02*
X109201361Y-88547219D01*
X109201361Y-88547219D02*
X109439456Y-88547219D01*
X109439456Y-88547219D02*
X109534694Y-88499600D01*
X109534694Y-88499600D02*
X109582313Y-88451980D01*
X109894666Y-74174980D02*
X109942285Y-74222600D01*
X109942285Y-74222600D02*
X110085142Y-74270219D01*
X110085142Y-74270219D02*
X110180380Y-74270219D01*
X110180380Y-74270219D02*
X110323237Y-74222600D01*
X110323237Y-74222600D02*
X110418475Y-74127361D01*
X110418475Y-74127361D02*
X110466094Y-74032123D01*
X110466094Y-74032123D02*
X110513713Y-73841647D01*
X110513713Y-73841647D02*
X110513713Y-73698790D01*
X110513713Y-73698790D02*
X110466094Y-73508314D01*
X110466094Y-73508314D02*
X110418475Y-73413076D01*
X110418475Y-73413076D02*
X110323237Y-73317838D01*
X110323237Y-73317838D02*
X110180380Y-73270219D01*
X110180380Y-73270219D02*
X110085142Y-73270219D01*
X110085142Y-73270219D02*
X109942285Y-73317838D01*
X109942285Y-73317838D02*
X109894666Y-73365457D01*
X109037523Y-73270219D02*
X109227999Y-73270219D01*
X109227999Y-73270219D02*
X109323237Y-73317838D01*
X109323237Y-73317838D02*
X109370856Y-73365457D01*
X109370856Y-73365457D02*
X109466094Y-73508314D01*
X109466094Y-73508314D02*
X109513713Y-73698790D01*
X109513713Y-73698790D02*
X109513713Y-74079742D01*
X109513713Y-74079742D02*
X109466094Y-74174980D01*
X109466094Y-74174980D02*
X109418475Y-74222600D01*
X109418475Y-74222600D02*
X109323237Y-74270219D01*
X109323237Y-74270219D02*
X109132761Y-74270219D01*
X109132761Y-74270219D02*
X109037523Y-74222600D01*
X109037523Y-74222600D02*
X108989904Y-74174980D01*
X108989904Y-74174980D02*
X108942285Y-74079742D01*
X108942285Y-74079742D02*
X108942285Y-73841647D01*
X108942285Y-73841647D02*
X108989904Y-73746409D01*
X108989904Y-73746409D02*
X109037523Y-73698790D01*
X109037523Y-73698790D02*
X109132761Y-73651171D01*
X109132761Y-73651171D02*
X109323237Y-73651171D01*
X109323237Y-73651171D02*
X109418475Y-73698790D01*
X109418475Y-73698790D02*
X109466094Y-73746409D01*
X109466094Y-73746409D02*
X109513713Y-73841647D01*
D11*
%TO.C,D1*%
X110715000Y-76776600D02*
X109355000Y-76776600D01*
X110715000Y-77576600D02*
X109355000Y-77576600D01*
X110715000Y-77576600D02*
X110715000Y-76776600D01*
%TO.C,D2*%
X110656600Y-85336400D02*
X109296600Y-85336400D01*
X110656600Y-86136400D02*
X109296600Y-86136400D01*
X110656600Y-86136400D02*
X110656600Y-85336400D01*
%TO.C,C2*%
X110064436Y-83954000D02*
X109848764Y-83954000D01*
X110064436Y-84674000D02*
X109848764Y-84674000D01*
%TO.C,R12*%
X123343641Y-73672400D02*
X123036359Y-73672400D01*
X123343641Y-74432400D02*
X123036359Y-74432400D01*
%TO.C,C4*%
X110064436Y-80017000D02*
X109848764Y-80017000D01*
X110064436Y-80737000D02*
X109848764Y-80737000D01*
%TO.C,R13*%
X123343641Y-76212400D02*
X123036359Y-76212400D01*
X123343641Y-76972400D02*
X123036359Y-76972400D01*
%TO.C,C5*%
X110064436Y-87459200D02*
X109848764Y-87459200D01*
X110064436Y-88179200D02*
X109848764Y-88179200D01*
%TO.C,C3*%
X110064436Y-90964400D02*
X109848764Y-90964400D01*
X110064436Y-91684400D02*
X109848764Y-91684400D01*
%TO.C,D4*%
X110656600Y-81475600D02*
X109296600Y-81475600D01*
X110656600Y-82275600D02*
X109296600Y-82275600D01*
X110656600Y-82275600D02*
X110656600Y-81475600D01*
%TO.C,D3*%
X110656600Y-92397600D02*
X109296600Y-92397600D01*
X110656600Y-93197600D02*
X109296600Y-93197600D01*
X110656600Y-93197600D02*
X110656600Y-92397600D01*
%TO.C,D6*%
X110534600Y-73652400D02*
X109174600Y-73652400D01*
X110534600Y-74452400D02*
X109174600Y-74452400D01*
X110534600Y-74452400D02*
X110534600Y-73652400D01*
%TO.C,R10*%
X123343641Y-71132400D02*
X123036359Y-71132400D01*
X123343641Y-71892400D02*
X123036359Y-71892400D01*
%TO.C,R14*%
X123343641Y-78752400D02*
X123036359Y-78752400D01*
X123343641Y-79512400D02*
X123036359Y-79512400D01*
%TO.C,C1*%
X110013636Y-75419600D02*
X109797964Y-75419600D01*
X110013636Y-76139600D02*
X109797964Y-76139600D01*
%TO.C,D5*%
X110656600Y-88892400D02*
X109296600Y-88892400D01*
X110656600Y-89692400D02*
X109296600Y-89692400D01*
X110656600Y-89692400D02*
X110656600Y-88892400D01*
%TO.C,C6*%
X109835836Y-72295400D02*
X109620164Y-72295400D01*
X109835836Y-73015400D02*
X109620164Y-73015400D01*
%TD*%
M02*
