%TF.GenerationSoftware,KiCad,Pcbnew,8.0.8*%
%TF.CreationDate,2025-03-20T21:36:52-04:00*%
%TF.ProjectId,PCB PUERTA,50434220-5055-4455-9254-412e6b696361,rev?*%
%TF.SameCoordinates,Original*%
%TF.FileFunction,Copper,L2,Bot*%
%TF.FilePolarity,Positive*%
%FSLAX46Y46*%
G04 Gerber Fmt 4.6, Leading zero omitted, Abs format (unit mm)*
G04 Created by KiCad (PCBNEW 8.0.8) date 2025-03-20 21:36:52*
%MOMM*%
%LPD*%
G01*
G04 APERTURE LIST*
G04 Aperture macros list*
%AMRoundRect*
0 Rectangle with rounded corners*
0 $1 Rounding radius*
0 $2 $3 $4 $5 $6 $7 $8 $9 X,Y pos of 4 corners*
0 Add a 4 corners polygon primitive as box body*
4,1,4,$2,$3,$4,$5,$6,$7,$8,$9,$2,$3,0*
0 Add four circle primitives for the rounded corners*
1,1,$1+$1,$2,$3*
1,1,$1+$1,$4,$5*
1,1,$1+$1,$6,$7*
1,1,$1+$1,$8,$9*
0 Add four rect primitives between the rounded corners*
20,1,$1+$1,$2,$3,$4,$5,0*
20,1,$1+$1,$4,$5,$6,$7,0*
20,1,$1+$1,$6,$7,$8,$9,0*
20,1,$1+$1,$8,$9,$2,$3,0*%
G04 Aperture macros list end*
%TA.AperFunction,ComponentPad*%
%ADD10R,3.000000X3.000000*%
%TD*%
%TA.AperFunction,ComponentPad*%
%ADD11C,3.000000*%
%TD*%
%TA.AperFunction,ComponentPad*%
%ADD12C,2.400000*%
%TD*%
%TA.AperFunction,ComponentPad*%
%ADD13RoundRect,0.250000X1.000000X-1.000000X1.000000X1.000000X-1.000000X1.000000X-1.000000X-1.000000X0*%
%TD*%
%TA.AperFunction,ComponentPad*%
%ADD14R,2.000000X2.000000*%
%TD*%
%TA.AperFunction,ComponentPad*%
%ADD15C,2.000000*%
%TD*%
%TA.AperFunction,ComponentPad*%
%ADD16R,1.530000X1.530000*%
%TD*%
%TA.AperFunction,ComponentPad*%
%ADD17C,1.530000*%
%TD*%
%TA.AperFunction,SMDPad,CuDef*%
%ADD18RoundRect,0.062500X-0.117500X-0.062500X0.117500X-0.062500X0.117500X0.062500X-0.117500X0.062500X0*%
%TD*%
%TA.AperFunction,SMDPad,CuDef*%
%ADD19RoundRect,0.140000X-0.140000X-0.170000X0.140000X-0.170000X0.140000X0.170000X-0.140000X0.170000X0*%
%TD*%
%TA.AperFunction,SMDPad,CuDef*%
%ADD20RoundRect,0.135000X-0.135000X-0.185000X0.135000X-0.185000X0.135000X0.185000X-0.135000X0.185000X0*%
%TD*%
%TA.AperFunction,ViaPad*%
%ADD21C,0.600000*%
%TD*%
%TA.AperFunction,Conductor*%
%ADD22C,0.508000*%
%TD*%
%TA.AperFunction,Conductor*%
%ADD23C,0.254000*%
%TD*%
G04 APERTURE END LIST*
D10*
%TO.P,J7,1,Pin_1*%
%TO.N,+5V*%
X157175200Y-131318000D03*
D11*
%TO.P,J7,2,Pin_2*%
%TO.N,Net-(J7-Pin_2)*%
X152095200Y-131318000D03*
%TD*%
D10*
%TO.P,J4,1,Pin_1*%
%TO.N,GND*%
X103221800Y-131593600D03*
D11*
%TO.P,J4,2,Pin_2*%
%TO.N,PP*%
X108301800Y-131593600D03*
%TD*%
D12*
%TO.P,K1,11*%
%TO.N,MO1*%
X141761600Y-97087500D03*
%TO.P,K1,12*%
%TO.N,+12V*%
X155961600Y-91087500D03*
%TO.P,K1,14*%
%TO.N,RefCorriente*%
X155961600Y-103087500D03*
D13*
%TO.P,K1,A1*%
%TO.N,+12V*%
X143761600Y-103087500D03*
D12*
%TO.P,K1,A2*%
%TO.N,Net-(U2-COLLECTOR)*%
X143761600Y-91087500D03*
%TD*%
D14*
%TO.P,BZ1,1,+*%
%TO.N,+5V*%
X109118400Y-119452400D03*
D15*
%TO.P,BZ1,2,-*%
%TO.N,Net-(BZ1--)*%
X109118400Y-114452400D03*
%TD*%
D16*
%TO.P,U1,1,3V3*%
%TO.N,unconnected-(U1-3V3-Pad1)*%
X102920800Y-66432400D03*
D17*
%TO.P,U1,2,GND*%
%TO.N,GND*%
X102920800Y-68972400D03*
%TO.P,U1,3,D15*%
%TO.N,unconnected-(U1-D15-Pad3)*%
X102920800Y-71512400D03*
%TO.P,U1,4,D2*%
%TO.N,LSC*%
X102920800Y-74052400D03*
%TO.P,U1,5,D4*%
%TO.N,LSA*%
X102920800Y-76592400D03*
%TO.P,U1,6,RX2*%
%TO.N,unconnected-(U1-RX2-Pad6)*%
X102920800Y-79132400D03*
%TO.P,U1,7,TX2*%
%TO.N,unconnected-(U1-TX2-Pad7)*%
X102920800Y-81672400D03*
%TO.P,U1,8,D5*%
%TO.N,FTC*%
X102920800Y-84212400D03*
%TO.P,U1,9,D18*%
%TO.N,KEYA*%
X102920800Y-86752400D03*
%TO.P,U1,10,D19*%
%TO.N,KEYC*%
X102920800Y-89292400D03*
%TO.P,U1,11,D21*%
%TO.N,PP*%
X102920800Y-91832400D03*
%TO.P,U1,12,RX0*%
%TO.N,unconnected-(U1-RX0-Pad12)*%
X102920800Y-94372400D03*
%TO.P,U1,13,TX0*%
%TO.N,unconnected-(U1-TX0-Pad13)*%
X102920800Y-96912400D03*
%TO.P,U1,14,D22*%
%TO.N,unconnected-(U1-D22-Pad14)*%
X102920800Y-99452400D03*
%TO.P,U1,15,D23*%
%TO.N,unconnected-(U1-D23-Pad15)*%
X102920800Y-101992400D03*
%TO.P,U1,16,EN*%
%TO.N,unconnected-(U1-EN-Pad16)*%
X128320800Y-101992400D03*
%TO.P,U1,17,VP*%
%TO.N,unconnected-(U1-VP-Pad17)*%
X128320800Y-99452400D03*
%TO.P,U1,18,VN*%
%TO.N,unconnected-(U1-VN-Pad18)*%
X128320800Y-96912400D03*
%TO.P,U1,19,D34*%
%TO.N,BUZZER*%
X128320800Y-94372400D03*
%TO.P,U1,20,D35*%
%TO.N,unconnected-(U1-D35-Pad20)*%
X128320800Y-91832400D03*
%TO.P,U1,21,D32*%
%TO.N,LAMP*%
X128320800Y-89292400D03*
%TO.P,U1,22,D33*%
%TO.N,Net-(U1-D33)*%
X128320800Y-86752400D03*
%TO.P,U1,23,D25*%
%TO.N,MC*%
X128320800Y-84212400D03*
%TO.P,U1,24,D26*%
%TO.N,MA*%
X128320800Y-81672400D03*
%TO.P,U1,25,D27*%
%TO.N,Net-(U1-D27)*%
X128320800Y-79132400D03*
%TO.P,U1,26,D14*%
%TO.N,Net-(U1-D14)*%
X128320800Y-76592400D03*
%TO.P,U1,27,D12*%
%TO.N,Net-(U1-D12)*%
X128320800Y-74052400D03*
%TO.P,U1,28,D13*%
%TO.N,Net-(U1-D13)*%
X128320800Y-71512400D03*
%TO.P,U1,29,GND*%
%TO.N,unconnected-(U1-GND-Pad29)*%
X128320800Y-68972400D03*
%TO.P,U1,30,VIN*%
%TO.N,+5V*%
X128320800Y-66432400D03*
%TD*%
D10*
%TO.P,J5,1,Pin_1*%
%TO.N,GND*%
X134032000Y-131593600D03*
D11*
%TO.P,J5,2,Pin_2*%
%TO.N,+12V*%
X128952000Y-131593600D03*
%TO.P,J5,3,Pin_3*%
%TO.N,+5V*%
X123872000Y-131593600D03*
%TO.P,J5,4,Pin_4*%
%TO.N,+3.3V*%
X118792000Y-131593600D03*
%TD*%
D10*
%TO.P,J6,1,Pin_1*%
%TO.N,MO1*%
X151587200Y-80340200D03*
D11*
%TO.P,J6,2,Pin_2*%
%TO.N,MO2*%
X156667200Y-80340200D03*
%TD*%
D12*
%TO.P,K2,11*%
%TO.N,MO2*%
X141891000Y-116337600D03*
%TO.P,K2,12*%
%TO.N,+12V*%
X156091000Y-110337600D03*
%TO.P,K2,14*%
%TO.N,RefCorriente*%
X156091000Y-122337600D03*
D13*
%TO.P,K2,A1*%
%TO.N,+12V*%
X143891000Y-122337600D03*
D12*
%TO.P,K2,A2*%
%TO.N,Net-(U6-COLLECTOR)*%
X143891000Y-110337600D03*
%TD*%
D10*
%TO.P,J1,1,Pin_1*%
%TO.N,LSC*%
X91520000Y-89001600D03*
D11*
%TO.P,J1,2,Pin_2*%
%TO.N,GND*%
X91520000Y-83921600D03*
%TO.P,J1,3,Pin_3*%
%TO.N,LSA*%
X91520000Y-78841600D03*
%TD*%
D10*
%TO.P,J2,1,Pin_1*%
%TO.N,KEYC*%
X91465400Y-109648000D03*
D11*
%TO.P,J2,2,Pin_2*%
%TO.N,GND*%
X91465400Y-104568000D03*
%TO.P,J2,3,Pin_3*%
%TO.N,KEYA*%
X91465400Y-99488000D03*
%TD*%
D10*
%TO.P,J3,1,Pin_1*%
%TO.N,GND*%
X91520000Y-120138200D03*
D11*
%TO.P,J3,2,Pin_2*%
%TO.N,FTC*%
X91520000Y-125218200D03*
%TO.P,J3,3,Pin_3*%
%TO.N,+5V*%
X91520000Y-130298200D03*
%TD*%
D18*
%TO.P,D1,1,A1*%
%TO.N,GND*%
X110275000Y-77176600D03*
%TO.P,D1,2,A2*%
%TO.N,LSA*%
X109435000Y-77176600D03*
%TD*%
%TO.P,D2,1,A1*%
%TO.N,GND*%
X110216600Y-85736400D03*
%TO.P,D2,2,A2*%
%TO.N,KEYA*%
X109376600Y-85736400D03*
%TD*%
D19*
%TO.P,C2,1*%
%TO.N,KEYA*%
X109476600Y-84314000D03*
%TO.P,C2,2*%
%TO.N,GND*%
X110436600Y-84314000D03*
%TD*%
D20*
%TO.P,R12,1*%
%TO.N,+3.3V*%
X122680000Y-74052400D03*
%TO.P,R12,2*%
%TO.N,Net-(U1-D12)*%
X123700000Y-74052400D03*
%TD*%
D19*
%TO.P,C4,1*%
%TO.N,FTC*%
X109476600Y-80377000D03*
%TO.P,C4,2*%
%TO.N,GND*%
X110436600Y-80377000D03*
%TD*%
D20*
%TO.P,R13,1*%
%TO.N,+3.3V*%
X122680000Y-76592400D03*
%TO.P,R13,2*%
%TO.N,Net-(U1-D14)*%
X123700000Y-76592400D03*
%TD*%
D19*
%TO.P,C5,1*%
%TO.N,KEYC*%
X109476600Y-87819200D03*
%TO.P,C5,2*%
%TO.N,GND*%
X110436600Y-87819200D03*
%TD*%
%TO.P,C3,1*%
%TO.N,PP*%
X109476600Y-91324400D03*
%TO.P,C3,2*%
%TO.N,GND*%
X110436600Y-91324400D03*
%TD*%
D18*
%TO.P,D4,1,A1*%
%TO.N,GND*%
X110216600Y-81875600D03*
%TO.P,D4,2,A2*%
%TO.N,FTC*%
X109376600Y-81875600D03*
%TD*%
%TO.P,D3,1,A1*%
%TO.N,GND*%
X110216600Y-92797600D03*
%TO.P,D3,2,A2*%
%TO.N,PP*%
X109376600Y-92797600D03*
%TD*%
%TO.P,D6,1,A1*%
%TO.N,GND*%
X110094600Y-74052400D03*
%TO.P,D6,2,A2*%
%TO.N,LSC*%
X109254600Y-74052400D03*
%TD*%
D20*
%TO.P,R10,1*%
%TO.N,+3.3V*%
X122680000Y-71512400D03*
%TO.P,R10,2*%
%TO.N,Net-(U1-D13)*%
X123700000Y-71512400D03*
%TD*%
%TO.P,R14,1*%
%TO.N,+3.3V*%
X122680000Y-79132400D03*
%TO.P,R14,2*%
%TO.N,Net-(U1-D27)*%
X123700000Y-79132400D03*
%TD*%
D19*
%TO.P,C1,1*%
%TO.N,LSA*%
X109425800Y-75779600D03*
%TO.P,C1,2*%
%TO.N,GND*%
X110385800Y-75779600D03*
%TD*%
D18*
%TO.P,D5,1,A1*%
%TO.N,GND*%
X110216600Y-89292400D03*
%TO.P,D5,2,A2*%
%TO.N,KEYC*%
X109376600Y-89292400D03*
%TD*%
D19*
%TO.P,C6,1*%
%TO.N,LSC*%
X109248000Y-72655400D03*
%TO.P,C6,2*%
%TO.N,GND*%
X110208000Y-72655400D03*
%TD*%
D21*
%TO.N,+5V*%
X140639800Y-81178400D03*
%TO.N,GND*%
X132232400Y-88341200D03*
X120269000Y-127736600D03*
X132638800Y-84607400D03*
%TO.N,+3.3V*%
X108345000Y-71512400D03*
X127939800Y-109982000D03*
%TO.N,MC*%
X130284600Y-119413400D03*
X130284600Y-109016800D03*
%TO.N,RefCorriente*%
X149860000Y-100634800D03*
%TO.N,Net-(U1-D33)*%
X130810000Y-85191600D03*
%TD*%
D22*
%TO.N,+5V*%
X135763000Y-86055200D02*
X140639800Y-81178400D01*
X123872000Y-131593600D02*
X131038600Y-124427000D01*
X131038600Y-124427000D02*
X131038600Y-86055200D01*
X131038600Y-86055200D02*
X135763000Y-86055200D01*
%TO.N,LSC*%
X102895400Y-74077800D02*
X102920800Y-74052400D01*
D23*
X102920800Y-74052400D02*
X109254600Y-74052400D01*
X109248000Y-72655400D02*
X109248000Y-74045800D01*
X109248000Y-74045800D02*
X109254600Y-74052400D01*
%TO.N,LSA*%
X109425800Y-75779600D02*
X109425800Y-76581000D01*
X93769200Y-76592400D02*
X102920800Y-76592400D01*
X109414400Y-76592400D02*
X109425800Y-76581000D01*
X102920800Y-76592400D02*
X109414400Y-76592400D01*
X91520000Y-78841600D02*
X93769200Y-76592400D01*
X109425800Y-76581000D02*
X109425800Y-77167400D01*
X109425800Y-77167400D02*
X109435000Y-77176600D01*
%TO.N,KEYA*%
X103936800Y-85736400D02*
X102920800Y-86752400D01*
X109376600Y-85736400D02*
X109376600Y-84414000D01*
X91465400Y-99488000D02*
X100097600Y-99488000D01*
X100101400Y-99491800D02*
X100101400Y-88138000D01*
X101487000Y-86752400D02*
X102920800Y-86752400D01*
X100097600Y-99488000D02*
X100101400Y-99491800D01*
X100101400Y-88138000D02*
X101487000Y-86752400D01*
X109376600Y-84414000D02*
X109476600Y-84314000D01*
X109376600Y-85736400D02*
X103936800Y-85736400D01*
%TO.N,KEYC*%
X100812600Y-108610400D02*
X100812600Y-91400600D01*
X100812600Y-91400600D02*
X102920800Y-89292400D01*
X109376600Y-89292400D02*
X109376600Y-87919200D01*
X109376600Y-87919200D02*
X109476600Y-87819200D01*
X91494600Y-109677200D02*
X99745800Y-109677200D01*
X99745800Y-109677200D02*
X100812600Y-108610400D01*
X91465400Y-109648000D02*
X91494600Y-109677200D01*
X109376600Y-89292400D02*
X102920800Y-89292400D01*
%TO.N,FTC*%
X109376600Y-80477000D02*
X109476600Y-80377000D01*
X109376600Y-81875600D02*
X109376600Y-80477000D01*
X105257600Y-81875600D02*
X102920800Y-84212400D01*
X109376600Y-81875600D02*
X105257600Y-81875600D01*
%TO.N,PP*%
X109376600Y-92797600D02*
X109376600Y-91424400D01*
X103886000Y-92797600D02*
X102920800Y-91832400D01*
X109376600Y-91424400D02*
X109476600Y-91324400D01*
X109376600Y-92797600D02*
X103886000Y-92797600D01*
D22*
%TO.N,MO1*%
X141761600Y-97087500D02*
X146701700Y-97087500D01*
X151587200Y-92151200D02*
X151587200Y-80340200D01*
X146701700Y-97087500D02*
X151612600Y-92176600D01*
X151612600Y-92176600D02*
X151587200Y-92151200D01*
%TO.N,+12V*%
X156091000Y-110337600D02*
X144091000Y-122337600D01*
X143961600Y-103087500D02*
X143761600Y-103087500D01*
X148840900Y-103087500D02*
X156091000Y-110337600D01*
X155961600Y-91087500D02*
X143961600Y-103087500D01*
X143891000Y-122337600D02*
X143891000Y-125145800D01*
X135399800Y-125145800D02*
X128952000Y-131593600D01*
X143891000Y-125145800D02*
X135399800Y-125145800D01*
X144091000Y-122337600D02*
X143891000Y-122337600D01*
X143761600Y-103087500D02*
X148840900Y-103087500D01*
%TO.N,+3.3V*%
X122680000Y-109855000D02*
X122680000Y-79132400D01*
D23*
X122807000Y-109982000D02*
X122680000Y-109855000D01*
D22*
X122680000Y-79132400D02*
X122680000Y-71512400D01*
X122680000Y-127705600D02*
X122680000Y-109855000D01*
X122680000Y-71512400D02*
X108345000Y-71512400D01*
X118792000Y-131593600D02*
X122680000Y-127705600D01*
X108331000Y-71526400D02*
X108345000Y-71512400D01*
D23*
X127939800Y-109982000D02*
X122807000Y-109982000D01*
%TO.N,Net-(U1-D13)*%
X123700000Y-71512400D02*
X128320800Y-71512400D01*
%TO.N,Net-(U1-D12)*%
X123700000Y-74052400D02*
X128320800Y-74052400D01*
%TO.N,Net-(U1-D14)*%
X123700000Y-76592400D02*
X128320800Y-76592400D01*
%TO.N,Net-(U1-D27)*%
X123700000Y-79132400D02*
X128320800Y-79132400D01*
%TO.N,MC*%
X130284600Y-109016800D02*
X130284600Y-119413400D01*
D22*
%TO.N,RefCorriente*%
X155961600Y-103087500D02*
X152312700Y-103087500D01*
X152312700Y-103087500D02*
X149860000Y-100634800D01*
D23*
%TO.N,Net-(U1-D33)*%
X129881600Y-85191600D02*
X130810000Y-85191600D01*
X128320800Y-86752400D02*
X129881600Y-85191600D01*
%TD*%
%TA.AperFunction,Conductor*%
%TO.N,GND*%
G36*
X161442539Y-58898385D02*
G01*
X161488294Y-58951189D01*
X161499500Y-59002700D01*
X161499500Y-137375500D01*
X161479815Y-137442539D01*
X161427011Y-137488294D01*
X161375500Y-137499500D01*
X85624500Y-137499500D01*
X85557461Y-137479815D01*
X85511706Y-137427011D01*
X85500500Y-137375500D01*
X85500500Y-130298198D01*
X89514390Y-130298198D01*
X89514390Y-130298201D01*
X89534804Y-130583633D01*
X89595628Y-130863237D01*
X89595630Y-130863243D01*
X89595631Y-130863246D01*
X89695633Y-131131361D01*
X89695635Y-131131366D01*
X89832770Y-131382509D01*
X89832775Y-131382517D01*
X90004254Y-131611587D01*
X90004270Y-131611605D01*
X90206594Y-131813929D01*
X90206612Y-131813945D01*
X90435682Y-131985424D01*
X90435690Y-131985429D01*
X90686833Y-132122564D01*
X90686832Y-132122564D01*
X90686836Y-132122565D01*
X90686839Y-132122567D01*
X90954954Y-132222569D01*
X90954960Y-132222570D01*
X90954962Y-132222571D01*
X91234566Y-132283395D01*
X91234568Y-132283395D01*
X91234572Y-132283396D01*
X91488220Y-132301537D01*
X91519999Y-132303810D01*
X91520000Y-132303810D01*
X91520001Y-132303810D01*
X91548595Y-132301764D01*
X91805428Y-132283396D01*
X92085046Y-132222569D01*
X92353161Y-132122567D01*
X92604315Y-131985426D01*
X92833395Y-131813939D01*
X93035739Y-131611595D01*
X93207226Y-131382515D01*
X93344367Y-131131361D01*
X93444369Y-130863246D01*
X93444371Y-130863237D01*
X93505195Y-130583633D01*
X93505195Y-130583632D01*
X93505196Y-130583628D01*
X93525610Y-130298200D01*
X93524323Y-130280212D01*
X93520996Y-130233682D01*
X93507555Y-130045755D01*
X101221800Y-130045755D01*
X101221800Y-131343600D01*
X102502736Y-131343600D01*
X102491007Y-131371916D01*
X102461800Y-131518747D01*
X102461800Y-131668453D01*
X102491007Y-131815284D01*
X102502736Y-131843600D01*
X101221800Y-131843600D01*
X101221800Y-133141444D01*
X101228201Y-133200972D01*
X101228203Y-133200979D01*
X101278445Y-133335686D01*
X101278449Y-133335693D01*
X101364609Y-133450787D01*
X101364612Y-133450790D01*
X101479706Y-133536950D01*
X101479713Y-133536954D01*
X101614420Y-133587196D01*
X101614427Y-133587198D01*
X101673955Y-133593599D01*
X101673972Y-133593600D01*
X102971800Y-133593600D01*
X102971800Y-132312664D01*
X103000116Y-132324393D01*
X103146947Y-132353600D01*
X103296653Y-132353600D01*
X103443484Y-132324393D01*
X103471800Y-132312664D01*
X103471800Y-133593600D01*
X104769628Y-133593600D01*
X104769644Y-133593599D01*
X104829172Y-133587198D01*
X104829179Y-133587196D01*
X104963886Y-133536954D01*
X104963893Y-133536950D01*
X105078987Y-133450790D01*
X105078990Y-133450787D01*
X105165150Y-133335693D01*
X105165154Y-133335686D01*
X105215396Y-133200979D01*
X105215398Y-133200972D01*
X105221799Y-133141444D01*
X105221800Y-133141427D01*
X105221800Y-131843600D01*
X103940864Y-131843600D01*
X103952593Y-131815284D01*
X103981800Y-131668453D01*
X103981800Y-131593598D01*
X106296190Y-131593598D01*
X106296190Y-131593601D01*
X106316604Y-131879033D01*
X106377428Y-132158637D01*
X106377430Y-132158643D01*
X106377431Y-132158646D01*
X106431575Y-132303810D01*
X106477435Y-132426766D01*
X106614570Y-132677909D01*
X106614575Y-132677917D01*
X106786054Y-132906987D01*
X106786070Y-132907005D01*
X106988394Y-133109329D01*
X106988412Y-133109345D01*
X107217482Y-133280824D01*
X107217490Y-133280829D01*
X107468633Y-133417964D01*
X107468632Y-133417964D01*
X107468636Y-133417965D01*
X107468639Y-133417967D01*
X107736754Y-133517969D01*
X107736760Y-133517970D01*
X107736762Y-133517971D01*
X108016366Y-133578795D01*
X108016368Y-133578795D01*
X108016372Y-133578796D01*
X108270020Y-133596937D01*
X108301799Y-133599210D01*
X108301800Y-133599210D01*
X108301801Y-133599210D01*
X108330395Y-133597164D01*
X108587228Y-133578796D01*
X108866846Y-133517969D01*
X109134961Y-133417967D01*
X109386115Y-133280826D01*
X109615195Y-133109339D01*
X109817539Y-132906995D01*
X109989026Y-132677915D01*
X110126167Y-132426761D01*
X110226169Y-132158646D01*
X110227797Y-132151161D01*
X110286995Y-131879033D01*
X110286995Y-131879032D01*
X110286996Y-131879028D01*
X110307410Y-131593600D01*
X110286996Y-131308172D01*
X110248534Y-131131366D01*
X110226171Y-131028562D01*
X110226170Y-131028560D01*
X110226169Y-131028554D01*
X110126167Y-130760439D01*
X110122084Y-130752962D01*
X109989029Y-130509290D01*
X109989024Y-130509282D01*
X109817545Y-130280212D01*
X109817529Y-130280194D01*
X109615205Y-130077870D01*
X109615187Y-130077854D01*
X109386117Y-129906375D01*
X109386109Y-129906370D01*
X109134966Y-129769235D01*
X109134967Y-129769235D01*
X109018435Y-129725771D01*
X108866846Y-129669231D01*
X108866843Y-129669230D01*
X108866837Y-129669228D01*
X108587233Y-129608404D01*
X108301801Y-129587990D01*
X108301799Y-129587990D01*
X108016366Y-129608404D01*
X107736762Y-129669228D01*
X107468633Y-129769235D01*
X107217490Y-129906370D01*
X107217482Y-129906375D01*
X106988412Y-130077854D01*
X106988394Y-130077870D01*
X106786070Y-130280194D01*
X106786054Y-130280212D01*
X106614575Y-130509282D01*
X106614570Y-130509290D01*
X106477435Y-130760433D01*
X106377428Y-131028562D01*
X106316604Y-131308166D01*
X106296190Y-131593598D01*
X103981800Y-131593598D01*
X103981800Y-131518747D01*
X103952593Y-131371916D01*
X103940864Y-131343600D01*
X105221800Y-131343600D01*
X105221800Y-130045772D01*
X105221799Y-130045755D01*
X105215398Y-129986227D01*
X105215396Y-129986220D01*
X105165154Y-129851513D01*
X105165150Y-129851506D01*
X105078990Y-129736412D01*
X105078987Y-129736409D01*
X104963893Y-129650249D01*
X104963886Y-129650245D01*
X104829179Y-129600003D01*
X104829172Y-129600001D01*
X104769644Y-129593600D01*
X103471800Y-129593600D01*
X103471800Y-130874535D01*
X103443484Y-130862807D01*
X103296653Y-130833600D01*
X103146947Y-130833600D01*
X103000116Y-130862807D01*
X102971800Y-130874535D01*
X102971800Y-129593600D01*
X101673955Y-129593600D01*
X101614427Y-129600001D01*
X101614420Y-129600003D01*
X101479713Y-129650245D01*
X101479706Y-129650249D01*
X101364612Y-129736409D01*
X101364609Y-129736412D01*
X101278449Y-129851506D01*
X101278445Y-129851513D01*
X101228203Y-129986220D01*
X101228201Y-129986227D01*
X101221800Y-130045755D01*
X93507555Y-130045755D01*
X93505196Y-130012772D01*
X93503419Y-130004605D01*
X93444371Y-129733162D01*
X93444370Y-129733160D01*
X93444369Y-129733154D01*
X93344367Y-129465039D01*
X93341863Y-129460454D01*
X93207229Y-129213890D01*
X93207224Y-129213882D01*
X93035745Y-128984812D01*
X93035729Y-128984794D01*
X92833405Y-128782470D01*
X92833387Y-128782454D01*
X92604317Y-128610975D01*
X92604309Y-128610970D01*
X92353166Y-128473835D01*
X92353167Y-128473835D01*
X92245915Y-128433832D01*
X92085046Y-128373831D01*
X92085043Y-128373830D01*
X92085037Y-128373828D01*
X91805433Y-128313004D01*
X91520001Y-128292590D01*
X91519999Y-128292590D01*
X91234566Y-128313004D01*
X90954962Y-128373828D01*
X90686833Y-128473835D01*
X90435690Y-128610970D01*
X90435682Y-128610975D01*
X90206612Y-128782454D01*
X90206594Y-128782470D01*
X90004270Y-128984794D01*
X90004254Y-128984812D01*
X89832775Y-129213882D01*
X89832770Y-129213890D01*
X89695635Y-129465033D01*
X89595628Y-129733162D01*
X89534804Y-130012766D01*
X89514390Y-130298198D01*
X85500500Y-130298198D01*
X85500500Y-125218198D01*
X89514390Y-125218198D01*
X89514390Y-125218201D01*
X89534804Y-125503633D01*
X89595628Y-125783237D01*
X89595630Y-125783243D01*
X89595631Y-125783246D01*
X89695633Y-126051361D01*
X89695635Y-126051366D01*
X89832770Y-126302509D01*
X89832775Y-126302517D01*
X90004254Y-126531587D01*
X90004270Y-126531605D01*
X90206594Y-126733929D01*
X90206612Y-126733945D01*
X90435682Y-126905424D01*
X90435690Y-126905429D01*
X90686833Y-127042564D01*
X90686832Y-127042564D01*
X90686836Y-127042565D01*
X90686839Y-127042567D01*
X90954954Y-127142569D01*
X90954960Y-127142570D01*
X90954962Y-127142571D01*
X91234566Y-127203395D01*
X91234568Y-127203395D01*
X91234572Y-127203396D01*
X91488220Y-127221537D01*
X91519999Y-127223810D01*
X91520000Y-127223810D01*
X91520001Y-127223810D01*
X91548595Y-127221764D01*
X91805428Y-127203396D01*
X92085046Y-127142569D01*
X92353161Y-127042567D01*
X92604315Y-126905426D01*
X92833395Y-126733939D01*
X93035739Y-126531595D01*
X93207226Y-126302515D01*
X93344367Y-126051361D01*
X93444369Y-125783246D01*
X93478409Y-125626766D01*
X93505195Y-125503633D01*
X93505195Y-125503632D01*
X93505196Y-125503628D01*
X93525610Y-125218200D01*
X93505196Y-124932772D01*
X93499800Y-124907968D01*
X93444371Y-124653162D01*
X93444370Y-124653160D01*
X93444369Y-124653154D01*
X93344367Y-124385039D01*
X93323897Y-124347552D01*
X93207229Y-124133890D01*
X93207224Y-124133882D01*
X93035745Y-123904812D01*
X93035729Y-123904794D01*
X92833405Y-123702470D01*
X92833387Y-123702454D01*
X92604317Y-123530975D01*
X92604309Y-123530970D01*
X92353166Y-123393835D01*
X92353167Y-123393835D01*
X92245915Y-123353832D01*
X92085046Y-123293831D01*
X92085043Y-123293830D01*
X92085037Y-123293828D01*
X91805433Y-123233004D01*
X91520001Y-123212590D01*
X91519999Y-123212590D01*
X91234566Y-123233004D01*
X90954962Y-123293828D01*
X90686833Y-123393835D01*
X90435690Y-123530970D01*
X90435682Y-123530975D01*
X90206612Y-123702454D01*
X90206594Y-123702470D01*
X90004270Y-123904794D01*
X90004254Y-123904812D01*
X89832775Y-124133882D01*
X89832770Y-124133890D01*
X89695635Y-124385033D01*
X89595628Y-124653162D01*
X89534804Y-124932766D01*
X89514390Y-125218198D01*
X85500500Y-125218198D01*
X85500500Y-118590355D01*
X89520000Y-118590355D01*
X89520000Y-119888200D01*
X90800936Y-119888200D01*
X90789207Y-119916516D01*
X90760000Y-120063347D01*
X90760000Y-120213053D01*
X90789207Y-120359884D01*
X90800936Y-120388200D01*
X89520000Y-120388200D01*
X89520000Y-121686044D01*
X89526401Y-121745572D01*
X89526403Y-121745579D01*
X89576645Y-121880286D01*
X89576649Y-121880293D01*
X89662809Y-121995387D01*
X89662812Y-121995390D01*
X89777906Y-122081550D01*
X89777913Y-122081554D01*
X89912620Y-122131796D01*
X89912627Y-122131798D01*
X89972155Y-122138199D01*
X89972172Y-122138200D01*
X91270000Y-122138200D01*
X91270000Y-120857264D01*
X91298316Y-120868993D01*
X91445147Y-120898200D01*
X91594853Y-120898200D01*
X91741684Y-120868993D01*
X91770000Y-120857264D01*
X91770000Y-122138200D01*
X93067828Y-122138200D01*
X93067844Y-122138199D01*
X93127372Y-122131798D01*
X93127379Y-122131796D01*
X93262086Y-122081554D01*
X93262093Y-122081550D01*
X93377187Y-121995390D01*
X93377190Y-121995387D01*
X93463350Y-121880293D01*
X93463354Y-121880286D01*
X93513596Y-121745579D01*
X93513598Y-121745572D01*
X93519999Y-121686044D01*
X93520000Y-121686027D01*
X93520000Y-120388200D01*
X92239064Y-120388200D01*
X92250793Y-120359884D01*
X92280000Y-120213053D01*
X92280000Y-120063347D01*
X92250793Y-119916516D01*
X92239064Y-119888200D01*
X93520000Y-119888200D01*
X93520000Y-118590372D01*
X93519999Y-118590355D01*
X93513598Y-118530827D01*
X93513596Y-118530820D01*
X93466495Y-118404535D01*
X107617900Y-118404535D01*
X107617900Y-120500270D01*
X107617901Y-120500276D01*
X107624308Y-120559883D01*
X107674602Y-120694728D01*
X107674606Y-120694735D01*
X107760852Y-120809944D01*
X107760855Y-120809947D01*
X107876064Y-120896193D01*
X107876071Y-120896197D01*
X108010917Y-120946491D01*
X108010916Y-120946491D01*
X108017844Y-120947235D01*
X108070527Y-120952900D01*
X110166272Y-120952899D01*
X110225883Y-120946491D01*
X110360731Y-120896196D01*
X110475946Y-120809946D01*
X110562196Y-120694731D01*
X110612491Y-120559883D01*
X110618900Y-120500273D01*
X110618899Y-118404528D01*
X110612491Y-118344917D01*
X110562196Y-118210069D01*
X110562195Y-118210068D01*
X110562193Y-118210064D01*
X110475947Y-118094855D01*
X110475944Y-118094852D01*
X110360735Y-118008606D01*
X110360728Y-118008602D01*
X110225882Y-117958308D01*
X110225883Y-117958308D01*
X110166283Y-117951901D01*
X110166281Y-117951900D01*
X110166273Y-117951900D01*
X110166264Y-117951900D01*
X108070529Y-117951900D01*
X108070523Y-117951901D01*
X108010916Y-117958308D01*
X107876071Y-118008602D01*
X107876064Y-118008606D01*
X107760855Y-118094852D01*
X107760852Y-118094855D01*
X107674606Y-118210064D01*
X107674602Y-118210071D01*
X107624308Y-118344917D01*
X107617901Y-118404516D01*
X107617901Y-118404523D01*
X107617900Y-118404535D01*
X93466495Y-118404535D01*
X93463354Y-118396113D01*
X93463350Y-118396106D01*
X93377190Y-118281012D01*
X93377187Y-118281009D01*
X93262093Y-118194849D01*
X93262086Y-118194845D01*
X93127379Y-118144603D01*
X93127372Y-118144601D01*
X93067844Y-118138200D01*
X91770000Y-118138200D01*
X91770000Y-119419135D01*
X91741684Y-119407407D01*
X91594853Y-119378200D01*
X91445147Y-119378200D01*
X91298316Y-119407407D01*
X91270000Y-119419135D01*
X91270000Y-118138200D01*
X89972155Y-118138200D01*
X89912627Y-118144601D01*
X89912620Y-118144603D01*
X89777913Y-118194845D01*
X89777906Y-118194849D01*
X89662812Y-118281009D01*
X89662809Y-118281012D01*
X89576649Y-118396106D01*
X89576645Y-118396113D01*
X89526403Y-118530820D01*
X89526401Y-118530827D01*
X89520000Y-118590355D01*
X85500500Y-118590355D01*
X85500500Y-114452394D01*
X107612757Y-114452394D01*
X107612757Y-114452405D01*
X107633290Y-114700212D01*
X107633292Y-114700224D01*
X107694336Y-114941281D01*
X107794226Y-115169006D01*
X107930233Y-115377182D01*
X107930236Y-115377185D01*
X108098656Y-115560138D01*
X108294891Y-115712874D01*
X108513590Y-115831228D01*
X108748786Y-115911971D01*
X108994065Y-115952900D01*
X109242735Y-115952900D01*
X109488014Y-115911971D01*
X109723210Y-115831228D01*
X109941909Y-115712874D01*
X110138144Y-115560138D01*
X110306564Y-115377185D01*
X110442573Y-115169007D01*
X110542463Y-114941281D01*
X110603508Y-114700221D01*
X110624043Y-114452400D01*
X110603508Y-114204579D01*
X110542463Y-113963519D01*
X110442573Y-113735793D01*
X110306566Y-113527617D01*
X110284957Y-113504144D01*
X110138144Y-113344662D01*
X109941909Y-113191926D01*
X109941907Y-113191925D01*
X109941906Y-113191924D01*
X109723211Y-113073572D01*
X109723202Y-113073569D01*
X109488016Y-112992829D01*
X109242735Y-112951900D01*
X108994065Y-112951900D01*
X108748783Y-112992829D01*
X108513597Y-113073569D01*
X108513588Y-113073572D01*
X108294893Y-113191924D01*
X108098657Y-113344661D01*
X107930233Y-113527617D01*
X107794226Y-113735793D01*
X107694336Y-113963518D01*
X107633292Y-114204575D01*
X107633290Y-114204587D01*
X107612757Y-114452394D01*
X85500500Y-114452394D01*
X85500500Y-104567998D01*
X89460291Y-104567998D01*
X89460291Y-104568001D01*
X89480700Y-104853362D01*
X89541509Y-105132895D01*
X89641491Y-105400958D01*
X89778591Y-105652038D01*
X89778596Y-105652046D01*
X89885282Y-105794562D01*
X89885283Y-105794563D01*
X90780168Y-104899678D01*
X90791897Y-104927995D01*
X90875070Y-105052472D01*
X90980928Y-105158330D01*
X91105405Y-105241503D01*
X91133720Y-105253231D01*
X90238835Y-106148115D01*
X90238836Y-106148116D01*
X90381353Y-106254803D01*
X90381361Y-106254808D01*
X90632442Y-106391908D01*
X90632441Y-106391908D01*
X90900504Y-106491890D01*
X91180037Y-106552699D01*
X91465399Y-106573109D01*
X91465401Y-106573109D01*
X91750762Y-106552699D01*
X92030295Y-106491890D01*
X92298358Y-106391908D01*
X92549438Y-106254808D01*
X92549439Y-106254807D01*
X92691963Y-106148115D01*
X91797079Y-105253231D01*
X91825395Y-105241503D01*
X91949872Y-105158330D01*
X92055730Y-105052472D01*
X92138903Y-104927995D01*
X92150631Y-104899679D01*
X93045515Y-105794563D01*
X93152207Y-105652039D01*
X93152208Y-105652038D01*
X93289308Y-105400958D01*
X93389290Y-105132895D01*
X93450099Y-104853362D01*
X93470509Y-104568001D01*
X93470509Y-104567998D01*
X93450099Y-104282637D01*
X93389290Y-104003104D01*
X93289308Y-103735041D01*
X93152208Y-103483961D01*
X93152203Y-103483953D01*
X93045516Y-103341436D01*
X93045515Y-103341435D01*
X92150631Y-104236320D01*
X92138903Y-104208005D01*
X92055730Y-104083528D01*
X91949872Y-103977670D01*
X91825395Y-103894497D01*
X91797078Y-103882767D01*
X92691963Y-102987883D01*
X92691962Y-102987882D01*
X92549446Y-102881196D01*
X92549438Y-102881191D01*
X92298357Y-102744091D01*
X92298358Y-102744091D01*
X92030295Y-102644109D01*
X91750762Y-102583300D01*
X91465401Y-102562891D01*
X91465399Y-102562891D01*
X91180037Y-102583300D01*
X90900504Y-102644109D01*
X90632441Y-102744091D01*
X90381361Y-102881191D01*
X90381353Y-102881196D01*
X90238835Y-102987882D01*
X91133721Y-103882767D01*
X91105405Y-103894497D01*
X90980928Y-103977670D01*
X90875070Y-104083528D01*
X90791897Y-104208005D01*
X90780168Y-104236321D01*
X89885282Y-103341435D01*
X89778596Y-103483953D01*
X89778591Y-103483961D01*
X89641491Y-103735041D01*
X89541509Y-104003104D01*
X89480700Y-104282637D01*
X89460291Y-104567998D01*
X85500500Y-104567998D01*
X85500500Y-99487998D01*
X89459790Y-99487998D01*
X89459790Y-99488001D01*
X89480204Y-99773433D01*
X89541028Y-100053037D01*
X89541030Y-100053043D01*
X89541031Y-100053046D01*
X89632403Y-100298024D01*
X89641035Y-100321166D01*
X89778170Y-100572309D01*
X89778175Y-100572317D01*
X89949654Y-100801387D01*
X89949670Y-100801405D01*
X90151994Y-101003729D01*
X90152012Y-101003745D01*
X90381082Y-101175224D01*
X90381090Y-101175229D01*
X90632233Y-101312364D01*
X90632232Y-101312364D01*
X90632236Y-101312365D01*
X90632239Y-101312367D01*
X90900354Y-101412369D01*
X90900360Y-101412370D01*
X90900362Y-101412371D01*
X91179966Y-101473195D01*
X91179968Y-101473195D01*
X91179972Y-101473196D01*
X91433620Y-101491337D01*
X91465399Y-101493610D01*
X91465400Y-101493610D01*
X91465401Y-101493610D01*
X91493995Y-101491564D01*
X91750828Y-101473196D01*
X92030446Y-101412369D01*
X92298561Y-101312367D01*
X92549715Y-101175226D01*
X92778795Y-101003739D01*
X92981139Y-100801395D01*
X93152626Y-100572315D01*
X93289767Y-100321161D01*
X93336388Y-100196166D01*
X93378260Y-100140232D01*
X93443725Y-100115816D01*
X93452570Y-100115500D01*
X100008281Y-100115500D01*
X100032472Y-100117882D01*
X100039597Y-100119300D01*
X100061100Y-100119300D01*
X100128139Y-100138985D01*
X100173894Y-100191789D01*
X100185100Y-100243300D01*
X100185100Y-108299119D01*
X100165415Y-108366158D01*
X100148781Y-108386800D01*
X99522200Y-109013381D01*
X99460877Y-109046866D01*
X99434519Y-109049700D01*
X93589899Y-109049700D01*
X93522860Y-109030015D01*
X93477105Y-108977211D01*
X93465899Y-108925700D01*
X93465899Y-108100129D01*
X93465898Y-108100123D01*
X93465897Y-108100116D01*
X93459491Y-108040517D01*
X93409196Y-107905669D01*
X93409195Y-107905668D01*
X93409193Y-107905664D01*
X93322947Y-107790455D01*
X93322944Y-107790452D01*
X93207735Y-107704206D01*
X93207728Y-107704202D01*
X93072882Y-107653908D01*
X93072883Y-107653908D01*
X93013283Y-107647501D01*
X93013281Y-107647500D01*
X93013273Y-107647500D01*
X93013264Y-107647500D01*
X89917529Y-107647500D01*
X89917523Y-107647501D01*
X89857916Y-107653908D01*
X89723071Y-107704202D01*
X89723064Y-107704206D01*
X89607855Y-107790452D01*
X89607852Y-107790455D01*
X89521606Y-107905664D01*
X89521602Y-107905671D01*
X89471308Y-108040517D01*
X89464901Y-108100116D01*
X89464901Y-108100123D01*
X89464900Y-108100135D01*
X89464900Y-111195870D01*
X89464901Y-111195876D01*
X89471308Y-111255483D01*
X89521602Y-111390328D01*
X89521606Y-111390335D01*
X89607852Y-111505544D01*
X89607855Y-111505547D01*
X89723064Y-111591793D01*
X89723071Y-111591797D01*
X89857917Y-111642091D01*
X89857916Y-111642091D01*
X89864844Y-111642835D01*
X89917527Y-111648500D01*
X93013272Y-111648499D01*
X93072883Y-111642091D01*
X93207731Y-111591796D01*
X93322946Y-111505546D01*
X93409196Y-111390331D01*
X93459491Y-111255483D01*
X93465900Y-111195873D01*
X93465900Y-110428700D01*
X93485585Y-110361661D01*
X93538389Y-110315906D01*
X93589900Y-110304700D01*
X99807604Y-110304700D01*
X99807605Y-110304699D01*
X99928835Y-110280586D01*
X100009787Y-110247054D01*
X100009788Y-110247054D01*
X100043026Y-110233286D01*
X100043026Y-110233285D01*
X100043033Y-110233283D01*
X100145808Y-110164611D01*
X100233211Y-110077208D01*
X101300011Y-109010408D01*
X101337035Y-108954997D01*
X101368683Y-108907633D01*
X101388421Y-108859982D01*
X101415986Y-108793435D01*
X101440100Y-108672203D01*
X101440100Y-108548597D01*
X101440100Y-102297742D01*
X101459785Y-102230703D01*
X101512589Y-102184948D01*
X101581747Y-102175004D01*
X101645303Y-102204029D01*
X101683077Y-102262807D01*
X101683875Y-102265648D01*
X101727075Y-102426875D01*
X101727079Y-102426886D01*
X101800745Y-102584863D01*
X101820658Y-102627567D01*
X101947668Y-102808955D01*
X102104245Y-102965532D01*
X102285633Y-103092542D01*
X102406372Y-103148843D01*
X102486313Y-103186120D01*
X102486315Y-103186120D01*
X102486320Y-103186123D01*
X102700209Y-103243435D01*
X102857774Y-103257220D01*
X102920798Y-103262734D01*
X102920800Y-103262734D01*
X102920802Y-103262734D01*
X102975947Y-103257909D01*
X103141391Y-103243435D01*
X103355280Y-103186123D01*
X103555967Y-103092542D01*
X103737355Y-102965532D01*
X103893932Y-102808955D01*
X104020942Y-102627567D01*
X104114523Y-102426880D01*
X104171835Y-102212991D01*
X104191134Y-101992400D01*
X104171835Y-101771809D01*
X104114523Y-101557920D01*
X104087566Y-101500111D01*
X104034822Y-101387000D01*
X104020942Y-101357233D01*
X103893932Y-101175845D01*
X103737355Y-101019268D01*
X103555967Y-100892258D01*
X103432707Y-100834781D01*
X103380268Y-100788610D01*
X103361116Y-100721417D01*
X103381331Y-100654536D01*
X103432708Y-100610018D01*
X103555967Y-100552542D01*
X103737355Y-100425532D01*
X103893932Y-100268955D01*
X104020942Y-100087567D01*
X104114523Y-99886880D01*
X104171835Y-99672991D01*
X104191134Y-99452400D01*
X104171835Y-99231809D01*
X104114523Y-99017920D01*
X104020942Y-98817233D01*
X103893932Y-98635845D01*
X103737355Y-98479268D01*
X103555967Y-98352258D01*
X103432707Y-98294781D01*
X103380268Y-98248610D01*
X103361116Y-98181417D01*
X103381331Y-98114536D01*
X103432708Y-98070018D01*
X103555967Y-98012542D01*
X103737355Y-97885532D01*
X103893932Y-97728955D01*
X104020942Y-97547567D01*
X104114523Y-97346880D01*
X104171835Y-97132991D01*
X104191134Y-96912400D01*
X104171835Y-96691809D01*
X104114523Y-96477920D01*
X104020942Y-96277233D01*
X103893932Y-96095845D01*
X103737355Y-95939268D01*
X103555967Y-95812258D01*
X103530882Y-95800561D01*
X103432708Y-95754782D01*
X103380268Y-95708610D01*
X103361116Y-95641417D01*
X103381331Y-95574536D01*
X103432708Y-95530018D01*
X103555967Y-95472542D01*
X103737355Y-95345532D01*
X103893932Y-95188955D01*
X104020942Y-95007567D01*
X104114523Y-94806880D01*
X104171835Y-94592991D01*
X104191134Y-94372400D01*
X104171835Y-94151809D01*
X104114523Y-93937920D01*
X104020942Y-93737233D01*
X103939011Y-93620224D01*
X103916683Y-93554018D01*
X103933693Y-93486251D01*
X103984640Y-93438437D01*
X104040585Y-93425100D01*
X109438405Y-93425100D01*
X109444463Y-93424503D01*
X109444481Y-93424694D01*
X109460675Y-93423099D01*
X109531003Y-93423099D01*
X109641063Y-93408611D01*
X109641066Y-93408609D01*
X109641072Y-93408609D01*
X109749800Y-93363571D01*
X109819268Y-93356103D01*
X109844705Y-93363572D01*
X109952258Y-93408121D01*
X110062222Y-93422599D01*
X110062237Y-93422600D01*
X110091600Y-93422600D01*
X110341600Y-93422600D01*
X110370963Y-93422600D01*
X110370977Y-93422599D01*
X110480941Y-93408121D01*
X110480942Y-93408121D01*
X110617775Y-93351443D01*
X110735279Y-93261279D01*
X110825443Y-93143775D01*
X110882121Y-93006942D01*
X110882121Y-93006940D01*
X110893226Y-92922600D01*
X110341600Y-92922600D01*
X110341600Y-93422600D01*
X110091600Y-93422600D01*
X110091600Y-92921600D01*
X110111285Y-92854561D01*
X110164089Y-92808806D01*
X110215600Y-92797600D01*
X110216600Y-92797600D01*
X110216600Y-92796600D01*
X110236285Y-92729561D01*
X110289089Y-92683806D01*
X110340600Y-92672600D01*
X110893226Y-92672600D01*
X110882121Y-92588259D01*
X110882121Y-92588257D01*
X110825443Y-92451424D01*
X110735278Y-92333919D01*
X110722435Y-92324064D01*
X110681233Y-92267635D01*
X110677079Y-92197889D01*
X110711293Y-92136969D01*
X110763330Y-92106612D01*
X110832793Y-92086432D01*
X110832795Y-92086431D01*
X110971974Y-92004121D01*
X110971983Y-92004114D01*
X111086314Y-91889783D01*
X111086321Y-91889774D01*
X111168631Y-91750595D01*
X111168633Y-91750590D01*
X111213744Y-91595318D01*
X111213745Y-91595312D01*
X111215390Y-91574400D01*
X110560600Y-91574400D01*
X110493561Y-91554715D01*
X110447806Y-91501911D01*
X110436600Y-91450400D01*
X110436600Y-91324400D01*
X110381100Y-91324400D01*
X110314061Y-91304715D01*
X110268306Y-91251911D01*
X110257100Y-91200400D01*
X110257100Y-91089717D01*
X110257099Y-91089702D01*
X110256925Y-91087495D01*
X110254243Y-91053407D01*
X110239336Y-91002099D01*
X110209095Y-90898008D01*
X110209092Y-90898000D01*
X110203866Y-90889163D01*
X110186600Y-90826045D01*
X110186600Y-90519894D01*
X110686600Y-90519894D01*
X110686600Y-91074400D01*
X111215390Y-91074400D01*
X111213745Y-91053489D01*
X111168631Y-90898204D01*
X111086321Y-90759025D01*
X111086314Y-90759016D01*
X110971983Y-90644685D01*
X110971974Y-90644678D01*
X110832793Y-90562367D01*
X110832790Y-90562365D01*
X110686601Y-90519893D01*
X110686600Y-90519894D01*
X110186600Y-90519894D01*
X110186598Y-90519893D01*
X110040409Y-90562365D01*
X110040406Y-90562367D01*
X110020208Y-90574312D01*
X109952484Y-90591492D01*
X109893970Y-90574310D01*
X109872997Y-90561907D01*
X109872990Y-90561904D01*
X109717597Y-90516757D01*
X109717591Y-90516756D01*
X109681297Y-90513900D01*
X109681290Y-90513900D01*
X109271910Y-90513900D01*
X109271902Y-90513900D01*
X109235608Y-90516756D01*
X109235602Y-90516757D01*
X109080209Y-90561904D01*
X109080206Y-90561905D01*
X108940915Y-90644281D01*
X108940907Y-90644287D01*
X108826487Y-90758707D01*
X108826481Y-90758715D01*
X108744105Y-90898006D01*
X108744104Y-90898009D01*
X108698957Y-91053402D01*
X108698956Y-91053408D01*
X108696100Y-91089702D01*
X108696100Y-91559097D01*
X108698956Y-91595391D01*
X108698957Y-91595397D01*
X108744176Y-91751038D01*
X108749100Y-91785633D01*
X108749100Y-92046100D01*
X108729415Y-92113139D01*
X108676611Y-92158894D01*
X108625100Y-92170100D01*
X104296911Y-92170100D01*
X104229872Y-92150415D01*
X104184117Y-92097611D01*
X104173383Y-92035292D01*
X104176111Y-92004121D01*
X104191134Y-91832400D01*
X104187042Y-91785633D01*
X104178441Y-91687322D01*
X104171835Y-91611809D01*
X104114523Y-91397920D01*
X104088286Y-91341655D01*
X104071061Y-91304715D01*
X104020942Y-91197233D01*
X103893932Y-91015845D01*
X103737355Y-90859268D01*
X103555967Y-90732258D01*
X103432707Y-90674781D01*
X103380268Y-90628610D01*
X103361116Y-90561417D01*
X103381331Y-90494536D01*
X103432708Y-90450018D01*
X103555967Y-90392542D01*
X103737355Y-90265532D01*
X103893932Y-90108955D01*
X103989285Y-89972776D01*
X104043862Y-89929152D01*
X104090860Y-89919900D01*
X109438405Y-89919900D01*
X109444463Y-89919303D01*
X109444481Y-89919494D01*
X109460675Y-89917899D01*
X109531003Y-89917899D01*
X109641063Y-89903411D01*
X109641066Y-89903409D01*
X109641072Y-89903409D01*
X109749800Y-89858371D01*
X109819268Y-89850903D01*
X109844705Y-89858372D01*
X109952258Y-89902921D01*
X110062222Y-89917399D01*
X110062237Y-89917400D01*
X110091600Y-89917400D01*
X110341600Y-89917400D01*
X110370963Y-89917400D01*
X110370977Y-89917399D01*
X110480941Y-89902921D01*
X110480942Y-89902921D01*
X110617775Y-89846243D01*
X110735279Y-89756079D01*
X110825443Y-89638575D01*
X110882121Y-89501742D01*
X110882121Y-89501740D01*
X110893226Y-89417400D01*
X110341600Y-89417400D01*
X110341600Y-89917400D01*
X110091600Y-89917400D01*
X110091600Y-89416400D01*
X110111285Y-89349361D01*
X110164089Y-89303606D01*
X110215600Y-89292400D01*
X110216600Y-89292400D01*
X110216600Y-89291400D01*
X110236285Y-89224361D01*
X110289089Y-89178606D01*
X110340600Y-89167400D01*
X110893226Y-89167400D01*
X110882121Y-89083059D01*
X110882121Y-89083057D01*
X110825443Y-88946224D01*
X110735278Y-88828719D01*
X110722435Y-88818864D01*
X110681233Y-88762435D01*
X110677079Y-88692689D01*
X110711293Y-88631769D01*
X110763330Y-88601412D01*
X110832793Y-88581232D01*
X110832795Y-88581231D01*
X110971974Y-88498921D01*
X110971983Y-88498914D01*
X111086314Y-88384583D01*
X111086321Y-88384574D01*
X111168631Y-88245395D01*
X111168633Y-88245390D01*
X111213744Y-88090118D01*
X111213745Y-88090112D01*
X111215390Y-88069200D01*
X110560600Y-88069200D01*
X110493561Y-88049515D01*
X110447806Y-87996711D01*
X110436600Y-87945200D01*
X110436600Y-87819200D01*
X110381100Y-87819200D01*
X110314061Y-87799515D01*
X110268306Y-87746711D01*
X110257100Y-87695200D01*
X110257100Y-87584517D01*
X110257099Y-87584502D01*
X110254243Y-87548208D01*
X110254242Y-87548202D01*
X110209095Y-87392808D01*
X110209092Y-87392800D01*
X110203866Y-87383963D01*
X110186600Y-87320845D01*
X110186600Y-87014694D01*
X110686600Y-87014694D01*
X110686600Y-87569200D01*
X111215390Y-87569200D01*
X111213745Y-87548289D01*
X111168631Y-87393004D01*
X111086321Y-87253825D01*
X111086314Y-87253816D01*
X110971983Y-87139485D01*
X110971974Y-87139478D01*
X110832793Y-87057167D01*
X110832790Y-87057165D01*
X110686601Y-87014693D01*
X110686600Y-87014694D01*
X110186600Y-87014694D01*
X110186598Y-87014693D01*
X110040409Y-87057165D01*
X110040406Y-87057167D01*
X110020208Y-87069112D01*
X109952484Y-87086292D01*
X109893970Y-87069110D01*
X109872997Y-87056707D01*
X109872990Y-87056704D01*
X109717597Y-87011557D01*
X109717591Y-87011556D01*
X109681297Y-87008700D01*
X109681290Y-87008700D01*
X109271910Y-87008700D01*
X109271902Y-87008700D01*
X109235608Y-87011556D01*
X109235602Y-87011557D01*
X109080209Y-87056704D01*
X109080206Y-87056705D01*
X108940915Y-87139081D01*
X108940907Y-87139087D01*
X108826487Y-87253507D01*
X108826481Y-87253515D01*
X108744105Y-87392806D01*
X108744104Y-87392809D01*
X108698957Y-87548202D01*
X108698956Y-87548208D01*
X108696100Y-87584502D01*
X108696100Y-88053889D01*
X108698956Y-88090191D01*
X108698957Y-88090197D01*
X108744176Y-88245838D01*
X108749100Y-88280433D01*
X108749100Y-88540900D01*
X108729415Y-88607939D01*
X108676611Y-88653694D01*
X108625100Y-88664900D01*
X104090860Y-88664900D01*
X104023821Y-88645215D01*
X103989285Y-88612023D01*
X103986425Y-88607939D01*
X103893932Y-88475845D01*
X103737355Y-88319268D01*
X103555967Y-88192258D01*
X103432707Y-88134781D01*
X103380268Y-88088610D01*
X103361116Y-88021417D01*
X103381331Y-87954536D01*
X103432708Y-87910018D01*
X103555967Y-87852542D01*
X103737355Y-87725532D01*
X103893932Y-87568955D01*
X104020942Y-87387567D01*
X104114523Y-87186880D01*
X104171835Y-86972991D01*
X104191134Y-86752400D01*
X104188634Y-86723830D01*
X104185620Y-86689374D01*
X104171835Y-86531809D01*
X104168669Y-86519992D01*
X104170332Y-86450142D01*
X104209495Y-86392280D01*
X104273724Y-86364777D01*
X104288444Y-86363900D01*
X109438405Y-86363900D01*
X109444463Y-86363303D01*
X109444481Y-86363494D01*
X109460675Y-86361899D01*
X109531003Y-86361899D01*
X109641063Y-86347411D01*
X109641066Y-86347409D01*
X109641072Y-86347409D01*
X109749800Y-86302371D01*
X109819268Y-86294903D01*
X109844705Y-86302372D01*
X109952258Y-86346921D01*
X110062222Y-86361399D01*
X110062237Y-86361400D01*
X110091600Y-86361400D01*
X110341600Y-86361400D01*
X110370963Y-86361400D01*
X110370977Y-86361399D01*
X110480941Y-86346921D01*
X110480942Y-86346921D01*
X110617775Y-86290243D01*
X110735279Y-86200079D01*
X110825443Y-86082575D01*
X110882121Y-85945742D01*
X110882121Y-85945740D01*
X110893226Y-85861400D01*
X110341600Y-85861400D01*
X110341600Y-86361400D01*
X110091600Y-86361400D01*
X110091600Y-85860400D01*
X110111285Y-85793361D01*
X110164089Y-85747606D01*
X110215600Y-85736400D01*
X110216600Y-85736400D01*
X110216600Y-85735400D01*
X110236285Y-85668361D01*
X110289089Y-85622606D01*
X110340600Y-85611400D01*
X110893226Y-85611400D01*
X110882121Y-85527059D01*
X110882121Y-85527057D01*
X110825442Y-85390221D01*
X110740095Y-85278995D01*
X110714901Y-85213826D01*
X110728939Y-85145381D01*
X110777753Y-85095392D01*
X110803879Y-85084432D01*
X110832792Y-85076032D01*
X110832795Y-85076031D01*
X110971974Y-84993721D01*
X110971983Y-84993714D01*
X111086314Y-84879383D01*
X111086321Y-84879374D01*
X111168631Y-84740195D01*
X111168633Y-84740190D01*
X111213744Y-84584918D01*
X111213745Y-84584912D01*
X111215390Y-84564000D01*
X110560600Y-84564000D01*
X110493561Y-84544315D01*
X110447806Y-84491511D01*
X110436600Y-84440000D01*
X110436600Y-84314000D01*
X110381100Y-84314000D01*
X110314061Y-84294315D01*
X110268306Y-84241511D01*
X110257100Y-84190000D01*
X110257100Y-84079317D01*
X110257099Y-84079302D01*
X110254243Y-84043008D01*
X110254242Y-84043002D01*
X110209095Y-83887608D01*
X110209092Y-83887600D01*
X110203866Y-83878763D01*
X110186600Y-83815645D01*
X110186600Y-83509494D01*
X110686600Y-83509494D01*
X110686600Y-84064000D01*
X111215390Y-84064000D01*
X111213745Y-84043089D01*
X111168631Y-83887804D01*
X111086321Y-83748625D01*
X111086314Y-83748616D01*
X110971983Y-83634285D01*
X110971974Y-83634278D01*
X110832793Y-83551967D01*
X110832790Y-83551965D01*
X110686601Y-83509493D01*
X110686600Y-83509494D01*
X110186600Y-83509494D01*
X110186598Y-83509493D01*
X110040409Y-83551965D01*
X110040406Y-83551967D01*
X110020208Y-83563912D01*
X109952484Y-83581092D01*
X109893970Y-83563910D01*
X109872997Y-83551507D01*
X109872990Y-83551504D01*
X109717597Y-83506357D01*
X109717591Y-83506356D01*
X109681297Y-83503500D01*
X109681290Y-83503500D01*
X109271910Y-83503500D01*
X109271902Y-83503500D01*
X109235608Y-83506356D01*
X109235602Y-83506357D01*
X109080209Y-83551504D01*
X109080206Y-83551505D01*
X108940915Y-83633881D01*
X108940907Y-83633887D01*
X108826487Y-83748307D01*
X108826481Y-83748315D01*
X108744105Y-83887606D01*
X108744104Y-83887609D01*
X108698957Y-84043002D01*
X108698956Y-84043008D01*
X108696100Y-84079302D01*
X108696100Y-84548697D01*
X108698956Y-84584991D01*
X108698957Y-84584997D01*
X108744176Y-84740638D01*
X108749100Y-84775233D01*
X108749100Y-84984900D01*
X108729415Y-85051939D01*
X108676611Y-85097694D01*
X108625100Y-85108900D01*
X104076156Y-85108900D01*
X104009117Y-85089215D01*
X103963362Y-85036411D01*
X103953418Y-84967253D01*
X103974582Y-84913776D01*
X103998670Y-84879374D01*
X104020942Y-84847567D01*
X104114523Y-84646880D01*
X104171835Y-84432991D01*
X104191134Y-84212400D01*
X104171835Y-83991809D01*
X104160139Y-83948158D01*
X104161802Y-83878308D01*
X104192231Y-83828386D01*
X105481200Y-82539419D01*
X105542523Y-82505934D01*
X105568881Y-82503100D01*
X109438405Y-82503100D01*
X109444463Y-82502503D01*
X109444481Y-82502694D01*
X109460675Y-82501099D01*
X109531003Y-82501099D01*
X109641063Y-82486611D01*
X109641066Y-82486609D01*
X109641072Y-82486609D01*
X109749800Y-82441571D01*
X109819268Y-82434103D01*
X109844705Y-82441572D01*
X109952258Y-82486121D01*
X110062222Y-82500599D01*
X110062237Y-82500600D01*
X110091600Y-82500600D01*
X110341600Y-82500600D01*
X110370963Y-82500600D01*
X110370977Y-82500599D01*
X110480941Y-82486121D01*
X110480942Y-82486121D01*
X110617775Y-82429443D01*
X110735279Y-82339279D01*
X110825443Y-82221775D01*
X110882121Y-82084942D01*
X110882121Y-82084940D01*
X110893226Y-82000600D01*
X110341600Y-82000600D01*
X110341600Y-82500600D01*
X110091600Y-82500600D01*
X110091600Y-81999600D01*
X110111285Y-81932561D01*
X110164089Y-81886806D01*
X110215600Y-81875600D01*
X110216600Y-81875600D01*
X110216600Y-81874600D01*
X110236285Y-81807561D01*
X110289089Y-81761806D01*
X110340600Y-81750600D01*
X110893226Y-81750600D01*
X110882121Y-81666259D01*
X110882121Y-81666257D01*
X110825443Y-81529424D01*
X110735279Y-81411920D01*
X110698425Y-81383641D01*
X110657223Y-81327213D01*
X110653068Y-81257467D01*
X110687281Y-81196546D01*
X110739318Y-81166188D01*
X110832795Y-81139031D01*
X110971974Y-81056721D01*
X110971983Y-81056714D01*
X111086314Y-80942383D01*
X111086321Y-80942374D01*
X111168631Y-80803195D01*
X111168633Y-80803190D01*
X111213744Y-80647918D01*
X111213745Y-80647912D01*
X111215390Y-80627000D01*
X110560600Y-80627000D01*
X110493561Y-80607315D01*
X110447806Y-80554511D01*
X110436600Y-80503000D01*
X110436600Y-80377000D01*
X110381100Y-80377000D01*
X110314061Y-80357315D01*
X110268306Y-80304511D01*
X110257100Y-80253000D01*
X110257100Y-80142317D01*
X110257099Y-80142302D01*
X110254243Y-80106008D01*
X110254242Y-80106002D01*
X110209095Y-79950608D01*
X110209092Y-79950600D01*
X110203866Y-79941763D01*
X110186600Y-79878645D01*
X110186600Y-79572494D01*
X110686600Y-79572494D01*
X110686600Y-80127000D01*
X111215390Y-80127000D01*
X111213745Y-80106089D01*
X111168631Y-79950804D01*
X111086321Y-79811625D01*
X111086314Y-79811616D01*
X110971983Y-79697285D01*
X110971974Y-79697278D01*
X110832793Y-79614967D01*
X110832790Y-79614965D01*
X110686601Y-79572493D01*
X110686600Y-79572494D01*
X110186600Y-79572494D01*
X110186598Y-79572493D01*
X110040409Y-79614965D01*
X110040406Y-79614967D01*
X110020208Y-79626912D01*
X109952484Y-79644092D01*
X109893970Y-79626910D01*
X109872997Y-79614507D01*
X109872990Y-79614504D01*
X109717597Y-79569357D01*
X109717591Y-79569356D01*
X109681297Y-79566500D01*
X109681290Y-79566500D01*
X109271910Y-79566500D01*
X109271902Y-79566500D01*
X109235608Y-79569356D01*
X109235602Y-79569357D01*
X109080209Y-79614504D01*
X109080206Y-79614505D01*
X108940915Y-79696881D01*
X108940907Y-79696887D01*
X108826487Y-79811307D01*
X108826481Y-79811315D01*
X108744105Y-79950606D01*
X108744104Y-79950609D01*
X108698957Y-80106002D01*
X108698956Y-80106008D01*
X108696100Y-80142302D01*
X108696100Y-80611697D01*
X108698956Y-80647991D01*
X108698957Y-80647997D01*
X108744176Y-80803638D01*
X108749100Y-80838233D01*
X108749100Y-81124100D01*
X108729415Y-81191139D01*
X108676611Y-81236894D01*
X108625100Y-81248100D01*
X105195795Y-81248100D01*
X105074570Y-81272213D01*
X105074560Y-81272216D01*
X104960373Y-81319513D01*
X104960360Y-81319520D01*
X104857592Y-81388188D01*
X104857588Y-81388191D01*
X104395387Y-81850392D01*
X104334064Y-81883877D01*
X104264372Y-81878893D01*
X104208439Y-81837021D01*
X104184022Y-81771557D01*
X104184178Y-81751903D01*
X104191134Y-81672400D01*
X104191134Y-81672398D01*
X104171835Y-81451814D01*
X104171835Y-81451809D01*
X104114523Y-81237920D01*
X104020942Y-81037233D01*
X103893932Y-80855845D01*
X103737355Y-80699268D01*
X103555967Y-80572258D01*
X103505197Y-80548584D01*
X103432708Y-80514782D01*
X103380268Y-80468610D01*
X103361116Y-80401417D01*
X103381331Y-80334536D01*
X103432708Y-80290018D01*
X103555967Y-80232542D01*
X103737355Y-80105532D01*
X103893932Y-79948955D01*
X104020942Y-79767567D01*
X104114523Y-79566880D01*
X104171835Y-79352991D01*
X104191134Y-79132400D01*
X104190664Y-79127033D01*
X104171835Y-78911814D01*
X104171835Y-78911809D01*
X104114523Y-78697920D01*
X104020942Y-78497233D01*
X103893932Y-78315845D01*
X103737355Y-78159268D01*
X103555967Y-78032258D01*
X103432707Y-77974781D01*
X103380268Y-77928610D01*
X103361116Y-77861417D01*
X103381331Y-77794536D01*
X103432708Y-77750018D01*
X103448676Y-77742572D01*
X103555967Y-77692542D01*
X103737355Y-77565532D01*
X103893932Y-77408955D01*
X103989285Y-77272776D01*
X104043862Y-77229152D01*
X104090860Y-77219900D01*
X108638369Y-77219900D01*
X108705408Y-77239585D01*
X108751163Y-77292389D01*
X108761308Y-77327716D01*
X108768989Y-77386063D01*
X108768991Y-77386072D01*
X108825615Y-77522775D01*
X108825721Y-77523029D01*
X108915964Y-77640636D01*
X109033571Y-77730879D01*
X109170528Y-77787609D01*
X109280599Y-77802100D01*
X109350924Y-77802099D01*
X109367116Y-77803694D01*
X109367135Y-77803503D01*
X109373194Y-77804100D01*
X109373197Y-77804100D01*
X109496805Y-77804100D01*
X109502863Y-77803503D01*
X109502881Y-77803694D01*
X109519075Y-77802099D01*
X109589403Y-77802099D01*
X109699463Y-77787611D01*
X109699466Y-77787609D01*
X109699472Y-77787609D01*
X109808200Y-77742571D01*
X109877668Y-77735103D01*
X109903105Y-77742572D01*
X110010658Y-77787121D01*
X110120622Y-77801599D01*
X110120637Y-77801600D01*
X110150000Y-77801600D01*
X110400000Y-77801600D01*
X110429363Y-77801600D01*
X110429377Y-77801599D01*
X110539341Y-77787121D01*
X110539342Y-77787121D01*
X110676175Y-77730443D01*
X110793679Y-77640279D01*
X110883843Y-77522775D01*
X110940521Y-77385942D01*
X110940521Y-77385940D01*
X110951626Y-77301600D01*
X110400000Y-77301600D01*
X110400000Y-77801600D01*
X110150000Y-77801600D01*
X110150000Y-76719600D01*
X110400000Y-76719600D01*
X110400000Y-77051600D01*
X110951626Y-77051600D01*
X110940521Y-76967259D01*
X110940521Y-76967257D01*
X110883843Y-76830424D01*
X110788732Y-76706473D01*
X110790077Y-76705440D01*
X110761256Y-76652658D01*
X110766240Y-76582966D01*
X110808112Y-76527033D01*
X110819302Y-76519568D01*
X110921172Y-76459323D01*
X110921183Y-76459314D01*
X111035514Y-76344983D01*
X111035521Y-76344974D01*
X111117831Y-76205795D01*
X111117833Y-76205790D01*
X111162944Y-76050518D01*
X111162945Y-76050512D01*
X111164590Y-76029600D01*
X110635800Y-76029600D01*
X110635800Y-76595600D01*
X110616115Y-76662639D01*
X110563311Y-76708394D01*
X110511800Y-76719600D01*
X110400000Y-76719600D01*
X110150000Y-76719600D01*
X110150000Y-76701211D01*
X110138634Y-76680396D01*
X110135800Y-76654038D01*
X110135800Y-76277952D01*
X110153067Y-76214833D01*
X110158294Y-76205995D01*
X110172264Y-76157913D01*
X110203442Y-76050597D01*
X110203443Y-76050591D01*
X110204566Y-76036320D01*
X110206300Y-76014290D01*
X110206300Y-75544910D01*
X110203443Y-75508607D01*
X110198693Y-75492258D01*
X110158295Y-75353208D01*
X110158292Y-75353200D01*
X110153066Y-75344363D01*
X110135800Y-75281245D01*
X110135800Y-74975094D01*
X110635800Y-74975094D01*
X110635800Y-75529600D01*
X111164590Y-75529600D01*
X111162945Y-75508689D01*
X111117831Y-75353404D01*
X111035521Y-75214225D01*
X111035514Y-75214216D01*
X110921183Y-75099885D01*
X110921174Y-75099878D01*
X110781993Y-75017567D01*
X110781990Y-75017565D01*
X110635801Y-74975093D01*
X110635800Y-74975094D01*
X110135800Y-74975094D01*
X110135798Y-74975093D01*
X109989609Y-75017565D01*
X109989606Y-75017567D01*
X109969408Y-75029512D01*
X109901684Y-75046692D01*
X109843170Y-75029510D01*
X109822197Y-75017107D01*
X109822190Y-75017104D01*
X109666797Y-74971957D01*
X109666791Y-74971956D01*
X109630497Y-74969100D01*
X109630490Y-74969100D01*
X109221110Y-74969100D01*
X109221102Y-74969100D01*
X109184808Y-74971956D01*
X109184802Y-74971957D01*
X109029409Y-75017104D01*
X109029406Y-75017105D01*
X108890115Y-75099481D01*
X108890107Y-75099487D01*
X108775687Y-75213907D01*
X108775681Y-75213915D01*
X108693305Y-75353206D01*
X108693304Y-75353209D01*
X108648157Y-75508602D01*
X108648156Y-75508608D01*
X108645300Y-75544902D01*
X108645300Y-75840900D01*
X108625615Y-75907939D01*
X108572811Y-75953694D01*
X108521300Y-75964900D01*
X104090860Y-75964900D01*
X104023821Y-75945215D01*
X103989285Y-75912023D01*
X103986425Y-75907939D01*
X103893932Y-75775845D01*
X103737355Y-75619268D01*
X103555967Y-75492258D01*
X103432707Y-75434781D01*
X103380268Y-75388610D01*
X103361116Y-75321417D01*
X103381331Y-75254536D01*
X103432708Y-75210018D01*
X103555967Y-75152542D01*
X103737355Y-75025532D01*
X103893932Y-74868955D01*
X103989285Y-74732776D01*
X104043862Y-74689152D01*
X104090860Y-74679900D01*
X109316405Y-74679900D01*
X109322463Y-74679303D01*
X109322481Y-74679494D01*
X109338675Y-74677899D01*
X109409003Y-74677899D01*
X109519063Y-74663411D01*
X109519066Y-74663409D01*
X109519072Y-74663409D01*
X109627800Y-74618371D01*
X109697268Y-74610903D01*
X109722705Y-74618372D01*
X109830258Y-74662921D01*
X109940222Y-74677399D01*
X109940237Y-74677400D01*
X109969600Y-74677400D01*
X110219600Y-74677400D01*
X110248963Y-74677400D01*
X110248977Y-74677399D01*
X110358941Y-74662921D01*
X110358942Y-74662921D01*
X110495775Y-74606243D01*
X110613279Y-74516079D01*
X110703443Y-74398575D01*
X110760121Y-74261742D01*
X110760121Y-74261740D01*
X110771226Y-74177400D01*
X110219600Y-74177400D01*
X110219600Y-74677400D01*
X109969600Y-74677400D01*
X109969600Y-73595400D01*
X110219600Y-73595400D01*
X110219600Y-73927400D01*
X110771226Y-73927400D01*
X110760121Y-73843059D01*
X110760121Y-73843057D01*
X110703443Y-73706224D01*
X110608332Y-73582273D01*
X110609986Y-73581003D01*
X110581822Y-73529424D01*
X110586806Y-73459732D01*
X110628678Y-73403799D01*
X110639868Y-73396333D01*
X110743377Y-73335118D01*
X110743383Y-73335114D01*
X110857714Y-73220783D01*
X110857721Y-73220774D01*
X110940031Y-73081595D01*
X110940033Y-73081590D01*
X110985144Y-72926318D01*
X110985145Y-72926312D01*
X110986790Y-72905400D01*
X110458000Y-72905400D01*
X110458000Y-73471400D01*
X110438315Y-73538439D01*
X110385511Y-73584194D01*
X110334000Y-73595400D01*
X110219600Y-73595400D01*
X109969600Y-73595400D01*
X109969600Y-73574849D01*
X109960834Y-73558796D01*
X109958000Y-73532438D01*
X109958000Y-73153752D01*
X109975267Y-73090633D01*
X109980494Y-73081795D01*
X110018129Y-72952258D01*
X110025642Y-72926397D01*
X110025643Y-72926391D01*
X110027295Y-72905400D01*
X110028500Y-72890090D01*
X110028500Y-72779400D01*
X110048185Y-72712361D01*
X110100989Y-72666606D01*
X110152500Y-72655400D01*
X110208000Y-72655400D01*
X110208000Y-72529400D01*
X110227685Y-72462361D01*
X110280489Y-72416606D01*
X110332000Y-72405400D01*
X110986789Y-72405400D01*
X110986414Y-72400624D01*
X111000781Y-72332247D01*
X111049834Y-72282492D01*
X111110032Y-72266900D01*
X121801500Y-72266900D01*
X121868539Y-72286585D01*
X121914294Y-72339389D01*
X121925500Y-72390900D01*
X121925500Y-73704232D01*
X121920577Y-73738824D01*
X121912336Y-73767189D01*
X121912334Y-73767202D01*
X121909500Y-73803211D01*
X121909500Y-74301569D01*
X121909501Y-74301591D01*
X121912335Y-74337603D01*
X121920576Y-74365968D01*
X121925500Y-74400564D01*
X121925500Y-76244232D01*
X121920577Y-76278824D01*
X121912336Y-76307189D01*
X121912334Y-76307202D01*
X121909500Y-76343211D01*
X121909500Y-76841569D01*
X121909501Y-76841591D01*
X121912335Y-76877603D01*
X121920576Y-76905968D01*
X121925500Y-76940564D01*
X121925500Y-78784232D01*
X121920577Y-78818824D01*
X121912336Y-78847189D01*
X121912334Y-78847202D01*
X121909500Y-78883211D01*
X121909500Y-79381569D01*
X121909501Y-79381591D01*
X121912335Y-79417603D01*
X121920576Y-79445968D01*
X121925500Y-79480564D01*
X121925500Y-127341713D01*
X121905815Y-127408752D01*
X121889181Y-127429394D01*
X119626288Y-129692286D01*
X119564965Y-129725771D01*
X119495274Y-129720787D01*
X119436114Y-129698722D01*
X119357046Y-129669231D01*
X119357042Y-129669230D01*
X119357039Y-129669229D01*
X119077433Y-129608404D01*
X118792001Y-129587990D01*
X118791999Y-129587990D01*
X118506566Y-129608404D01*
X118226962Y-129669228D01*
X117958833Y-129769235D01*
X117707690Y-129906370D01*
X117707682Y-129906375D01*
X117478612Y-130077854D01*
X117478594Y-130077870D01*
X117276270Y-130280194D01*
X117276254Y-130280212D01*
X117104775Y-130509282D01*
X117104770Y-130509290D01*
X116967635Y-130760433D01*
X116867628Y-131028562D01*
X116806804Y-131308166D01*
X116786390Y-131593598D01*
X116786390Y-131593601D01*
X116806804Y-131879033D01*
X116867628Y-132158637D01*
X116867630Y-132158643D01*
X116867631Y-132158646D01*
X116921775Y-132303810D01*
X116967635Y-132426766D01*
X117104770Y-132677909D01*
X117104775Y-132677917D01*
X117276254Y-132906987D01*
X117276270Y-132907005D01*
X117478594Y-133109329D01*
X117478612Y-133109345D01*
X117707682Y-133280824D01*
X117707690Y-133280829D01*
X117958833Y-133417964D01*
X117958832Y-133417964D01*
X117958836Y-133417965D01*
X117958839Y-133417967D01*
X118226954Y-133517969D01*
X118226960Y-133517970D01*
X118226962Y-133517971D01*
X118506566Y-133578795D01*
X118506568Y-133578795D01*
X118506572Y-133578796D01*
X118760220Y-133596937D01*
X118791999Y-133599210D01*
X118792000Y-133599210D01*
X118792001Y-133599210D01*
X118820595Y-133597164D01*
X119077428Y-133578796D01*
X119357046Y-133517969D01*
X119625161Y-133417967D01*
X119876315Y-133280826D01*
X120105395Y-133109339D01*
X120307739Y-132906995D01*
X120479226Y-132677915D01*
X120616367Y-132426761D01*
X120716369Y-132158646D01*
X120717997Y-132151161D01*
X120777195Y-131879033D01*
X120777195Y-131879032D01*
X120777196Y-131879028D01*
X120797610Y-131593600D01*
X120777196Y-131308172D01*
X120738734Y-131131366D01*
X120716371Y-131028562D01*
X120716370Y-131028560D01*
X120716369Y-131028554D01*
X120664810Y-130890322D01*
X120659827Y-130820633D01*
X120693310Y-130759312D01*
X123160963Y-128291660D01*
X123160966Y-128291659D01*
X123266059Y-128186566D01*
X123348629Y-128062990D01*
X123405505Y-127925680D01*
X123434500Y-127779912D01*
X123434500Y-110733500D01*
X123454185Y-110666461D01*
X123506989Y-110620706D01*
X123558500Y-110609500D01*
X127398128Y-110609500D01*
X127464099Y-110628505D01*
X127590278Y-110707789D01*
X127663756Y-110733500D01*
X127760545Y-110767368D01*
X127760550Y-110767369D01*
X127939796Y-110787565D01*
X127939800Y-110787565D01*
X127939804Y-110787565D01*
X128119049Y-110767369D01*
X128119052Y-110767368D01*
X128119055Y-110767368D01*
X128289322Y-110707789D01*
X128442062Y-110611816D01*
X128569616Y-110484262D01*
X128665589Y-110331522D01*
X128725168Y-110161255D01*
X128733935Y-110083444D01*
X128745365Y-109982003D01*
X128745365Y-109981996D01*
X128725169Y-109802750D01*
X128725168Y-109802745D01*
X128665588Y-109632476D01*
X128594325Y-109519062D01*
X128569616Y-109479738D01*
X128442062Y-109352184D01*
X128415500Y-109335494D01*
X128289323Y-109256211D01*
X128119054Y-109196631D01*
X128119049Y-109196630D01*
X127939804Y-109176435D01*
X127939796Y-109176435D01*
X127760550Y-109196630D01*
X127760545Y-109196631D01*
X127590276Y-109256211D01*
X127464100Y-109335494D01*
X127398128Y-109354500D01*
X123558500Y-109354500D01*
X123491461Y-109334815D01*
X123445706Y-109282011D01*
X123434500Y-109230500D01*
X123434500Y-80076899D01*
X123454185Y-80009860D01*
X123506989Y-79964105D01*
X123558496Y-79952899D01*
X123899180Y-79952899D01*
X123935204Y-79950065D01*
X124089393Y-79905269D01*
X124227598Y-79823535D01*
X124239826Y-79811307D01*
X124254915Y-79796219D01*
X124316238Y-79762734D01*
X124342596Y-79759900D01*
X127150740Y-79759900D01*
X127217779Y-79779585D01*
X127252313Y-79812775D01*
X127296396Y-79875731D01*
X127331536Y-79925917D01*
X127347668Y-79948955D01*
X127504245Y-80105532D01*
X127685633Y-80232542D01*
X127729506Y-80253000D01*
X127808891Y-80290018D01*
X127861331Y-80336190D01*
X127880483Y-80403383D01*
X127860267Y-80470265D01*
X127808891Y-80514782D01*
X127685636Y-80572256D01*
X127685634Y-80572257D01*
X127504244Y-80699268D01*
X127347668Y-80855844D01*
X127220657Y-81037234D01*
X127220656Y-81037236D01*
X127127079Y-81237913D01*
X127127075Y-81237924D01*
X127069765Y-81451807D01*
X127069764Y-81451814D01*
X127050466Y-81672398D01*
X127050466Y-81672401D01*
X127069764Y-81892985D01*
X127069765Y-81892992D01*
X127127075Y-82106875D01*
X127127079Y-82106886D01*
X127200608Y-82264569D01*
X127220658Y-82307567D01*
X127347668Y-82488955D01*
X127504245Y-82645532D01*
X127685633Y-82772542D01*
X127747628Y-82801450D01*
X127808891Y-82830018D01*
X127861331Y-82876190D01*
X127880483Y-82943383D01*
X127860267Y-83010265D01*
X127808891Y-83054782D01*
X127685636Y-83112256D01*
X127685634Y-83112257D01*
X127504244Y-83239268D01*
X127347668Y-83395844D01*
X127220657Y-83577234D01*
X127220656Y-83577236D01*
X127127079Y-83777913D01*
X127127075Y-83777924D01*
X127069765Y-83991807D01*
X127069764Y-83991814D01*
X127050466Y-84212398D01*
X127050466Y-84212401D01*
X127069764Y-84432985D01*
X127069765Y-84432992D01*
X127127075Y-84646875D01*
X127127079Y-84646886D01*
X127218098Y-84842078D01*
X127220658Y-84847567D01*
X127347668Y-85028955D01*
X127504245Y-85185532D01*
X127685633Y-85312542D01*
X127747628Y-85341450D01*
X127808891Y-85370018D01*
X127861331Y-85416190D01*
X127880483Y-85483383D01*
X127860267Y-85550265D01*
X127808891Y-85594782D01*
X127685636Y-85652256D01*
X127685634Y-85652257D01*
X127504244Y-85779268D01*
X127347668Y-85935844D01*
X127220657Y-86117234D01*
X127220656Y-86117236D01*
X127127079Y-86317913D01*
X127127075Y-86317924D01*
X127069765Y-86531807D01*
X127069764Y-86531814D01*
X127050466Y-86752398D01*
X127050466Y-86752400D01*
X127053363Y-86785512D01*
X127069764Y-86972985D01*
X127069765Y-86972992D01*
X127127075Y-87186875D01*
X127127079Y-87186886D01*
X127160832Y-87259269D01*
X127220658Y-87387567D01*
X127347668Y-87568955D01*
X127504245Y-87725532D01*
X127685633Y-87852542D01*
X127747628Y-87881450D01*
X127808891Y-87910018D01*
X127861331Y-87956190D01*
X127880483Y-88023383D01*
X127860267Y-88090265D01*
X127808891Y-88134782D01*
X127685636Y-88192256D01*
X127685634Y-88192257D01*
X127504244Y-88319268D01*
X127347668Y-88475844D01*
X127220657Y-88657234D01*
X127220656Y-88657236D01*
X127127079Y-88857913D01*
X127127075Y-88857924D01*
X127069765Y-89071807D01*
X127069764Y-89071814D01*
X127050466Y-89292398D01*
X127050466Y-89292400D01*
X127069764Y-89512985D01*
X127069765Y-89512992D01*
X127127075Y-89726875D01*
X127127079Y-89726886D01*
X127217083Y-89919900D01*
X127220658Y-89927567D01*
X127347668Y-90108955D01*
X127504245Y-90265532D01*
X127685633Y-90392542D01*
X127731007Y-90413700D01*
X127808891Y-90450018D01*
X127861331Y-90496190D01*
X127880483Y-90563383D01*
X127860267Y-90630265D01*
X127808891Y-90674782D01*
X127685636Y-90732256D01*
X127685634Y-90732257D01*
X127504244Y-90859268D01*
X127347668Y-91015844D01*
X127220657Y-91197234D01*
X127220656Y-91197236D01*
X127127079Y-91397913D01*
X127127075Y-91397924D01*
X127069765Y-91611807D01*
X127069764Y-91611814D01*
X127050466Y-91832398D01*
X127050466Y-91832401D01*
X127069764Y-92052985D01*
X127069765Y-92052992D01*
X127127075Y-92266875D01*
X127127079Y-92266886D01*
X127213130Y-92451424D01*
X127220658Y-92467567D01*
X127347668Y-92648955D01*
X127504245Y-92805532D01*
X127685633Y-92932542D01*
X127747628Y-92961450D01*
X127808891Y-92990018D01*
X127861331Y-93036190D01*
X127880483Y-93103383D01*
X127860267Y-93170265D01*
X127808891Y-93214782D01*
X127685636Y-93272256D01*
X127685634Y-93272257D01*
X127504244Y-93399268D01*
X127347668Y-93555844D01*
X127220657Y-93737234D01*
X127220656Y-93737236D01*
X127127079Y-93937913D01*
X127127075Y-93937924D01*
X127069765Y-94151807D01*
X127069764Y-94151814D01*
X127050466Y-94372398D01*
X127050466Y-94372401D01*
X127069764Y-94592985D01*
X127069765Y-94592992D01*
X127127075Y-94806875D01*
X127127079Y-94806886D01*
X127220656Y-95007563D01*
X127220658Y-95007567D01*
X127347668Y-95188955D01*
X127504245Y-95345532D01*
X127685633Y-95472542D01*
X127747628Y-95501450D01*
X127808891Y-95530018D01*
X127861331Y-95576190D01*
X127880483Y-95643383D01*
X127860267Y-95710265D01*
X127808891Y-95754782D01*
X127685636Y-95812256D01*
X127685634Y-95812257D01*
X127504244Y-95939268D01*
X127347668Y-96095844D01*
X127220657Y-96277234D01*
X127220656Y-96277236D01*
X127127079Y-96477913D01*
X127127075Y-96477924D01*
X127069765Y-96691807D01*
X127069764Y-96691814D01*
X127050466Y-96912398D01*
X127050466Y-96912401D01*
X127069764Y-97132985D01*
X127069765Y-97132992D01*
X127127075Y-97346875D01*
X127127079Y-97346886D01*
X127199785Y-97502804D01*
X127220658Y-97547567D01*
X127347668Y-97728955D01*
X127504245Y-97885532D01*
X127685633Y-98012542D01*
X127747628Y-98041450D01*
X127808891Y-98070018D01*
X127861331Y-98116190D01*
X127880483Y-98183383D01*
X127860267Y-98250265D01*
X127808891Y-98294782D01*
X127685636Y-98352256D01*
X127685634Y-98352257D01*
X127504244Y-98479268D01*
X127347668Y-98635844D01*
X127220657Y-98817234D01*
X127220656Y-98817236D01*
X127127079Y-99017913D01*
X127127075Y-99017924D01*
X127069765Y-99231807D01*
X127069764Y-99231814D01*
X127050466Y-99452398D01*
X127050466Y-99452401D01*
X127069764Y-99672985D01*
X127069765Y-99672992D01*
X127127075Y-99886875D01*
X127127079Y-99886886D01*
X127220656Y-100087563D01*
X127220658Y-100087567D01*
X127347668Y-100268955D01*
X127504245Y-100425532D01*
X127685633Y-100552542D01*
X127728024Y-100572309D01*
X127808891Y-100610018D01*
X127861331Y-100656190D01*
X127880483Y-100723383D01*
X127860267Y-100790265D01*
X127808891Y-100834782D01*
X127685636Y-100892256D01*
X127685634Y-100892257D01*
X127504244Y-101019268D01*
X127347668Y-101175844D01*
X127220657Y-101357234D01*
X127220656Y-101357236D01*
X127127079Y-101557913D01*
X127127075Y-101557924D01*
X127069765Y-101771807D01*
X127069764Y-101771814D01*
X127050466Y-101992398D01*
X127050466Y-101992401D01*
X127069764Y-102212985D01*
X127069765Y-102212992D01*
X127127075Y-102426875D01*
X127127079Y-102426886D01*
X127200745Y-102584863D01*
X127220658Y-102627567D01*
X127347668Y-102808955D01*
X127504245Y-102965532D01*
X127685633Y-103092542D01*
X127806372Y-103148843D01*
X127886313Y-103186120D01*
X127886315Y-103186120D01*
X127886320Y-103186123D01*
X128100209Y-103243435D01*
X128257774Y-103257220D01*
X128320798Y-103262734D01*
X128320800Y-103262734D01*
X128320802Y-103262734D01*
X128375947Y-103257909D01*
X128541391Y-103243435D01*
X128755280Y-103186123D01*
X128955967Y-103092542D01*
X129137355Y-102965532D01*
X129293932Y-102808955D01*
X129420942Y-102627567D01*
X129514523Y-102426880D01*
X129571835Y-102212991D01*
X129591134Y-101992400D01*
X129571835Y-101771809D01*
X129514523Y-101557920D01*
X129487566Y-101500111D01*
X129434822Y-101387000D01*
X129420942Y-101357233D01*
X129293932Y-101175845D01*
X129137355Y-101019268D01*
X128955967Y-100892258D01*
X128832707Y-100834781D01*
X128780268Y-100788610D01*
X128761116Y-100721417D01*
X128781331Y-100654536D01*
X128832708Y-100610018D01*
X128955967Y-100552542D01*
X129137355Y-100425532D01*
X129293932Y-100268955D01*
X129420942Y-100087567D01*
X129514523Y-99886880D01*
X129571835Y-99672991D01*
X129591134Y-99452400D01*
X129571835Y-99231809D01*
X129514523Y-99017920D01*
X129420942Y-98817233D01*
X129293932Y-98635845D01*
X129137355Y-98479268D01*
X128955967Y-98352258D01*
X128832707Y-98294781D01*
X128780268Y-98248610D01*
X128761116Y-98181417D01*
X128781331Y-98114536D01*
X128832708Y-98070018D01*
X128955967Y-98012542D01*
X129137355Y-97885532D01*
X129293932Y-97728955D01*
X129420942Y-97547567D01*
X129514523Y-97346880D01*
X129571835Y-97132991D01*
X129591134Y-96912400D01*
X129571835Y-96691809D01*
X129514523Y-96477920D01*
X129420942Y-96277233D01*
X129293932Y-96095845D01*
X129137355Y-95939268D01*
X128955967Y-95812258D01*
X128930882Y-95800561D01*
X128832708Y-95754782D01*
X128780268Y-95708610D01*
X128761116Y-95641417D01*
X128781331Y-95574536D01*
X128832708Y-95530018D01*
X128955967Y-95472542D01*
X129137355Y-95345532D01*
X129293932Y-95188955D01*
X129420942Y-95007567D01*
X129514523Y-94806880D01*
X129571835Y-94592991D01*
X129591134Y-94372400D01*
X129571835Y-94151809D01*
X129514523Y-93937920D01*
X129420942Y-93737233D01*
X129293932Y-93555845D01*
X129137355Y-93399268D01*
X128955967Y-93272258D01*
X128832707Y-93214781D01*
X128780268Y-93168610D01*
X128761116Y-93101417D01*
X128781331Y-93034536D01*
X128832708Y-92990018D01*
X128955967Y-92932542D01*
X129137355Y-92805532D01*
X129293932Y-92648955D01*
X129420942Y-92467567D01*
X129514523Y-92266880D01*
X129571835Y-92052991D01*
X129591134Y-91832400D01*
X129587042Y-91785633D01*
X129578441Y-91687322D01*
X129571835Y-91611809D01*
X129514523Y-91397920D01*
X129488286Y-91341655D01*
X129471061Y-91304715D01*
X129420942Y-91197233D01*
X129293932Y-91015845D01*
X129137355Y-90859268D01*
X128955967Y-90732258D01*
X128832707Y-90674781D01*
X128780268Y-90628610D01*
X128761116Y-90561417D01*
X128781331Y-90494536D01*
X128832708Y-90450018D01*
X128955967Y-90392542D01*
X129137355Y-90265532D01*
X129293932Y-90108955D01*
X129420942Y-89927567D01*
X129514523Y-89726880D01*
X129571835Y-89512991D01*
X129591134Y-89292400D01*
X129571835Y-89071809D01*
X129514523Y-88857920D01*
X129500906Y-88828719D01*
X129420943Y-88657236D01*
X129420942Y-88657234D01*
X129420942Y-88657233D01*
X129293932Y-88475845D01*
X129137355Y-88319268D01*
X128955967Y-88192258D01*
X128832707Y-88134781D01*
X128780268Y-88088610D01*
X128761116Y-88021417D01*
X128781331Y-87954536D01*
X128832708Y-87910018D01*
X128955967Y-87852542D01*
X129137355Y-87725532D01*
X129293932Y-87568955D01*
X129420942Y-87387567D01*
X129514523Y-87186880D01*
X129571835Y-86972991D01*
X129591134Y-86752400D01*
X129588634Y-86723830D01*
X129585620Y-86689374D01*
X129571835Y-86531809D01*
X129560139Y-86488159D01*
X129561802Y-86418309D01*
X129592233Y-86368385D01*
X129835718Y-86124900D01*
X130072420Y-85888197D01*
X130133742Y-85854714D01*
X130203434Y-85859698D01*
X130259367Y-85901570D01*
X130283784Y-85967034D01*
X130284100Y-85975880D01*
X130284100Y-108100477D01*
X130264415Y-108167516D01*
X130211611Y-108213271D01*
X130173984Y-108223697D01*
X130105350Y-108231430D01*
X129935078Y-108291010D01*
X129782337Y-108386984D01*
X129654784Y-108514537D01*
X129558811Y-108667276D01*
X129499231Y-108837545D01*
X129499230Y-108837550D01*
X129479035Y-109016796D01*
X129479035Y-109016803D01*
X129499230Y-109196049D01*
X129499231Y-109196054D01*
X129558811Y-109366324D01*
X129623463Y-109469216D01*
X129630074Y-109479737D01*
X129638093Y-109492498D01*
X129657100Y-109558471D01*
X129657100Y-118871728D01*
X129638094Y-118937700D01*
X129558811Y-119063876D01*
X129499231Y-119234145D01*
X129499230Y-119234150D01*
X129479035Y-119413396D01*
X129479035Y-119413403D01*
X129499230Y-119592649D01*
X129499231Y-119592654D01*
X129558811Y-119762923D01*
X129637528Y-119888200D01*
X129654784Y-119915662D01*
X129782338Y-120043216D01*
X129935078Y-120139189D01*
X130105345Y-120198768D01*
X130173984Y-120206501D01*
X130238396Y-120233566D01*
X130277952Y-120291160D01*
X130284100Y-120329721D01*
X130284100Y-124063112D01*
X130264415Y-124130151D01*
X130247781Y-124150793D01*
X124706287Y-129692286D01*
X124644964Y-129725771D01*
X124575273Y-129720787D01*
X124516114Y-129698722D01*
X124437046Y-129669231D01*
X124437042Y-129669230D01*
X124437039Y-129669229D01*
X124157433Y-129608404D01*
X123872001Y-129587990D01*
X123871999Y-129587990D01*
X123586566Y-129608404D01*
X123306962Y-129669228D01*
X123038833Y-129769235D01*
X122787690Y-129906370D01*
X122787682Y-129906375D01*
X122558612Y-130077854D01*
X122558594Y-130077870D01*
X122356270Y-130280194D01*
X122356254Y-130280212D01*
X122184775Y-130509282D01*
X122184770Y-130509290D01*
X122047635Y-130760433D01*
X121947628Y-131028562D01*
X121886804Y-131308166D01*
X121866390Y-131593598D01*
X121866390Y-131593601D01*
X121886804Y-131879033D01*
X121947628Y-132158637D01*
X121947630Y-132158643D01*
X121947631Y-132158646D01*
X122001775Y-132303810D01*
X122047635Y-132426766D01*
X122184770Y-132677909D01*
X122184775Y-132677917D01*
X122356254Y-132906987D01*
X122356270Y-132907005D01*
X122558594Y-133109329D01*
X122558612Y-133109345D01*
X122787682Y-133280824D01*
X122787690Y-133280829D01*
X123038833Y-133417964D01*
X123038832Y-133417964D01*
X123038836Y-133417965D01*
X123038839Y-133417967D01*
X123306954Y-133517969D01*
X123306960Y-133517970D01*
X123306962Y-133517971D01*
X123586566Y-133578795D01*
X123586568Y-133578795D01*
X123586572Y-133578796D01*
X123840220Y-133596937D01*
X123871999Y-133599210D01*
X123872000Y-133599210D01*
X123872001Y-133599210D01*
X123900595Y-133597164D01*
X124157428Y-133578796D01*
X124437046Y-133517969D01*
X124705161Y-133417967D01*
X124956315Y-133280826D01*
X125185395Y-133109339D01*
X125387739Y-132906995D01*
X125559226Y-132677915D01*
X125696367Y-132426761D01*
X125796369Y-132158646D01*
X125797997Y-132151161D01*
X125857195Y-131879033D01*
X125857195Y-131879032D01*
X125857196Y-131879028D01*
X125877610Y-131593600D01*
X125877610Y-131593598D01*
X126946390Y-131593598D01*
X126946390Y-131593601D01*
X126966804Y-131879033D01*
X127027628Y-132158637D01*
X127027630Y-132158643D01*
X127027631Y-132158646D01*
X127081775Y-132303810D01*
X127127635Y-132426766D01*
X127264770Y-132677909D01*
X127264775Y-132677917D01*
X127436254Y-132906987D01*
X127436270Y-132907005D01*
X127638594Y-133109329D01*
X127638612Y-133109345D01*
X127867682Y-133280824D01*
X127867690Y-133280829D01*
X128118833Y-133417964D01*
X128118832Y-133417964D01*
X128118836Y-133417965D01*
X128118839Y-133417967D01*
X128386954Y-133517969D01*
X128386960Y-133517970D01*
X128386962Y-133517971D01*
X128666566Y-133578795D01*
X128666568Y-133578795D01*
X128666572Y-133578796D01*
X128920220Y-133596937D01*
X128951999Y-133599210D01*
X128952000Y-133599210D01*
X128952001Y-133599210D01*
X128980595Y-133597164D01*
X129237428Y-133578796D01*
X129517046Y-133517969D01*
X129785161Y-133417967D01*
X130036315Y-133280826D01*
X130265395Y-133109339D01*
X130467739Y-132906995D01*
X130639226Y-132677915D01*
X130776367Y-132426761D01*
X130876369Y-132158646D01*
X130877997Y-132151161D01*
X130937195Y-131879033D01*
X130937195Y-131879032D01*
X130937196Y-131879028D01*
X130957610Y-131593600D01*
X130937196Y-131308172D01*
X130898734Y-131131366D01*
X130876371Y-131028562D01*
X130876370Y-131028560D01*
X130876369Y-131028554D01*
X130824810Y-130890322D01*
X130819827Y-130820633D01*
X130853310Y-130759312D01*
X131880417Y-129732205D01*
X131941738Y-129698722D01*
X132011430Y-129703706D01*
X132067363Y-129745578D01*
X132091780Y-129811042D01*
X132084278Y-129863220D01*
X132038403Y-129986217D01*
X132038401Y-129986227D01*
X132032000Y-130045755D01*
X132032000Y-131343600D01*
X133312936Y-131343600D01*
X133301207Y-131371916D01*
X133272000Y-131518747D01*
X133272000Y-131668453D01*
X133301207Y-131815284D01*
X133312936Y-131843600D01*
X132032000Y-131843600D01*
X132032000Y-133141444D01*
X132038401Y-133200972D01*
X132038403Y-133200979D01*
X132088645Y-133335686D01*
X132088649Y-133335693D01*
X132174809Y-133450787D01*
X132174812Y-133450790D01*
X132289906Y-133536950D01*
X132289913Y-133536954D01*
X132424620Y-133587196D01*
X132424627Y-133587198D01*
X132484155Y-133593599D01*
X132484172Y-133593600D01*
X133782000Y-133593600D01*
X133782000Y-132312664D01*
X133810316Y-132324393D01*
X133957147Y-132353600D01*
X134106853Y-132353600D01*
X134253684Y-132324393D01*
X134282000Y-132312664D01*
X134282000Y-133593600D01*
X135579828Y-133593600D01*
X135579844Y-133593599D01*
X135639372Y-133587198D01*
X135639379Y-133587196D01*
X135774086Y-133536954D01*
X135774093Y-133536950D01*
X135889187Y-133450790D01*
X135889190Y-133450787D01*
X135975350Y-133335693D01*
X135975354Y-133335686D01*
X136025596Y-133200979D01*
X136025598Y-133200972D01*
X136031999Y-133141444D01*
X136032000Y-133141427D01*
X136032000Y-131843600D01*
X134751064Y-131843600D01*
X134762793Y-131815284D01*
X134792000Y-131668453D01*
X134792000Y-131518747D01*
X134762793Y-131371916D01*
X134751064Y-131343600D01*
X136032000Y-131343600D01*
X136032000Y-131317998D01*
X150089590Y-131317998D01*
X150089590Y-131318001D01*
X150110004Y-131603433D01*
X150170828Y-131883037D01*
X150170830Y-131883043D01*
X150170831Y-131883046D01*
X150209016Y-131985424D01*
X150270835Y-132151166D01*
X150407970Y-132402309D01*
X150407975Y-132402317D01*
X150579454Y-132631387D01*
X150579470Y-132631405D01*
X150781794Y-132833729D01*
X150781812Y-132833745D01*
X151010882Y-133005224D01*
X151010890Y-133005229D01*
X151262033Y-133142364D01*
X151262032Y-133142364D01*
X151262036Y-133142365D01*
X151262039Y-133142367D01*
X151530154Y-133242369D01*
X151530160Y-133242370D01*
X151530162Y-133242371D01*
X151809766Y-133303195D01*
X151809768Y-133303195D01*
X151809772Y-133303196D01*
X152063420Y-133321337D01*
X152095199Y-133323610D01*
X152095200Y-133323610D01*
X152095201Y-133323610D01*
X152123795Y-133321564D01*
X152380628Y-133303196D01*
X152570942Y-133261796D01*
X152660237Y-133242371D01*
X152660237Y-133242370D01*
X152660246Y-133242369D01*
X152928361Y-133142367D01*
X153179515Y-133005226D01*
X153408595Y-132833739D01*
X153610939Y-132631395D01*
X153782426Y-132402315D01*
X153919567Y-132151161D01*
X154019569Y-131883046D01*
X154080396Y-131603428D01*
X154100810Y-131318000D01*
X154080396Y-131032572D01*
X154049452Y-130890326D01*
X154019571Y-130752962D01*
X154019570Y-130752960D01*
X154019569Y-130752954D01*
X153919567Y-130484839D01*
X153782426Y-130233685D01*
X153782424Y-130233682D01*
X153610945Y-130004612D01*
X153610929Y-130004594D01*
X153408605Y-129802270D01*
X153408587Y-129802254D01*
X153365681Y-129770135D01*
X155174700Y-129770135D01*
X155174700Y-132865870D01*
X155174701Y-132865876D01*
X155181108Y-132925483D01*
X155231402Y-133060328D01*
X155231406Y-133060335D01*
X155317652Y-133175544D01*
X155317655Y-133175547D01*
X155432864Y-133261793D01*
X155432871Y-133261797D01*
X155567717Y-133312091D01*
X155567716Y-133312091D01*
X155574644Y-133312835D01*
X155627327Y-133318500D01*
X158723072Y-133318499D01*
X158782683Y-133312091D01*
X158917531Y-133261796D01*
X159032746Y-133175546D01*
X159118996Y-133060331D01*
X159169291Y-132925483D01*
X159175700Y-132865873D01*
X159175699Y-129770128D01*
X159169291Y-129710517D01*
X159162491Y-129692286D01*
X159118997Y-129575671D01*
X159118993Y-129575664D01*
X159032747Y-129460455D01*
X159032744Y-129460452D01*
X158917535Y-129374206D01*
X158917528Y-129374202D01*
X158782682Y-129323908D01*
X158782683Y-129323908D01*
X158723083Y-129317501D01*
X158723081Y-129317500D01*
X158723073Y-129317500D01*
X158723064Y-129317500D01*
X155627329Y-129317500D01*
X155627323Y-129317501D01*
X155567716Y-129323908D01*
X155432871Y-129374202D01*
X155432864Y-129374206D01*
X155317655Y-129460452D01*
X155317652Y-129460455D01*
X155231406Y-129575664D01*
X155231402Y-129575671D01*
X155181108Y-129710517D01*
X155174796Y-129769233D01*
X155174701Y-129770123D01*
X155174700Y-129770135D01*
X153365681Y-129770135D01*
X153179517Y-129630775D01*
X153179509Y-129630770D01*
X152928366Y-129493635D01*
X152928367Y-129493635D01*
X152789968Y-129442015D01*
X152660246Y-129393631D01*
X152660243Y-129393630D01*
X152660237Y-129393628D01*
X152380633Y-129332804D01*
X152095201Y-129312390D01*
X152095199Y-129312390D01*
X151809766Y-129332804D01*
X151530162Y-129393628D01*
X151262033Y-129493635D01*
X151010890Y-129630770D01*
X151010882Y-129630775D01*
X150781812Y-129802254D01*
X150781794Y-129802270D01*
X150579470Y-130004594D01*
X150579454Y-130004612D01*
X150407975Y-130233682D01*
X150407970Y-130233690D01*
X150270835Y-130484833D01*
X150170828Y-130752962D01*
X150110004Y-131032566D01*
X150089590Y-131317998D01*
X136032000Y-131317998D01*
X136032000Y-130045772D01*
X136031999Y-130045755D01*
X136025598Y-129986227D01*
X136025596Y-129986220D01*
X135975354Y-129851513D01*
X135975350Y-129851506D01*
X135889190Y-129736412D01*
X135889187Y-129736409D01*
X135774093Y-129650249D01*
X135774086Y-129650245D01*
X135639379Y-129600003D01*
X135639372Y-129600001D01*
X135579844Y-129593600D01*
X134282000Y-129593600D01*
X134282000Y-130874535D01*
X134253684Y-130862807D01*
X134106853Y-130833600D01*
X133957147Y-130833600D01*
X133810316Y-130862807D01*
X133782000Y-130874535D01*
X133782000Y-129593600D01*
X132484155Y-129593600D01*
X132424627Y-129600001D01*
X132424617Y-129600003D01*
X132301620Y-129645878D01*
X132231929Y-129650862D01*
X132170606Y-129617376D01*
X132137122Y-129556053D01*
X132142107Y-129486361D01*
X132170604Y-129442018D01*
X135676005Y-125936619D01*
X135737328Y-125903134D01*
X135763686Y-125900300D01*
X143965313Y-125900300D01*
X143965314Y-125900299D01*
X144111080Y-125871305D01*
X144248390Y-125814429D01*
X144371966Y-125731859D01*
X144477059Y-125626766D01*
X144559629Y-125503190D01*
X144616505Y-125365880D01*
X144645500Y-125220112D01*
X144645500Y-124212099D01*
X144665185Y-124145060D01*
X144717989Y-124099305D01*
X144769500Y-124088099D01*
X144941002Y-124088099D01*
X144941008Y-124088099D01*
X145043797Y-124077599D01*
X145210334Y-124022414D01*
X145359656Y-123930312D01*
X145483712Y-123806256D01*
X145575814Y-123656934D01*
X145630999Y-123490397D01*
X145641500Y-123387609D01*
X145641499Y-122337595D01*
X154385732Y-122337595D01*
X154385732Y-122337604D01*
X154404777Y-122591754D01*
X154404778Y-122591757D01*
X154461492Y-122840237D01*
X154554607Y-123077488D01*
X154682041Y-123298212D01*
X154840950Y-123497477D01*
X155027783Y-123670832D01*
X155238366Y-123814405D01*
X155238371Y-123814407D01*
X155238372Y-123814408D01*
X155238373Y-123814409D01*
X155360328Y-123873138D01*
X155467992Y-123924987D01*
X155467993Y-123924987D01*
X155467996Y-123924989D01*
X155711542Y-124000113D01*
X155963565Y-124038100D01*
X156218435Y-124038100D01*
X156470458Y-124000113D01*
X156714004Y-123924989D01*
X156943634Y-123814405D01*
X157154217Y-123670832D01*
X157341050Y-123497477D01*
X157499959Y-123298212D01*
X157627393Y-123077488D01*
X157720508Y-122840237D01*
X157777222Y-122591757D01*
X157796268Y-122337600D01*
X157777222Y-122083443D01*
X157720508Y-121834963D01*
X157627393Y-121597712D01*
X157499959Y-121376988D01*
X157341050Y-121177723D01*
X157154217Y-121004368D01*
X156943634Y-120860795D01*
X156943630Y-120860793D01*
X156943627Y-120860791D01*
X156943626Y-120860790D01*
X156714006Y-120750212D01*
X156714008Y-120750212D01*
X156470466Y-120675089D01*
X156470462Y-120675088D01*
X156470458Y-120675087D01*
X156349231Y-120656814D01*
X156218440Y-120637100D01*
X156218435Y-120637100D01*
X155963565Y-120637100D01*
X155963559Y-120637100D01*
X155806609Y-120660757D01*
X155711542Y-120675087D01*
X155711539Y-120675088D01*
X155711533Y-120675089D01*
X155467992Y-120750212D01*
X155238373Y-120860790D01*
X155238372Y-120860791D01*
X155027782Y-121004368D01*
X154840952Y-121177721D01*
X154840950Y-121177723D01*
X154682041Y-121376988D01*
X154554608Y-121597709D01*
X154461492Y-121834962D01*
X154461490Y-121834969D01*
X154404777Y-122083445D01*
X154385732Y-122337595D01*
X145641499Y-122337595D01*
X145641499Y-121905485D01*
X145661184Y-121838447D01*
X145677813Y-121817810D01*
X155493606Y-112002016D01*
X155554927Y-111968533D01*
X155617834Y-111971207D01*
X155711542Y-112000113D01*
X155963565Y-112038100D01*
X156218435Y-112038100D01*
X156470458Y-112000113D01*
X156714004Y-111924989D01*
X156943634Y-111814405D01*
X157154217Y-111670832D01*
X157341050Y-111497477D01*
X157499959Y-111298212D01*
X157627393Y-111077488D01*
X157720508Y-110840237D01*
X157777222Y-110591757D01*
X157796268Y-110337600D01*
X157794642Y-110315906D01*
X157777222Y-110083445D01*
X157775798Y-110077208D01*
X157720508Y-109834963D01*
X157627393Y-109597712D01*
X157499959Y-109376988D01*
X157341050Y-109177723D01*
X157154217Y-109004368D01*
X156943634Y-108860795D01*
X156943630Y-108860793D01*
X156943627Y-108860791D01*
X156943626Y-108860790D01*
X156714006Y-108750212D01*
X156714008Y-108750212D01*
X156470466Y-108675089D01*
X156470462Y-108675088D01*
X156470458Y-108675087D01*
X156349231Y-108656814D01*
X156218440Y-108637100D01*
X156218435Y-108637100D01*
X155963565Y-108637100D01*
X155963559Y-108637100D01*
X155806609Y-108660757D01*
X155711542Y-108675087D01*
X155711539Y-108675088D01*
X155711529Y-108675090D01*
X155617835Y-108703991D01*
X155547972Y-108704941D01*
X155493605Y-108673181D01*
X149321869Y-102501443D01*
X149321868Y-102501442D01*
X149280673Y-102473917D01*
X149198289Y-102418870D01*
X149198286Y-102418868D01*
X149198285Y-102418868D01*
X149117855Y-102385553D01*
X149060980Y-102361995D01*
X149036794Y-102357184D01*
X148915214Y-102332999D01*
X148915212Y-102332999D01*
X148766588Y-102332999D01*
X148760474Y-102332999D01*
X148760454Y-102333000D01*
X146082487Y-102333000D01*
X146015448Y-102313315D01*
X145969693Y-102260511D01*
X145959749Y-102191353D01*
X145988774Y-102127797D01*
X145994806Y-102121319D01*
X147481329Y-100634796D01*
X149054435Y-100634796D01*
X149054435Y-100634803D01*
X149074630Y-100814049D01*
X149074631Y-100814054D01*
X149134211Y-100984323D01*
X149146415Y-101003745D01*
X149230184Y-101137062D01*
X149357738Y-101264616D01*
X149433733Y-101312367D01*
X149516374Y-101364294D01*
X149515868Y-101365098D01*
X149541360Y-101383185D01*
X151722300Y-103564124D01*
X151722321Y-103564147D01*
X151831729Y-103673555D01*
X151831732Y-103673557D01*
X151831734Y-103673559D01*
X151914305Y-103728730D01*
X151955311Y-103756130D01*
X152035743Y-103789445D01*
X152035744Y-103789446D01*
X152059303Y-103799204D01*
X152092620Y-103813005D01*
X152092629Y-103813006D01*
X152092630Y-103813007D01*
X152116803Y-103817815D01*
X152116810Y-103817816D01*
X152238386Y-103842001D01*
X152238388Y-103842001D01*
X152393126Y-103842001D01*
X152393146Y-103842000D01*
X154362052Y-103842000D01*
X154429091Y-103861685D01*
X154469437Y-103903998D01*
X154552641Y-104048112D01*
X154711550Y-104247377D01*
X154898383Y-104420732D01*
X155108966Y-104564305D01*
X155108971Y-104564307D01*
X155108972Y-104564308D01*
X155108973Y-104564309D01*
X155230928Y-104623038D01*
X155338592Y-104674887D01*
X155338593Y-104674887D01*
X155338596Y-104674889D01*
X155582142Y-104750013D01*
X155834165Y-104788000D01*
X156089035Y-104788000D01*
X156341058Y-104750013D01*
X156584604Y-104674889D01*
X156806559Y-104568001D01*
X156814226Y-104564309D01*
X156814226Y-104564308D01*
X156814234Y-104564305D01*
X157024817Y-104420732D01*
X157211650Y-104247377D01*
X157370559Y-104048112D01*
X157497993Y-103827388D01*
X157591108Y-103590137D01*
X157647822Y-103341657D01*
X157666868Y-103087500D01*
X157647822Y-102833343D01*
X157591108Y-102584863D01*
X157497993Y-102347612D01*
X157370559Y-102126888D01*
X157211650Y-101927623D01*
X157024817Y-101754268D01*
X156814234Y-101610695D01*
X156814230Y-101610693D01*
X156814227Y-101610691D01*
X156814226Y-101610690D01*
X156584606Y-101500112D01*
X156584608Y-101500112D01*
X156341066Y-101424989D01*
X156341062Y-101424988D01*
X156341058Y-101424987D01*
X156219831Y-101406714D01*
X156089040Y-101387000D01*
X156089035Y-101387000D01*
X155834165Y-101387000D01*
X155834159Y-101387000D01*
X155677209Y-101410657D01*
X155582142Y-101424987D01*
X155582139Y-101424988D01*
X155582133Y-101424989D01*
X155338592Y-101500112D01*
X155108973Y-101610690D01*
X155108972Y-101610691D01*
X154898382Y-101754268D01*
X154839029Y-101809340D01*
X154711550Y-101927623D01*
X154552641Y-102126888D01*
X154469437Y-102271001D01*
X154418873Y-102319215D01*
X154362052Y-102333000D01*
X152676586Y-102333000D01*
X152609547Y-102313315D01*
X152588905Y-102296681D01*
X151604591Y-101312367D01*
X150608385Y-100316160D01*
X150590298Y-100290668D01*
X150589494Y-100291174D01*
X150489815Y-100132537D01*
X150362262Y-100004984D01*
X150209523Y-99909011D01*
X150039254Y-99849431D01*
X150039249Y-99849430D01*
X149860004Y-99829235D01*
X149859996Y-99829235D01*
X149680750Y-99849430D01*
X149680745Y-99849431D01*
X149510476Y-99909011D01*
X149357737Y-100004984D01*
X149230184Y-100132537D01*
X149134211Y-100285276D01*
X149074631Y-100455545D01*
X149074630Y-100455550D01*
X149054435Y-100634796D01*
X147481329Y-100634796D01*
X147543816Y-100572309D01*
X155364206Y-92751916D01*
X155425527Y-92718433D01*
X155488434Y-92721107D01*
X155582142Y-92750013D01*
X155834165Y-92788000D01*
X156089035Y-92788000D01*
X156341058Y-92750013D01*
X156584604Y-92674889D01*
X156814234Y-92564305D01*
X157024817Y-92420732D01*
X157211650Y-92247377D01*
X157370559Y-92048112D01*
X157497993Y-91827388D01*
X157591108Y-91590137D01*
X157647822Y-91341657D01*
X157666702Y-91089717D01*
X157666868Y-91087504D01*
X157666868Y-91087495D01*
X157647822Y-90833345D01*
X157630788Y-90758715D01*
X157591108Y-90584863D01*
X157497993Y-90347612D01*
X157370559Y-90126888D01*
X157211650Y-89927623D01*
X157024817Y-89754268D01*
X156814234Y-89610695D01*
X156814230Y-89610693D01*
X156814227Y-89610691D01*
X156814226Y-89610690D01*
X156584606Y-89500112D01*
X156584608Y-89500112D01*
X156341066Y-89424989D01*
X156341062Y-89424988D01*
X156341058Y-89424987D01*
X156219831Y-89406714D01*
X156089040Y-89387000D01*
X156089035Y-89387000D01*
X155834165Y-89387000D01*
X155834159Y-89387000D01*
X155677209Y-89410657D01*
X155582142Y-89424987D01*
X155582139Y-89424988D01*
X155582133Y-89424989D01*
X155338592Y-89500112D01*
X155108973Y-89610690D01*
X155108972Y-89610691D01*
X154898382Y-89754268D01*
X154711552Y-89927621D01*
X154711550Y-89927623D01*
X154552641Y-90126888D01*
X154425208Y-90347609D01*
X154332092Y-90584862D01*
X154332090Y-90584869D01*
X154275377Y-90833345D01*
X154256332Y-91087495D01*
X154256332Y-91087504D01*
X154275377Y-91341655D01*
X154275377Y-91341657D01*
X154327962Y-91572049D01*
X154323689Y-91641788D01*
X154294752Y-91687322D01*
X144681393Y-101300681D01*
X144620070Y-101334166D01*
X144593712Y-101337000D01*
X142711598Y-101337000D01*
X142711581Y-101337001D01*
X142608803Y-101347500D01*
X142608800Y-101347501D01*
X142442268Y-101402685D01*
X142442263Y-101402687D01*
X142292942Y-101494789D01*
X142168889Y-101618842D01*
X142076787Y-101768163D01*
X142076785Y-101768168D01*
X142065891Y-101801045D01*
X142021601Y-101934703D01*
X142021601Y-101934704D01*
X142021600Y-101934704D01*
X142011100Y-102037483D01*
X142011100Y-104137501D01*
X142011101Y-104137518D01*
X142021600Y-104240296D01*
X142021601Y-104240299D01*
X142023947Y-104247378D01*
X142076786Y-104406834D01*
X142168888Y-104556156D01*
X142292944Y-104680212D01*
X142442266Y-104772314D01*
X142608803Y-104827499D01*
X142711591Y-104838000D01*
X144811608Y-104837999D01*
X144914397Y-104827499D01*
X145080934Y-104772314D01*
X145230256Y-104680212D01*
X145354312Y-104556156D01*
X145446414Y-104406834D01*
X145501599Y-104240297D01*
X145512100Y-104137509D01*
X145512100Y-103966000D01*
X145531785Y-103898961D01*
X145584589Y-103853206D01*
X145636100Y-103842000D01*
X148477013Y-103842000D01*
X148544052Y-103861685D01*
X148564694Y-103878319D01*
X154424153Y-109737777D01*
X154457638Y-109799100D01*
X154457363Y-109853051D01*
X154404777Y-110083444D01*
X154385732Y-110337595D01*
X154385732Y-110337604D01*
X154404777Y-110591755D01*
X154404777Y-110591757D01*
X154457362Y-110822149D01*
X154453089Y-110891888D01*
X154424152Y-110937422D01*
X144810793Y-120550781D01*
X144749470Y-120584266D01*
X144723112Y-120587100D01*
X142840998Y-120587100D01*
X142840981Y-120587101D01*
X142738203Y-120597600D01*
X142738200Y-120597601D01*
X142571668Y-120652785D01*
X142571663Y-120652787D01*
X142422342Y-120744889D01*
X142298289Y-120868942D01*
X142206187Y-121018263D01*
X142206186Y-121018266D01*
X142151001Y-121184803D01*
X142151001Y-121184804D01*
X142151000Y-121184804D01*
X142140500Y-121287583D01*
X142140500Y-123387601D01*
X142140501Y-123387618D01*
X142151000Y-123490396D01*
X142151001Y-123490399D01*
X142164447Y-123530975D01*
X142206186Y-123656934D01*
X142298288Y-123806256D01*
X142422344Y-123930312D01*
X142571666Y-124022414D01*
X142738203Y-124077599D01*
X142840991Y-124088100D01*
X143012500Y-124088099D01*
X143079539Y-124107783D01*
X143125294Y-124160587D01*
X143136500Y-124212099D01*
X143136500Y-124267300D01*
X143116815Y-124334339D01*
X143064011Y-124380094D01*
X143012500Y-124391300D01*
X135325483Y-124391300D01*
X135179727Y-124420293D01*
X135179719Y-124420295D01*
X135042408Y-124477171D01*
X134918835Y-124559739D01*
X134918834Y-124559740D01*
X134866288Y-124612287D01*
X134813741Y-124664834D01*
X134813739Y-124664836D01*
X129786288Y-129692286D01*
X129724965Y-129725771D01*
X129655274Y-129720787D01*
X129596114Y-129698722D01*
X129517046Y-129669231D01*
X129517042Y-129669230D01*
X129517039Y-129669229D01*
X129237433Y-129608404D01*
X128952001Y-129587990D01*
X128951999Y-129587990D01*
X128666566Y-129608404D01*
X128386962Y-129669228D01*
X128118833Y-129769235D01*
X127867690Y-129906370D01*
X127867682Y-129906375D01*
X127638612Y-130077854D01*
X127638594Y-130077870D01*
X127436270Y-130280194D01*
X127436254Y-130280212D01*
X127264775Y-130509282D01*
X127264770Y-130509290D01*
X127127635Y-130760433D01*
X127027628Y-131028562D01*
X126966804Y-131308166D01*
X126946390Y-131593598D01*
X125877610Y-131593598D01*
X125857196Y-131308172D01*
X125818734Y-131131366D01*
X125796371Y-131028562D01*
X125796370Y-131028560D01*
X125796369Y-131028554D01*
X125744810Y-130890322D01*
X125739827Y-130820634D01*
X125773308Y-130759315D01*
X131519563Y-125013060D01*
X131519566Y-125013059D01*
X131624659Y-124907966D01*
X131679830Y-124825395D01*
X131707230Y-124784389D01*
X131740546Y-124703955D01*
X131764105Y-124647080D01*
X131781478Y-124559741D01*
X131781913Y-124557556D01*
X131781913Y-124557553D01*
X131793101Y-124501312D01*
X131793101Y-124347578D01*
X131793100Y-124347552D01*
X131793100Y-116337593D01*
X140485700Y-116337593D01*
X140485700Y-116337606D01*
X140504864Y-116568897D01*
X140504866Y-116568908D01*
X140561842Y-116793900D01*
X140655075Y-117006448D01*
X140782016Y-117200747D01*
X140782019Y-117200751D01*
X140782021Y-117200753D01*
X140939216Y-117371513D01*
X140939219Y-117371515D01*
X140939222Y-117371518D01*
X141122365Y-117514064D01*
X141122371Y-117514068D01*
X141122374Y-117514070D01*
X141326497Y-117624536D01*
X141440487Y-117663668D01*
X141546015Y-117699897D01*
X141546017Y-117699897D01*
X141546019Y-117699898D01*
X141774951Y-117738100D01*
X141774952Y-117738100D01*
X142007048Y-117738100D01*
X142007049Y-117738100D01*
X142235981Y-117699898D01*
X142455503Y-117624536D01*
X142659626Y-117514070D01*
X142842784Y-117371513D01*
X142999979Y-117200753D01*
X143126924Y-117006449D01*
X143220157Y-116793900D01*
X143277134Y-116568905D01*
X143296300Y-116337600D01*
X143296300Y-116337593D01*
X143277135Y-116106302D01*
X143277133Y-116106291D01*
X143220157Y-115881299D01*
X143126924Y-115668751D01*
X142999983Y-115474452D01*
X142999980Y-115474449D01*
X142999979Y-115474447D01*
X142842784Y-115303687D01*
X142842779Y-115303683D01*
X142842777Y-115303681D01*
X142659634Y-115161135D01*
X142659628Y-115161131D01*
X142455504Y-115050664D01*
X142455495Y-115050661D01*
X142235984Y-114975302D01*
X142032104Y-114941281D01*
X142007049Y-114937100D01*
X141774951Y-114937100D01*
X141749896Y-114941281D01*
X141546015Y-114975302D01*
X141326504Y-115050661D01*
X141326495Y-115050664D01*
X141122371Y-115161131D01*
X141122365Y-115161135D01*
X140939222Y-115303681D01*
X140939219Y-115303684D01*
X140782016Y-115474452D01*
X140655075Y-115668751D01*
X140561842Y-115881299D01*
X140504866Y-116106291D01*
X140504864Y-116106302D01*
X140485700Y-116337593D01*
X131793100Y-116337593D01*
X131793100Y-110337595D01*
X142185732Y-110337595D01*
X142185732Y-110337604D01*
X142204777Y-110591754D01*
X142257363Y-110822149D01*
X142261492Y-110840237D01*
X142354607Y-111077488D01*
X142482041Y-111298212D01*
X142640950Y-111497477D01*
X142827783Y-111670832D01*
X143038366Y-111814405D01*
X143038371Y-111814407D01*
X143038372Y-111814408D01*
X143038373Y-111814409D01*
X143160328Y-111873138D01*
X143267992Y-111924987D01*
X143267993Y-111924987D01*
X143267996Y-111924989D01*
X143511542Y-112000113D01*
X143763565Y-112038100D01*
X144018435Y-112038100D01*
X144270458Y-112000113D01*
X144514004Y-111924989D01*
X144743634Y-111814405D01*
X144954217Y-111670832D01*
X145141050Y-111497477D01*
X145299959Y-111298212D01*
X145427393Y-111077488D01*
X145520508Y-110840237D01*
X145577222Y-110591757D01*
X145596268Y-110337600D01*
X145594642Y-110315906D01*
X145577222Y-110083445D01*
X145575798Y-110077208D01*
X145520508Y-109834963D01*
X145427393Y-109597712D01*
X145299959Y-109376988D01*
X145141050Y-109177723D01*
X144954217Y-109004368D01*
X144743634Y-108860795D01*
X144743630Y-108860793D01*
X144743627Y-108860791D01*
X144743626Y-108860790D01*
X144514006Y-108750212D01*
X144514008Y-108750212D01*
X144270466Y-108675089D01*
X144270462Y-108675088D01*
X144270458Y-108675087D01*
X144149231Y-108656814D01*
X144018440Y-108637100D01*
X144018435Y-108637100D01*
X143763565Y-108637100D01*
X143763559Y-108637100D01*
X143606609Y-108660757D01*
X143511542Y-108675087D01*
X143511539Y-108675088D01*
X143511533Y-108675089D01*
X143267992Y-108750212D01*
X143038373Y-108860790D01*
X143038372Y-108860791D01*
X142827782Y-109004368D01*
X142640952Y-109177721D01*
X142640950Y-109177723D01*
X142482041Y-109376988D01*
X142354608Y-109597709D01*
X142261492Y-109834962D01*
X142261490Y-109834969D01*
X142204777Y-110083445D01*
X142185732Y-110337595D01*
X131793100Y-110337595D01*
X131793100Y-97087493D01*
X140356300Y-97087493D01*
X140356300Y-97087506D01*
X140375464Y-97318797D01*
X140375466Y-97318808D01*
X140432442Y-97543800D01*
X140525675Y-97756348D01*
X140652616Y-97950647D01*
X140652619Y-97950650D01*
X140652621Y-97950653D01*
X140809816Y-98121413D01*
X140809819Y-98121415D01*
X140809822Y-98121418D01*
X140992965Y-98263964D01*
X140992971Y-98263968D01*
X140992974Y-98263970D01*
X141197097Y-98374436D01*
X141282311Y-98403690D01*
X141416615Y-98449797D01*
X141416617Y-98449797D01*
X141416619Y-98449798D01*
X141645551Y-98488000D01*
X141645552Y-98488000D01*
X141877648Y-98488000D01*
X141877649Y-98488000D01*
X142106581Y-98449798D01*
X142326103Y-98374436D01*
X142530226Y-98263970D01*
X142537027Y-98258677D01*
X142610661Y-98201365D01*
X142713384Y-98121413D01*
X142870579Y-97950653D01*
X142904862Y-97898179D01*
X142958008Y-97852822D01*
X143008671Y-97842000D01*
X146621254Y-97842000D01*
X146621274Y-97842001D01*
X146627388Y-97842001D01*
X146776014Y-97842001D01*
X146897594Y-97817815D01*
X146897594Y-97817816D01*
X146897600Y-97817813D01*
X146921780Y-97813005D01*
X146984648Y-97786964D01*
X147059089Y-97756130D01*
X147182666Y-97673559D01*
X152093563Y-92762660D01*
X152093566Y-92762659D01*
X152198659Y-92657566D01*
X152281230Y-92533989D01*
X152338105Y-92396679D01*
X152352550Y-92324064D01*
X152367101Y-92250914D01*
X152367101Y-92102285D01*
X152344083Y-91986572D01*
X152341700Y-91962380D01*
X152341700Y-82464699D01*
X152361385Y-82397660D01*
X152414189Y-82351905D01*
X152465700Y-82340699D01*
X153135071Y-82340699D01*
X153135072Y-82340699D01*
X153194683Y-82334291D01*
X153329531Y-82283996D01*
X153444746Y-82197746D01*
X153530996Y-82082531D01*
X153581291Y-81947683D01*
X153587700Y-81888073D01*
X153587699Y-80340198D01*
X154661590Y-80340198D01*
X154661590Y-80340201D01*
X154682004Y-80625633D01*
X154742828Y-80905237D01*
X154742830Y-80905243D01*
X154742831Y-80905246D01*
X154799476Y-81057117D01*
X154842835Y-81173366D01*
X154979970Y-81424509D01*
X154979975Y-81424517D01*
X155151454Y-81653587D01*
X155151470Y-81653605D01*
X155353794Y-81855929D01*
X155353812Y-81855945D01*
X155582882Y-82027424D01*
X155582890Y-82027429D01*
X155834033Y-82164564D01*
X155834032Y-82164564D01*
X155834036Y-82164565D01*
X155834039Y-82164567D01*
X156102154Y-82264569D01*
X156102160Y-82264570D01*
X156102162Y-82264571D01*
X156381766Y-82325395D01*
X156381768Y-82325395D01*
X156381772Y-82325396D01*
X156635420Y-82343537D01*
X156667199Y-82345810D01*
X156667200Y-82345810D01*
X156667201Y-82345810D01*
X156695795Y-82343764D01*
X156952628Y-82325396D01*
X157034606Y-82307563D01*
X157232237Y-82264571D01*
X157232237Y-82264570D01*
X157232246Y-82264569D01*
X157500361Y-82164567D01*
X157751515Y-82027426D01*
X157980595Y-81855939D01*
X158182939Y-81653595D01*
X158354426Y-81424515D01*
X158491567Y-81173361D01*
X158591569Y-80905246D01*
X158601464Y-80859759D01*
X158652395Y-80625633D01*
X158652395Y-80625632D01*
X158652396Y-80625628D01*
X158672810Y-80340200D01*
X158670257Y-80304511D01*
X158665110Y-80232542D01*
X158652396Y-80054772D01*
X158629618Y-79950065D01*
X158591571Y-79775162D01*
X158591570Y-79775160D01*
X158591569Y-79775154D01*
X158491567Y-79507039D01*
X158477110Y-79480564D01*
X158354429Y-79255890D01*
X158354424Y-79255882D01*
X158182945Y-79026812D01*
X158182929Y-79026794D01*
X157980605Y-78824470D01*
X157980587Y-78824454D01*
X157751517Y-78652975D01*
X157751509Y-78652970D01*
X157500366Y-78515835D01*
X157500367Y-78515835D01*
X157329280Y-78452023D01*
X157232246Y-78415831D01*
X157232243Y-78415830D01*
X157232237Y-78415828D01*
X156952633Y-78355004D01*
X156667201Y-78334590D01*
X156667199Y-78334590D01*
X156381766Y-78355004D01*
X156102162Y-78415828D01*
X155834033Y-78515835D01*
X155582890Y-78652970D01*
X155582882Y-78652975D01*
X155353812Y-78824454D01*
X155353794Y-78824470D01*
X155151470Y-79026794D01*
X155151454Y-79026812D01*
X154979975Y-79255882D01*
X154979970Y-79255890D01*
X154842835Y-79507033D01*
X154742828Y-79775162D01*
X154682004Y-80054766D01*
X154661590Y-80340198D01*
X153587699Y-80340198D01*
X153587699Y-78792328D01*
X153581291Y-78732717D01*
X153551547Y-78652970D01*
X153530997Y-78597871D01*
X153530993Y-78597864D01*
X153444747Y-78482655D01*
X153444744Y-78482652D01*
X153329535Y-78396406D01*
X153329528Y-78396402D01*
X153194682Y-78346108D01*
X153194683Y-78346108D01*
X153135083Y-78339701D01*
X153135081Y-78339700D01*
X153135073Y-78339700D01*
X153135064Y-78339700D01*
X150039329Y-78339700D01*
X150039323Y-78339701D01*
X149979716Y-78346108D01*
X149844871Y-78396402D01*
X149844864Y-78396406D01*
X149729655Y-78482652D01*
X149729652Y-78482655D01*
X149643406Y-78597864D01*
X149643402Y-78597871D01*
X149593108Y-78732717D01*
X149587570Y-78784232D01*
X149586701Y-78792323D01*
X149586700Y-78792335D01*
X149586700Y-81888070D01*
X149586701Y-81888076D01*
X149593108Y-81947683D01*
X149643402Y-82082528D01*
X149643406Y-82082535D01*
X149729652Y-82197744D01*
X149729655Y-82197747D01*
X149844864Y-82283993D01*
X149844871Y-82283997D01*
X149979717Y-82334291D01*
X149979716Y-82334291D01*
X149986644Y-82335035D01*
X150039327Y-82340700D01*
X150708700Y-82340699D01*
X150775739Y-82360383D01*
X150821494Y-82413187D01*
X150832700Y-82464699D01*
X150832700Y-91838113D01*
X150813015Y-91905152D01*
X150796381Y-91925794D01*
X146425494Y-96296681D01*
X146364171Y-96330166D01*
X146337813Y-96333000D01*
X143008671Y-96333000D01*
X142941632Y-96313315D01*
X142904862Y-96276821D01*
X142870580Y-96224349D01*
X142870579Y-96224347D01*
X142713384Y-96053587D01*
X142713379Y-96053583D01*
X142713377Y-96053581D01*
X142530234Y-95911035D01*
X142530228Y-95911031D01*
X142326104Y-95800564D01*
X142326095Y-95800561D01*
X142106584Y-95725202D01*
X141934882Y-95696550D01*
X141877649Y-95687000D01*
X141645551Y-95687000D01*
X141599764Y-95694640D01*
X141416615Y-95725202D01*
X141197104Y-95800561D01*
X141197095Y-95800564D01*
X140992971Y-95911031D01*
X140992965Y-95911035D01*
X140809822Y-96053581D01*
X140809819Y-96053584D01*
X140652616Y-96224352D01*
X140525675Y-96418651D01*
X140432442Y-96631199D01*
X140375466Y-96856191D01*
X140375464Y-96856202D01*
X140356300Y-97087493D01*
X131793100Y-97087493D01*
X131793100Y-91087495D01*
X142056332Y-91087495D01*
X142056332Y-91087504D01*
X142075377Y-91341654D01*
X142132090Y-91590130D01*
X142132092Y-91590137D01*
X142225208Y-91827390D01*
X142228101Y-91832400D01*
X142352641Y-92048112D01*
X142511550Y-92247377D01*
X142698383Y-92420732D01*
X142908966Y-92564305D01*
X142908971Y-92564307D01*
X142908972Y-92564308D01*
X142908973Y-92564309D01*
X143030928Y-92623038D01*
X143138592Y-92674887D01*
X143138593Y-92674887D01*
X143138596Y-92674889D01*
X143382142Y-92750013D01*
X143634165Y-92788000D01*
X143889035Y-92788000D01*
X144141058Y-92750013D01*
X144384604Y-92674889D01*
X144614234Y-92564305D01*
X144824817Y-92420732D01*
X145011650Y-92247377D01*
X145170559Y-92048112D01*
X145297993Y-91827388D01*
X145391108Y-91590137D01*
X145447822Y-91341657D01*
X145466702Y-91089717D01*
X145466868Y-91087504D01*
X145466868Y-91087495D01*
X145447822Y-90833345D01*
X145430788Y-90758715D01*
X145391108Y-90584863D01*
X145297993Y-90347612D01*
X145170559Y-90126888D01*
X145011650Y-89927623D01*
X144824817Y-89754268D01*
X144614234Y-89610695D01*
X144614230Y-89610693D01*
X144614227Y-89610691D01*
X144614226Y-89610690D01*
X144384606Y-89500112D01*
X144384608Y-89500112D01*
X144141066Y-89424989D01*
X144141062Y-89424988D01*
X144141058Y-89424987D01*
X144019831Y-89406714D01*
X143889040Y-89387000D01*
X143889035Y-89387000D01*
X143634165Y-89387000D01*
X143634159Y-89387000D01*
X143477209Y-89410657D01*
X143382142Y-89424987D01*
X143382139Y-89424988D01*
X143382133Y-89424989D01*
X143138592Y-89500112D01*
X142908973Y-89610690D01*
X142908972Y-89610691D01*
X142698382Y-89754268D01*
X142511552Y-89927621D01*
X142511550Y-89927623D01*
X142352641Y-90126888D01*
X142225208Y-90347609D01*
X142132092Y-90584862D01*
X142132090Y-90584869D01*
X142075377Y-90833345D01*
X142056332Y-91087495D01*
X131793100Y-91087495D01*
X131793100Y-86933700D01*
X131812785Y-86866661D01*
X131865589Y-86820906D01*
X131917100Y-86809700D01*
X135682554Y-86809700D01*
X135682574Y-86809701D01*
X135688688Y-86809701D01*
X135837314Y-86809701D01*
X135958894Y-86785515D01*
X135958894Y-86785516D01*
X135958900Y-86785513D01*
X135983080Y-86780705D01*
X136051414Y-86752400D01*
X136120389Y-86723830D01*
X136243966Y-86641259D01*
X140958439Y-81926783D01*
X140983930Y-81908701D01*
X140983424Y-81907895D01*
X141007153Y-81892985D01*
X141142062Y-81808216D01*
X141269616Y-81680662D01*
X141365589Y-81527922D01*
X141425168Y-81357655D01*
X141434795Y-81272213D01*
X141445365Y-81178403D01*
X141445365Y-81178396D01*
X141425169Y-80999150D01*
X141425168Y-80999145D01*
X141392308Y-80905237D01*
X141365589Y-80828878D01*
X141269616Y-80676138D01*
X141142062Y-80548584D01*
X141110622Y-80528829D01*
X140989323Y-80452611D01*
X140819054Y-80393031D01*
X140819049Y-80393030D01*
X140639804Y-80372835D01*
X140639796Y-80372835D01*
X140460550Y-80393030D01*
X140460545Y-80393031D01*
X140290276Y-80452611D01*
X140137537Y-80548584D01*
X140009984Y-80676137D01*
X139910307Y-80834773D01*
X139909505Y-80834269D01*
X139891415Y-80859759D01*
X135486794Y-85264381D01*
X135425471Y-85297866D01*
X135399113Y-85300700D01*
X131738671Y-85300700D01*
X131671632Y-85281015D01*
X131625877Y-85228211D01*
X131615451Y-85190583D01*
X131595369Y-85012350D01*
X131595368Y-85012345D01*
X131548949Y-84879687D01*
X131535789Y-84842078D01*
X131439816Y-84689338D01*
X131312262Y-84561784D01*
X131232920Y-84511930D01*
X131159523Y-84465811D01*
X130989254Y-84406231D01*
X130989249Y-84406230D01*
X130810004Y-84386035D01*
X130809996Y-84386035D01*
X130630750Y-84406230D01*
X130630745Y-84406231D01*
X130460476Y-84465811D01*
X130334300Y-84545094D01*
X130268328Y-84564100D01*
X129943404Y-84564100D01*
X129819797Y-84564100D01*
X129766108Y-84574779D01*
X129716342Y-84584678D01*
X129646751Y-84578449D01*
X129591574Y-84535586D01*
X129568330Y-84469696D01*
X129571596Y-84438448D01*
X129570894Y-84438325D01*
X129571831Y-84433002D01*
X129571835Y-84432991D01*
X129591134Y-84212400D01*
X129571835Y-83991809D01*
X129514523Y-83777920D01*
X129500858Y-83748616D01*
X129448456Y-83636237D01*
X129420942Y-83577233D01*
X129293932Y-83395845D01*
X129137355Y-83239268D01*
X128955967Y-83112258D01*
X128832707Y-83054781D01*
X128780268Y-83008610D01*
X128761116Y-82941417D01*
X128781331Y-82874536D01*
X128832708Y-82830018D01*
X128955967Y-82772542D01*
X129137355Y-82645532D01*
X129293932Y-82488955D01*
X129420942Y-82307567D01*
X129514523Y-82106880D01*
X129571835Y-81892991D01*
X129591134Y-81672400D01*
X129571835Y-81451809D01*
X129514523Y-81237920D01*
X129420942Y-81037233D01*
X129293932Y-80855845D01*
X129137355Y-80699268D01*
X128955967Y-80572258D01*
X128905197Y-80548584D01*
X128832708Y-80514782D01*
X128780268Y-80468610D01*
X128761116Y-80401417D01*
X128781331Y-80334536D01*
X128832708Y-80290018D01*
X128955967Y-80232542D01*
X129137355Y-80105532D01*
X129293932Y-79948955D01*
X129420942Y-79767567D01*
X129514523Y-79566880D01*
X129571835Y-79352991D01*
X129591134Y-79132400D01*
X129590664Y-79127033D01*
X129571835Y-78911814D01*
X129571835Y-78911809D01*
X129514523Y-78697920D01*
X129420942Y-78497233D01*
X129293932Y-78315845D01*
X129137355Y-78159268D01*
X128955967Y-78032258D01*
X128832707Y-77974781D01*
X128780268Y-77928610D01*
X128761116Y-77861417D01*
X128781331Y-77794536D01*
X128832708Y-77750018D01*
X128848676Y-77742572D01*
X128955967Y-77692542D01*
X129137355Y-77565532D01*
X129293932Y-77408955D01*
X129420942Y-77227567D01*
X129514523Y-77026880D01*
X129571835Y-76812991D01*
X129591134Y-76592400D01*
X129571835Y-76371809D01*
X129514523Y-76157920D01*
X129420942Y-75957233D01*
X129293932Y-75775845D01*
X129137355Y-75619268D01*
X128955967Y-75492258D01*
X128832707Y-75434781D01*
X128780268Y-75388610D01*
X128761116Y-75321417D01*
X128781331Y-75254536D01*
X128832708Y-75210018D01*
X128955967Y-75152542D01*
X129137355Y-75025532D01*
X129293932Y-74868955D01*
X129420942Y-74687567D01*
X129514523Y-74486880D01*
X129571835Y-74272991D01*
X129591134Y-74052400D01*
X129571835Y-73831809D01*
X129514523Y-73617920D01*
X129498796Y-73584194D01*
X129420943Y-73417236D01*
X129420942Y-73417234D01*
X129420942Y-73417233D01*
X129293932Y-73235845D01*
X129137355Y-73079268D01*
X128955967Y-72952258D01*
X128832707Y-72894781D01*
X128780268Y-72848610D01*
X128761116Y-72781417D01*
X128781331Y-72714536D01*
X128832708Y-72670018D01*
X128840025Y-72666606D01*
X128955967Y-72612542D01*
X129137355Y-72485532D01*
X129293932Y-72328955D01*
X129420942Y-72147567D01*
X129514523Y-71946880D01*
X129571835Y-71732991D01*
X129591134Y-71512400D01*
X129571835Y-71291809D01*
X129514523Y-71077920D01*
X129420942Y-70877233D01*
X129293932Y-70695845D01*
X129137355Y-70539268D01*
X128955967Y-70412258D01*
X128832707Y-70354781D01*
X128780268Y-70308610D01*
X128761116Y-70241417D01*
X128781331Y-70174536D01*
X128832708Y-70130018D01*
X128833300Y-70129742D01*
X128955967Y-70072542D01*
X129137355Y-69945532D01*
X129293932Y-69788955D01*
X129420942Y-69607567D01*
X129514523Y-69406880D01*
X129571835Y-69192991D01*
X129591134Y-68972400D01*
X129571835Y-68751809D01*
X129514523Y-68537920D01*
X129420942Y-68337233D01*
X129293932Y-68155845D01*
X129137355Y-67999268D01*
X128955967Y-67872258D01*
X128832707Y-67814781D01*
X128780268Y-67768610D01*
X128761116Y-67701417D01*
X128781331Y-67634536D01*
X128832708Y-67590018D01*
X128955967Y-67532542D01*
X129137355Y-67405532D01*
X129293932Y-67248955D01*
X129420942Y-67067567D01*
X129514523Y-66866880D01*
X129571835Y-66652991D01*
X129591134Y-66432400D01*
X129571835Y-66211809D01*
X129514523Y-65997920D01*
X129420942Y-65797233D01*
X129293932Y-65615845D01*
X129137355Y-65459268D01*
X128955967Y-65332258D01*
X128955963Y-65332256D01*
X128755286Y-65238679D01*
X128755275Y-65238675D01*
X128541392Y-65181365D01*
X128541385Y-65181364D01*
X128320802Y-65162066D01*
X128320798Y-65162066D01*
X128100214Y-65181364D01*
X128100207Y-65181365D01*
X127886324Y-65238675D01*
X127886313Y-65238679D01*
X127685636Y-65332256D01*
X127685634Y-65332257D01*
X127504244Y-65459268D01*
X127347668Y-65615844D01*
X127220657Y-65797234D01*
X127220656Y-65797236D01*
X127127079Y-65997913D01*
X127127075Y-65997924D01*
X127069765Y-66211807D01*
X127069764Y-66211814D01*
X127050466Y-66432398D01*
X127050466Y-66432401D01*
X127069764Y-66652985D01*
X127069765Y-66652992D01*
X127127075Y-66866875D01*
X127127079Y-66866886D01*
X127220656Y-67067563D01*
X127220658Y-67067567D01*
X127347668Y-67248955D01*
X127504245Y-67405532D01*
X127685633Y-67532542D01*
X127733675Y-67554944D01*
X127808891Y-67590018D01*
X127861331Y-67636190D01*
X127880483Y-67703383D01*
X127860267Y-67770265D01*
X127808891Y-67814782D01*
X127685636Y-67872256D01*
X127685634Y-67872257D01*
X127504244Y-67999268D01*
X127347668Y-68155844D01*
X127220657Y-68337234D01*
X127220656Y-68337236D01*
X127127079Y-68537913D01*
X127127075Y-68537924D01*
X127069765Y-68751807D01*
X127069764Y-68751814D01*
X127050466Y-68972398D01*
X127050466Y-68972401D01*
X127069764Y-69192985D01*
X127069765Y-69192992D01*
X127127075Y-69406875D01*
X127127079Y-69406886D01*
X127220541Y-69607316D01*
X127220658Y-69607567D01*
X127347668Y-69788955D01*
X127504245Y-69945532D01*
X127685633Y-70072542D01*
X127747628Y-70101450D01*
X127808891Y-70130018D01*
X127861331Y-70176190D01*
X127880483Y-70243383D01*
X127860267Y-70310265D01*
X127808891Y-70354782D01*
X127685636Y-70412256D01*
X127685634Y-70412257D01*
X127504244Y-70539268D01*
X127347671Y-70695841D01*
X127347664Y-70695849D01*
X127281243Y-70790709D01*
X127259848Y-70821265D01*
X127252315Y-70832023D01*
X127197738Y-70875648D01*
X127150740Y-70884900D01*
X124342596Y-70884900D01*
X124275557Y-70865215D01*
X124254915Y-70848581D01*
X124227603Y-70821269D01*
X124227595Y-70821263D01*
X124089393Y-70739531D01*
X124089388Y-70739529D01*
X123935208Y-70694735D01*
X123935202Y-70694734D01*
X123899181Y-70691900D01*
X123500830Y-70691900D01*
X123500808Y-70691901D01*
X123464794Y-70694735D01*
X123310611Y-70739529D01*
X123310604Y-70739532D01*
X123253119Y-70773528D01*
X123185395Y-70790709D01*
X123126881Y-70773528D01*
X123069395Y-70739532D01*
X123069388Y-70739529D01*
X122915208Y-70694735D01*
X122915202Y-70694734D01*
X122879181Y-70691900D01*
X122480830Y-70691900D01*
X122480808Y-70691901D01*
X122444799Y-70694734D01*
X122403147Y-70706835D01*
X122333626Y-70727033D01*
X122290604Y-70739532D01*
X122288741Y-70740634D01*
X122286885Y-70741141D01*
X122283451Y-70742628D01*
X122283239Y-70742139D01*
X122225624Y-70757900D01*
X108633540Y-70757900D01*
X108592585Y-70750941D01*
X108524262Y-70727033D01*
X108524249Y-70727030D01*
X108345004Y-70706835D01*
X108344996Y-70706835D01*
X108165750Y-70727030D01*
X108165745Y-70727031D01*
X107995476Y-70786611D01*
X107842737Y-70882584D01*
X107715184Y-71010137D01*
X107619211Y-71162876D01*
X107559631Y-71333145D01*
X107559630Y-71333150D01*
X107539435Y-71512396D01*
X107539435Y-71512403D01*
X107559630Y-71691649D01*
X107559631Y-71691654D01*
X107619211Y-71861923D01*
X107672597Y-71946886D01*
X107715184Y-72014662D01*
X107842738Y-72142216D01*
X107923205Y-72192777D01*
X107940326Y-72203535D01*
X107995478Y-72238189D01*
X108122089Y-72282492D01*
X108165745Y-72297768D01*
X108165750Y-72297769D01*
X108351919Y-72318745D01*
X108351734Y-72320382D01*
X108410539Y-72337650D01*
X108456294Y-72390454D01*
X108467500Y-72441965D01*
X108467500Y-72890097D01*
X108470356Y-72926391D01*
X108470357Y-72926397D01*
X108515504Y-73081790D01*
X108515505Y-73081793D01*
X108515506Y-73081795D01*
X108553097Y-73145359D01*
X108601854Y-73227802D01*
X108599404Y-73229250D01*
X108620013Y-73281718D01*
X108620500Y-73292699D01*
X108620500Y-73300900D01*
X108600815Y-73367939D01*
X108548011Y-73413694D01*
X108496500Y-73424900D01*
X104090860Y-73424900D01*
X104023821Y-73405215D01*
X103989285Y-73372023D01*
X103986425Y-73367939D01*
X103893932Y-73235845D01*
X103737355Y-73079268D01*
X103555967Y-72952258D01*
X103432707Y-72894781D01*
X103380268Y-72848610D01*
X103361116Y-72781417D01*
X103381331Y-72714536D01*
X103432708Y-72670018D01*
X103440025Y-72666606D01*
X103555967Y-72612542D01*
X103737355Y-72485532D01*
X103893932Y-72328955D01*
X104020942Y-72147567D01*
X104114523Y-71946880D01*
X104171835Y-71732991D01*
X104191134Y-71512400D01*
X104171835Y-71291809D01*
X104114523Y-71077920D01*
X104020942Y-70877233D01*
X103893932Y-70695845D01*
X103737355Y-70539268D01*
X103555967Y-70412258D01*
X103555963Y-70412256D01*
X103432117Y-70354506D01*
X103379677Y-70308334D01*
X103360525Y-70241141D01*
X103380741Y-70174259D01*
X103432117Y-70129742D01*
X103555711Y-70072109D01*
X103555719Y-70072105D01*
X103621141Y-70026295D01*
X103058374Y-69463528D01*
X103117653Y-69447645D01*
X103233947Y-69380502D01*
X103328902Y-69285547D01*
X103396045Y-69169253D01*
X103411928Y-69109974D01*
X103974695Y-69672741D01*
X104020505Y-69607319D01*
X104020509Y-69607311D01*
X104114049Y-69406714D01*
X104114054Y-69406700D01*
X104171338Y-69192909D01*
X104171340Y-69192899D01*
X104190632Y-68972400D01*
X104190632Y-68972399D01*
X104171340Y-68751900D01*
X104171338Y-68751890D01*
X104114054Y-68538099D01*
X104114050Y-68538090D01*
X104020506Y-68337484D01*
X103974694Y-68272057D01*
X103411928Y-68834824D01*
X103396045Y-68775547D01*
X103328902Y-68659253D01*
X103233947Y-68564298D01*
X103117653Y-68497155D01*
X103058374Y-68481271D01*
X103621141Y-67918504D01*
X103620757Y-67914114D01*
X103584614Y-67868899D01*
X103577420Y-67799400D01*
X103608942Y-67737045D01*
X103669171Y-67701631D01*
X103699361Y-67697899D01*
X103733672Y-67697899D01*
X103793283Y-67691491D01*
X103928131Y-67641196D01*
X104043346Y-67554946D01*
X104129596Y-67439731D01*
X104179891Y-67304883D01*
X104186300Y-67245273D01*
X104186299Y-65619528D01*
X104179891Y-65559917D01*
X104142351Y-65459268D01*
X104129597Y-65425071D01*
X104129593Y-65425064D01*
X104043347Y-65309855D01*
X104043344Y-65309852D01*
X103928135Y-65223606D01*
X103928128Y-65223602D01*
X103793282Y-65173308D01*
X103793283Y-65173308D01*
X103733683Y-65166901D01*
X103733681Y-65166900D01*
X103733673Y-65166900D01*
X103733664Y-65166900D01*
X102107929Y-65166900D01*
X102107923Y-65166901D01*
X102048316Y-65173308D01*
X101913471Y-65223602D01*
X101913464Y-65223606D01*
X101798255Y-65309852D01*
X101798252Y-65309855D01*
X101712006Y-65425064D01*
X101712002Y-65425071D01*
X101661708Y-65559917D01*
X101655696Y-65615844D01*
X101655301Y-65619523D01*
X101655300Y-65619535D01*
X101655300Y-67245270D01*
X101655301Y-67245276D01*
X101661708Y-67304883D01*
X101712002Y-67439728D01*
X101712006Y-67439735D01*
X101798252Y-67554944D01*
X101798255Y-67554947D01*
X101913464Y-67641193D01*
X101913471Y-67641197D01*
X102048317Y-67691491D01*
X102048316Y-67691491D01*
X102055244Y-67692235D01*
X102107927Y-67697900D01*
X102142235Y-67697899D01*
X102209272Y-67717582D01*
X102255028Y-67770385D01*
X102264973Y-67839543D01*
X102235950Y-67903099D01*
X102220594Y-67916947D01*
X102220457Y-67918504D01*
X102783225Y-68481271D01*
X102723947Y-68497155D01*
X102607653Y-68564298D01*
X102512698Y-68659253D01*
X102445555Y-68775547D01*
X102429671Y-68834824D01*
X101866904Y-68272057D01*
X101866903Y-68272058D01*
X101821095Y-68337480D01*
X101727549Y-68538090D01*
X101727545Y-68538099D01*
X101670261Y-68751890D01*
X101670259Y-68751900D01*
X101650968Y-68972399D01*
X101650968Y-68972400D01*
X101670259Y-69192899D01*
X101670261Y-69192909D01*
X101727545Y-69406700D01*
X101727549Y-69406709D01*
X101821093Y-69607316D01*
X101821095Y-69607320D01*
X101866903Y-69672741D01*
X101866904Y-69672741D01*
X102429671Y-69109974D01*
X102445555Y-69169253D01*
X102512698Y-69285547D01*
X102607653Y-69380502D01*
X102723947Y-69447645D01*
X102783225Y-69463528D01*
X102220457Y-70026294D01*
X102285884Y-70072107D01*
X102409483Y-70129742D01*
X102461922Y-70175914D01*
X102481074Y-70243108D01*
X102460858Y-70309989D01*
X102409483Y-70354506D01*
X102285633Y-70412257D01*
X102104244Y-70539268D01*
X101947668Y-70695844D01*
X101820657Y-70877234D01*
X101820656Y-70877236D01*
X101727079Y-71077913D01*
X101727075Y-71077924D01*
X101669765Y-71291807D01*
X101669764Y-71291814D01*
X101650466Y-71512398D01*
X101650466Y-71512401D01*
X101669764Y-71732985D01*
X101669765Y-71732992D01*
X101727075Y-71946875D01*
X101727079Y-71946886D01*
X101817083Y-72139900D01*
X101820658Y-72147567D01*
X101947668Y-72328955D01*
X102104245Y-72485532D01*
X102285633Y-72612542D01*
X102347628Y-72641450D01*
X102408891Y-72670018D01*
X102461331Y-72716190D01*
X102480483Y-72783383D01*
X102460267Y-72850265D01*
X102408891Y-72894782D01*
X102285636Y-72952256D01*
X102285634Y-72952257D01*
X102104244Y-73079268D01*
X101947668Y-73235844D01*
X101820657Y-73417234D01*
X101820656Y-73417236D01*
X101727079Y-73617913D01*
X101727075Y-73617924D01*
X101669765Y-73831807D01*
X101669764Y-73831814D01*
X101650466Y-74052398D01*
X101650466Y-74052401D01*
X101669764Y-74272985D01*
X101669765Y-74272992D01*
X101727075Y-74486875D01*
X101727079Y-74486886D01*
X101817083Y-74679900D01*
X101820658Y-74687567D01*
X101947668Y-74868955D01*
X102104245Y-75025532D01*
X102285633Y-75152542D01*
X102347628Y-75181450D01*
X102408891Y-75210018D01*
X102461331Y-75256190D01*
X102480483Y-75323383D01*
X102460267Y-75390265D01*
X102408891Y-75434782D01*
X102285636Y-75492256D01*
X102285634Y-75492257D01*
X102104244Y-75619268D01*
X101947671Y-75775841D01*
X101947664Y-75775849D01*
X101877438Y-75876142D01*
X101855175Y-75907939D01*
X101852315Y-75912023D01*
X101797738Y-75955648D01*
X101750740Y-75964900D01*
X93707395Y-75964900D01*
X93586170Y-75989013D01*
X93586160Y-75989016D01*
X93471974Y-76036313D01*
X93471961Y-76036320D01*
X93386255Y-76093586D01*
X93386256Y-76093587D01*
X93369190Y-76104990D01*
X93369184Y-76104995D01*
X92485102Y-76989077D01*
X92423779Y-77022562D01*
X92354088Y-77017578D01*
X92205449Y-76962139D01*
X92085046Y-76917231D01*
X92085042Y-76917230D01*
X92085039Y-76917229D01*
X91805433Y-76856404D01*
X91520001Y-76835990D01*
X91519999Y-76835990D01*
X91234566Y-76856404D01*
X90954962Y-76917228D01*
X90686833Y-77017235D01*
X90435690Y-77154370D01*
X90435682Y-77154375D01*
X90206612Y-77325854D01*
X90206594Y-77325870D01*
X90004270Y-77528194D01*
X90004254Y-77528212D01*
X89832775Y-77757282D01*
X89832770Y-77757290D01*
X89695635Y-78008433D01*
X89595628Y-78276562D01*
X89534804Y-78556166D01*
X89514390Y-78841598D01*
X89514390Y-78841601D01*
X89534804Y-79127033D01*
X89595628Y-79406637D01*
X89595630Y-79406643D01*
X89595631Y-79406646D01*
X89677786Y-79626912D01*
X89695635Y-79674766D01*
X89832770Y-79925909D01*
X89832775Y-79925917D01*
X90004254Y-80154987D01*
X90004270Y-80155005D01*
X90206594Y-80357329D01*
X90206612Y-80357345D01*
X90435682Y-80528824D01*
X90435690Y-80528829D01*
X90686833Y-80665964D01*
X90686832Y-80665964D01*
X90686836Y-80665965D01*
X90686839Y-80665967D01*
X90954954Y-80765969D01*
X90954960Y-80765970D01*
X90954962Y-80765971D01*
X91234566Y-80826795D01*
X91234568Y-80826795D01*
X91234572Y-80826796D01*
X91488220Y-80844937D01*
X91519999Y-80847210D01*
X91520000Y-80847210D01*
X91520001Y-80847210D01*
X91548595Y-80845164D01*
X91805428Y-80826796D01*
X91874185Y-80811839D01*
X92085037Y-80765971D01*
X92085037Y-80765970D01*
X92085046Y-80765969D01*
X92353161Y-80665967D01*
X92604315Y-80528826D01*
X92833395Y-80357339D01*
X93035739Y-80154995D01*
X93207226Y-79925915D01*
X93344367Y-79674761D01*
X93444369Y-79406646D01*
X93505196Y-79127028D01*
X93525610Y-78841600D01*
X93505196Y-78556172D01*
X93496421Y-78515835D01*
X93444371Y-78276562D01*
X93444370Y-78276560D01*
X93444369Y-78276554D01*
X93344367Y-78008439D01*
X93344364Y-78008433D01*
X93344020Y-78007511D01*
X93339036Y-77937819D01*
X93372519Y-77876498D01*
X93992800Y-77256219D01*
X94054123Y-77222734D01*
X94080481Y-77219900D01*
X101750740Y-77219900D01*
X101817779Y-77239585D01*
X101852313Y-77272775D01*
X101866047Y-77292389D01*
X101931638Y-77386063D01*
X101947668Y-77408955D01*
X102104245Y-77565532D01*
X102285633Y-77692542D01*
X102347628Y-77721450D01*
X102408891Y-77750018D01*
X102461331Y-77796190D01*
X102480483Y-77863383D01*
X102460267Y-77930265D01*
X102408891Y-77974782D01*
X102285636Y-78032256D01*
X102285634Y-78032257D01*
X102104244Y-78159268D01*
X101947668Y-78315844D01*
X101820657Y-78497234D01*
X101820656Y-78497236D01*
X101727079Y-78697913D01*
X101727075Y-78697924D01*
X101669765Y-78911807D01*
X101669764Y-78911814D01*
X101650466Y-79132398D01*
X101650466Y-79132401D01*
X101669764Y-79352985D01*
X101669765Y-79352992D01*
X101727075Y-79566875D01*
X101727079Y-79566886D01*
X101787882Y-79697278D01*
X101820658Y-79767567D01*
X101947668Y-79948955D01*
X102104245Y-80105532D01*
X102285633Y-80232542D01*
X102329506Y-80253000D01*
X102408891Y-80290018D01*
X102461331Y-80336190D01*
X102480483Y-80403383D01*
X102460267Y-80470265D01*
X102408891Y-80514782D01*
X102285636Y-80572256D01*
X102285634Y-80572257D01*
X102104244Y-80699268D01*
X101947668Y-80855844D01*
X101820657Y-81037234D01*
X101820656Y-81037236D01*
X101727079Y-81237913D01*
X101727075Y-81237924D01*
X101669765Y-81451807D01*
X101669764Y-81451814D01*
X101650466Y-81672398D01*
X101650466Y-81672401D01*
X101669764Y-81892985D01*
X101669765Y-81892992D01*
X101727075Y-82106875D01*
X101727079Y-82106886D01*
X101800608Y-82264569D01*
X101820658Y-82307567D01*
X101947668Y-82488955D01*
X102104245Y-82645532D01*
X102285633Y-82772542D01*
X102347628Y-82801450D01*
X102408891Y-82830018D01*
X102461331Y-82876190D01*
X102480483Y-82943383D01*
X102460267Y-83010265D01*
X102408891Y-83054782D01*
X102285636Y-83112256D01*
X102285634Y-83112257D01*
X102104244Y-83239268D01*
X101947668Y-83395844D01*
X101820657Y-83577234D01*
X101820656Y-83577236D01*
X101727079Y-83777913D01*
X101727075Y-83777924D01*
X101669765Y-83991807D01*
X101669764Y-83991814D01*
X101650466Y-84212398D01*
X101650466Y-84212401D01*
X101669764Y-84432985D01*
X101669765Y-84432992D01*
X101727075Y-84646875D01*
X101727079Y-84646886D01*
X101818098Y-84842078D01*
X101820658Y-84847567D01*
X101947668Y-85028955D01*
X102104245Y-85185532D01*
X102285633Y-85312542D01*
X102347628Y-85341450D01*
X102408891Y-85370018D01*
X102461331Y-85416190D01*
X102480483Y-85483383D01*
X102460267Y-85550265D01*
X102408891Y-85594782D01*
X102285636Y-85652256D01*
X102285634Y-85652257D01*
X102104244Y-85779268D01*
X101947671Y-85935841D01*
X101947664Y-85935849D01*
X101852315Y-86072023D01*
X101797738Y-86115648D01*
X101750740Y-86124900D01*
X101425195Y-86124900D01*
X101303970Y-86149013D01*
X101303960Y-86149016D01*
X101189773Y-86196313D01*
X101189760Y-86196320D01*
X101086992Y-86264988D01*
X101086988Y-86264991D01*
X100031136Y-87320845D01*
X99701392Y-87650589D01*
X99657689Y-87694292D01*
X99613986Y-87737994D01*
X99613985Y-87737996D01*
X99544633Y-87841789D01*
X99542986Y-87846393D01*
X99498014Y-87954964D01*
X99498014Y-87954965D01*
X99478337Y-88053890D01*
X99478337Y-88053892D01*
X99473900Y-88076196D01*
X99473900Y-98736500D01*
X99454215Y-98803539D01*
X99401411Y-98849294D01*
X99349900Y-98860500D01*
X93452570Y-98860500D01*
X93385531Y-98840815D01*
X93339776Y-98788011D01*
X93336388Y-98779834D01*
X93320225Y-98736500D01*
X93289767Y-98654839D01*
X93279395Y-98635845D01*
X93152629Y-98403690D01*
X93152624Y-98403682D01*
X92981145Y-98174612D01*
X92981129Y-98174594D01*
X92778805Y-97972270D01*
X92778787Y-97972254D01*
X92549717Y-97800775D01*
X92549709Y-97800770D01*
X92298566Y-97663635D01*
X92298567Y-97663635D01*
X92191315Y-97623632D01*
X92030446Y-97563631D01*
X92030443Y-97563630D01*
X92030437Y-97563628D01*
X91750833Y-97502804D01*
X91465401Y-97482390D01*
X91465399Y-97482390D01*
X91179966Y-97502804D01*
X90900362Y-97563628D01*
X90632233Y-97663635D01*
X90381090Y-97800770D01*
X90381082Y-97800775D01*
X90152012Y-97972254D01*
X90151994Y-97972270D01*
X89949670Y-98174594D01*
X89949654Y-98174612D01*
X89778175Y-98403682D01*
X89778170Y-98403690D01*
X89641035Y-98654833D01*
X89541028Y-98922962D01*
X89480204Y-99202566D01*
X89459790Y-99487998D01*
X85500500Y-99487998D01*
X85500500Y-87453735D01*
X89519500Y-87453735D01*
X89519500Y-90549470D01*
X89519501Y-90549476D01*
X89525908Y-90609083D01*
X89576202Y-90743928D01*
X89576206Y-90743935D01*
X89662452Y-90859144D01*
X89662455Y-90859147D01*
X89777664Y-90945393D01*
X89777671Y-90945397D01*
X89912517Y-90995691D01*
X89912516Y-90995691D01*
X89919444Y-90996435D01*
X89972127Y-91002100D01*
X93067872Y-91002099D01*
X93127483Y-90995691D01*
X93262331Y-90945396D01*
X93377546Y-90859146D01*
X93463796Y-90743931D01*
X93514091Y-90609083D01*
X93520500Y-90549473D01*
X93520499Y-87453728D01*
X93514091Y-87394117D01*
X93513603Y-87392809D01*
X93463797Y-87259271D01*
X93463793Y-87259264D01*
X93377547Y-87144055D01*
X93377544Y-87144052D01*
X93262335Y-87057806D01*
X93262328Y-87057802D01*
X93127482Y-87007508D01*
X93127483Y-87007508D01*
X93067883Y-87001101D01*
X93067881Y-87001100D01*
X93067873Y-87001100D01*
X93067864Y-87001100D01*
X89972129Y-87001100D01*
X89972123Y-87001101D01*
X89912516Y-87007508D01*
X89777671Y-87057802D01*
X89777664Y-87057806D01*
X89662455Y-87144052D01*
X89662452Y-87144055D01*
X89576206Y-87259264D01*
X89576202Y-87259271D01*
X89525908Y-87394117D01*
X89520526Y-87444180D01*
X89519501Y-87453723D01*
X89519500Y-87453735D01*
X85500500Y-87453735D01*
X85500500Y-83921598D01*
X89514891Y-83921598D01*
X89514891Y-83921601D01*
X89535300Y-84206962D01*
X89596109Y-84486495D01*
X89696091Y-84754558D01*
X89833191Y-85005638D01*
X89833196Y-85005646D01*
X89939882Y-85148162D01*
X89939883Y-85148163D01*
X90834768Y-84253278D01*
X90846497Y-84281595D01*
X90929670Y-84406072D01*
X91035528Y-84511930D01*
X91160005Y-84595103D01*
X91188320Y-84606831D01*
X90293435Y-85501715D01*
X90293436Y-85501716D01*
X90435953Y-85608403D01*
X90435961Y-85608408D01*
X90687042Y-85745508D01*
X90687041Y-85745508D01*
X90955104Y-85845490D01*
X91234637Y-85906299D01*
X91519999Y-85926709D01*
X91520001Y-85926709D01*
X91805362Y-85906299D01*
X92084895Y-85845490D01*
X92352958Y-85745508D01*
X92604038Y-85608408D01*
X92604039Y-85608407D01*
X92746563Y-85501715D01*
X91851679Y-84606831D01*
X91879995Y-84595103D01*
X92004472Y-84511930D01*
X92110330Y-84406072D01*
X92193503Y-84281595D01*
X92205231Y-84253279D01*
X93100115Y-85148163D01*
X93206807Y-85005639D01*
X93206808Y-85005638D01*
X93343908Y-84754558D01*
X93443890Y-84486495D01*
X93504699Y-84206962D01*
X93525109Y-83921601D01*
X93525109Y-83921598D01*
X93504699Y-83636237D01*
X93443890Y-83356704D01*
X93343908Y-83088641D01*
X93206808Y-82837561D01*
X93206803Y-82837553D01*
X93100116Y-82695036D01*
X93100115Y-82695035D01*
X92205231Y-83589920D01*
X92193503Y-83561605D01*
X92110330Y-83437128D01*
X92004472Y-83331270D01*
X91879995Y-83248097D01*
X91851678Y-83236367D01*
X92746563Y-82341483D01*
X92746562Y-82341482D01*
X92604046Y-82234796D01*
X92604038Y-82234791D01*
X92352957Y-82097691D01*
X92352958Y-82097691D01*
X92084895Y-81997709D01*
X91805362Y-81936900D01*
X91520001Y-81916491D01*
X91519999Y-81916491D01*
X91234637Y-81936900D01*
X90955104Y-81997709D01*
X90687041Y-82097691D01*
X90435961Y-82234791D01*
X90435953Y-82234796D01*
X90293435Y-82341482D01*
X91188321Y-83236367D01*
X91160005Y-83248097D01*
X91035528Y-83331270D01*
X90929670Y-83437128D01*
X90846497Y-83561605D01*
X90834768Y-83589921D01*
X89939882Y-82695035D01*
X89833196Y-82837553D01*
X89833191Y-82837561D01*
X89696091Y-83088641D01*
X89596109Y-83356704D01*
X89535300Y-83636237D01*
X89514891Y-83921598D01*
X85500500Y-83921598D01*
X85500500Y-59002700D01*
X85520185Y-58935661D01*
X85572989Y-58889906D01*
X85624500Y-58878700D01*
X161375500Y-58878700D01*
X161442539Y-58898385D01*
G37*
%TD.AperFunction*%
%TD*%
M02*
