%TF.GenerationSoftware,KiCad,Pcbnew,8.0.8*%
%TF.CreationDate,2025-03-20T21:36:52-04:00*%
%TF.ProjectId,PCB PUERTA,50434220-5055-4455-9254-412e6b696361,rev?*%
%TF.SameCoordinates,Original*%
%TF.FileFunction,Legend,Top*%
%TF.FilePolarity,Positive*%
%FSLAX46Y46*%
G04 Gerber Fmt 4.6, Leading zero omitted, Abs format (unit mm)*
G04 Created by KiCad (PCBNEW 8.0.8) date 2025-03-20 21:36:52*
%MOMM*%
%LPD*%
G01*
G04 APERTURE LIST*
%ADD10C,0.150000*%
%ADD11C,0.120000*%
%ADD12C,0.152400*%
%ADD13C,0.100000*%
%ADD14C,0.200000*%
G04 APERTURE END LIST*
D10*
X154301866Y-135852819D02*
X154301866Y-136567104D01*
X154301866Y-136567104D02*
X154254247Y-136709961D01*
X154254247Y-136709961D02*
X154159009Y-136805200D01*
X154159009Y-136805200D02*
X154016152Y-136852819D01*
X154016152Y-136852819D02*
X153920914Y-136852819D01*
X154682819Y-135852819D02*
X155349485Y-135852819D01*
X155349485Y-135852819D02*
X154920914Y-136852819D01*
X120722219Y-119451357D02*
X120246028Y-119784690D01*
X120722219Y-120022785D02*
X119722219Y-120022785D01*
X119722219Y-120022785D02*
X119722219Y-119641833D01*
X119722219Y-119641833D02*
X119769838Y-119546595D01*
X119769838Y-119546595D02*
X119817457Y-119498976D01*
X119817457Y-119498976D02*
X119912695Y-119451357D01*
X119912695Y-119451357D02*
X120055552Y-119451357D01*
X120055552Y-119451357D02*
X120150790Y-119498976D01*
X120150790Y-119498976D02*
X120198409Y-119546595D01*
X120198409Y-119546595D02*
X120246028Y-119641833D01*
X120246028Y-119641833D02*
X120246028Y-120022785D01*
X120722219Y-118498976D02*
X120722219Y-119070404D01*
X120722219Y-118784690D02*
X119722219Y-118784690D01*
X119722219Y-118784690D02*
X119865076Y-118879928D01*
X119865076Y-118879928D02*
X119960314Y-118975166D01*
X119960314Y-118975166D02*
X120007933Y-119070404D01*
X120722219Y-118022785D02*
X120722219Y-117832309D01*
X120722219Y-117832309D02*
X120674600Y-117737071D01*
X120674600Y-117737071D02*
X120626980Y-117689452D01*
X120626980Y-117689452D02*
X120484123Y-117594214D01*
X120484123Y-117594214D02*
X120293647Y-117546595D01*
X120293647Y-117546595D02*
X119912695Y-117546595D01*
X119912695Y-117546595D02*
X119817457Y-117594214D01*
X119817457Y-117594214D02*
X119769838Y-117641833D01*
X119769838Y-117641833D02*
X119722219Y-117737071D01*
X119722219Y-117737071D02*
X119722219Y-117927547D01*
X119722219Y-117927547D02*
X119769838Y-118022785D01*
X119769838Y-118022785D02*
X119817457Y-118070404D01*
X119817457Y-118070404D02*
X119912695Y-118118023D01*
X119912695Y-118118023D02*
X120150790Y-118118023D01*
X120150790Y-118118023D02*
X120246028Y-118070404D01*
X120246028Y-118070404D02*
X120293647Y-118022785D01*
X120293647Y-118022785D02*
X120341266Y-117927547D01*
X120341266Y-117927547D02*
X120341266Y-117737071D01*
X120341266Y-117737071D02*
X120293647Y-117641833D01*
X120293647Y-117641833D02*
X120246028Y-117594214D01*
X120246028Y-117594214D02*
X120150790Y-117546595D01*
X148306180Y-80659266D02*
X148353800Y-80706885D01*
X148353800Y-80706885D02*
X148401419Y-80849742D01*
X148401419Y-80849742D02*
X148401419Y-80944980D01*
X148401419Y-80944980D02*
X148353800Y-81087837D01*
X148353800Y-81087837D02*
X148258561Y-81183075D01*
X148258561Y-81183075D02*
X148163323Y-81230694D01*
X148163323Y-81230694D02*
X147972847Y-81278313D01*
X147972847Y-81278313D02*
X147829990Y-81278313D01*
X147829990Y-81278313D02*
X147639514Y-81230694D01*
X147639514Y-81230694D02*
X147544276Y-81183075D01*
X147544276Y-81183075D02*
X147449038Y-81087837D01*
X147449038Y-81087837D02*
X147401419Y-80944980D01*
X147401419Y-80944980D02*
X147401419Y-80849742D01*
X147401419Y-80849742D02*
X147449038Y-80706885D01*
X147449038Y-80706885D02*
X147496657Y-80659266D01*
X147401419Y-80325932D02*
X147401419Y-79659266D01*
X147401419Y-79659266D02*
X148401419Y-80087837D01*
X107455133Y-90917219D02*
X107121800Y-90441028D01*
X106883705Y-90917219D02*
X106883705Y-89917219D01*
X106883705Y-89917219D02*
X107264657Y-89917219D01*
X107264657Y-89917219D02*
X107359895Y-89964838D01*
X107359895Y-89964838D02*
X107407514Y-90012457D01*
X107407514Y-90012457D02*
X107455133Y-90107695D01*
X107455133Y-90107695D02*
X107455133Y-90250552D01*
X107455133Y-90250552D02*
X107407514Y-90345790D01*
X107407514Y-90345790D02*
X107359895Y-90393409D01*
X107359895Y-90393409D02*
X107264657Y-90441028D01*
X107264657Y-90441028D02*
X106883705Y-90441028D01*
X108359895Y-89917219D02*
X107883705Y-89917219D01*
X107883705Y-89917219D02*
X107836086Y-90393409D01*
X107836086Y-90393409D02*
X107883705Y-90345790D01*
X107883705Y-90345790D02*
X107978943Y-90298171D01*
X107978943Y-90298171D02*
X108217038Y-90298171D01*
X108217038Y-90298171D02*
X108312276Y-90345790D01*
X108312276Y-90345790D02*
X108359895Y-90393409D01*
X108359895Y-90393409D02*
X108407514Y-90488647D01*
X108407514Y-90488647D02*
X108407514Y-90726742D01*
X108407514Y-90726742D02*
X108359895Y-90821980D01*
X108359895Y-90821980D02*
X108312276Y-90869600D01*
X108312276Y-90869600D02*
X108217038Y-90917219D01*
X108217038Y-90917219D02*
X107978943Y-90917219D01*
X107978943Y-90917219D02*
X107883705Y-90869600D01*
X107883705Y-90869600D02*
X107836086Y-90821980D01*
X133650819Y-92247957D02*
X133174628Y-92581290D01*
X133650819Y-92819385D02*
X132650819Y-92819385D01*
X132650819Y-92819385D02*
X132650819Y-92438433D01*
X132650819Y-92438433D02*
X132698438Y-92343195D01*
X132698438Y-92343195D02*
X132746057Y-92295576D01*
X132746057Y-92295576D02*
X132841295Y-92247957D01*
X132841295Y-92247957D02*
X132984152Y-92247957D01*
X132984152Y-92247957D02*
X133079390Y-92295576D01*
X133079390Y-92295576D02*
X133127009Y-92343195D01*
X133127009Y-92343195D02*
X133174628Y-92438433D01*
X133174628Y-92438433D02*
X133174628Y-92819385D01*
X133650819Y-91295576D02*
X133650819Y-91867004D01*
X133650819Y-91581290D02*
X132650819Y-91581290D01*
X132650819Y-91581290D02*
X132793676Y-91676528D01*
X132793676Y-91676528D02*
X132888914Y-91771766D01*
X132888914Y-91771766D02*
X132936533Y-91867004D01*
X133650819Y-90343195D02*
X133650819Y-90914623D01*
X133650819Y-90628909D02*
X132650819Y-90628909D01*
X132650819Y-90628909D02*
X132793676Y-90724147D01*
X132793676Y-90724147D02*
X132888914Y-90819385D01*
X132888914Y-90819385D02*
X132936533Y-90914623D01*
X107455133Y-87361219D02*
X107121800Y-86885028D01*
X106883705Y-87361219D02*
X106883705Y-86361219D01*
X106883705Y-86361219D02*
X107264657Y-86361219D01*
X107264657Y-86361219D02*
X107359895Y-86408838D01*
X107359895Y-86408838D02*
X107407514Y-86456457D01*
X107407514Y-86456457D02*
X107455133Y-86551695D01*
X107455133Y-86551695D02*
X107455133Y-86694552D01*
X107455133Y-86694552D02*
X107407514Y-86789790D01*
X107407514Y-86789790D02*
X107359895Y-86837409D01*
X107359895Y-86837409D02*
X107264657Y-86885028D01*
X107264657Y-86885028D02*
X106883705Y-86885028D01*
X107836086Y-86456457D02*
X107883705Y-86408838D01*
X107883705Y-86408838D02*
X107978943Y-86361219D01*
X107978943Y-86361219D02*
X108217038Y-86361219D01*
X108217038Y-86361219D02*
X108312276Y-86408838D01*
X108312276Y-86408838D02*
X108359895Y-86456457D01*
X108359895Y-86456457D02*
X108407514Y-86551695D01*
X108407514Y-86551695D02*
X108407514Y-86646933D01*
X108407514Y-86646933D02*
X108359895Y-86789790D01*
X108359895Y-86789790D02*
X107788467Y-87361219D01*
X107788467Y-87361219D02*
X108407514Y-87361219D01*
X127075419Y-126098466D02*
X126599228Y-126431799D01*
X127075419Y-126669894D02*
X126075419Y-126669894D01*
X126075419Y-126669894D02*
X126075419Y-126288942D01*
X126075419Y-126288942D02*
X126123038Y-126193704D01*
X126123038Y-126193704D02*
X126170657Y-126146085D01*
X126170657Y-126146085D02*
X126265895Y-126098466D01*
X126265895Y-126098466D02*
X126408752Y-126098466D01*
X126408752Y-126098466D02*
X126503990Y-126146085D01*
X126503990Y-126146085D02*
X126551609Y-126193704D01*
X126551609Y-126193704D02*
X126599228Y-126288942D01*
X126599228Y-126288942D02*
X126599228Y-126669894D01*
X127075419Y-125622275D02*
X127075419Y-125431799D01*
X127075419Y-125431799D02*
X127027800Y-125336561D01*
X127027800Y-125336561D02*
X126980180Y-125288942D01*
X126980180Y-125288942D02*
X126837323Y-125193704D01*
X126837323Y-125193704D02*
X126646847Y-125146085D01*
X126646847Y-125146085D02*
X126265895Y-125146085D01*
X126265895Y-125146085D02*
X126170657Y-125193704D01*
X126170657Y-125193704D02*
X126123038Y-125241323D01*
X126123038Y-125241323D02*
X126075419Y-125336561D01*
X126075419Y-125336561D02*
X126075419Y-125527037D01*
X126075419Y-125527037D02*
X126123038Y-125622275D01*
X126123038Y-125622275D02*
X126170657Y-125669894D01*
X126170657Y-125669894D02*
X126265895Y-125717513D01*
X126265895Y-125717513D02*
X126503990Y-125717513D01*
X126503990Y-125717513D02*
X126599228Y-125669894D01*
X126599228Y-125669894D02*
X126646847Y-125622275D01*
X126646847Y-125622275D02*
X126694466Y-125527037D01*
X126694466Y-125527037D02*
X126694466Y-125336561D01*
X126694466Y-125336561D02*
X126646847Y-125241323D01*
X126646847Y-125241323D02*
X126599228Y-125193704D01*
X126599228Y-125193704D02*
X126503990Y-125146085D01*
X134569295Y-87313419D02*
X134569295Y-88122942D01*
X134569295Y-88122942D02*
X134616914Y-88218180D01*
X134616914Y-88218180D02*
X134664533Y-88265800D01*
X134664533Y-88265800D02*
X134759771Y-88313419D01*
X134759771Y-88313419D02*
X134950247Y-88313419D01*
X134950247Y-88313419D02*
X135045485Y-88265800D01*
X135045485Y-88265800D02*
X135093104Y-88218180D01*
X135093104Y-88218180D02*
X135140723Y-88122942D01*
X135140723Y-88122942D02*
X135140723Y-87313419D01*
X135569295Y-87408657D02*
X135616914Y-87361038D01*
X135616914Y-87361038D02*
X135712152Y-87313419D01*
X135712152Y-87313419D02*
X135950247Y-87313419D01*
X135950247Y-87313419D02*
X136045485Y-87361038D01*
X136045485Y-87361038D02*
X136093104Y-87408657D01*
X136093104Y-87408657D02*
X136140723Y-87503895D01*
X136140723Y-87503895D02*
X136140723Y-87599133D01*
X136140723Y-87599133D02*
X136093104Y-87741990D01*
X136093104Y-87741990D02*
X135521676Y-88313419D01*
X135521676Y-88313419D02*
X136140723Y-88313419D01*
X136110742Y-98862819D02*
X135777409Y-98386628D01*
X135539314Y-98862819D02*
X135539314Y-97862819D01*
X135539314Y-97862819D02*
X135920266Y-97862819D01*
X135920266Y-97862819D02*
X136015504Y-97910438D01*
X136015504Y-97910438D02*
X136063123Y-97958057D01*
X136063123Y-97958057D02*
X136110742Y-98053295D01*
X136110742Y-98053295D02*
X136110742Y-98196152D01*
X136110742Y-98196152D02*
X136063123Y-98291390D01*
X136063123Y-98291390D02*
X136015504Y-98339009D01*
X136015504Y-98339009D02*
X135920266Y-98386628D01*
X135920266Y-98386628D02*
X135539314Y-98386628D01*
X137063123Y-98862819D02*
X136491695Y-98862819D01*
X136777409Y-98862819D02*
X136777409Y-97862819D01*
X136777409Y-97862819D02*
X136682171Y-98005676D01*
X136682171Y-98005676D02*
X136586933Y-98100914D01*
X136586933Y-98100914D02*
X136491695Y-98148533D01*
X137920266Y-97862819D02*
X137729790Y-97862819D01*
X137729790Y-97862819D02*
X137634552Y-97910438D01*
X137634552Y-97910438D02*
X137586933Y-97958057D01*
X137586933Y-97958057D02*
X137491695Y-98100914D01*
X137491695Y-98100914D02*
X137444076Y-98291390D01*
X137444076Y-98291390D02*
X137444076Y-98672342D01*
X137444076Y-98672342D02*
X137491695Y-98767580D01*
X137491695Y-98767580D02*
X137539314Y-98815200D01*
X137539314Y-98815200D02*
X137634552Y-98862819D01*
X137634552Y-98862819D02*
X137825028Y-98862819D01*
X137825028Y-98862819D02*
X137920266Y-98815200D01*
X137920266Y-98815200D02*
X137967885Y-98767580D01*
X137967885Y-98767580D02*
X138015504Y-98672342D01*
X138015504Y-98672342D02*
X138015504Y-98434247D01*
X138015504Y-98434247D02*
X137967885Y-98339009D01*
X137967885Y-98339009D02*
X137920266Y-98291390D01*
X137920266Y-98291390D02*
X137825028Y-98243771D01*
X137825028Y-98243771D02*
X137634552Y-98243771D01*
X137634552Y-98243771D02*
X137539314Y-98291390D01*
X137539314Y-98291390D02*
X137491695Y-98339009D01*
X137491695Y-98339009D02*
X137444076Y-98434247D01*
X105428466Y-125968419D02*
X105428466Y-126682704D01*
X105428466Y-126682704D02*
X105380847Y-126825561D01*
X105380847Y-126825561D02*
X105285609Y-126920800D01*
X105285609Y-126920800D02*
X105142752Y-126968419D01*
X105142752Y-126968419D02*
X105047514Y-126968419D01*
X106333228Y-126301752D02*
X106333228Y-126968419D01*
X106095133Y-125920800D02*
X105857038Y-126635085D01*
X105857038Y-126635085D02*
X106476085Y-126635085D01*
X137870419Y-92844785D02*
X136870419Y-92844785D01*
X136870419Y-92844785D02*
X136870419Y-92606690D01*
X136870419Y-92606690D02*
X136918038Y-92463833D01*
X136918038Y-92463833D02*
X137013276Y-92368595D01*
X137013276Y-92368595D02*
X137108514Y-92320976D01*
X137108514Y-92320976D02*
X137298990Y-92273357D01*
X137298990Y-92273357D02*
X137441847Y-92273357D01*
X137441847Y-92273357D02*
X137632323Y-92320976D01*
X137632323Y-92320976D02*
X137727561Y-92368595D01*
X137727561Y-92368595D02*
X137822800Y-92463833D01*
X137822800Y-92463833D02*
X137870419Y-92606690D01*
X137870419Y-92606690D02*
X137870419Y-92844785D01*
X137870419Y-91320976D02*
X137870419Y-91892404D01*
X137870419Y-91606690D02*
X136870419Y-91606690D01*
X136870419Y-91606690D02*
X137013276Y-91701928D01*
X137013276Y-91701928D02*
X137108514Y-91797166D01*
X137108514Y-91797166D02*
X137156133Y-91892404D01*
X136870419Y-90701928D02*
X136870419Y-90606690D01*
X136870419Y-90606690D02*
X136918038Y-90511452D01*
X136918038Y-90511452D02*
X136965657Y-90463833D01*
X136965657Y-90463833D02*
X137060895Y-90416214D01*
X137060895Y-90416214D02*
X137251371Y-90368595D01*
X137251371Y-90368595D02*
X137489466Y-90368595D01*
X137489466Y-90368595D02*
X137679942Y-90416214D01*
X137679942Y-90416214D02*
X137775180Y-90463833D01*
X137775180Y-90463833D02*
X137822800Y-90511452D01*
X137822800Y-90511452D02*
X137870419Y-90606690D01*
X137870419Y-90606690D02*
X137870419Y-90701928D01*
X137870419Y-90701928D02*
X137822800Y-90797166D01*
X137822800Y-90797166D02*
X137775180Y-90844785D01*
X137775180Y-90844785D02*
X137679942Y-90892404D01*
X137679942Y-90892404D02*
X137489466Y-90940023D01*
X137489466Y-90940023D02*
X137251371Y-90940023D01*
X137251371Y-90940023D02*
X137060895Y-90892404D01*
X137060895Y-90892404D02*
X136965657Y-90844785D01*
X136965657Y-90844785D02*
X136918038Y-90797166D01*
X136918038Y-90797166D02*
X136870419Y-90701928D01*
X142697295Y-129045619D02*
X142697295Y-129855142D01*
X142697295Y-129855142D02*
X142744914Y-129950380D01*
X142744914Y-129950380D02*
X142792533Y-129998000D01*
X142792533Y-129998000D02*
X142887771Y-130045619D01*
X142887771Y-130045619D02*
X143078247Y-130045619D01*
X143078247Y-130045619D02*
X143173485Y-129998000D01*
X143173485Y-129998000D02*
X143221104Y-129950380D01*
X143221104Y-129950380D02*
X143268723Y-129855142D01*
X143268723Y-129855142D02*
X143268723Y-129045619D01*
X144221104Y-129045619D02*
X143744914Y-129045619D01*
X143744914Y-129045619D02*
X143697295Y-129521809D01*
X143697295Y-129521809D02*
X143744914Y-129474190D01*
X143744914Y-129474190D02*
X143840152Y-129426571D01*
X143840152Y-129426571D02*
X144078247Y-129426571D01*
X144078247Y-129426571D02*
X144173485Y-129474190D01*
X144173485Y-129474190D02*
X144221104Y-129521809D01*
X144221104Y-129521809D02*
X144268723Y-129617047D01*
X144268723Y-129617047D02*
X144268723Y-129855142D01*
X144268723Y-129855142D02*
X144221104Y-129950380D01*
X144221104Y-129950380D02*
X144173485Y-129998000D01*
X144173485Y-129998000D02*
X144078247Y-130045619D01*
X144078247Y-130045619D02*
X143840152Y-130045619D01*
X143840152Y-130045619D02*
X143744914Y-129998000D01*
X143744914Y-129998000D02*
X143697295Y-129950380D01*
X140621000Y-82232332D02*
X140668619Y-82089475D01*
X140668619Y-82089475D02*
X140668619Y-81851380D01*
X140668619Y-81851380D02*
X140621000Y-81756142D01*
X140621000Y-81756142D02*
X140573380Y-81708523D01*
X140573380Y-81708523D02*
X140478142Y-81660904D01*
X140478142Y-81660904D02*
X140382904Y-81660904D01*
X140382904Y-81660904D02*
X140287666Y-81708523D01*
X140287666Y-81708523D02*
X140240047Y-81756142D01*
X140240047Y-81756142D02*
X140192428Y-81851380D01*
X140192428Y-81851380D02*
X140144809Y-82041856D01*
X140144809Y-82041856D02*
X140097190Y-82137094D01*
X140097190Y-82137094D02*
X140049571Y-82184713D01*
X140049571Y-82184713D02*
X139954333Y-82232332D01*
X139954333Y-82232332D02*
X139859095Y-82232332D01*
X139859095Y-82232332D02*
X139763857Y-82184713D01*
X139763857Y-82184713D02*
X139716238Y-82137094D01*
X139716238Y-82137094D02*
X139668619Y-82041856D01*
X139668619Y-82041856D02*
X139668619Y-81803761D01*
X139668619Y-81803761D02*
X139716238Y-81660904D01*
X139668619Y-81327570D02*
X140668619Y-81089475D01*
X140668619Y-81089475D02*
X139954333Y-80898999D01*
X139954333Y-80898999D02*
X140668619Y-80708523D01*
X140668619Y-80708523D02*
X139668619Y-80470428D01*
X140668619Y-79565666D02*
X140668619Y-80137094D01*
X140668619Y-79851380D02*
X139668619Y-79851380D01*
X139668619Y-79851380D02*
X139811476Y-79946618D01*
X139811476Y-79946618D02*
X139906714Y-80041856D01*
X139906714Y-80041856D02*
X139954333Y-80137094D01*
X134543895Y-103188419D02*
X134543895Y-103997942D01*
X134543895Y-103997942D02*
X134591514Y-104093180D01*
X134591514Y-104093180D02*
X134639133Y-104140800D01*
X134639133Y-104140800D02*
X134734371Y-104188419D01*
X134734371Y-104188419D02*
X134924847Y-104188419D01*
X134924847Y-104188419D02*
X135020085Y-104140800D01*
X135020085Y-104140800D02*
X135067704Y-104093180D01*
X135067704Y-104093180D02*
X135115323Y-103997942D01*
X135115323Y-103997942D02*
X135115323Y-103188419D01*
X135496276Y-103188419D02*
X136115323Y-103188419D01*
X136115323Y-103188419D02*
X135781990Y-103569371D01*
X135781990Y-103569371D02*
X135924847Y-103569371D01*
X135924847Y-103569371D02*
X136020085Y-103616990D01*
X136020085Y-103616990D02*
X136067704Y-103664609D01*
X136067704Y-103664609D02*
X136115323Y-103759847D01*
X136115323Y-103759847D02*
X136115323Y-103997942D01*
X136115323Y-103997942D02*
X136067704Y-104093180D01*
X136067704Y-104093180D02*
X136020085Y-104140800D01*
X136020085Y-104140800D02*
X135924847Y-104188419D01*
X135924847Y-104188419D02*
X135639133Y-104188419D01*
X135639133Y-104188419D02*
X135543895Y-104140800D01*
X135543895Y-104140800D02*
X135496276Y-104093180D01*
X132226050Y-99581619D02*
X132226050Y-99819714D01*
X131987955Y-99724476D02*
X132226050Y-99819714D01*
X132226050Y-99819714D02*
X132464145Y-99724476D01*
X132083193Y-100010190D02*
X132226050Y-99819714D01*
X132226050Y-99819714D02*
X132368907Y-100010190D01*
X132226050Y-99581619D02*
X132226050Y-99819714D01*
X131987955Y-99724476D02*
X132226050Y-99819714D01*
X132226050Y-99819714D02*
X132464145Y-99724476D01*
X132083193Y-100010190D02*
X132226050Y-99819714D01*
X132226050Y-99819714D02*
X132368907Y-100010190D01*
X122805019Y-126645894D02*
X121805019Y-126645894D01*
X121805019Y-126645894D02*
X121805019Y-126407799D01*
X121805019Y-126407799D02*
X121852638Y-126264942D01*
X121852638Y-126264942D02*
X121947876Y-126169704D01*
X121947876Y-126169704D02*
X122043114Y-126122085D01*
X122043114Y-126122085D02*
X122233590Y-126074466D01*
X122233590Y-126074466D02*
X122376447Y-126074466D01*
X122376447Y-126074466D02*
X122566923Y-126122085D01*
X122566923Y-126122085D02*
X122662161Y-126169704D01*
X122662161Y-126169704D02*
X122757400Y-126264942D01*
X122757400Y-126264942D02*
X122805019Y-126407799D01*
X122805019Y-126407799D02*
X122805019Y-126645894D01*
X122233590Y-125503037D02*
X122185971Y-125598275D01*
X122185971Y-125598275D02*
X122138352Y-125645894D01*
X122138352Y-125645894D02*
X122043114Y-125693513D01*
X122043114Y-125693513D02*
X121995495Y-125693513D01*
X121995495Y-125693513D02*
X121900257Y-125645894D01*
X121900257Y-125645894D02*
X121852638Y-125598275D01*
X121852638Y-125598275D02*
X121805019Y-125503037D01*
X121805019Y-125503037D02*
X121805019Y-125312561D01*
X121805019Y-125312561D02*
X121852638Y-125217323D01*
X121852638Y-125217323D02*
X121900257Y-125169704D01*
X121900257Y-125169704D02*
X121995495Y-125122085D01*
X121995495Y-125122085D02*
X122043114Y-125122085D01*
X122043114Y-125122085D02*
X122138352Y-125169704D01*
X122138352Y-125169704D02*
X122185971Y-125217323D01*
X122185971Y-125217323D02*
X122233590Y-125312561D01*
X122233590Y-125312561D02*
X122233590Y-125503037D01*
X122233590Y-125503037D02*
X122281209Y-125598275D01*
X122281209Y-125598275D02*
X122328828Y-125645894D01*
X122328828Y-125645894D02*
X122424066Y-125693513D01*
X122424066Y-125693513D02*
X122614542Y-125693513D01*
X122614542Y-125693513D02*
X122709780Y-125645894D01*
X122709780Y-125645894D02*
X122757400Y-125598275D01*
X122757400Y-125598275D02*
X122805019Y-125503037D01*
X122805019Y-125503037D02*
X122805019Y-125312561D01*
X122805019Y-125312561D02*
X122757400Y-125217323D01*
X122757400Y-125217323D02*
X122709780Y-125169704D01*
X122709780Y-125169704D02*
X122614542Y-125122085D01*
X122614542Y-125122085D02*
X122424066Y-125122085D01*
X122424066Y-125122085D02*
X122328828Y-125169704D01*
X122328828Y-125169704D02*
X122281209Y-125217323D01*
X122281209Y-125217323D02*
X122233590Y-125312561D01*
X119604619Y-126668294D02*
X118604619Y-126668294D01*
X118604619Y-126668294D02*
X118604619Y-126430199D01*
X118604619Y-126430199D02*
X118652238Y-126287342D01*
X118652238Y-126287342D02*
X118747476Y-126192104D01*
X118747476Y-126192104D02*
X118842714Y-126144485D01*
X118842714Y-126144485D02*
X119033190Y-126096866D01*
X119033190Y-126096866D02*
X119176047Y-126096866D01*
X119176047Y-126096866D02*
X119366523Y-126144485D01*
X119366523Y-126144485D02*
X119461761Y-126192104D01*
X119461761Y-126192104D02*
X119557000Y-126287342D01*
X119557000Y-126287342D02*
X119604619Y-126430199D01*
X119604619Y-126430199D02*
X119604619Y-126668294D01*
X118604619Y-125763532D02*
X118604619Y-125096866D01*
X118604619Y-125096866D02*
X119604619Y-125525437D01*
X123748019Y-126074466D02*
X123271828Y-126407799D01*
X123748019Y-126645894D02*
X122748019Y-126645894D01*
X122748019Y-126645894D02*
X122748019Y-126264942D01*
X122748019Y-126264942D02*
X122795638Y-126169704D01*
X122795638Y-126169704D02*
X122843257Y-126122085D01*
X122843257Y-126122085D02*
X122938495Y-126074466D01*
X122938495Y-126074466D02*
X123081352Y-126074466D01*
X123081352Y-126074466D02*
X123176590Y-126122085D01*
X123176590Y-126122085D02*
X123224209Y-126169704D01*
X123224209Y-126169704D02*
X123271828Y-126264942D01*
X123271828Y-126264942D02*
X123271828Y-126645894D01*
X123176590Y-125503037D02*
X123128971Y-125598275D01*
X123128971Y-125598275D02*
X123081352Y-125645894D01*
X123081352Y-125645894D02*
X122986114Y-125693513D01*
X122986114Y-125693513D02*
X122938495Y-125693513D01*
X122938495Y-125693513D02*
X122843257Y-125645894D01*
X122843257Y-125645894D02*
X122795638Y-125598275D01*
X122795638Y-125598275D02*
X122748019Y-125503037D01*
X122748019Y-125503037D02*
X122748019Y-125312561D01*
X122748019Y-125312561D02*
X122795638Y-125217323D01*
X122795638Y-125217323D02*
X122843257Y-125169704D01*
X122843257Y-125169704D02*
X122938495Y-125122085D01*
X122938495Y-125122085D02*
X122986114Y-125122085D01*
X122986114Y-125122085D02*
X123081352Y-125169704D01*
X123081352Y-125169704D02*
X123128971Y-125217323D01*
X123128971Y-125217323D02*
X123176590Y-125312561D01*
X123176590Y-125312561D02*
X123176590Y-125503037D01*
X123176590Y-125503037D02*
X123224209Y-125598275D01*
X123224209Y-125598275D02*
X123271828Y-125645894D01*
X123271828Y-125645894D02*
X123367066Y-125693513D01*
X123367066Y-125693513D02*
X123557542Y-125693513D01*
X123557542Y-125693513D02*
X123652780Y-125645894D01*
X123652780Y-125645894D02*
X123700400Y-125598275D01*
X123700400Y-125598275D02*
X123748019Y-125503037D01*
X123748019Y-125503037D02*
X123748019Y-125312561D01*
X123748019Y-125312561D02*
X123700400Y-125217323D01*
X123700400Y-125217323D02*
X123652780Y-125169704D01*
X123652780Y-125169704D02*
X123557542Y-125122085D01*
X123557542Y-125122085D02*
X123367066Y-125122085D01*
X123367066Y-125122085D02*
X123271828Y-125169704D01*
X123271828Y-125169704D02*
X123224209Y-125217323D01*
X123224209Y-125217323D02*
X123176590Y-125312561D01*
X107481133Y-83500419D02*
X107147800Y-83024228D01*
X106909705Y-83500419D02*
X106909705Y-82500419D01*
X106909705Y-82500419D02*
X107290657Y-82500419D01*
X107290657Y-82500419D02*
X107385895Y-82548038D01*
X107385895Y-82548038D02*
X107433514Y-82595657D01*
X107433514Y-82595657D02*
X107481133Y-82690895D01*
X107481133Y-82690895D02*
X107481133Y-82833752D01*
X107481133Y-82833752D02*
X107433514Y-82928990D01*
X107433514Y-82928990D02*
X107385895Y-82976609D01*
X107385895Y-82976609D02*
X107290657Y-83024228D01*
X107290657Y-83024228D02*
X106909705Y-83024228D01*
X108338276Y-82833752D02*
X108338276Y-83500419D01*
X108100181Y-82452800D02*
X107862086Y-83167085D01*
X107862086Y-83167085D02*
X108481133Y-83167085D01*
X139291019Y-123429585D02*
X138291019Y-123429585D01*
X138291019Y-123429585D02*
X138291019Y-123191490D01*
X138291019Y-123191490D02*
X138338638Y-123048633D01*
X138338638Y-123048633D02*
X138433876Y-122953395D01*
X138433876Y-122953395D02*
X138529114Y-122905776D01*
X138529114Y-122905776D02*
X138719590Y-122858157D01*
X138719590Y-122858157D02*
X138862447Y-122858157D01*
X138862447Y-122858157D02*
X139052923Y-122905776D01*
X139052923Y-122905776D02*
X139148161Y-122953395D01*
X139148161Y-122953395D02*
X139243400Y-123048633D01*
X139243400Y-123048633D02*
X139291019Y-123191490D01*
X139291019Y-123191490D02*
X139291019Y-123429585D01*
X139291019Y-121905776D02*
X139291019Y-122477204D01*
X139291019Y-122191490D02*
X138291019Y-122191490D01*
X138291019Y-122191490D02*
X138433876Y-122286728D01*
X138433876Y-122286728D02*
X138529114Y-122381966D01*
X138529114Y-122381966D02*
X138576733Y-122477204D01*
X139291019Y-120953395D02*
X139291019Y-121524823D01*
X139291019Y-121239109D02*
X138291019Y-121239109D01*
X138291019Y-121239109D02*
X138433876Y-121334347D01*
X138433876Y-121334347D02*
X138529114Y-121429585D01*
X138529114Y-121429585D02*
X138576733Y-121524823D01*
X133291342Y-98862819D02*
X132958009Y-98386628D01*
X132719914Y-98862819D02*
X132719914Y-97862819D01*
X132719914Y-97862819D02*
X133100866Y-97862819D01*
X133100866Y-97862819D02*
X133196104Y-97910438D01*
X133196104Y-97910438D02*
X133243723Y-97958057D01*
X133243723Y-97958057D02*
X133291342Y-98053295D01*
X133291342Y-98053295D02*
X133291342Y-98196152D01*
X133291342Y-98196152D02*
X133243723Y-98291390D01*
X133243723Y-98291390D02*
X133196104Y-98339009D01*
X133196104Y-98339009D02*
X133100866Y-98386628D01*
X133100866Y-98386628D02*
X132719914Y-98386628D01*
X134243723Y-98862819D02*
X133672295Y-98862819D01*
X133958009Y-98862819D02*
X133958009Y-97862819D01*
X133958009Y-97862819D02*
X133862771Y-98005676D01*
X133862771Y-98005676D02*
X133767533Y-98100914D01*
X133767533Y-98100914D02*
X133672295Y-98148533D01*
X135148485Y-97862819D02*
X134672295Y-97862819D01*
X134672295Y-97862819D02*
X134624676Y-98339009D01*
X134624676Y-98339009D02*
X134672295Y-98291390D01*
X134672295Y-98291390D02*
X134767533Y-98243771D01*
X134767533Y-98243771D02*
X135005628Y-98243771D01*
X135005628Y-98243771D02*
X135100866Y-98291390D01*
X135100866Y-98291390D02*
X135148485Y-98339009D01*
X135148485Y-98339009D02*
X135196104Y-98434247D01*
X135196104Y-98434247D02*
X135196104Y-98672342D01*
X135196104Y-98672342D02*
X135148485Y-98767580D01*
X135148485Y-98767580D02*
X135100866Y-98815200D01*
X135100866Y-98815200D02*
X135005628Y-98862819D01*
X135005628Y-98862819D02*
X134767533Y-98862819D01*
X134767533Y-98862819D02*
X134672295Y-98815200D01*
X134672295Y-98815200D02*
X134624676Y-98767580D01*
X107453133Y-78217219D02*
X107119800Y-77741028D01*
X106881705Y-78217219D02*
X106881705Y-77217219D01*
X106881705Y-77217219D02*
X107262657Y-77217219D01*
X107262657Y-77217219D02*
X107357895Y-77264838D01*
X107357895Y-77264838D02*
X107405514Y-77312457D01*
X107405514Y-77312457D02*
X107453133Y-77407695D01*
X107453133Y-77407695D02*
X107453133Y-77550552D01*
X107453133Y-77550552D02*
X107405514Y-77645790D01*
X107405514Y-77645790D02*
X107357895Y-77693409D01*
X107357895Y-77693409D02*
X107262657Y-77741028D01*
X107262657Y-77741028D02*
X106881705Y-77741028D01*
X108405514Y-78217219D02*
X107834086Y-78217219D01*
X108119800Y-78217219D02*
X108119800Y-77217219D01*
X108119800Y-77217219D02*
X108024562Y-77360076D01*
X108024562Y-77360076D02*
X107929324Y-77455314D01*
X107929324Y-77455314D02*
X107834086Y-77502933D01*
X140016419Y-97825594D02*
X139016419Y-97825594D01*
X140016419Y-97254166D02*
X139444990Y-97682737D01*
X139016419Y-97254166D02*
X139587847Y-97825594D01*
X140016419Y-96301785D02*
X140016419Y-96873213D01*
X140016419Y-96587499D02*
X139016419Y-96587499D01*
X139016419Y-96587499D02*
X139159276Y-96682737D01*
X139159276Y-96682737D02*
X139254514Y-96777975D01*
X139254514Y-96777975D02*
X139302133Y-96873213D01*
X101879409Y-117833352D02*
X101927028Y-117690495D01*
X101927028Y-117690495D02*
X101974647Y-117642876D01*
X101974647Y-117642876D02*
X102069885Y-117595257D01*
X102069885Y-117595257D02*
X102212742Y-117595257D01*
X102212742Y-117595257D02*
X102307980Y-117642876D01*
X102307980Y-117642876D02*
X102355600Y-117690495D01*
X102355600Y-117690495D02*
X102403219Y-117785733D01*
X102403219Y-117785733D02*
X102403219Y-118166685D01*
X102403219Y-118166685D02*
X101403219Y-118166685D01*
X101403219Y-118166685D02*
X101403219Y-117833352D01*
X101403219Y-117833352D02*
X101450838Y-117738114D01*
X101450838Y-117738114D02*
X101498457Y-117690495D01*
X101498457Y-117690495D02*
X101593695Y-117642876D01*
X101593695Y-117642876D02*
X101688933Y-117642876D01*
X101688933Y-117642876D02*
X101784171Y-117690495D01*
X101784171Y-117690495D02*
X101831790Y-117738114D01*
X101831790Y-117738114D02*
X101879409Y-117833352D01*
X101879409Y-117833352D02*
X101879409Y-118166685D01*
X101403219Y-117261923D02*
X101403219Y-116595257D01*
X101403219Y-116595257D02*
X102403219Y-117261923D01*
X102403219Y-117261923D02*
X102403219Y-116595257D01*
X102403219Y-115690495D02*
X102403219Y-116261923D01*
X102403219Y-115976209D02*
X101403219Y-115976209D01*
X101403219Y-115976209D02*
X101546076Y-116071447D01*
X101546076Y-116071447D02*
X101641314Y-116166685D01*
X101641314Y-116166685D02*
X101688933Y-116261923D01*
X121640695Y-114872419D02*
X121640695Y-115681942D01*
X121640695Y-115681942D02*
X121688314Y-115777180D01*
X121688314Y-115777180D02*
X121735933Y-115824800D01*
X121735933Y-115824800D02*
X121831171Y-115872419D01*
X121831171Y-115872419D02*
X122021647Y-115872419D01*
X122021647Y-115872419D02*
X122116885Y-115824800D01*
X122116885Y-115824800D02*
X122164504Y-115777180D01*
X122164504Y-115777180D02*
X122212123Y-115681942D01*
X122212123Y-115681942D02*
X122212123Y-114872419D01*
X123116885Y-115205752D02*
X123116885Y-115872419D01*
X122878790Y-114824800D02*
X122640695Y-115539085D01*
X122640695Y-115539085D02*
X123259742Y-115539085D01*
X135964495Y-118073719D02*
X135964495Y-118883242D01*
X135964495Y-118883242D02*
X136012114Y-118978480D01*
X136012114Y-118978480D02*
X136059733Y-119026100D01*
X136059733Y-119026100D02*
X136154971Y-119073719D01*
X136154971Y-119073719D02*
X136345447Y-119073719D01*
X136345447Y-119073719D02*
X136440685Y-119026100D01*
X136440685Y-119026100D02*
X136488304Y-118978480D01*
X136488304Y-118978480D02*
X136535923Y-118883242D01*
X136535923Y-118883242D02*
X136535923Y-118073719D01*
X137440685Y-118073719D02*
X137250209Y-118073719D01*
X137250209Y-118073719D02*
X137154971Y-118121338D01*
X137154971Y-118121338D02*
X137107352Y-118168957D01*
X137107352Y-118168957D02*
X137012114Y-118311814D01*
X137012114Y-118311814D02*
X136964495Y-118502290D01*
X136964495Y-118502290D02*
X136964495Y-118883242D01*
X136964495Y-118883242D02*
X137012114Y-118978480D01*
X137012114Y-118978480D02*
X137059733Y-119026100D01*
X137059733Y-119026100D02*
X137154971Y-119073719D01*
X137154971Y-119073719D02*
X137345447Y-119073719D01*
X137345447Y-119073719D02*
X137440685Y-119026100D01*
X137440685Y-119026100D02*
X137488304Y-118978480D01*
X137488304Y-118978480D02*
X137535923Y-118883242D01*
X137535923Y-118883242D02*
X137535923Y-118645147D01*
X137535923Y-118645147D02*
X137488304Y-118549909D01*
X137488304Y-118549909D02*
X137440685Y-118502290D01*
X137440685Y-118502290D02*
X137345447Y-118454671D01*
X137345447Y-118454671D02*
X137154971Y-118454671D01*
X137154971Y-118454671D02*
X137059733Y-118502290D01*
X137059733Y-118502290D02*
X137012114Y-118549909D01*
X137012114Y-118549909D02*
X136964495Y-118645147D01*
X103768895Y-60047219D02*
X103768895Y-60856742D01*
X103768895Y-60856742D02*
X103816514Y-60951980D01*
X103816514Y-60951980D02*
X103864133Y-60999600D01*
X103864133Y-60999600D02*
X103959371Y-61047219D01*
X103959371Y-61047219D02*
X104149847Y-61047219D01*
X104149847Y-61047219D02*
X104245085Y-60999600D01*
X104245085Y-60999600D02*
X104292704Y-60951980D01*
X104292704Y-60951980D02*
X104340323Y-60856742D01*
X104340323Y-60856742D02*
X104340323Y-60047219D01*
X105340323Y-61047219D02*
X104768895Y-61047219D01*
X105054609Y-61047219D02*
X105054609Y-60047219D01*
X105054609Y-60047219D02*
X104959371Y-60190076D01*
X104959371Y-60190076D02*
X104864133Y-60285314D01*
X104864133Y-60285314D02*
X104768895Y-60332933D01*
X107453133Y-75677219D02*
X107119800Y-75201028D01*
X106881705Y-75677219D02*
X106881705Y-74677219D01*
X106881705Y-74677219D02*
X107262657Y-74677219D01*
X107262657Y-74677219D02*
X107357895Y-74724838D01*
X107357895Y-74724838D02*
X107405514Y-74772457D01*
X107405514Y-74772457D02*
X107453133Y-74867695D01*
X107453133Y-74867695D02*
X107453133Y-75010552D01*
X107453133Y-75010552D02*
X107405514Y-75105790D01*
X107405514Y-75105790D02*
X107357895Y-75153409D01*
X107357895Y-75153409D02*
X107262657Y-75201028D01*
X107262657Y-75201028D02*
X106881705Y-75201028D01*
X108310276Y-74677219D02*
X108119800Y-74677219D01*
X108119800Y-74677219D02*
X108024562Y-74724838D01*
X108024562Y-74724838D02*
X107976943Y-74772457D01*
X107976943Y-74772457D02*
X107881705Y-74915314D01*
X107881705Y-74915314D02*
X107834086Y-75105790D01*
X107834086Y-75105790D02*
X107834086Y-75486742D01*
X107834086Y-75486742D02*
X107881705Y-75581980D01*
X107881705Y-75581980D02*
X107929324Y-75629600D01*
X107929324Y-75629600D02*
X108024562Y-75677219D01*
X108024562Y-75677219D02*
X108215038Y-75677219D01*
X108215038Y-75677219D02*
X108310276Y-75629600D01*
X108310276Y-75629600D02*
X108357895Y-75581980D01*
X108357895Y-75581980D02*
X108405514Y-75486742D01*
X108405514Y-75486742D02*
X108405514Y-75248647D01*
X108405514Y-75248647D02*
X108357895Y-75153409D01*
X108357895Y-75153409D02*
X108310276Y-75105790D01*
X108310276Y-75105790D02*
X108215038Y-75058171D01*
X108215038Y-75058171D02*
X108024562Y-75058171D01*
X108024562Y-75058171D02*
X107929324Y-75105790D01*
X107929324Y-75105790D02*
X107881705Y-75153409D01*
X107881705Y-75153409D02*
X107834086Y-75248647D01*
X134561342Y-93669019D02*
X134228009Y-93192828D01*
X133989914Y-93669019D02*
X133989914Y-92669019D01*
X133989914Y-92669019D02*
X134370866Y-92669019D01*
X134370866Y-92669019D02*
X134466104Y-92716638D01*
X134466104Y-92716638D02*
X134513723Y-92764257D01*
X134513723Y-92764257D02*
X134561342Y-92859495D01*
X134561342Y-92859495D02*
X134561342Y-93002352D01*
X134561342Y-93002352D02*
X134513723Y-93097590D01*
X134513723Y-93097590D02*
X134466104Y-93145209D01*
X134466104Y-93145209D02*
X134370866Y-93192828D01*
X134370866Y-93192828D02*
X133989914Y-93192828D01*
X135513723Y-93669019D02*
X134942295Y-93669019D01*
X135228009Y-93669019D02*
X135228009Y-92669019D01*
X135228009Y-92669019D02*
X135132771Y-92811876D01*
X135132771Y-92811876D02*
X135037533Y-92907114D01*
X135037533Y-92907114D02*
X134942295Y-92954733D01*
X135847057Y-92669019D02*
X136513723Y-92669019D01*
X136513723Y-92669019D02*
X136085152Y-93669019D01*
X146074619Y-134830985D02*
X145074619Y-134830985D01*
X145074619Y-134830985D02*
X145074619Y-134592890D01*
X145074619Y-134592890D02*
X145122238Y-134450033D01*
X145122238Y-134450033D02*
X145217476Y-134354795D01*
X145217476Y-134354795D02*
X145312714Y-134307176D01*
X145312714Y-134307176D02*
X145503190Y-134259557D01*
X145503190Y-134259557D02*
X145646047Y-134259557D01*
X145646047Y-134259557D02*
X145836523Y-134307176D01*
X145836523Y-134307176D02*
X145931761Y-134354795D01*
X145931761Y-134354795D02*
X146027000Y-134450033D01*
X146027000Y-134450033D02*
X146074619Y-134592890D01*
X146074619Y-134592890D02*
X146074619Y-134830985D01*
X146074619Y-133307176D02*
X146074619Y-133878604D01*
X146074619Y-133592890D02*
X145074619Y-133592890D01*
X145074619Y-133592890D02*
X145217476Y-133688128D01*
X145217476Y-133688128D02*
X145312714Y-133783366D01*
X145312714Y-133783366D02*
X145360333Y-133878604D01*
X145074619Y-132973842D02*
X145074619Y-132354795D01*
X145074619Y-132354795D02*
X145455571Y-132688128D01*
X145455571Y-132688128D02*
X145455571Y-132545271D01*
X145455571Y-132545271D02*
X145503190Y-132450033D01*
X145503190Y-132450033D02*
X145550809Y-132402414D01*
X145550809Y-132402414D02*
X145646047Y-132354795D01*
X145646047Y-132354795D02*
X145884142Y-132354795D01*
X145884142Y-132354795D02*
X145979380Y-132402414D01*
X145979380Y-132402414D02*
X146027000Y-132450033D01*
X146027000Y-132450033D02*
X146074619Y-132545271D01*
X146074619Y-132545271D02*
X146074619Y-132830985D01*
X146074619Y-132830985D02*
X146027000Y-132926223D01*
X146027000Y-132926223D02*
X145979380Y-132973842D01*
X124967219Y-120013285D02*
X123967219Y-120013285D01*
X123967219Y-120013285D02*
X123967219Y-119775190D01*
X123967219Y-119775190D02*
X124014838Y-119632333D01*
X124014838Y-119632333D02*
X124110076Y-119537095D01*
X124110076Y-119537095D02*
X124205314Y-119489476D01*
X124205314Y-119489476D02*
X124395790Y-119441857D01*
X124395790Y-119441857D02*
X124538647Y-119441857D01*
X124538647Y-119441857D02*
X124729123Y-119489476D01*
X124729123Y-119489476D02*
X124824361Y-119537095D01*
X124824361Y-119537095D02*
X124919600Y-119632333D01*
X124919600Y-119632333D02*
X124967219Y-119775190D01*
X124967219Y-119775190D02*
X124967219Y-120013285D01*
X124967219Y-118489476D02*
X124967219Y-119060904D01*
X124967219Y-118775190D02*
X123967219Y-118775190D01*
X123967219Y-118775190D02*
X124110076Y-118870428D01*
X124110076Y-118870428D02*
X124205314Y-118965666D01*
X124205314Y-118965666D02*
X124252933Y-119060904D01*
X124062457Y-118108523D02*
X124014838Y-118060904D01*
X124014838Y-118060904D02*
X123967219Y-117965666D01*
X123967219Y-117965666D02*
X123967219Y-117727571D01*
X123967219Y-117727571D02*
X124014838Y-117632333D01*
X124014838Y-117632333D02*
X124062457Y-117584714D01*
X124062457Y-117584714D02*
X124157695Y-117537095D01*
X124157695Y-117537095D02*
X124252933Y-117537095D01*
X124252933Y-117537095D02*
X124395790Y-117584714D01*
X124395790Y-117584714D02*
X124967219Y-118156142D01*
X124967219Y-118156142D02*
X124967219Y-117537095D01*
X135046019Y-122842257D02*
X134569828Y-123175590D01*
X135046019Y-123413685D02*
X134046019Y-123413685D01*
X134046019Y-123413685D02*
X134046019Y-123032733D01*
X134046019Y-123032733D02*
X134093638Y-122937495D01*
X134093638Y-122937495D02*
X134141257Y-122889876D01*
X134141257Y-122889876D02*
X134236495Y-122842257D01*
X134236495Y-122842257D02*
X134379352Y-122842257D01*
X134379352Y-122842257D02*
X134474590Y-122889876D01*
X134474590Y-122889876D02*
X134522209Y-122937495D01*
X134522209Y-122937495D02*
X134569828Y-123032733D01*
X134569828Y-123032733D02*
X134569828Y-123413685D01*
X135046019Y-121889876D02*
X135046019Y-122461304D01*
X135046019Y-122175590D02*
X134046019Y-122175590D01*
X134046019Y-122175590D02*
X134188876Y-122270828D01*
X134188876Y-122270828D02*
X134284114Y-122366066D01*
X134284114Y-122366066D02*
X134331733Y-122461304D01*
X134474590Y-121318447D02*
X134426971Y-121413685D01*
X134426971Y-121413685D02*
X134379352Y-121461304D01*
X134379352Y-121461304D02*
X134284114Y-121508923D01*
X134284114Y-121508923D02*
X134236495Y-121508923D01*
X134236495Y-121508923D02*
X134141257Y-121461304D01*
X134141257Y-121461304D02*
X134093638Y-121413685D01*
X134093638Y-121413685D02*
X134046019Y-121318447D01*
X134046019Y-121318447D02*
X134046019Y-121127971D01*
X134046019Y-121127971D02*
X134093638Y-121032733D01*
X134093638Y-121032733D02*
X134141257Y-120985114D01*
X134141257Y-120985114D02*
X134236495Y-120937495D01*
X134236495Y-120937495D02*
X134284114Y-120937495D01*
X134284114Y-120937495D02*
X134379352Y-120985114D01*
X134379352Y-120985114D02*
X134426971Y-121032733D01*
X134426971Y-121032733D02*
X134474590Y-121127971D01*
X134474590Y-121127971D02*
X134474590Y-121318447D01*
X134474590Y-121318447D02*
X134522209Y-121413685D01*
X134522209Y-121413685D02*
X134569828Y-121461304D01*
X134569828Y-121461304D02*
X134665066Y-121508923D01*
X134665066Y-121508923D02*
X134855542Y-121508923D01*
X134855542Y-121508923D02*
X134950780Y-121461304D01*
X134950780Y-121461304D02*
X134998400Y-121413685D01*
X134998400Y-121413685D02*
X135046019Y-121318447D01*
X135046019Y-121318447D02*
X135046019Y-121127971D01*
X135046019Y-121127971D02*
X134998400Y-121032733D01*
X134998400Y-121032733D02*
X134950780Y-120985114D01*
X134950780Y-120985114D02*
X134855542Y-120937495D01*
X134855542Y-120937495D02*
X134665066Y-120937495D01*
X134665066Y-120937495D02*
X134569828Y-120985114D01*
X134569828Y-120985114D02*
X134522209Y-121032733D01*
X134522209Y-121032733D02*
X134474590Y-121127971D01*
X141778819Y-134234157D02*
X141302628Y-134567490D01*
X141778819Y-134805585D02*
X140778819Y-134805585D01*
X140778819Y-134805585D02*
X140778819Y-134424633D01*
X140778819Y-134424633D02*
X140826438Y-134329395D01*
X140826438Y-134329395D02*
X140874057Y-134281776D01*
X140874057Y-134281776D02*
X140969295Y-134234157D01*
X140969295Y-134234157D02*
X141112152Y-134234157D01*
X141112152Y-134234157D02*
X141207390Y-134281776D01*
X141207390Y-134281776D02*
X141255009Y-134329395D01*
X141255009Y-134329395D02*
X141302628Y-134424633D01*
X141302628Y-134424633D02*
X141302628Y-134805585D01*
X140874057Y-133853204D02*
X140826438Y-133805585D01*
X140826438Y-133805585D02*
X140778819Y-133710347D01*
X140778819Y-133710347D02*
X140778819Y-133472252D01*
X140778819Y-133472252D02*
X140826438Y-133377014D01*
X140826438Y-133377014D02*
X140874057Y-133329395D01*
X140874057Y-133329395D02*
X140969295Y-133281776D01*
X140969295Y-133281776D02*
X141064533Y-133281776D01*
X141064533Y-133281776D02*
X141207390Y-133329395D01*
X141207390Y-133329395D02*
X141778819Y-133900823D01*
X141778819Y-133900823D02*
X141778819Y-133281776D01*
X140778819Y-132662728D02*
X140778819Y-132567490D01*
X140778819Y-132567490D02*
X140826438Y-132472252D01*
X140826438Y-132472252D02*
X140874057Y-132424633D01*
X140874057Y-132424633D02*
X140969295Y-132377014D01*
X140969295Y-132377014D02*
X141159771Y-132329395D01*
X141159771Y-132329395D02*
X141397866Y-132329395D01*
X141397866Y-132329395D02*
X141588342Y-132377014D01*
X141588342Y-132377014D02*
X141683580Y-132424633D01*
X141683580Y-132424633D02*
X141731200Y-132472252D01*
X141731200Y-132472252D02*
X141778819Y-132567490D01*
X141778819Y-132567490D02*
X141778819Y-132662728D01*
X141778819Y-132662728D02*
X141731200Y-132757966D01*
X141731200Y-132757966D02*
X141683580Y-132805585D01*
X141683580Y-132805585D02*
X141588342Y-132853204D01*
X141588342Y-132853204D02*
X141397866Y-132900823D01*
X141397866Y-132900823D02*
X141159771Y-132900823D01*
X141159771Y-132900823D02*
X140969295Y-132853204D01*
X140969295Y-132853204D02*
X140874057Y-132805585D01*
X140874057Y-132805585D02*
X140826438Y-132757966D01*
X140826438Y-132757966D02*
X140778819Y-132662728D01*
X120369819Y-126123266D02*
X119893628Y-126456599D01*
X120369819Y-126694694D02*
X119369819Y-126694694D01*
X119369819Y-126694694D02*
X119369819Y-126313742D01*
X119369819Y-126313742D02*
X119417438Y-126218504D01*
X119417438Y-126218504D02*
X119465057Y-126170885D01*
X119465057Y-126170885D02*
X119560295Y-126123266D01*
X119560295Y-126123266D02*
X119703152Y-126123266D01*
X119703152Y-126123266D02*
X119798390Y-126170885D01*
X119798390Y-126170885D02*
X119846009Y-126218504D01*
X119846009Y-126218504D02*
X119893628Y-126313742D01*
X119893628Y-126313742D02*
X119893628Y-126694694D01*
X119369819Y-125789932D02*
X119369819Y-125123266D01*
X119369819Y-125123266D02*
X120369819Y-125551837D01*
X107453133Y-94397019D02*
X107119800Y-93920828D01*
X106881705Y-94397019D02*
X106881705Y-93397019D01*
X106881705Y-93397019D02*
X107262657Y-93397019D01*
X107262657Y-93397019D02*
X107357895Y-93444638D01*
X107357895Y-93444638D02*
X107405514Y-93492257D01*
X107405514Y-93492257D02*
X107453133Y-93587495D01*
X107453133Y-93587495D02*
X107453133Y-93730352D01*
X107453133Y-93730352D02*
X107405514Y-93825590D01*
X107405514Y-93825590D02*
X107357895Y-93873209D01*
X107357895Y-93873209D02*
X107262657Y-93920828D01*
X107262657Y-93920828D02*
X106881705Y-93920828D01*
X107786467Y-93397019D02*
X108405514Y-93397019D01*
X108405514Y-93397019D02*
X108072181Y-93777971D01*
X108072181Y-93777971D02*
X108215038Y-93777971D01*
X108215038Y-93777971D02*
X108310276Y-93825590D01*
X108310276Y-93825590D02*
X108357895Y-93873209D01*
X108357895Y-93873209D02*
X108405514Y-93968447D01*
X108405514Y-93968447D02*
X108405514Y-94206542D01*
X108405514Y-94206542D02*
X108357895Y-94301780D01*
X108357895Y-94301780D02*
X108310276Y-94349400D01*
X108310276Y-94349400D02*
X108215038Y-94397019D01*
X108215038Y-94397019D02*
X107929324Y-94397019D01*
X107929324Y-94397019D02*
X107834086Y-94349400D01*
X107834086Y-94349400D02*
X107786467Y-94301780D01*
X126098666Y-135848419D02*
X126098666Y-136562704D01*
X126098666Y-136562704D02*
X126051047Y-136705561D01*
X126051047Y-136705561D02*
X125955809Y-136800800D01*
X125955809Y-136800800D02*
X125812952Y-136848419D01*
X125812952Y-136848419D02*
X125717714Y-136848419D01*
X127051047Y-135848419D02*
X126574857Y-135848419D01*
X126574857Y-135848419D02*
X126527238Y-136324609D01*
X126527238Y-136324609D02*
X126574857Y-136276990D01*
X126574857Y-136276990D02*
X126670095Y-136229371D01*
X126670095Y-136229371D02*
X126908190Y-136229371D01*
X126908190Y-136229371D02*
X127003428Y-136276990D01*
X127003428Y-136276990D02*
X127051047Y-136324609D01*
X127051047Y-136324609D02*
X127098666Y-136419847D01*
X127098666Y-136419847D02*
X127098666Y-136657942D01*
X127098666Y-136657942D02*
X127051047Y-136753180D01*
X127051047Y-136753180D02*
X127003428Y-136800800D01*
X127003428Y-136800800D02*
X126908190Y-136848419D01*
X126908190Y-136848419D02*
X126670095Y-136848419D01*
X126670095Y-136848419D02*
X126574857Y-136800800D01*
X126574857Y-136800800D02*
X126527238Y-136753180D01*
X153793866Y-74715019D02*
X153793866Y-75429304D01*
X153793866Y-75429304D02*
X153746247Y-75572161D01*
X153746247Y-75572161D02*
X153651009Y-75667400D01*
X153651009Y-75667400D02*
X153508152Y-75715019D01*
X153508152Y-75715019D02*
X153412914Y-75715019D01*
X154698628Y-74715019D02*
X154508152Y-74715019D01*
X154508152Y-74715019D02*
X154412914Y-74762638D01*
X154412914Y-74762638D02*
X154365295Y-74810257D01*
X154365295Y-74810257D02*
X154270057Y-74953114D01*
X154270057Y-74953114D02*
X154222438Y-75143590D01*
X154222438Y-75143590D02*
X154222438Y-75524542D01*
X154222438Y-75524542D02*
X154270057Y-75619780D01*
X154270057Y-75619780D02*
X154317676Y-75667400D01*
X154317676Y-75667400D02*
X154412914Y-75715019D01*
X154412914Y-75715019D02*
X154603390Y-75715019D01*
X154603390Y-75715019D02*
X154698628Y-75667400D01*
X154698628Y-75667400D02*
X154746247Y-75619780D01*
X154746247Y-75619780D02*
X154793866Y-75524542D01*
X154793866Y-75524542D02*
X154793866Y-75286447D01*
X154793866Y-75286447D02*
X154746247Y-75191209D01*
X154746247Y-75191209D02*
X154698628Y-75143590D01*
X154698628Y-75143590D02*
X154603390Y-75095971D01*
X154603390Y-75095971D02*
X154412914Y-75095971D01*
X154412914Y-75095971D02*
X154317676Y-75143590D01*
X154317676Y-75143590D02*
X154270057Y-75191209D01*
X154270057Y-75191209D02*
X154222438Y-75286447D01*
X140145819Y-117075694D02*
X139145819Y-117075694D01*
X140145819Y-116504266D02*
X139574390Y-116932837D01*
X139145819Y-116504266D02*
X139717247Y-117075694D01*
X139241057Y-116123313D02*
X139193438Y-116075694D01*
X139193438Y-116075694D02*
X139145819Y-115980456D01*
X139145819Y-115980456D02*
X139145819Y-115742361D01*
X139145819Y-115742361D02*
X139193438Y-115647123D01*
X139193438Y-115647123D02*
X139241057Y-115599504D01*
X139241057Y-115599504D02*
X139336295Y-115551885D01*
X139336295Y-115551885D02*
X139431533Y-115551885D01*
X139431533Y-115551885D02*
X139574390Y-115599504D01*
X139574390Y-115599504D02*
X140145819Y-116170932D01*
X140145819Y-116170932D02*
X140145819Y-115551885D01*
X86324819Y-84284933D02*
X87039104Y-84284933D01*
X87039104Y-84284933D02*
X87181961Y-84332552D01*
X87181961Y-84332552D02*
X87277200Y-84427790D01*
X87277200Y-84427790D02*
X87324819Y-84570647D01*
X87324819Y-84570647D02*
X87324819Y-84665885D01*
X87324819Y-83284933D02*
X87324819Y-83856361D01*
X87324819Y-83570647D02*
X86324819Y-83570647D01*
X86324819Y-83570647D02*
X86467676Y-83665885D01*
X86467676Y-83665885D02*
X86562914Y-83761123D01*
X86562914Y-83761123D02*
X86610533Y-83856361D01*
X86270219Y-104931333D02*
X86984504Y-104931333D01*
X86984504Y-104931333D02*
X87127361Y-104978952D01*
X87127361Y-104978952D02*
X87222600Y-105074190D01*
X87222600Y-105074190D02*
X87270219Y-105217047D01*
X87270219Y-105217047D02*
X87270219Y-105312285D01*
X86365457Y-104502761D02*
X86317838Y-104455142D01*
X86317838Y-104455142D02*
X86270219Y-104359904D01*
X86270219Y-104359904D02*
X86270219Y-104121809D01*
X86270219Y-104121809D02*
X86317838Y-104026571D01*
X86317838Y-104026571D02*
X86365457Y-103978952D01*
X86365457Y-103978952D02*
X86460695Y-103931333D01*
X86460695Y-103931333D02*
X86555933Y-103931333D01*
X86555933Y-103931333D02*
X86698790Y-103978952D01*
X86698790Y-103978952D02*
X87270219Y-104550380D01*
X87270219Y-104550380D02*
X87270219Y-103931333D01*
X126538819Y-126643494D02*
X125538819Y-126643494D01*
X125538819Y-126643494D02*
X125538819Y-126405399D01*
X125538819Y-126405399D02*
X125586438Y-126262542D01*
X125586438Y-126262542D02*
X125681676Y-126167304D01*
X125681676Y-126167304D02*
X125776914Y-126119685D01*
X125776914Y-126119685D02*
X125967390Y-126072066D01*
X125967390Y-126072066D02*
X126110247Y-126072066D01*
X126110247Y-126072066D02*
X126300723Y-126119685D01*
X126300723Y-126119685D02*
X126395961Y-126167304D01*
X126395961Y-126167304D02*
X126491200Y-126262542D01*
X126491200Y-126262542D02*
X126538819Y-126405399D01*
X126538819Y-126405399D02*
X126538819Y-126643494D01*
X126538819Y-125595875D02*
X126538819Y-125405399D01*
X126538819Y-125405399D02*
X126491200Y-125310161D01*
X126491200Y-125310161D02*
X126443580Y-125262542D01*
X126443580Y-125262542D02*
X126300723Y-125167304D01*
X126300723Y-125167304D02*
X126110247Y-125119685D01*
X126110247Y-125119685D02*
X125729295Y-125119685D01*
X125729295Y-125119685D02*
X125634057Y-125167304D01*
X125634057Y-125167304D02*
X125586438Y-125214923D01*
X125586438Y-125214923D02*
X125538819Y-125310161D01*
X125538819Y-125310161D02*
X125538819Y-125500637D01*
X125538819Y-125500637D02*
X125586438Y-125595875D01*
X125586438Y-125595875D02*
X125634057Y-125643494D01*
X125634057Y-125643494D02*
X125729295Y-125691113D01*
X125729295Y-125691113D02*
X125967390Y-125691113D01*
X125967390Y-125691113D02*
X126062628Y-125643494D01*
X126062628Y-125643494D02*
X126110247Y-125595875D01*
X126110247Y-125595875D02*
X126157866Y-125500637D01*
X126157866Y-125500637D02*
X126157866Y-125310161D01*
X126157866Y-125310161D02*
X126110247Y-125214923D01*
X126110247Y-125214923D02*
X126062628Y-125167304D01*
X126062628Y-125167304D02*
X125967390Y-125119685D01*
X95624819Y-125521533D02*
X96339104Y-125521533D01*
X96339104Y-125521533D02*
X96481961Y-125569152D01*
X96481961Y-125569152D02*
X96577200Y-125664390D01*
X96577200Y-125664390D02*
X96624819Y-125807247D01*
X96624819Y-125807247D02*
X96624819Y-125902485D01*
X95624819Y-125140580D02*
X95624819Y-124521533D01*
X95624819Y-124521533D02*
X96005771Y-124854866D01*
X96005771Y-124854866D02*
X96005771Y-124712009D01*
X96005771Y-124712009D02*
X96053390Y-124616771D01*
X96053390Y-124616771D02*
X96101009Y-124569152D01*
X96101009Y-124569152D02*
X96196247Y-124521533D01*
X96196247Y-124521533D02*
X96434342Y-124521533D01*
X96434342Y-124521533D02*
X96529580Y-124569152D01*
X96529580Y-124569152D02*
X96577200Y-124616771D01*
X96577200Y-124616771D02*
X96624819Y-124712009D01*
X96624819Y-124712009D02*
X96624819Y-124997723D01*
X96624819Y-124997723D02*
X96577200Y-125092961D01*
X96577200Y-125092961D02*
X96529580Y-125140580D01*
D11*
%TO.C,J7*%
X149555200Y-127508000D02*
X149555200Y-135128000D01*
X149555200Y-128778000D02*
X159715200Y-128778000D01*
X149555200Y-135128000D02*
X159715200Y-135128000D01*
X159715200Y-127508000D02*
X149555200Y-127508000D01*
X159715200Y-135128000D02*
X159715200Y-127508000D01*
%TO.C,R19*%
X121057400Y-118962141D02*
X121057400Y-118654859D01*
X121817400Y-118962141D02*
X121817400Y-118654859D01*
%TO.C,C7*%
X141486600Y-78797037D02*
X141486600Y-83252600D01*
X141486600Y-83252600D02*
X143186600Y-83252600D01*
X142551037Y-77732600D02*
X141486600Y-78797037D01*
X142551037Y-77732600D02*
X143186600Y-77732600D01*
X145931600Y-76867600D02*
X145931600Y-77492600D01*
X145942163Y-77732600D02*
X145306600Y-77732600D01*
X145942163Y-77732600D02*
X147006600Y-78797037D01*
X146244100Y-77180100D02*
X145619100Y-77180100D01*
X147006600Y-78797037D02*
X147006600Y-83252600D01*
X147006600Y-83252600D02*
X145306600Y-83252600D01*
%TO.C,R5*%
X107775441Y-88912400D02*
X107468159Y-88912400D01*
X107775441Y-89672400D02*
X107468159Y-89672400D01*
%TO.C,R11*%
X133986000Y-91758741D02*
X133986000Y-91451459D01*
X134746000Y-91758741D02*
X134746000Y-91451459D01*
%TO.C,R2*%
X107775441Y-85356400D02*
X107468159Y-85356400D01*
X107775441Y-86116400D02*
X107468159Y-86116400D01*
%TO.C,R9*%
X125070600Y-125778159D02*
X125070600Y-126085441D01*
X125830600Y-125778159D02*
X125830600Y-126085441D01*
D12*
%TO.C,U2*%
X133680200Y-87033100D02*
X133680200Y-88684100D01*
X134744460Y-87033100D02*
X133680200Y-87033100D01*
X134965440Y-88684100D02*
X135696960Y-88684100D01*
X136982200Y-87033100D02*
X135917940Y-87033100D01*
X136982200Y-88684100D02*
X136982200Y-87033100D01*
X134454900Y-90093800D02*
G75*
G02*
X134302500Y-90093800I-76200J0D01*
G01*
X134302500Y-90093800D02*
G75*
G02*
X134454900Y-90093800I76200J0D01*
G01*
D11*
%TO.C,R16*%
X136645764Y-99208000D02*
X136861436Y-99208000D01*
X136645764Y-99928000D02*
X136861436Y-99928000D01*
%TO.C,J4*%
X100681800Y-127783600D02*
X100681800Y-135403600D01*
X100681800Y-135403600D02*
X110841800Y-135403600D01*
X110841800Y-127783600D02*
X100681800Y-127783600D01*
X110841800Y-134133600D02*
X100681800Y-134133600D01*
X110841800Y-135403600D02*
X110841800Y-127783600D01*
D13*
%TO.C,D10*%
X136295600Y-90540500D02*
G75*
G02*
X136195600Y-90540500I-50000J0D01*
G01*
X136195600Y-90540500D02*
G75*
G02*
X136295600Y-90540500I50000J0D01*
G01*
D12*
%TO.C,U5*%
X141808200Y-128765300D02*
X141808200Y-130416300D01*
X142872460Y-128765300D02*
X141808200Y-128765300D01*
X143093440Y-130416300D02*
X143824960Y-130416300D01*
X145110200Y-128765300D02*
X144045940Y-128765300D01*
X145110200Y-130416300D02*
X145110200Y-128765300D01*
X142582900Y-131826000D02*
G75*
G02*
X142430500Y-131826000I-76200J0D01*
G01*
X142430500Y-131826000D02*
G75*
G02*
X142582900Y-131826000I76200J0D01*
G01*
D11*
%TO.C,SW1*%
X132412800Y-78139000D02*
X132412800Y-83659000D01*
X133847800Y-78139000D02*
X132412800Y-78139000D01*
X133847800Y-83659000D02*
X132412800Y-83659000D01*
X138398800Y-76453000D02*
X138398800Y-78139000D01*
X139214800Y-78139000D02*
X138398800Y-78139000D01*
X139214800Y-78139000D02*
X139214800Y-83659000D01*
X139214800Y-83659000D02*
X137779800Y-83659000D01*
D12*
%TO.C,U3*%
X133184900Y-106362500D02*
X137426700Y-106362500D01*
X137426700Y-101104700D02*
X133184900Y-101104700D01*
D13*
%TO.C,D8*%
X123570200Y-126997800D02*
G75*
G02*
X123470200Y-126997800I-50000J0D01*
G01*
X123470200Y-126997800D02*
G75*
G02*
X123570200Y-126997800I50000J0D01*
G01*
%TO.C,D7*%
X120369800Y-127020200D02*
G75*
G02*
X120269800Y-127020200I-50000J0D01*
G01*
X120269800Y-127020200D02*
G75*
G02*
X120369800Y-127020200I50000J0D01*
G01*
D11*
%TO.C,R8*%
X121743200Y-125754159D02*
X121743200Y-126061441D01*
X122503200Y-125754159D02*
X122503200Y-126061441D01*
%TO.C,R4*%
X107801441Y-81495600D02*
X107494159Y-81495600D01*
X107801441Y-82255600D02*
X107494159Y-82255600D01*
D13*
%TO.C,D11*%
X137716200Y-121125300D02*
G75*
G02*
X137616200Y-121125300I-50000J0D01*
G01*
X137616200Y-121125300D02*
G75*
G02*
X137716200Y-121125300I50000J0D01*
G01*
D11*
%TO.C,R15*%
X133826364Y-99208000D02*
X134042036Y-99208000D01*
X133826364Y-99928000D02*
X134042036Y-99928000D01*
%TO.C,R1*%
X107773441Y-76212400D02*
X107466159Y-76212400D01*
X107773441Y-76972400D02*
X107466159Y-76972400D01*
%TO.C,K1*%
X140451600Y-89377500D02*
X140451600Y-95887500D01*
X140451600Y-89377500D02*
X159471600Y-89377500D01*
X140451600Y-98287500D02*
X140451600Y-104797500D01*
X142611600Y-105037500D02*
X144911600Y-105037500D01*
X144361600Y-97087500D02*
X143461600Y-97087500D01*
X144361600Y-97087500D02*
X144361600Y-100787500D01*
X145261600Y-95587500D02*
X150261600Y-95587500D01*
X145261600Y-98587500D02*
X145261600Y-95587500D01*
X145461600Y-103087500D02*
X147761600Y-103087500D01*
X147761600Y-91087500D02*
X145461600Y-91087500D01*
X147761600Y-91087500D02*
X147761600Y-95587500D01*
X147761600Y-98587500D02*
X147761600Y-103087500D01*
X150261600Y-95587500D02*
X150261600Y-98587500D01*
X150261600Y-98587500D02*
X145261600Y-95587500D01*
X150261600Y-98587500D02*
X145261600Y-98587500D01*
X151261600Y-97087500D02*
X151261600Y-100787500D01*
X151261600Y-97087500D02*
X152761600Y-97087500D01*
X151261600Y-100787500D02*
X144361600Y-100787500D01*
X152761600Y-97087500D02*
X157261600Y-94387500D01*
X155961600Y-92787500D02*
X155961600Y-95087500D01*
X155961600Y-101387500D02*
X155961600Y-99087500D01*
X159461600Y-104797500D02*
X140451600Y-104797500D01*
X159471600Y-89377500D02*
X159471600Y-104797500D01*
%TO.C,BZ1*%
X110618399Y-123352400D02*
G75*
G02*
X107618400Y-123352400I-1499999J6400000D01*
G01*
X115348400Y-116952400D02*
G75*
G02*
X102888400Y-116952400I-6230000J0D01*
G01*
X102888400Y-116952400D02*
G75*
G02*
X115348400Y-116952400I6230000J0D01*
G01*
D12*
%TO.C,U4*%
X120751600Y-114592100D02*
X120751600Y-116243100D01*
X121815860Y-114592100D02*
X120751600Y-114592100D01*
X122036840Y-116243100D02*
X122768360Y-116243100D01*
X124053600Y-114592100D02*
X122989340Y-114592100D01*
X124053600Y-116243100D02*
X124053600Y-114592100D01*
X121526300Y-117652800D02*
G75*
G02*
X121373900Y-117652800I-76200J0D01*
G01*
X121373900Y-117652800D02*
G75*
G02*
X121526300Y-117652800I76200J0D01*
G01*
%TO.C,U6*%
X135075400Y-117793400D02*
X135075400Y-119444400D01*
X136139660Y-117793400D02*
X135075400Y-117793400D01*
X136360640Y-119444400D02*
X137092160Y-119444400D01*
X138377400Y-117793400D02*
X137313140Y-117793400D01*
X138377400Y-119444400D02*
X138377400Y-117793400D01*
X135850100Y-120854100D02*
G75*
G02*
X135697700Y-120854100I-76200J0D01*
G01*
X135697700Y-120854100D02*
G75*
G02*
X135850100Y-120854100I76200J0D01*
G01*
%TO.C,U1*%
D11*
X101650800Y-61292400D02*
X129650800Y-61292400D01*
X129650800Y-107292400D01*
X101650800Y-107292400D01*
X101650800Y-61292400D01*
D14*
X101150800Y-66312400D02*
G75*
G02*
X100950800Y-66312400I-100000J0D01*
G01*
X100950800Y-66312400D02*
G75*
G02*
X101150800Y-66312400I100000J0D01*
G01*
D11*
%TO.C,R6*%
X107773441Y-73672400D02*
X107466159Y-73672400D01*
X107773441Y-74432400D02*
X107466159Y-74432400D01*
%TO.C,R17*%
X133027136Y-94124200D02*
X137381264Y-94124200D01*
X133027136Y-97544200D02*
X137381264Y-97544200D01*
D13*
%TO.C,D13*%
X144499800Y-132526700D02*
G75*
G02*
X144399800Y-132526700I-50000J0D01*
G01*
X144399800Y-132526700D02*
G75*
G02*
X144499800Y-132526700I50000J0D01*
G01*
%TO.C,D12*%
X123392400Y-117709000D02*
G75*
G02*
X123292400Y-117709000I-50000J0D01*
G01*
X123292400Y-117709000D02*
G75*
G02*
X123392400Y-117709000I50000J0D01*
G01*
D11*
%TO.C,R18*%
X135381200Y-122353041D02*
X135381200Y-122045759D01*
X136141200Y-122353041D02*
X136141200Y-122045759D01*
%TO.C,R20*%
X142114000Y-133744941D02*
X142114000Y-133437659D01*
X142874000Y-133744941D02*
X142874000Y-133437659D01*
%TO.C,R7*%
X118365000Y-125802959D02*
X118365000Y-126110241D01*
X119125000Y-125802959D02*
X119125000Y-126110241D01*
%TO.C,R3*%
X107773441Y-92392200D02*
X107466159Y-92392200D01*
X107773441Y-93152200D02*
X107466159Y-93152200D01*
%TO.C,J5*%
X116252000Y-127783600D02*
X116252000Y-135403600D01*
X116252000Y-129053600D02*
X136572000Y-129053600D01*
X136572000Y-127783600D02*
X116252000Y-127783600D01*
X136572000Y-135403600D02*
X116252000Y-135403600D01*
X136572000Y-135403600D02*
X136572000Y-127783600D01*
%TO.C,J6*%
X149047200Y-76530200D02*
X149047200Y-84150200D01*
X149047200Y-84150200D02*
X159207200Y-84150200D01*
X159207200Y-76530200D02*
X149047200Y-76530200D01*
X159207200Y-82880200D02*
X149047200Y-82880200D01*
X159207200Y-84150200D02*
X159207200Y-76530200D01*
%TO.C,K2*%
X140581000Y-108627600D02*
X140581000Y-115137600D01*
X140581000Y-108627600D02*
X159601000Y-108627600D01*
X140581000Y-117537600D02*
X140581000Y-124047600D01*
X142741000Y-124287600D02*
X145041000Y-124287600D01*
X144491000Y-116337600D02*
X143591000Y-116337600D01*
X144491000Y-116337600D02*
X144491000Y-120037600D01*
X145391000Y-114837600D02*
X150391000Y-114837600D01*
X145391000Y-117837600D02*
X145391000Y-114837600D01*
X145591000Y-122337600D02*
X147891000Y-122337600D01*
X147891000Y-110337600D02*
X145591000Y-110337600D01*
X147891000Y-110337600D02*
X147891000Y-114837600D01*
X147891000Y-117837600D02*
X147891000Y-122337600D01*
X150391000Y-114837600D02*
X150391000Y-117837600D01*
X150391000Y-117837600D02*
X145391000Y-114837600D01*
X150391000Y-117837600D02*
X145391000Y-117837600D01*
X151391000Y-116337600D02*
X151391000Y-120037600D01*
X151391000Y-116337600D02*
X152891000Y-116337600D01*
X151391000Y-120037600D02*
X144491000Y-120037600D01*
X152891000Y-116337600D02*
X157391000Y-113637600D01*
X156091000Y-112037600D02*
X156091000Y-114337600D01*
X156091000Y-120637600D02*
X156091000Y-118337600D01*
X159591000Y-124047600D02*
X140581000Y-124047600D01*
X159601000Y-108627600D02*
X159601000Y-124047600D01*
%TO.C,J1*%
X87710000Y-91541600D02*
X87710000Y-76301600D01*
X94060000Y-91541600D02*
X94060000Y-76301600D01*
X95330000Y-76301600D02*
X87710000Y-76301600D01*
X95330000Y-91541600D02*
X87710000Y-91541600D01*
X95330000Y-91541600D02*
X95330000Y-76301600D01*
%TO.C,J2*%
X87655400Y-112188000D02*
X87655400Y-96948000D01*
X94005400Y-112188000D02*
X94005400Y-96948000D01*
X95275400Y-96948000D02*
X87655400Y-96948000D01*
X95275400Y-112188000D02*
X87655400Y-112188000D01*
X95275400Y-112188000D02*
X95275400Y-96948000D01*
D13*
%TO.C,D9*%
X127304000Y-126995400D02*
G75*
G02*
X127204000Y-126995400I-50000J0D01*
G01*
X127204000Y-126995400D02*
G75*
G02*
X127304000Y-126995400I50000J0D01*
G01*
D11*
%TO.C,J3*%
X87710000Y-117598200D02*
X87710000Y-132838200D01*
X87710000Y-117598200D02*
X95330000Y-117598200D01*
X87710000Y-132838200D02*
X95330000Y-132838200D01*
X88980000Y-117598200D02*
X88980000Y-132838200D01*
X95330000Y-117598200D02*
X95330000Y-132838200D01*
%TD*%
M02*
