%TF.GenerationSoftware,KiCad,Pcbnew,8.0.8*%
%TF.CreationDate,2025-03-20T21:36:52-04:00*%
%TF.ProjectId,PCB PUERTA,50434220-5055-4455-9254-412e6b696361,rev?*%
%TF.SameCoordinates,Original*%
%TF.FileFunction,Copper,L1,Top*%
%TF.FilePolarity,Positive*%
%FSLAX46Y46*%
G04 Gerber Fmt 4.6, Leading zero omitted, Abs format (unit mm)*
G04 Created by KiCad (PCBNEW 8.0.8) date 2025-03-20 21:36:52*
%MOMM*%
%LPD*%
G01*
G04 APERTURE LIST*
G04 Aperture macros list*
%AMRoundRect*
0 Rectangle with rounded corners*
0 $1 Rounding radius*
0 $2 $3 $4 $5 $6 $7 $8 $9 X,Y pos of 4 corners*
0 Add a 4 corners polygon primitive as box body*
4,1,4,$2,$3,$4,$5,$6,$7,$8,$9,$2,$3,0*
0 Add four circle primitives for the rounded corners*
1,1,$1+$1,$2,$3*
1,1,$1+$1,$4,$5*
1,1,$1+$1,$6,$7*
1,1,$1+$1,$8,$9*
0 Add four rect primitives between the rounded corners*
20,1,$1+$1,$2,$3,$4,$5,0*
20,1,$1+$1,$4,$5,$6,$7,0*
20,1,$1+$1,$6,$7,$8,$9,0*
20,1,$1+$1,$8,$9,$2,$3,0*%
G04 Aperture macros list end*
%TA.AperFunction,ComponentPad*%
%ADD10R,3.000000X3.000000*%
%TD*%
%TA.AperFunction,ComponentPad*%
%ADD11C,3.000000*%
%TD*%
%TA.AperFunction,SMDPad,CuDef*%
%ADD12RoundRect,0.135000X0.185000X-0.135000X0.185000X0.135000X-0.185000X0.135000X-0.185000X-0.135000X0*%
%TD*%
%TA.AperFunction,SMDPad,CuDef*%
%ADD13RoundRect,0.250000X-0.550000X1.250000X-0.550000X-1.250000X0.550000X-1.250000X0.550000X1.250000X0*%
%TD*%
%TA.AperFunction,SMDPad,CuDef*%
%ADD14RoundRect,0.135000X0.135000X0.185000X-0.135000X0.185000X-0.135000X-0.185000X0.135000X-0.185000X0*%
%TD*%
%TA.AperFunction,SMDPad,CuDef*%
%ADD15RoundRect,0.135000X-0.185000X0.135000X-0.185000X-0.135000X0.185000X-0.135000X0.185000X0.135000X0*%
%TD*%
%TA.AperFunction,SMDPad,CuDef*%
%ADD16R,0.508000X1.016000*%
%TD*%
%TA.AperFunction,SMDPad,CuDef*%
%ADD17RoundRect,0.140000X-0.140000X-0.170000X0.140000X-0.170000X0.140000X0.170000X-0.140000X0.170000X0*%
%TD*%
%TA.AperFunction,SMDPad,CuDef*%
%ADD18RoundRect,0.147500X-0.172500X0.147500X-0.172500X-0.147500X0.172500X-0.147500X0.172500X0.147500X0*%
%TD*%
%TA.AperFunction,SMDPad,CuDef*%
%ADD19R,0.760000X1.270000*%
%TD*%
%TA.AperFunction,SMDPad,CuDef*%
%ADD20R,1.663700X0.558800*%
%TD*%
%TA.AperFunction,SMDPad,CuDef*%
%ADD21RoundRect,0.147500X0.172500X-0.147500X0.172500X0.147500X-0.172500X0.147500X-0.172500X-0.147500X0*%
%TD*%
%TA.AperFunction,ComponentPad*%
%ADD22C,2.400000*%
%TD*%
%TA.AperFunction,ComponentPad*%
%ADD23RoundRect,0.250000X1.000000X-1.000000X1.000000X1.000000X-1.000000X1.000000X-1.000000X-1.000000X0*%
%TD*%
%TA.AperFunction,ComponentPad*%
%ADD24R,2.000000X2.000000*%
%TD*%
%TA.AperFunction,ComponentPad*%
%ADD25C,2.000000*%
%TD*%
%TA.AperFunction,ComponentPad*%
%ADD26R,1.530000X1.530000*%
%TD*%
%TA.AperFunction,ComponentPad*%
%ADD27C,1.530000*%
%TD*%
%TA.AperFunction,SMDPad,CuDef*%
%ADD28RoundRect,0.250000X-0.362500X-1.425000X0.362500X-1.425000X0.362500X1.425000X-0.362500X1.425000X0*%
%TD*%
%TA.AperFunction,ViaPad*%
%ADD29C,0.600000*%
%TD*%
%TA.AperFunction,Conductor*%
%ADD30C,0.508000*%
%TD*%
%TA.AperFunction,Conductor*%
%ADD31C,0.254000*%
%TD*%
G04 APERTURE END LIST*
D10*
%TO.P,J7,1,Pin_1*%
%TO.N,+5V*%
X157175200Y-131318000D03*
D11*
%TO.P,J7,2,Pin_2*%
%TO.N,Net-(J7-Pin_2)*%
X152095200Y-131318000D03*
%TD*%
D12*
%TO.P,R19,1*%
%TO.N,Net-(D12-A)*%
X121437400Y-119318500D03*
%TO.P,R19,2*%
%TO.N,BUZZER*%
X121437400Y-118298500D03*
%TD*%
D13*
%TO.P,C7,1*%
%TO.N,+5V*%
X144246600Y-78292600D03*
%TO.P,C7,2*%
%TO.N,GND*%
X144246600Y-82692600D03*
%TD*%
D14*
%TO.P,R5,1*%
%TO.N,+3.3V*%
X108131800Y-89292400D03*
%TO.P,R5,2*%
%TO.N,KEYC*%
X107111800Y-89292400D03*
%TD*%
D12*
%TO.P,R11,1*%
%TO.N,Net-(D10-A)*%
X134366000Y-92115100D03*
%TO.P,R11,2*%
%TO.N,MA*%
X134366000Y-91095100D03*
%TD*%
D14*
%TO.P,R2,1*%
%TO.N,+3.3V*%
X108131800Y-85736400D03*
%TO.P,R2,2*%
%TO.N,KEYA*%
X107111800Y-85736400D03*
%TD*%
D15*
%TO.P,R9,1*%
%TO.N,Net-(D9-A)*%
X125450600Y-125421800D03*
%TO.P,R9,2*%
%TO.N,+12V*%
X125450600Y-126441800D03*
%TD*%
D16*
%TO.P,U2,1,BASE*%
%TO.N,MA*%
X134378700Y-88823800D03*
%TO.P,U2,2,EMITTER*%
%TO.N,GND*%
X136283700Y-88823800D03*
%TO.P,U2,3,COLLECTOR*%
%TO.N,Net-(U2-COLLECTOR)*%
X135331200Y-86893400D03*
%TD*%
D17*
%TO.P,R16,1*%
%TO.N,Net-(U3A--)*%
X136273600Y-99568000D03*
%TO.P,R16,2*%
%TO.N,GND*%
X137233600Y-99568000D03*
%TD*%
D10*
%TO.P,J4,1,Pin_1*%
%TO.N,GND*%
X103221800Y-131593600D03*
D11*
%TO.P,J4,2,Pin_2*%
%TO.N,PP*%
X108301800Y-131593600D03*
%TD*%
D18*
%TO.P,D10,1,K*%
%TO.N,GND*%
X136245600Y-91145500D03*
%TO.P,D10,2,A*%
%TO.N,Net-(D10-A)*%
X136245600Y-92115500D03*
%TD*%
D16*
%TO.P,U5,1,BASE*%
%TO.N,Net-(U5-BASE)*%
X142506700Y-130556000D03*
%TO.P,U5,2,EMITTER*%
%TO.N,GND*%
X144411700Y-130556000D03*
%TO.P,U5,3,COLLECTOR*%
%TO.N,Net-(J7-Pin_2)*%
X143459200Y-128625600D03*
%TD*%
D19*
%TO.P,SW1,1*%
%TO.N,Net-(U1-D13)*%
X137718800Y-77089000D03*
%TO.P,SW1,2*%
%TO.N,Net-(U1-D12)*%
X136448800Y-77089000D03*
%TO.P,SW1,3*%
%TO.N,Net-(U1-D14)*%
X135178800Y-77089000D03*
%TO.P,SW1,4*%
%TO.N,Net-(U1-D27)*%
X133908800Y-77089000D03*
%TO.P,SW1,5*%
%TO.N,GND*%
X133908800Y-84709000D03*
%TO.P,SW1,6*%
X135178800Y-84709000D03*
%TO.P,SW1,7*%
X136448800Y-84709000D03*
%TO.P,SW1,8*%
X137718800Y-84709000D03*
%TD*%
D20*
%TO.P,U3,1*%
%TO.N,Net-(U1-D33)*%
X132480050Y-101828600D03*
%TO.P,U3,2,-*%
%TO.N,Net-(U3A--)*%
X132480050Y-103098600D03*
%TO.P,U3,3,+*%
%TO.N,RefCorriente*%
X132480050Y-104368600D03*
%TO.P,U3,4,V-*%
%TO.N,GND*%
X132480050Y-105638600D03*
%TO.P,U3,5,+*%
%TO.N,unconnected-(U3B-+-Pad5)*%
X138131550Y-105638600D03*
%TO.P,U3,6,-*%
%TO.N,unconnected-(U3B---Pad6)*%
X138131550Y-104368600D03*
%TO.P,U3,7*%
%TO.N,unconnected-(U3-Pad7)*%
X138131550Y-103098600D03*
%TO.P,U3,8,V+*%
%TO.N,+3.3V*%
X138131550Y-101828600D03*
%TD*%
D21*
%TO.P,D8,1,K*%
%TO.N,GND*%
X123520200Y-126392800D03*
%TO.P,D8,2,A*%
%TO.N,Net-(D8-A)*%
X123520200Y-125422800D03*
%TD*%
%TO.P,D7,1,K*%
%TO.N,GND*%
X120319800Y-126415200D03*
%TO.P,D7,2,A*%
%TO.N,Net-(D7-A)*%
X120319800Y-125445200D03*
%TD*%
D15*
%TO.P,R8,1*%
%TO.N,Net-(D8-A)*%
X122123200Y-125397800D03*
%TO.P,R8,2*%
%TO.N,+5V*%
X122123200Y-126417800D03*
%TD*%
D14*
%TO.P,R4,1*%
%TO.N,+3.3V*%
X108157800Y-81875600D03*
%TO.P,R4,2*%
%TO.N,FTC*%
X107137800Y-81875600D03*
%TD*%
D18*
%TO.P,D11,1,K*%
%TO.N,GND*%
X137666200Y-121730300D03*
%TO.P,D11,2,A*%
%TO.N,Net-(D11-A)*%
X137666200Y-122700300D03*
%TD*%
D17*
%TO.P,R15,1*%
%TO.N,Net-(U1-D33)*%
X133454200Y-99568000D03*
%TO.P,R15,2*%
%TO.N,Net-(U3A--)*%
X134414200Y-99568000D03*
%TD*%
D14*
%TO.P,R1,1*%
%TO.N,+3.3V*%
X108129800Y-76592400D03*
%TO.P,R1,2*%
%TO.N,LSA*%
X107109800Y-76592400D03*
%TD*%
D22*
%TO.P,K1,11*%
%TO.N,MO1*%
X141761600Y-97087500D03*
%TO.P,K1,12*%
%TO.N,+12V*%
X155961600Y-91087500D03*
%TO.P,K1,14*%
%TO.N,RefCorriente*%
X155961600Y-103087500D03*
D23*
%TO.P,K1,A1*%
%TO.N,+12V*%
X143761600Y-103087500D03*
D22*
%TO.P,K1,A2*%
%TO.N,Net-(U2-COLLECTOR)*%
X143761600Y-91087500D03*
%TD*%
D24*
%TO.P,BZ1,1,+*%
%TO.N,+5V*%
X109118400Y-119452400D03*
D25*
%TO.P,BZ1,2,-*%
%TO.N,Net-(BZ1--)*%
X109118400Y-114452400D03*
%TD*%
D16*
%TO.P,U4,1,BASE*%
%TO.N,BUZZER*%
X121450100Y-116382800D03*
%TO.P,U4,2,EMITTER*%
%TO.N,GND*%
X123355100Y-116382800D03*
%TO.P,U4,3,COLLECTOR*%
%TO.N,Net-(BZ1--)*%
X122402600Y-114452400D03*
%TD*%
%TO.P,U6,1,BASE*%
%TO.N,MC*%
X135773900Y-119584100D03*
%TO.P,U6,2,EMITTER*%
%TO.N,GND*%
X137678900Y-119584100D03*
%TO.P,U6,3,COLLECTOR*%
%TO.N,Net-(U6-COLLECTOR)*%
X136726400Y-117653700D03*
%TD*%
D26*
%TO.P,U1,1,3V3*%
%TO.N,unconnected-(U1-3V3-Pad1)*%
X102920800Y-66432400D03*
D27*
%TO.P,U1,2,GND*%
%TO.N,GND*%
X102920800Y-68972400D03*
%TO.P,U1,3,D15*%
%TO.N,unconnected-(U1-D15-Pad3)*%
X102920800Y-71512400D03*
%TO.P,U1,4,D2*%
%TO.N,LSC*%
X102920800Y-74052400D03*
%TO.P,U1,5,D4*%
%TO.N,LSA*%
X102920800Y-76592400D03*
%TO.P,U1,6,RX2*%
%TO.N,unconnected-(U1-RX2-Pad6)*%
X102920800Y-79132400D03*
%TO.P,U1,7,TX2*%
%TO.N,unconnected-(U1-TX2-Pad7)*%
X102920800Y-81672400D03*
%TO.P,U1,8,D5*%
%TO.N,FTC*%
X102920800Y-84212400D03*
%TO.P,U1,9,D18*%
%TO.N,KEYA*%
X102920800Y-86752400D03*
%TO.P,U1,10,D19*%
%TO.N,KEYC*%
X102920800Y-89292400D03*
%TO.P,U1,11,D21*%
%TO.N,PP*%
X102920800Y-91832400D03*
%TO.P,U1,12,RX0*%
%TO.N,unconnected-(U1-RX0-Pad12)*%
X102920800Y-94372400D03*
%TO.P,U1,13,TX0*%
%TO.N,unconnected-(U1-TX0-Pad13)*%
X102920800Y-96912400D03*
%TO.P,U1,14,D22*%
%TO.N,unconnected-(U1-D22-Pad14)*%
X102920800Y-99452400D03*
%TO.P,U1,15,D23*%
%TO.N,unconnected-(U1-D23-Pad15)*%
X102920800Y-101992400D03*
%TO.P,U1,16,EN*%
%TO.N,unconnected-(U1-EN-Pad16)*%
X128320800Y-101992400D03*
%TO.P,U1,17,VP*%
%TO.N,unconnected-(U1-VP-Pad17)*%
X128320800Y-99452400D03*
%TO.P,U1,18,VN*%
%TO.N,unconnected-(U1-VN-Pad18)*%
X128320800Y-96912400D03*
%TO.P,U1,19,D34*%
%TO.N,BUZZER*%
X128320800Y-94372400D03*
%TO.P,U1,20,D35*%
%TO.N,unconnected-(U1-D35-Pad20)*%
X128320800Y-91832400D03*
%TO.P,U1,21,D32*%
%TO.N,LAMP*%
X128320800Y-89292400D03*
%TO.P,U1,22,D33*%
%TO.N,Net-(U1-D33)*%
X128320800Y-86752400D03*
%TO.P,U1,23,D25*%
%TO.N,MC*%
X128320800Y-84212400D03*
%TO.P,U1,24,D26*%
%TO.N,MA*%
X128320800Y-81672400D03*
%TO.P,U1,25,D27*%
%TO.N,Net-(U1-D27)*%
X128320800Y-79132400D03*
%TO.P,U1,26,D14*%
%TO.N,Net-(U1-D14)*%
X128320800Y-76592400D03*
%TO.P,U1,27,D12*%
%TO.N,Net-(U1-D12)*%
X128320800Y-74052400D03*
%TO.P,U1,28,D13*%
%TO.N,Net-(U1-D13)*%
X128320800Y-71512400D03*
%TO.P,U1,29,GND*%
%TO.N,unconnected-(U1-GND-Pad29)*%
X128320800Y-68972400D03*
%TO.P,U1,30,VIN*%
%TO.N,+5V*%
X128320800Y-66432400D03*
%TD*%
D14*
%TO.P,R6,1*%
%TO.N,+3.3V*%
X108129800Y-74052400D03*
%TO.P,R6,2*%
%TO.N,LSC*%
X107109800Y-74052400D03*
%TD*%
D28*
%TO.P,R17,1*%
%TO.N,GND*%
X132241700Y-95834200D03*
%TO.P,R17,2*%
%TO.N,RefCorriente*%
X138166700Y-95834200D03*
%TD*%
D18*
%TO.P,D13,1,K*%
%TO.N,GND*%
X144449800Y-133131700D03*
%TO.P,D13,2,A*%
%TO.N,Net-(D13-A)*%
X144449800Y-134101700D03*
%TD*%
%TO.P,D12,1,K*%
%TO.N,GND*%
X123342400Y-118314000D03*
%TO.P,D12,2,A*%
%TO.N,Net-(D12-A)*%
X123342400Y-119284000D03*
%TD*%
D12*
%TO.P,R18,1*%
%TO.N,Net-(D11-A)*%
X135761200Y-122709400D03*
%TO.P,R18,2*%
%TO.N,MC*%
X135761200Y-121689400D03*
%TD*%
%TO.P,R20,1*%
%TO.N,Net-(D13-A)*%
X142494000Y-134101300D03*
%TO.P,R20,2*%
%TO.N,Net-(U5-BASE)*%
X142494000Y-133081300D03*
%TD*%
D15*
%TO.P,R7,1*%
%TO.N,Net-(D7-A)*%
X118745000Y-125446600D03*
%TO.P,R7,2*%
%TO.N,+3.3V*%
X118745000Y-126466600D03*
%TD*%
D14*
%TO.P,R3,1*%
%TO.N,+3.3V*%
X108129800Y-92772200D03*
%TO.P,R3,2*%
%TO.N,PP*%
X107109800Y-92772200D03*
%TD*%
D10*
%TO.P,J5,1,Pin_1*%
%TO.N,GND*%
X134032000Y-131593600D03*
D11*
%TO.P,J5,2,Pin_2*%
%TO.N,+12V*%
X128952000Y-131593600D03*
%TO.P,J5,3,Pin_3*%
%TO.N,+5V*%
X123872000Y-131593600D03*
%TO.P,J5,4,Pin_4*%
%TO.N,+3.3V*%
X118792000Y-131593600D03*
%TD*%
D10*
%TO.P,J6,1,Pin_1*%
%TO.N,MO1*%
X151587200Y-80340200D03*
D11*
%TO.P,J6,2,Pin_2*%
%TO.N,MO2*%
X156667200Y-80340200D03*
%TD*%
D22*
%TO.P,K2,11*%
%TO.N,MO2*%
X141891000Y-116337600D03*
%TO.P,K2,12*%
%TO.N,+12V*%
X156091000Y-110337600D03*
%TO.P,K2,14*%
%TO.N,RefCorriente*%
X156091000Y-122337600D03*
D23*
%TO.P,K2,A1*%
%TO.N,+12V*%
X143891000Y-122337600D03*
D22*
%TO.P,K2,A2*%
%TO.N,Net-(U6-COLLECTOR)*%
X143891000Y-110337600D03*
%TD*%
D10*
%TO.P,J1,1,Pin_1*%
%TO.N,LSC*%
X91520000Y-89001600D03*
D11*
%TO.P,J1,2,Pin_2*%
%TO.N,GND*%
X91520000Y-83921600D03*
%TO.P,J1,3,Pin_3*%
%TO.N,LSA*%
X91520000Y-78841600D03*
%TD*%
D10*
%TO.P,J2,1,Pin_1*%
%TO.N,KEYC*%
X91465400Y-109648000D03*
D11*
%TO.P,J2,2,Pin_2*%
%TO.N,GND*%
X91465400Y-104568000D03*
%TO.P,J2,3,Pin_3*%
%TO.N,KEYA*%
X91465400Y-99488000D03*
%TD*%
D21*
%TO.P,D9,1,K*%
%TO.N,GND*%
X127254000Y-126390400D03*
%TO.P,D9,2,A*%
%TO.N,Net-(D9-A)*%
X127254000Y-125420400D03*
%TD*%
D10*
%TO.P,J3,1,Pin_1*%
%TO.N,GND*%
X91520000Y-120138200D03*
D11*
%TO.P,J3,2,Pin_2*%
%TO.N,FTC*%
X91520000Y-125218200D03*
%TO.P,J3,3,Pin_3*%
%TO.N,+5V*%
X91520000Y-130298200D03*
%TD*%
D29*
%TO.N,+5V*%
X140639800Y-81178400D03*
%TO.N,GND*%
X132232400Y-88341200D03*
X120269000Y-127736600D03*
X132638800Y-84607400D03*
%TO.N,+3.3V*%
X108345000Y-71512400D03*
X127939800Y-109982000D03*
%TO.N,MC*%
X130284600Y-119413400D03*
X130284600Y-109016800D03*
%TO.N,RefCorriente*%
X149860000Y-100634800D03*
%TO.N,Net-(U1-D33)*%
X130810000Y-85191600D03*
%TD*%
D30*
%TO.N,+5V*%
X91520000Y-130298200D02*
X95486200Y-134264400D01*
X122123200Y-129844800D02*
X122123200Y-126417800D01*
X123872000Y-134014200D02*
X123872000Y-131593600D01*
X113643400Y-119452400D02*
X113715800Y-119524800D01*
X123872000Y-131593600D02*
X127381000Y-135102600D01*
X141360800Y-81178400D02*
X144246600Y-78292600D01*
X113715800Y-134137400D02*
X113842800Y-134264400D01*
X109118400Y-119452400D02*
X113643400Y-119452400D01*
X113715800Y-119524800D02*
X113715800Y-134137400D01*
X153390600Y-135102600D02*
X157175200Y-131318000D01*
X140639800Y-81178400D02*
X141360800Y-81178400D01*
X113842800Y-134264400D02*
X123621800Y-134264400D01*
X144246600Y-78292600D02*
X132386400Y-66432400D01*
X123621800Y-134264400D02*
X123872000Y-134014200D01*
X132386400Y-66432400D02*
X128320800Y-66432400D01*
X123872000Y-131593600D02*
X122123200Y-129844800D01*
X127381000Y-135102600D02*
X153390600Y-135102600D01*
X95486200Y-134264400D02*
X113842800Y-134264400D01*
%TO.N,Net-(BZ1--)*%
X122402600Y-114452400D02*
X109118400Y-114452400D01*
%TO.N,Net-(D7-A)*%
X120318400Y-125446600D02*
X120319800Y-125445200D01*
X118745000Y-125446600D02*
X120318400Y-125446600D01*
%TO.N,Net-(D8-A)*%
X123495200Y-125397800D02*
X123520200Y-125422800D01*
X122123200Y-125397800D02*
X123495200Y-125397800D01*
D31*
%TO.N,LSC*%
X100812600Y-79709000D02*
X100812600Y-74066400D01*
X102920800Y-74052400D02*
X107109800Y-74052400D01*
X91520000Y-89001600D02*
X100812600Y-79709000D01*
X100826600Y-74052400D02*
X102920800Y-74052400D01*
X100812600Y-74066400D02*
X100826600Y-74052400D01*
%TO.N,LSA*%
X107109800Y-76592400D02*
X102920800Y-76592400D01*
%TO.N,KEYA*%
X104357200Y-86752400D02*
X104444800Y-86664800D01*
X104444800Y-86664800D02*
X104444800Y-85725000D01*
X104444800Y-85725000D02*
X104456200Y-85736400D01*
X104456200Y-85736400D02*
X107111800Y-85736400D01*
X102920800Y-86752400D02*
X104357200Y-86752400D01*
%TO.N,KEYC*%
X107111800Y-89292400D02*
X102920800Y-89292400D01*
%TO.N,FTC*%
X100888800Y-84201000D02*
X100900200Y-84212400D01*
X100736400Y-116001800D02*
X100736400Y-84201000D01*
X107137800Y-81875600D02*
X105257600Y-81875600D01*
X100736400Y-84201000D02*
X100888800Y-84201000D01*
X100900200Y-84212400D02*
X102920800Y-84212400D01*
X91520000Y-125218200D02*
X100736400Y-116001800D01*
X105257600Y-81875600D02*
X102920800Y-84212400D01*
%TO.N,PP*%
X107109800Y-130401600D02*
X107109800Y-92772200D01*
X103860600Y-92772200D02*
X102920800Y-91832400D01*
X108301800Y-131593600D02*
X107109800Y-130401600D01*
X107109800Y-92772200D02*
X103860600Y-92772200D01*
D30*
%TO.N,MO2*%
X156667200Y-85750400D02*
X156667200Y-80340200D01*
X152882600Y-105346000D02*
X152882600Y-89535000D01*
X141891000Y-116337600D02*
X152882600Y-105346000D01*
X152882600Y-89535000D02*
X156667200Y-85750400D01*
%TO.N,Net-(J7-Pin_2)*%
X149402800Y-128625600D02*
X152095200Y-131318000D01*
X143459200Y-128625600D02*
X149402800Y-128625600D01*
%TO.N,Net-(D9-A)*%
X127252600Y-125421800D02*
X127254000Y-125420400D01*
X125450600Y-125421800D02*
X127252600Y-125421800D01*
D31*
%TO.N,Net-(D10-A)*%
X136245200Y-92115100D02*
X136245600Y-92115500D01*
X134366000Y-92115100D02*
X136245200Y-92115100D01*
%TO.N,Net-(D11-A)*%
X137657100Y-122709400D02*
X137666200Y-122700300D01*
X135761200Y-122709400D02*
X137657100Y-122709400D01*
D30*
%TO.N,Net-(D12-A)*%
X123307900Y-119318500D02*
X123342400Y-119284000D01*
X121437400Y-119318500D02*
X123307900Y-119318500D01*
%TO.N,Net-(D13-A)*%
X142494000Y-134101300D02*
X144449400Y-134101300D01*
X144449400Y-134101300D02*
X144449800Y-134101700D01*
%TO.N,+12V*%
X128952000Y-131593600D02*
X125450600Y-128092200D01*
X125450600Y-128092200D02*
X125450600Y-126441800D01*
D31*
%TO.N,+3.3V*%
X136423400Y-105867200D02*
X132308600Y-109982000D01*
D30*
X108131800Y-85736400D02*
X108131800Y-89292400D01*
X118792000Y-131593600D02*
X118792000Y-126513600D01*
X108131800Y-85736400D02*
X108131800Y-81901600D01*
D31*
X136499600Y-101828600D02*
X136423400Y-101904800D01*
D30*
X108131800Y-92770200D02*
X108129800Y-92772200D01*
X108131800Y-89292400D02*
X108131800Y-92770200D01*
X108157800Y-81875600D02*
X108157800Y-76620400D01*
X118792000Y-126513600D02*
X118745000Y-126466600D01*
X108345000Y-73837200D02*
X108129800Y-74052400D01*
X108157800Y-76620400D02*
X108129800Y-76592400D01*
X108345000Y-71512400D02*
X108345000Y-73837200D01*
X108131800Y-81901600D02*
X108157800Y-81875600D01*
D31*
X138131550Y-101828600D02*
X136499600Y-101828600D01*
X132308600Y-109982000D02*
X127939800Y-109982000D01*
X136423400Y-101904800D02*
X136423400Y-105867200D01*
D30*
X108129800Y-74052400D02*
X108129800Y-76592400D01*
D31*
%TO.N,Net-(U1-D13)*%
X137718800Y-76200000D02*
X137718800Y-77089000D01*
X133031200Y-71512400D02*
X137718800Y-76200000D01*
X128320800Y-71512400D02*
X133031200Y-71512400D01*
%TO.N,Net-(U1-D12)*%
X134301200Y-74052400D02*
X136448800Y-76200000D01*
X128320800Y-74052400D02*
X134301200Y-74052400D01*
X136448800Y-76200000D02*
X136448800Y-77089000D01*
%TO.N,Net-(U1-D14)*%
X129085800Y-75827400D02*
X134172200Y-75827400D01*
X134172200Y-75827400D02*
X135178800Y-76834000D01*
X135178800Y-76834000D02*
X135178800Y-77089000D01*
X128320800Y-76592400D02*
X129085800Y-75827400D01*
%TO.N,Net-(U1-D27)*%
X130364200Y-77089000D02*
X133908800Y-77089000D01*
X128320800Y-79132400D02*
X130364200Y-77089000D01*
%TO.N,MA*%
X134378700Y-91082400D02*
X134366000Y-91095100D01*
X134378700Y-88823800D02*
X134378700Y-91082400D01*
X134378700Y-88823800D02*
X134378700Y-87730300D01*
X134378700Y-87730300D02*
X128320800Y-81672400D01*
D30*
%TO.N,BUZZER*%
X121437400Y-118298500D02*
X121437400Y-115671600D01*
X126492000Y-112033000D02*
X126492000Y-94437200D01*
X123110600Y-115414400D02*
X126492000Y-112033000D01*
X121450100Y-116382800D02*
X121450100Y-118285800D01*
X126492000Y-94437200D02*
X126556800Y-94372400D01*
X126556800Y-94372400D02*
X128320800Y-94372400D01*
X121437400Y-115671600D02*
X121694600Y-115414400D01*
X121694600Y-115414400D02*
X123110600Y-115414400D01*
X121450100Y-118285800D02*
X121437400Y-118298500D01*
D31*
%TO.N,MC*%
X130284600Y-119413400D02*
X130455300Y-119584100D01*
X130302000Y-86193600D02*
X130302000Y-109016800D01*
X135761200Y-119596800D02*
X135773900Y-119584100D01*
X128320800Y-84212400D02*
X130302000Y-86193600D01*
X135761200Y-121689400D02*
X135761200Y-119596800D01*
X130302000Y-109016800D02*
X130284600Y-109016800D01*
X130455300Y-119584100D02*
X135773900Y-119584100D01*
D30*
%TO.N,RefCorriente*%
X149860000Y-100634800D02*
X140538200Y-100634800D01*
X140538200Y-100634800D02*
X138166700Y-98263300D01*
D31*
X133786253Y-104368600D02*
X135737600Y-102417253D01*
X135737600Y-100914200D02*
X140258800Y-100914200D01*
X135737600Y-102417253D02*
X135737600Y-100914200D01*
D30*
X158535600Y-122337600D02*
X158546800Y-122326400D01*
X156091000Y-122337600D02*
X158535600Y-122337600D01*
X158546800Y-105672700D02*
X155961600Y-103087500D01*
X158546800Y-122326400D02*
X158546800Y-105672700D01*
D31*
X140258800Y-100914200D02*
X140538200Y-100634800D01*
X132480050Y-104368600D02*
X133786253Y-104368600D01*
D30*
X138166700Y-98263300D02*
X138166700Y-95834200D01*
%TO.N,Net-(U2-COLLECTOR)*%
X139567500Y-86893400D02*
X135331200Y-86893400D01*
X143761600Y-91087500D02*
X139567500Y-86893400D01*
%TO.N,Net-(U6-COLLECTOR)*%
X141960600Y-110337600D02*
X143891000Y-110337600D01*
X136726400Y-117653700D02*
X136726400Y-115571800D01*
X136726400Y-115571800D02*
X141960600Y-110337600D01*
D31*
%TO.N,Net-(U1-D33)*%
X132480050Y-101828600D02*
X132480050Y-99574350D01*
X132480050Y-99574350D02*
X132486400Y-99568000D01*
X132486400Y-99568000D02*
X133454200Y-99568000D01*
X130810000Y-85191600D02*
X133454200Y-87835800D01*
X133454200Y-87835800D02*
X133454200Y-99568000D01*
%TO.N,Net-(U3A--)*%
X134414200Y-99568000D02*
X134414200Y-103098600D01*
X134414200Y-103098600D02*
X132480050Y-103098600D01*
X134414200Y-99568000D02*
X136273600Y-99568000D01*
D30*
%TO.N,Net-(U5-BASE)*%
X142506700Y-130556000D02*
X142506700Y-133068600D01*
X142506700Y-133068600D02*
X142494000Y-133081300D01*
%TD*%
%TA.AperFunction,Conductor*%
%TO.N,GND*%
G36*
X120512839Y-126434885D02*
G01*
X120558594Y-126487689D01*
X120569800Y-126539200D01*
X120569800Y-127209244D01*
X120569801Y-127209245D01*
X120594392Y-127207312D01*
X120594399Y-127207310D01*
X120751491Y-127161670D01*
X120751497Y-127161668D01*
X120892308Y-127078393D01*
X120892316Y-127078387D01*
X121007987Y-126962716D01*
X121007993Y-126962708D01*
X121091268Y-126821897D01*
X121091269Y-126821895D01*
X121103858Y-126778562D01*
X121141463Y-126719676D01*
X121204935Y-126690468D01*
X121274122Y-126700213D01*
X121327057Y-126745816D01*
X121342011Y-126778558D01*
X121350330Y-126807190D01*
X121350331Y-126807193D01*
X121351431Y-126809053D01*
X121351938Y-126810907D01*
X121353428Y-126814349D01*
X121352938Y-126814561D01*
X121368700Y-126872175D01*
X121368700Y-129765352D01*
X121368699Y-129765378D01*
X121368699Y-129770488D01*
X121368699Y-129919112D01*
X121368699Y-129919114D01*
X121368698Y-129919114D01*
X121397693Y-130064873D01*
X121397696Y-130064883D01*
X121454566Y-130202181D01*
X121454572Y-130202192D01*
X121537142Y-130325768D01*
X121537143Y-130325769D01*
X121970686Y-130759310D01*
X122004171Y-130820633D01*
X121999187Y-130890323D01*
X121947630Y-131028556D01*
X121886804Y-131308166D01*
X121866390Y-131593598D01*
X121866390Y-131593601D01*
X121886804Y-131879033D01*
X121947628Y-132158637D01*
X121947630Y-132158643D01*
X121947631Y-132158646D01*
X122015120Y-132339590D01*
X122047635Y-132426766D01*
X122184770Y-132677909D01*
X122184775Y-132677917D01*
X122356254Y-132906987D01*
X122356270Y-132907005D01*
X122558594Y-133109329D01*
X122558612Y-133109345D01*
X122787685Y-133280826D01*
X122788867Y-133281586D01*
X122789175Y-133281942D01*
X122791230Y-133283480D01*
X122790895Y-133283926D01*
X122834621Y-133334390D01*
X122844564Y-133403549D01*
X122815538Y-133467104D01*
X122756759Y-133504878D01*
X122721826Y-133509900D01*
X119942174Y-133509900D01*
X119875135Y-133490215D01*
X119829380Y-133437411D01*
X119819436Y-133368253D01*
X119848461Y-133304697D01*
X119872839Y-133283573D01*
X119872770Y-133283480D01*
X119874072Y-133282505D01*
X119875133Y-133281586D01*
X119876308Y-133280829D01*
X119876315Y-133280826D01*
X120105395Y-133109339D01*
X120307739Y-132906995D01*
X120479226Y-132677915D01*
X120616367Y-132426761D01*
X120716369Y-132158646D01*
X120719737Y-132143163D01*
X120777195Y-131879033D01*
X120777195Y-131879032D01*
X120777196Y-131879028D01*
X120797610Y-131593600D01*
X120777196Y-131308172D01*
X120776742Y-131306086D01*
X120716371Y-131028562D01*
X120716369Y-131028556D01*
X120716369Y-131028554D01*
X120616367Y-130760439D01*
X120612284Y-130752962D01*
X120479229Y-130509290D01*
X120479224Y-130509282D01*
X120307745Y-130280212D01*
X120307729Y-130280194D01*
X120105405Y-130077870D01*
X120105387Y-130077854D01*
X119876317Y-129906375D01*
X119876309Y-129906370D01*
X119691879Y-129805664D01*
X119625161Y-129769233D01*
X119625158Y-129769232D01*
X119625151Y-129769228D01*
X119621123Y-129767388D01*
X119621775Y-129765958D01*
X119571204Y-129728070D01*
X119546812Y-129662596D01*
X119546500Y-129653798D01*
X119546500Y-127175759D01*
X119566185Y-127108720D01*
X119618989Y-127062965D01*
X119688147Y-127053021D01*
X119740173Y-127075097D01*
X119740574Y-127074421D01*
X119745640Y-127077417D01*
X119746507Y-127077785D01*
X119747291Y-127078393D01*
X119888102Y-127161668D01*
X119888107Y-127161670D01*
X120045202Y-127207310D01*
X120069800Y-127209245D01*
X120069800Y-126539200D01*
X120089485Y-126472161D01*
X120142289Y-126426406D01*
X120193800Y-126415200D01*
X120445800Y-126415200D01*
X120512839Y-126434885D01*
G37*
%TD.AperFunction*%
%TA.AperFunction,Conductor*%
G36*
X135715234Y-103429552D02*
G01*
X135771167Y-103471424D01*
X135795584Y-103536888D01*
X135795900Y-103545734D01*
X135795900Y-105555919D01*
X135776215Y-105622958D01*
X135759581Y-105643600D01*
X132085000Y-109318181D01*
X132023677Y-109351666D01*
X131997319Y-109354500D01*
X131189288Y-109354500D01*
X131122249Y-109334815D01*
X131076494Y-109282011D01*
X131066550Y-109212853D01*
X131068961Y-109202971D01*
X131068418Y-109202847D01*
X131069969Y-109196049D01*
X131090165Y-109016803D01*
X131090165Y-109016796D01*
X131069969Y-108837550D01*
X131069968Y-108837545D01*
X131039409Y-108750212D01*
X131010389Y-108667278D01*
X130991427Y-108637100D01*
X130948506Y-108568791D01*
X130929500Y-108502819D01*
X130929500Y-106109141D01*
X130949185Y-106042102D01*
X131001989Y-105996347D01*
X131071147Y-105986403D01*
X131134703Y-106015428D01*
X131169682Y-106065808D01*
X131204845Y-106160086D01*
X131204849Y-106160093D01*
X131291009Y-106275187D01*
X131291012Y-106275190D01*
X131406106Y-106361350D01*
X131406113Y-106361354D01*
X131540820Y-106411596D01*
X131540827Y-106411598D01*
X131600355Y-106417999D01*
X131600372Y-106418000D01*
X132230050Y-106418000D01*
X132730050Y-106418000D01*
X133359728Y-106418000D01*
X133359744Y-106417999D01*
X133419272Y-106411598D01*
X133419279Y-106411596D01*
X133553986Y-106361354D01*
X133553993Y-106361350D01*
X133669087Y-106275190D01*
X133669090Y-106275187D01*
X133755250Y-106160093D01*
X133755254Y-106160086D01*
X133805496Y-106025379D01*
X133805498Y-106025372D01*
X133811899Y-105965844D01*
X133811900Y-105965827D01*
X133811900Y-105888600D01*
X132730050Y-105888600D01*
X132730050Y-106418000D01*
X132230050Y-106418000D01*
X132230050Y-105762600D01*
X132249735Y-105695561D01*
X132302539Y-105649806D01*
X132354050Y-105638600D01*
X132480050Y-105638600D01*
X132480050Y-105512600D01*
X132499735Y-105445561D01*
X132552539Y-105399806D01*
X132604050Y-105388600D01*
X133811900Y-105388600D01*
X133811900Y-105311372D01*
X133811899Y-105311355D01*
X133805498Y-105251827D01*
X133805496Y-105251820D01*
X133770566Y-105158166D01*
X133765582Y-105088474D01*
X133799067Y-105027151D01*
X133860390Y-104993667D01*
X133862491Y-104993228D01*
X133969288Y-104971986D01*
X134050037Y-104938537D01*
X134083486Y-104924683D01*
X134186261Y-104856011D01*
X134273664Y-104768608D01*
X135584219Y-103458053D01*
X135645542Y-103424568D01*
X135715234Y-103429552D01*
G37*
%TD.AperFunction*%
%TA.AperFunction,Conductor*%
G36*
X131134703Y-86404168D02*
G01*
X131141181Y-86410200D01*
X132790381Y-88059400D01*
X132823866Y-88120723D01*
X132826700Y-88147081D01*
X132826700Y-93539511D01*
X132807015Y-93606550D01*
X132754211Y-93652305D01*
X132690099Y-93662869D01*
X132654190Y-93659200D01*
X132491700Y-93659200D01*
X132491700Y-98009199D01*
X132654172Y-98009199D01*
X132654181Y-98009198D01*
X132690096Y-98005529D01*
X132758789Y-98018298D01*
X132809674Y-98066177D01*
X132826700Y-98128887D01*
X132826700Y-98816500D01*
X132807015Y-98883539D01*
X132754211Y-98929294D01*
X132702700Y-98940500D01*
X132424595Y-98940500D01*
X132303370Y-98964613D01*
X132303360Y-98964616D01*
X132189173Y-99011913D01*
X132189160Y-99011920D01*
X132086392Y-99080588D01*
X132086390Y-99080589D01*
X132080046Y-99086935D01*
X132080042Y-99086939D01*
X131992639Y-99174342D01*
X131954238Y-99231814D01*
X131923966Y-99277119D01*
X131910111Y-99310564D01*
X131910112Y-99310565D01*
X131876665Y-99391312D01*
X131876662Y-99391322D01*
X131864513Y-99452401D01*
X131852550Y-99512542D01*
X131852550Y-100924700D01*
X131832865Y-100991739D01*
X131780061Y-101037494D01*
X131728551Y-101048700D01*
X131600330Y-101048700D01*
X131600323Y-101048701D01*
X131540716Y-101055108D01*
X131405871Y-101105402D01*
X131405864Y-101105406D01*
X131290655Y-101191652D01*
X131290652Y-101191655D01*
X131204406Y-101306864D01*
X131204402Y-101306871D01*
X131169682Y-101399962D01*
X131127811Y-101455896D01*
X131062346Y-101480313D01*
X130994073Y-101465461D01*
X130944668Y-101416056D01*
X130929500Y-101356629D01*
X130929500Y-97545996D01*
X130949185Y-97478957D01*
X131001989Y-97433202D01*
X131071147Y-97423258D01*
X131134703Y-97452283D01*
X131171206Y-97506992D01*
X131194841Y-97578319D01*
X131194843Y-97578324D01*
X131286884Y-97727545D01*
X131410854Y-97851515D01*
X131560075Y-97943556D01*
X131560080Y-97943558D01*
X131726502Y-97998705D01*
X131726509Y-97998706D01*
X131829219Y-98009199D01*
X131991699Y-98009199D01*
X131991700Y-98009198D01*
X131991700Y-93659200D01*
X131829229Y-93659200D01*
X131829212Y-93659201D01*
X131726502Y-93669694D01*
X131560080Y-93724841D01*
X131560075Y-93724843D01*
X131410854Y-93816884D01*
X131286884Y-93940854D01*
X131194843Y-94090075D01*
X131194841Y-94090080D01*
X131171206Y-94161408D01*
X131131433Y-94218853D01*
X131066918Y-94245676D01*
X130998142Y-94233361D01*
X130946942Y-94185818D01*
X130929500Y-94122404D01*
X130929500Y-86497881D01*
X130949185Y-86430842D01*
X131001989Y-86385087D01*
X131071147Y-86375143D01*
X131134703Y-86404168D01*
G37*
%TD.AperFunction*%
%TA.AperFunction,Conductor*%
G36*
X161442539Y-58898385D02*
G01*
X161488294Y-58951189D01*
X161499500Y-59002700D01*
X161499500Y-137375500D01*
X161479815Y-137442539D01*
X161427011Y-137488294D01*
X161375500Y-137499500D01*
X85624500Y-137499500D01*
X85557461Y-137479815D01*
X85511706Y-137427011D01*
X85500500Y-137375500D01*
X85500500Y-125218198D01*
X89514390Y-125218198D01*
X89514390Y-125218201D01*
X89534804Y-125503633D01*
X89595628Y-125783237D01*
X89595630Y-125783243D01*
X89595631Y-125783246D01*
X89673873Y-125993020D01*
X89695635Y-126051366D01*
X89832770Y-126302509D01*
X89832775Y-126302517D01*
X90004254Y-126531587D01*
X90004270Y-126531605D01*
X90206594Y-126733929D01*
X90206612Y-126733945D01*
X90435682Y-126905424D01*
X90435690Y-126905429D01*
X90686833Y-127042564D01*
X90686832Y-127042564D01*
X90686836Y-127042565D01*
X90686839Y-127042567D01*
X90954954Y-127142569D01*
X90954960Y-127142570D01*
X90954962Y-127142571D01*
X91234566Y-127203395D01*
X91234568Y-127203395D01*
X91234572Y-127203396D01*
X91488220Y-127221537D01*
X91519999Y-127223810D01*
X91520000Y-127223810D01*
X91520001Y-127223810D01*
X91548595Y-127221764D01*
X91805428Y-127203396D01*
X91892550Y-127184444D01*
X92085037Y-127142571D01*
X92085037Y-127142570D01*
X92085046Y-127142569D01*
X92353161Y-127042567D01*
X92604315Y-126905426D01*
X92833395Y-126733939D01*
X93035739Y-126531595D01*
X93207226Y-126302515D01*
X93344367Y-126051361D01*
X93444369Y-125783246D01*
X93476459Y-125635732D01*
X93505195Y-125503633D01*
X93505195Y-125503632D01*
X93505196Y-125503628D01*
X93525610Y-125218200D01*
X93525123Y-125211397D01*
X93514096Y-125057211D01*
X93505196Y-124932772D01*
X93502199Y-124918996D01*
X93444371Y-124653162D01*
X93444370Y-124653160D01*
X93444369Y-124653154D01*
X93344367Y-124385039D01*
X93344364Y-124385033D01*
X93344020Y-124384111D01*
X93339036Y-124314419D01*
X93372519Y-124253098D01*
X101223811Y-116401808D01*
X101286165Y-116308488D01*
X101292483Y-116299033D01*
X101316757Y-116240430D01*
X101339786Y-116184835D01*
X101363900Y-116063603D01*
X101363900Y-115939997D01*
X101363900Y-84963900D01*
X101383585Y-84896861D01*
X101436389Y-84851106D01*
X101487900Y-84839900D01*
X101750740Y-84839900D01*
X101817779Y-84859585D01*
X101852313Y-84892775D01*
X101870491Y-84918735D01*
X101946400Y-85027145D01*
X101947668Y-85028955D01*
X102104245Y-85185532D01*
X102285633Y-85312542D01*
X102347628Y-85341450D01*
X102408891Y-85370018D01*
X102461331Y-85416190D01*
X102480483Y-85483383D01*
X102460267Y-85550265D01*
X102408891Y-85594782D01*
X102285636Y-85652256D01*
X102285634Y-85652257D01*
X102104244Y-85779268D01*
X102104241Y-85779271D01*
X102024344Y-85859169D01*
X101947668Y-85935845D01*
X101888678Y-86020091D01*
X101820657Y-86117234D01*
X101820656Y-86117236D01*
X101727079Y-86317913D01*
X101727075Y-86317924D01*
X101669765Y-86531807D01*
X101669764Y-86531814D01*
X101650466Y-86752398D01*
X101650466Y-86752401D01*
X101669764Y-86972985D01*
X101669765Y-86972992D01*
X101727075Y-87186875D01*
X101727079Y-87186886D01*
X101790241Y-87322337D01*
X101820658Y-87387567D01*
X101947668Y-87568955D01*
X102104245Y-87725532D01*
X102285633Y-87852542D01*
X102325573Y-87871166D01*
X102408891Y-87910018D01*
X102461331Y-87956190D01*
X102480483Y-88023383D01*
X102460267Y-88090265D01*
X102408891Y-88134782D01*
X102285636Y-88192256D01*
X102285634Y-88192257D01*
X102104244Y-88319268D01*
X101947668Y-88475844D01*
X101820657Y-88657234D01*
X101820656Y-88657236D01*
X101727079Y-88857913D01*
X101727075Y-88857924D01*
X101669765Y-89071807D01*
X101669764Y-89071814D01*
X101650466Y-89292398D01*
X101650466Y-89292401D01*
X101669764Y-89512985D01*
X101669765Y-89512992D01*
X101727075Y-89726875D01*
X101727079Y-89726886D01*
X101803482Y-89890733D01*
X101820658Y-89927567D01*
X101947668Y-90108955D01*
X102104245Y-90265532D01*
X102285633Y-90392542D01*
X102347628Y-90421450D01*
X102408891Y-90450018D01*
X102461331Y-90496190D01*
X102480483Y-90563383D01*
X102460267Y-90630265D01*
X102408891Y-90674782D01*
X102285636Y-90732256D01*
X102285634Y-90732257D01*
X102104244Y-90859268D01*
X101947668Y-91015844D01*
X101820657Y-91197234D01*
X101820656Y-91197236D01*
X101727079Y-91397913D01*
X101727075Y-91397924D01*
X101669765Y-91611807D01*
X101669764Y-91611814D01*
X101650466Y-91832398D01*
X101650466Y-91832401D01*
X101669764Y-92052985D01*
X101669765Y-92052992D01*
X101727075Y-92266875D01*
X101727079Y-92266886D01*
X101803482Y-92430733D01*
X101820658Y-92467567D01*
X101947668Y-92648955D01*
X102104245Y-92805532D01*
X102285633Y-92932542D01*
X102307117Y-92942560D01*
X102408891Y-92990018D01*
X102461331Y-93036190D01*
X102480483Y-93103383D01*
X102460267Y-93170265D01*
X102408891Y-93214782D01*
X102285636Y-93272256D01*
X102285634Y-93272257D01*
X102104244Y-93399268D01*
X101947668Y-93555844D01*
X101820657Y-93737234D01*
X101820656Y-93737236D01*
X101727079Y-93937913D01*
X101727075Y-93937924D01*
X101669765Y-94151807D01*
X101669764Y-94151814D01*
X101650466Y-94372398D01*
X101650466Y-94372401D01*
X101669764Y-94592985D01*
X101669765Y-94592992D01*
X101727075Y-94806875D01*
X101727079Y-94806886D01*
X101770098Y-94899140D01*
X101820658Y-95007567D01*
X101947668Y-95188955D01*
X102104245Y-95345532D01*
X102285633Y-95472542D01*
X102347628Y-95501450D01*
X102408891Y-95530018D01*
X102461331Y-95576190D01*
X102480483Y-95643383D01*
X102460267Y-95710265D01*
X102408891Y-95754782D01*
X102285636Y-95812256D01*
X102285634Y-95812257D01*
X102104244Y-95939268D01*
X101947668Y-96095844D01*
X101820657Y-96277234D01*
X101820656Y-96277236D01*
X101727079Y-96477913D01*
X101727075Y-96477924D01*
X101669765Y-96691807D01*
X101669764Y-96691814D01*
X101650466Y-96912398D01*
X101650466Y-96912401D01*
X101669764Y-97132985D01*
X101669765Y-97132992D01*
X101727075Y-97346875D01*
X101727079Y-97346886D01*
X101803482Y-97510733D01*
X101820658Y-97547567D01*
X101947668Y-97728955D01*
X102104245Y-97885532D01*
X102285633Y-98012542D01*
X102347628Y-98041450D01*
X102408891Y-98070018D01*
X102461331Y-98116190D01*
X102480483Y-98183383D01*
X102460267Y-98250265D01*
X102408891Y-98294782D01*
X102285636Y-98352256D01*
X102285634Y-98352257D01*
X102104244Y-98479268D01*
X101947668Y-98635844D01*
X101820657Y-98817234D01*
X101820656Y-98817236D01*
X101727079Y-99017913D01*
X101727075Y-99017924D01*
X101669765Y-99231807D01*
X101669764Y-99231814D01*
X101650466Y-99452398D01*
X101650466Y-99452401D01*
X101669764Y-99672985D01*
X101669765Y-99672992D01*
X101727075Y-99886875D01*
X101727079Y-99886886D01*
X101814807Y-100075019D01*
X101820658Y-100087567D01*
X101947668Y-100268955D01*
X102104245Y-100425532D01*
X102285633Y-100552542D01*
X102328024Y-100572309D01*
X102408891Y-100610018D01*
X102461331Y-100656190D01*
X102480483Y-100723383D01*
X102460267Y-100790265D01*
X102408891Y-100834782D01*
X102285636Y-100892256D01*
X102285634Y-100892257D01*
X102104244Y-101019268D01*
X101947668Y-101175844D01*
X101820657Y-101357234D01*
X101820656Y-101357236D01*
X101727079Y-101557913D01*
X101727075Y-101557924D01*
X101669765Y-101771807D01*
X101669764Y-101771814D01*
X101650466Y-101992398D01*
X101650466Y-101992401D01*
X101669764Y-102212985D01*
X101669765Y-102212992D01*
X101727075Y-102426875D01*
X101727079Y-102426886D01*
X101820656Y-102627563D01*
X101820658Y-102627567D01*
X101947668Y-102808955D01*
X102104245Y-102965532D01*
X102285633Y-103092542D01*
X102406372Y-103148843D01*
X102486313Y-103186120D01*
X102486315Y-103186120D01*
X102486320Y-103186123D01*
X102700209Y-103243435D01*
X102857774Y-103257220D01*
X102920798Y-103262734D01*
X102920800Y-103262734D01*
X102920802Y-103262734D01*
X102975947Y-103257909D01*
X103141391Y-103243435D01*
X103355280Y-103186123D01*
X103555967Y-103092542D01*
X103737355Y-102965532D01*
X103893932Y-102808955D01*
X104020942Y-102627567D01*
X104114523Y-102426880D01*
X104171835Y-102212991D01*
X104191134Y-101992400D01*
X104171835Y-101771809D01*
X104114523Y-101557920D01*
X104106007Y-101539658D01*
X104042137Y-101402686D01*
X104020942Y-101357233D01*
X103893932Y-101175845D01*
X103737355Y-101019268D01*
X103555967Y-100892258D01*
X103432707Y-100834781D01*
X103380268Y-100788610D01*
X103361116Y-100721417D01*
X103381331Y-100654536D01*
X103432708Y-100610018D01*
X103555967Y-100552542D01*
X103737355Y-100425532D01*
X103893932Y-100268955D01*
X104020942Y-100087567D01*
X104114523Y-99886880D01*
X104171835Y-99672991D01*
X104191134Y-99452400D01*
X104171835Y-99231809D01*
X104114523Y-99017920D01*
X104107245Y-99002313D01*
X104038118Y-98854067D01*
X104020942Y-98817233D01*
X103893932Y-98635845D01*
X103737355Y-98479268D01*
X103555967Y-98352258D01*
X103432707Y-98294781D01*
X103380268Y-98248610D01*
X103361116Y-98181417D01*
X103381331Y-98114536D01*
X103432708Y-98070018D01*
X103440945Y-98066177D01*
X103555967Y-98012542D01*
X103737355Y-97885532D01*
X103893932Y-97728955D01*
X104020942Y-97547567D01*
X104114523Y-97346880D01*
X104171835Y-97132991D01*
X104191134Y-96912400D01*
X104171835Y-96691809D01*
X104114523Y-96477920D01*
X104020942Y-96277233D01*
X103893932Y-96095845D01*
X103737355Y-95939268D01*
X103555967Y-95812258D01*
X103530882Y-95800561D01*
X103432708Y-95754782D01*
X103380268Y-95708610D01*
X103361116Y-95641417D01*
X103381331Y-95574536D01*
X103432708Y-95530018D01*
X103555967Y-95472542D01*
X103737355Y-95345532D01*
X103893932Y-95188955D01*
X104020942Y-95007567D01*
X104114523Y-94806880D01*
X104171835Y-94592991D01*
X104191134Y-94372400D01*
X104189978Y-94359192D01*
X104178970Y-94233361D01*
X104171835Y-94151809D01*
X104114523Y-93937920D01*
X104020942Y-93737233D01*
X103921224Y-93594822D01*
X103898898Y-93528618D01*
X103915908Y-93460850D01*
X103966856Y-93413037D01*
X104022800Y-93399700D01*
X106358300Y-93399700D01*
X106425339Y-93419385D01*
X106471094Y-93472189D01*
X106482300Y-93523700D01*
X106482300Y-130463407D01*
X106506412Y-130584628D01*
X106506415Y-130584638D01*
X106512618Y-130599613D01*
X106520087Y-130669082D01*
X106506889Y-130706493D01*
X106477435Y-130760432D01*
X106377428Y-131028562D01*
X106316604Y-131308166D01*
X106296190Y-131593598D01*
X106296190Y-131593601D01*
X106316604Y-131879033D01*
X106377428Y-132158637D01*
X106377430Y-132158643D01*
X106377431Y-132158646D01*
X106444920Y-132339590D01*
X106477435Y-132426766D01*
X106614570Y-132677909D01*
X106614575Y-132677917D01*
X106786054Y-132906987D01*
X106786070Y-132907005D01*
X106988394Y-133109329D01*
X106988412Y-133109345D01*
X107217485Y-133280826D01*
X107218667Y-133281586D01*
X107218975Y-133281942D01*
X107221030Y-133283480D01*
X107220695Y-133283926D01*
X107264421Y-133334390D01*
X107274364Y-133403549D01*
X107245338Y-133467104D01*
X107186559Y-133504878D01*
X107151626Y-133509900D01*
X105278770Y-133509900D01*
X105211731Y-133490215D01*
X105165976Y-133437411D01*
X105156032Y-133368253D01*
X105162588Y-133342567D01*
X105215396Y-133200979D01*
X105215398Y-133200972D01*
X105221799Y-133141444D01*
X105221800Y-133141427D01*
X105221800Y-131843600D01*
X103940864Y-131843600D01*
X103952593Y-131815284D01*
X103981800Y-131668453D01*
X103981800Y-131518747D01*
X103952593Y-131371916D01*
X103940864Y-131343600D01*
X105221800Y-131343600D01*
X105221800Y-130045772D01*
X105221799Y-130045755D01*
X105215398Y-129986227D01*
X105215396Y-129986220D01*
X105165154Y-129851513D01*
X105165150Y-129851506D01*
X105078990Y-129736412D01*
X105078987Y-129736409D01*
X104963893Y-129650249D01*
X104963886Y-129650245D01*
X104829179Y-129600003D01*
X104829172Y-129600001D01*
X104769644Y-129593600D01*
X103471800Y-129593600D01*
X103471800Y-130874535D01*
X103443484Y-130862807D01*
X103296653Y-130833600D01*
X103146947Y-130833600D01*
X103000116Y-130862807D01*
X102971800Y-130874535D01*
X102971800Y-129593600D01*
X101673955Y-129593600D01*
X101614427Y-129600001D01*
X101614420Y-129600003D01*
X101479713Y-129650245D01*
X101479706Y-129650249D01*
X101364612Y-129736409D01*
X101364609Y-129736412D01*
X101278449Y-129851506D01*
X101278445Y-129851513D01*
X101228203Y-129986220D01*
X101228201Y-129986227D01*
X101221800Y-130045755D01*
X101221800Y-131343600D01*
X102502736Y-131343600D01*
X102491007Y-131371916D01*
X102461800Y-131518747D01*
X102461800Y-131668453D01*
X102491007Y-131815284D01*
X102502736Y-131843600D01*
X101221800Y-131843600D01*
X101221800Y-133141444D01*
X101228201Y-133200972D01*
X101228203Y-133200979D01*
X101281012Y-133342567D01*
X101285996Y-133412258D01*
X101252511Y-133473582D01*
X101191188Y-133507066D01*
X101164830Y-133509900D01*
X95850086Y-133509900D01*
X95783047Y-133490215D01*
X95762405Y-133473581D01*
X93421312Y-131132488D01*
X93387827Y-131071165D01*
X93392810Y-131001477D01*
X93444369Y-130863246D01*
X93504977Y-130584635D01*
X93505195Y-130583633D01*
X93505195Y-130583632D01*
X93505196Y-130583628D01*
X93525610Y-130298200D01*
X93524323Y-130280212D01*
X93518743Y-130202181D01*
X93505196Y-130012772D01*
X93503419Y-130004605D01*
X93444371Y-129733162D01*
X93444370Y-129733160D01*
X93444369Y-129733154D01*
X93344367Y-129465039D01*
X93341863Y-129460454D01*
X93207229Y-129213890D01*
X93207224Y-129213882D01*
X93035745Y-128984812D01*
X93035729Y-128984794D01*
X92833405Y-128782470D01*
X92833387Y-128782454D01*
X92604317Y-128610975D01*
X92604309Y-128610970D01*
X92353166Y-128473835D01*
X92353167Y-128473835D01*
X92245915Y-128433832D01*
X92085046Y-128373831D01*
X92085043Y-128373830D01*
X92085037Y-128373828D01*
X91805433Y-128313004D01*
X91520001Y-128292590D01*
X91519999Y-128292590D01*
X91234566Y-128313004D01*
X90954962Y-128373828D01*
X90686833Y-128473835D01*
X90435690Y-128610970D01*
X90435682Y-128610975D01*
X90206612Y-128782454D01*
X90206594Y-128782470D01*
X90004270Y-128984794D01*
X90004254Y-128984812D01*
X89832775Y-129213882D01*
X89832770Y-129213890D01*
X89695635Y-129465033D01*
X89595628Y-129733162D01*
X89534804Y-130012766D01*
X89514390Y-130298198D01*
X89514390Y-130298201D01*
X89534804Y-130583633D01*
X89595628Y-130863237D01*
X89595630Y-130863243D01*
X89595631Y-130863246D01*
X89688347Y-131111827D01*
X89695635Y-131131366D01*
X89832770Y-131382509D01*
X89832775Y-131382517D01*
X90004254Y-131611587D01*
X90004270Y-131611605D01*
X90206594Y-131813929D01*
X90206612Y-131813945D01*
X90435682Y-131985424D01*
X90435690Y-131985429D01*
X90686833Y-132122564D01*
X90686832Y-132122564D01*
X90686836Y-132122565D01*
X90686839Y-132122567D01*
X90954954Y-132222569D01*
X90954960Y-132222570D01*
X90954962Y-132222571D01*
X91234566Y-132283395D01*
X91234568Y-132283395D01*
X91234572Y-132283396D01*
X91488220Y-132301537D01*
X91519999Y-132303810D01*
X91520000Y-132303810D01*
X91520001Y-132303810D01*
X91548595Y-132301764D01*
X91805428Y-132283396D01*
X92085046Y-132222569D01*
X92223274Y-132171011D01*
X92292964Y-132166027D01*
X92354285Y-132199509D01*
X92354288Y-132199512D01*
X94895800Y-134741024D01*
X94895821Y-134741047D01*
X95005231Y-134850457D01*
X95070862Y-134894310D01*
X95070861Y-134894310D01*
X95128800Y-134933023D01*
X95128804Y-134933025D01*
X95128811Y-134933030D01*
X95209243Y-134966345D01*
X95209244Y-134966346D01*
X95232803Y-134976104D01*
X95266120Y-134989905D01*
X95266129Y-134989906D01*
X95266130Y-134989907D01*
X95290303Y-134994715D01*
X95290310Y-134994716D01*
X95411886Y-135018901D01*
X95411888Y-135018901D01*
X95566626Y-135018901D01*
X95566646Y-135018900D01*
X113762354Y-135018900D01*
X113762374Y-135018901D01*
X113768488Y-135018901D01*
X113923226Y-135018901D01*
X113923246Y-135018900D01*
X123541354Y-135018900D01*
X123541374Y-135018901D01*
X123547488Y-135018901D01*
X123696114Y-135018901D01*
X123817694Y-134994715D01*
X123817694Y-134994716D01*
X123817700Y-134994713D01*
X123841880Y-134989905D01*
X123877742Y-134975049D01*
X123898744Y-134966351D01*
X123898747Y-134966349D01*
X123898755Y-134966346D01*
X123979189Y-134933030D01*
X124102766Y-134850459D01*
X124352963Y-134600260D01*
X124352966Y-134600259D01*
X124458059Y-134495166D01*
X124540629Y-134371590D01*
X124597505Y-134234280D01*
X124626500Y-134088512D01*
X124626500Y-133714486D01*
X124646185Y-133647447D01*
X124698989Y-133601692D01*
X124768147Y-133591748D01*
X124831703Y-133620773D01*
X124838181Y-133626805D01*
X126790600Y-135579224D01*
X126790621Y-135579247D01*
X126900028Y-135688654D01*
X126900035Y-135688660D01*
X127023608Y-135771228D01*
X127023609Y-135771228D01*
X127023610Y-135771229D01*
X127160920Y-135828105D01*
X127306683Y-135857099D01*
X127306687Y-135857100D01*
X127306688Y-135857100D01*
X153310154Y-135857100D01*
X153310174Y-135857101D01*
X153316288Y-135857101D01*
X153464914Y-135857101D01*
X153586494Y-135832915D01*
X153586494Y-135832916D01*
X153586500Y-135832913D01*
X153610680Y-135828105D01*
X153646542Y-135813249D01*
X153667544Y-135804551D01*
X153667547Y-135804549D01*
X153667555Y-135804546D01*
X153747989Y-135771230D01*
X153871566Y-135688659D01*
X156205405Y-133354817D01*
X156266728Y-133321333D01*
X156293086Y-133318499D01*
X158723071Y-133318499D01*
X158723072Y-133318499D01*
X158782683Y-133312091D01*
X158917531Y-133261796D01*
X159032746Y-133175546D01*
X159118996Y-133060331D01*
X159169291Y-132925483D01*
X159175700Y-132865873D01*
X159175699Y-129770128D01*
X159169291Y-129710517D01*
X159162491Y-129692286D01*
X159118997Y-129575671D01*
X159118993Y-129575664D01*
X159032747Y-129460455D01*
X159032744Y-129460452D01*
X158917535Y-129374206D01*
X158917528Y-129374202D01*
X158782682Y-129323908D01*
X158782683Y-129323908D01*
X158723083Y-129317501D01*
X158723081Y-129317500D01*
X158723073Y-129317500D01*
X158723064Y-129317500D01*
X155627329Y-129317500D01*
X155627323Y-129317501D01*
X155567716Y-129323908D01*
X155432871Y-129374202D01*
X155432864Y-129374206D01*
X155317655Y-129460452D01*
X155317652Y-129460455D01*
X155231406Y-129575664D01*
X155231402Y-129575671D01*
X155181108Y-129710517D01*
X155174796Y-129769233D01*
X155174701Y-129770123D01*
X155174700Y-129770135D01*
X155174700Y-132200112D01*
X155155015Y-132267151D01*
X155138381Y-132287793D01*
X153114394Y-134311781D01*
X153053071Y-134345266D01*
X153026713Y-134348100D01*
X145394300Y-134348100D01*
X145327261Y-134328415D01*
X145281506Y-134275611D01*
X145270300Y-134224100D01*
X145270300Y-133888767D01*
X145270299Y-133888752D01*
X145267409Y-133852026D01*
X145267408Y-133852020D01*
X145221733Y-133694807D01*
X145221731Y-133694804D01*
X145221731Y-133694803D01*
X145212579Y-133679328D01*
X145195397Y-133611606D01*
X145212581Y-133553086D01*
X145221270Y-133538393D01*
X145221271Y-133538392D01*
X145266794Y-133381701D01*
X145266793Y-133381700D01*
X144961157Y-133381700D01*
X144898036Y-133364432D01*
X144881695Y-133354768D01*
X144881692Y-133354766D01*
X144724479Y-133309091D01*
X144724473Y-133309090D01*
X144687747Y-133306200D01*
X144687740Y-133306200D01*
X144211860Y-133306200D01*
X144211852Y-133306200D01*
X144175126Y-133309090D01*
X144175123Y-133309091D01*
X144113087Y-133327115D01*
X144062279Y-133341876D01*
X144027685Y-133346800D01*
X143438500Y-133346800D01*
X143371461Y-133327115D01*
X143325706Y-133274311D01*
X143314500Y-133222800D01*
X143314499Y-132882130D01*
X143314498Y-132882108D01*
X143314466Y-132881698D01*
X143632805Y-132881698D01*
X143632807Y-132881700D01*
X144199800Y-132881700D01*
X144699800Y-132881700D01*
X145266793Y-132881700D01*
X145266794Y-132881698D01*
X145221271Y-132725007D01*
X145221269Y-132725004D01*
X145137993Y-132584191D01*
X145137987Y-132584183D01*
X145022316Y-132468512D01*
X145022308Y-132468506D01*
X144881497Y-132385231D01*
X144881492Y-132385229D01*
X144724403Y-132339590D01*
X144724391Y-132339588D01*
X144699800Y-132337652D01*
X144699800Y-132881700D01*
X144199800Y-132881700D01*
X144199800Y-132337654D01*
X144175202Y-132339589D01*
X144018107Y-132385229D01*
X144018102Y-132385231D01*
X143877291Y-132468506D01*
X143877283Y-132468512D01*
X143761612Y-132584183D01*
X143761606Y-132584191D01*
X143678330Y-132725004D01*
X143678328Y-132725007D01*
X143632805Y-132881698D01*
X143314466Y-132881698D01*
X143311665Y-132846096D01*
X143290700Y-132773936D01*
X143266124Y-132689341D01*
X143261200Y-132654746D01*
X143261200Y-131111844D01*
X143657700Y-131111844D01*
X143664101Y-131171372D01*
X143664103Y-131171379D01*
X143714345Y-131306086D01*
X143714349Y-131306093D01*
X143800509Y-131421187D01*
X143800512Y-131421190D01*
X143915606Y-131507350D01*
X143915613Y-131507354D01*
X144050320Y-131557596D01*
X144050327Y-131557598D01*
X144109855Y-131563999D01*
X144109872Y-131564000D01*
X144161700Y-131564000D01*
X144661700Y-131564000D01*
X144713528Y-131564000D01*
X144713544Y-131563999D01*
X144773072Y-131557598D01*
X144773079Y-131557596D01*
X144907786Y-131507354D01*
X144907793Y-131507350D01*
X145022887Y-131421190D01*
X145022890Y-131421187D01*
X145109050Y-131306093D01*
X145109054Y-131306086D01*
X145159296Y-131171379D01*
X145159298Y-131171372D01*
X145165699Y-131111844D01*
X145165700Y-131111827D01*
X145165700Y-130806000D01*
X144661700Y-130806000D01*
X144661700Y-131564000D01*
X144161700Y-131564000D01*
X144161700Y-130806000D01*
X143657700Y-130806000D01*
X143657700Y-131111844D01*
X143261200Y-131111844D01*
X143261200Y-130471699D01*
X143261199Y-130471685D01*
X143261199Y-130000129D01*
X143261198Y-130000123D01*
X143261197Y-130000116D01*
X143254791Y-129940517D01*
X143246808Y-129919114D01*
X143202916Y-129801432D01*
X143197932Y-129731740D01*
X143231417Y-129670417D01*
X143292741Y-129636933D01*
X143319091Y-129634099D01*
X143599835Y-129634099D01*
X143666874Y-129653784D01*
X143712629Y-129706588D01*
X143722573Y-129775746D01*
X143716017Y-129801432D01*
X143664103Y-129940620D01*
X143664101Y-129940627D01*
X143657700Y-130000155D01*
X143657700Y-130306000D01*
X145165700Y-130306000D01*
X145165700Y-130000172D01*
X145165699Y-130000155D01*
X145159298Y-129940627D01*
X145159296Y-129940620D01*
X145109054Y-129805913D01*
X145109050Y-129805906D01*
X145022890Y-129690812D01*
X145022887Y-129690809D01*
X144906079Y-129603366D01*
X144864208Y-129547432D01*
X144859224Y-129477741D01*
X144892710Y-129416418D01*
X144954033Y-129382934D01*
X144980390Y-129380100D01*
X149038913Y-129380100D01*
X149105952Y-129399785D01*
X149126594Y-129416419D01*
X150193886Y-130483710D01*
X150227371Y-130545033D01*
X150222387Y-130614723D01*
X150170830Y-130752956D01*
X150110004Y-131032566D01*
X150089590Y-131317998D01*
X150089590Y-131318001D01*
X150110004Y-131603433D01*
X150170828Y-131883037D01*
X150170830Y-131883043D01*
X150170831Y-131883046D01*
X150209016Y-131985424D01*
X150270835Y-132151166D01*
X150407970Y-132402309D01*
X150407975Y-132402317D01*
X150579454Y-132631387D01*
X150579470Y-132631405D01*
X150781794Y-132833729D01*
X150781812Y-132833745D01*
X151010882Y-133005224D01*
X151010890Y-133005229D01*
X151262033Y-133142364D01*
X151262032Y-133142364D01*
X151262036Y-133142365D01*
X151262039Y-133142367D01*
X151530154Y-133242369D01*
X151530160Y-133242370D01*
X151530162Y-133242371D01*
X151809766Y-133303195D01*
X151809768Y-133303195D01*
X151809772Y-133303196D01*
X152063363Y-133321333D01*
X152095199Y-133323610D01*
X152095200Y-133323610D01*
X152095201Y-133323610D01*
X152127037Y-133321333D01*
X152380628Y-133303196D01*
X152471262Y-133283480D01*
X152660237Y-133242371D01*
X152660237Y-133242370D01*
X152660246Y-133242369D01*
X152928361Y-133142367D01*
X153179515Y-133005226D01*
X153408595Y-132833739D01*
X153610939Y-132631395D01*
X153782426Y-132402315D01*
X153919567Y-132151161D01*
X154019569Y-131883046D01*
X154080396Y-131603428D01*
X154100810Y-131318000D01*
X154099958Y-131306093D01*
X154094774Y-131233605D01*
X154080396Y-131032572D01*
X154079522Y-131028556D01*
X154019571Y-130752962D01*
X154019569Y-130752956D01*
X154019569Y-130752954D01*
X153919567Y-130484839D01*
X153917846Y-130481688D01*
X153782429Y-130233690D01*
X153782424Y-130233682D01*
X153610945Y-130004612D01*
X153610929Y-130004594D01*
X153408605Y-129802270D01*
X153408587Y-129802254D01*
X153179517Y-129630775D01*
X153179509Y-129630770D01*
X152928366Y-129493635D01*
X152928367Y-129493635D01*
X152810999Y-129449859D01*
X152660246Y-129393631D01*
X152660243Y-129393630D01*
X152660237Y-129393628D01*
X152380633Y-129332804D01*
X152095201Y-129312390D01*
X152095199Y-129312390D01*
X151809766Y-129332804D01*
X151530156Y-129393630D01*
X151391923Y-129445187D01*
X151322232Y-129450171D01*
X151260910Y-129416686D01*
X149883769Y-128039543D01*
X149883768Y-128039542D01*
X149839730Y-128010117D01*
X149760189Y-127956970D01*
X149760186Y-127956968D01*
X149760185Y-127956968D01*
X149679755Y-127923653D01*
X149622880Y-127900095D01*
X149598694Y-127895284D01*
X149477114Y-127871099D01*
X149477112Y-127871099D01*
X149328488Y-127871099D01*
X149322374Y-127871099D01*
X149322354Y-127871100D01*
X144215945Y-127871100D01*
X144148906Y-127851415D01*
X144116679Y-127821412D01*
X144085434Y-127779675D01*
X144070746Y-127760054D01*
X144070744Y-127760053D01*
X144070744Y-127760052D01*
X143955535Y-127673806D01*
X143955528Y-127673802D01*
X143820686Y-127623510D01*
X143820685Y-127623509D01*
X143820683Y-127623509D01*
X143761073Y-127617100D01*
X143761063Y-127617100D01*
X143157329Y-127617100D01*
X143157323Y-127617101D01*
X143097716Y-127623508D01*
X142962871Y-127673802D01*
X142962864Y-127673806D01*
X142847655Y-127760052D01*
X142847652Y-127760055D01*
X142761406Y-127875264D01*
X142761402Y-127875271D01*
X142711108Y-128010117D01*
X142704701Y-128069716D01*
X142704700Y-128069735D01*
X142704700Y-129181470D01*
X142704701Y-129181476D01*
X142711108Y-129241083D01*
X142762983Y-129380167D01*
X142767967Y-129449859D01*
X142734481Y-129511182D01*
X142673158Y-129544666D01*
X142646801Y-129547500D01*
X142204829Y-129547500D01*
X142204823Y-129547501D01*
X142145216Y-129553908D01*
X142010371Y-129604202D01*
X142010364Y-129604206D01*
X141895155Y-129690452D01*
X141895152Y-129690455D01*
X141808906Y-129805664D01*
X141808902Y-129805671D01*
X141758608Y-129940517D01*
X141753695Y-129986220D01*
X141752201Y-130000123D01*
X141752200Y-130000135D01*
X141752200Y-132605449D01*
X141734933Y-132668568D01*
X141721132Y-132691904D01*
X141721129Y-132691911D01*
X141676335Y-132846091D01*
X141676334Y-132846097D01*
X141673500Y-132882111D01*
X141673500Y-133280469D01*
X141673501Y-133280491D01*
X141676335Y-133316505D01*
X141721129Y-133470688D01*
X141721132Y-133470695D01*
X141755128Y-133528181D01*
X141772309Y-133595905D01*
X141755128Y-133654419D01*
X141721132Y-133711904D01*
X141721129Y-133711911D01*
X141676335Y-133866091D01*
X141676334Y-133866097D01*
X141673500Y-133902111D01*
X141673500Y-133902119D01*
X141673500Y-134088516D01*
X141673501Y-134224100D01*
X141653817Y-134291139D01*
X141601013Y-134336894D01*
X141549501Y-134348100D01*
X127744886Y-134348100D01*
X127677847Y-134328415D01*
X127657205Y-134311781D01*
X125773312Y-132427888D01*
X125739827Y-132366565D01*
X125744810Y-132296877D01*
X125796369Y-132158646D01*
X125857196Y-131879028D01*
X125877610Y-131593600D01*
X125857196Y-131308172D01*
X125856742Y-131306086D01*
X125796371Y-131028562D01*
X125796369Y-131028556D01*
X125796369Y-131028554D01*
X125696367Y-130760439D01*
X125692284Y-130752962D01*
X125559229Y-130509290D01*
X125559224Y-130509282D01*
X125387745Y-130280212D01*
X125387729Y-130280194D01*
X125185405Y-130077870D01*
X125185387Y-130077854D01*
X124956317Y-129906375D01*
X124956309Y-129906370D01*
X124705166Y-129769235D01*
X124705167Y-129769235D01*
X124575407Y-129720837D01*
X124437046Y-129669231D01*
X124437043Y-129669230D01*
X124437037Y-129669228D01*
X124157433Y-129608404D01*
X123872001Y-129587990D01*
X123871999Y-129587990D01*
X123586566Y-129608404D01*
X123306956Y-129669230D01*
X123168723Y-129720787D01*
X123099032Y-129725771D01*
X123037711Y-129692287D01*
X122914016Y-129568592D01*
X122880534Y-129507271D01*
X122877700Y-129480913D01*
X122877700Y-127231995D01*
X122897385Y-127164956D01*
X122950189Y-127119201D01*
X123019347Y-127109257D01*
X123064822Y-127125263D01*
X123088507Y-127139270D01*
X123245602Y-127184910D01*
X123270200Y-127186845D01*
X123270200Y-127186844D01*
X123770200Y-127186844D01*
X123770201Y-127186845D01*
X123794792Y-127184912D01*
X123794799Y-127184910D01*
X123951891Y-127139270D01*
X123951897Y-127139268D01*
X124092708Y-127055993D01*
X124092716Y-127055987D01*
X124208387Y-126940316D01*
X124208393Y-126940308D01*
X124291669Y-126799495D01*
X124291671Y-126799492D01*
X124337194Y-126642801D01*
X124337193Y-126642800D01*
X123770200Y-126642800D01*
X123770200Y-127186844D01*
X123270200Y-127186844D01*
X123270200Y-126516800D01*
X123289885Y-126449761D01*
X123342689Y-126404006D01*
X123394200Y-126392800D01*
X123520200Y-126392800D01*
X123520200Y-126342300D01*
X123539885Y-126275261D01*
X123592689Y-126229506D01*
X123644200Y-126218300D01*
X123758132Y-126218300D01*
X123758140Y-126218300D01*
X123794875Y-126215409D01*
X123794877Y-126215408D01*
X123794879Y-126215408D01*
X123952092Y-126169733D01*
X123952093Y-126169732D01*
X123952097Y-126169731D01*
X123968436Y-126160067D01*
X124031557Y-126142800D01*
X124337193Y-126142800D01*
X124337194Y-126142798D01*
X124291671Y-125986107D01*
X124291669Y-125986104D01*
X124282980Y-125971411D01*
X124265797Y-125903687D01*
X124282979Y-125845170D01*
X124292131Y-125829697D01*
X124292132Y-125829692D01*
X124292133Y-125829692D01*
X124337808Y-125672479D01*
X124337809Y-125672473D01*
X124340700Y-125635740D01*
X124340700Y-125222611D01*
X124630100Y-125222611D01*
X124630100Y-125620969D01*
X124630101Y-125620991D01*
X124632935Y-125657005D01*
X124677729Y-125811188D01*
X124677732Y-125811195D01*
X124711728Y-125868681D01*
X124728909Y-125936405D01*
X124711728Y-125994919D01*
X124677732Y-126052404D01*
X124677729Y-126052411D01*
X124632935Y-126206591D01*
X124632934Y-126206597D01*
X124630100Y-126242611D01*
X124630100Y-126640969D01*
X124630101Y-126640991D01*
X124632934Y-126677000D01*
X124632934Y-126677003D01*
X124632935Y-126677004D01*
X124677731Y-126831193D01*
X124678831Y-126833053D01*
X124679338Y-126834907D01*
X124680828Y-126838349D01*
X124680338Y-126838561D01*
X124696100Y-126896175D01*
X124696100Y-128012752D01*
X124696099Y-128012778D01*
X124696099Y-128017888D01*
X124696099Y-128166512D01*
X124696099Y-128166514D01*
X124696098Y-128166514D01*
X124725093Y-128312273D01*
X124725096Y-128312283D01*
X124781966Y-128449581D01*
X124781972Y-128449592D01*
X124864542Y-128573168D01*
X124864543Y-128573169D01*
X127050686Y-130759310D01*
X127084171Y-130820633D01*
X127079187Y-130890323D01*
X127027630Y-131028556D01*
X126966804Y-131308166D01*
X126946390Y-131593598D01*
X126946390Y-131593601D01*
X126966804Y-131879033D01*
X127027628Y-132158637D01*
X127027630Y-132158643D01*
X127027631Y-132158646D01*
X127095120Y-132339590D01*
X127127635Y-132426766D01*
X127264770Y-132677909D01*
X127264775Y-132677917D01*
X127436254Y-132906987D01*
X127436270Y-132907005D01*
X127638594Y-133109329D01*
X127638612Y-133109345D01*
X127867682Y-133280824D01*
X127867690Y-133280829D01*
X128118833Y-133417964D01*
X128118832Y-133417964D01*
X128118836Y-133417965D01*
X128118839Y-133417967D01*
X128386954Y-133517969D01*
X128386960Y-133517970D01*
X128386962Y-133517971D01*
X128666566Y-133578795D01*
X128666568Y-133578795D01*
X128666572Y-133578796D01*
X128905790Y-133595905D01*
X128951999Y-133599210D01*
X128952000Y-133599210D01*
X128952001Y-133599210D01*
X128998210Y-133595905D01*
X129237428Y-133578796D01*
X129351966Y-133553880D01*
X129517037Y-133517971D01*
X129517037Y-133517970D01*
X129517046Y-133517969D01*
X129785161Y-133417967D01*
X130036315Y-133280826D01*
X130265395Y-133109339D01*
X130467739Y-132906995D01*
X130639226Y-132677915D01*
X130776367Y-132426761D01*
X130876369Y-132158646D01*
X130879737Y-132143163D01*
X130937195Y-131879033D01*
X130937195Y-131879032D01*
X130937196Y-131879028D01*
X130957610Y-131593600D01*
X130937196Y-131308172D01*
X130936742Y-131306086D01*
X130876371Y-131028562D01*
X130876369Y-131028556D01*
X130876369Y-131028554D01*
X130776367Y-130760439D01*
X130772284Y-130752962D01*
X130639229Y-130509290D01*
X130639224Y-130509282D01*
X130467745Y-130280212D01*
X130467729Y-130280194D01*
X130265405Y-130077870D01*
X130265387Y-130077854D01*
X130222508Y-130045755D01*
X132032000Y-130045755D01*
X132032000Y-131343600D01*
X133312936Y-131343600D01*
X133301207Y-131371916D01*
X133272000Y-131518747D01*
X133272000Y-131668453D01*
X133301207Y-131815284D01*
X133312936Y-131843600D01*
X132032000Y-131843600D01*
X132032000Y-133141444D01*
X132038401Y-133200972D01*
X132038403Y-133200979D01*
X132088645Y-133335686D01*
X132088649Y-133335693D01*
X132174809Y-133450787D01*
X132174812Y-133450790D01*
X132289906Y-133536950D01*
X132289913Y-133536954D01*
X132424620Y-133587196D01*
X132424627Y-133587198D01*
X132484155Y-133593599D01*
X132484172Y-133593600D01*
X133782000Y-133593600D01*
X133782000Y-132312664D01*
X133810316Y-132324393D01*
X133957147Y-132353600D01*
X134106853Y-132353600D01*
X134253684Y-132324393D01*
X134282000Y-132312664D01*
X134282000Y-133593600D01*
X135579828Y-133593600D01*
X135579844Y-133593599D01*
X135639372Y-133587198D01*
X135639379Y-133587196D01*
X135774086Y-133536954D01*
X135774093Y-133536950D01*
X135889187Y-133450790D01*
X135889190Y-133450787D01*
X135975350Y-133335693D01*
X135975354Y-133335686D01*
X136025596Y-133200979D01*
X136025598Y-133200972D01*
X136031999Y-133141444D01*
X136032000Y-133141427D01*
X136032000Y-131843600D01*
X134751064Y-131843600D01*
X134762793Y-131815284D01*
X134792000Y-131668453D01*
X134792000Y-131518747D01*
X134762793Y-131371916D01*
X134751064Y-131343600D01*
X136032000Y-131343600D01*
X136032000Y-130045772D01*
X136031999Y-130045755D01*
X136025598Y-129986227D01*
X136025596Y-129986220D01*
X135975354Y-129851513D01*
X135975350Y-129851506D01*
X135889190Y-129736412D01*
X135889187Y-129736409D01*
X135774093Y-129650249D01*
X135774086Y-129650245D01*
X135639379Y-129600003D01*
X135639372Y-129600001D01*
X135579844Y-129593600D01*
X134282000Y-129593600D01*
X134282000Y-130874535D01*
X134253684Y-130862807D01*
X134106853Y-130833600D01*
X133957147Y-130833600D01*
X133810316Y-130862807D01*
X133782000Y-130874535D01*
X133782000Y-129593600D01*
X132484155Y-129593600D01*
X132424627Y-129600001D01*
X132424620Y-129600003D01*
X132289913Y-129650245D01*
X132289906Y-129650249D01*
X132174812Y-129736409D01*
X132174809Y-129736412D01*
X132088649Y-129851506D01*
X132088645Y-129851513D01*
X132038403Y-129986220D01*
X132038401Y-129986227D01*
X132032000Y-130045755D01*
X130222508Y-130045755D01*
X130036317Y-129906375D01*
X130036309Y-129906370D01*
X129785166Y-129769235D01*
X129785167Y-129769235D01*
X129655407Y-129720837D01*
X129517046Y-129669231D01*
X129517043Y-129669230D01*
X129517037Y-129669228D01*
X129237433Y-129608404D01*
X128952001Y-129587990D01*
X128951999Y-129587990D01*
X128666566Y-129608404D01*
X128386956Y-129669230D01*
X128248723Y-129720787D01*
X128179032Y-129725771D01*
X128117710Y-129692286D01*
X126241419Y-127815994D01*
X126207934Y-127754671D01*
X126205100Y-127728313D01*
X126205100Y-126896175D01*
X126220861Y-126838561D01*
X126220372Y-126838349D01*
X126221861Y-126834907D01*
X126222368Y-126833053D01*
X126223469Y-126831193D01*
X126233375Y-126797097D01*
X126238877Y-126778160D01*
X126276483Y-126719275D01*
X126339955Y-126690068D01*
X126409142Y-126699814D01*
X126462076Y-126745418D01*
X126477029Y-126778160D01*
X126482529Y-126797092D01*
X126482531Y-126797097D01*
X126565806Y-126937908D01*
X126565812Y-126937916D01*
X126681483Y-127053587D01*
X126681491Y-127053593D01*
X126822302Y-127136868D01*
X126822307Y-127136870D01*
X126979402Y-127182510D01*
X127004000Y-127184445D01*
X127004000Y-127184444D01*
X127504000Y-127184444D01*
X127504001Y-127184445D01*
X127528592Y-127182512D01*
X127528599Y-127182510D01*
X127685691Y-127136870D01*
X127685697Y-127136868D01*
X127826508Y-127053593D01*
X127826516Y-127053587D01*
X127942187Y-126937916D01*
X127942193Y-126937908D01*
X128025469Y-126797095D01*
X128025471Y-126797092D01*
X128070994Y-126640401D01*
X128070993Y-126640400D01*
X127504000Y-126640400D01*
X127504000Y-127184444D01*
X127004000Y-127184444D01*
X127004000Y-126514400D01*
X127023685Y-126447361D01*
X127076489Y-126401606D01*
X127128000Y-126390400D01*
X127254000Y-126390400D01*
X127254000Y-126339900D01*
X127273685Y-126272861D01*
X127326489Y-126227106D01*
X127378000Y-126215900D01*
X127491932Y-126215900D01*
X127491940Y-126215900D01*
X127528675Y-126213009D01*
X127528677Y-126213008D01*
X127528679Y-126213008D01*
X127685892Y-126167333D01*
X127685893Y-126167332D01*
X127685897Y-126167331D01*
X127702236Y-126157667D01*
X127765357Y-126140400D01*
X128070993Y-126140400D01*
X128070994Y-126140398D01*
X128025471Y-125983707D01*
X128025469Y-125983704D01*
X128016780Y-125969011D01*
X127999597Y-125901287D01*
X128016779Y-125842770D01*
X128025931Y-125827297D01*
X128025932Y-125827292D01*
X128025933Y-125827292D01*
X128071608Y-125670079D01*
X128071609Y-125670073D01*
X128072548Y-125658140D01*
X128074500Y-125633340D01*
X128074500Y-125207460D01*
X128071609Y-125170725D01*
X128071608Y-125170720D01*
X128025933Y-125013507D01*
X128025931Y-125013504D01*
X128025931Y-125013503D01*
X127942590Y-124872580D01*
X127942588Y-124872578D01*
X127942585Y-124872574D01*
X127826825Y-124756814D01*
X127826817Y-124756808D01*
X127727827Y-124698266D01*
X127685897Y-124673469D01*
X127685896Y-124673468D01*
X127685895Y-124673468D01*
X127685892Y-124673466D01*
X127528679Y-124627791D01*
X127528673Y-124627790D01*
X127491947Y-124624900D01*
X127491940Y-124624900D01*
X127016060Y-124624900D01*
X127016052Y-124624900D01*
X126979326Y-124627790D01*
X126979323Y-124627791D01*
X126898404Y-124651301D01*
X126860283Y-124662376D01*
X126825689Y-124667300D01*
X125798765Y-124667300D01*
X125764170Y-124662376D01*
X125753919Y-124659398D01*
X125735805Y-124654135D01*
X125735802Y-124654134D01*
X125699781Y-124651300D01*
X125201430Y-124651300D01*
X125201408Y-124651301D01*
X125165394Y-124654135D01*
X125011211Y-124698929D01*
X125011206Y-124698931D01*
X124873004Y-124780663D01*
X124872996Y-124780669D01*
X124759469Y-124894196D01*
X124759463Y-124894204D01*
X124677731Y-125032406D01*
X124677729Y-125032411D01*
X124632935Y-125186591D01*
X124632934Y-125186597D01*
X124630100Y-125222611D01*
X124340700Y-125222611D01*
X124340700Y-125209860D01*
X124337809Y-125173125D01*
X124337112Y-125170725D01*
X124292133Y-125015907D01*
X124292131Y-125015904D01*
X124292131Y-125015903D01*
X124208790Y-124874980D01*
X124208788Y-124874978D01*
X124208785Y-124874974D01*
X124093025Y-124759214D01*
X124093017Y-124759208D01*
X123991090Y-124698929D01*
X123952097Y-124675869D01*
X123952096Y-124675868D01*
X123952095Y-124675868D01*
X123952092Y-124675866D01*
X123794879Y-124630191D01*
X123794873Y-124630190D01*
X123758147Y-124627300D01*
X123758140Y-124627300D01*
X123282260Y-124627300D01*
X123282252Y-124627300D01*
X123245526Y-124630190D01*
X123245523Y-124630191D01*
X123224333Y-124636347D01*
X123217351Y-124638376D01*
X123182757Y-124643300D01*
X122471365Y-124643300D01*
X122436770Y-124638376D01*
X122426519Y-124635398D01*
X122408405Y-124630135D01*
X122408402Y-124630134D01*
X122372381Y-124627300D01*
X121874030Y-124627300D01*
X121874008Y-124627301D01*
X121837994Y-124630135D01*
X121683811Y-124674929D01*
X121683806Y-124674931D01*
X121545604Y-124756663D01*
X121545596Y-124756669D01*
X121432069Y-124870196D01*
X121432063Y-124870204D01*
X121350331Y-125008406D01*
X121350329Y-125008410D01*
X121335764Y-125058545D01*
X121298157Y-125117430D01*
X121234684Y-125146636D01*
X121165498Y-125136890D01*
X121112564Y-125091285D01*
X121097611Y-125058543D01*
X121097223Y-125057206D01*
X121091731Y-125038303D01*
X121008390Y-124897380D01*
X121008388Y-124897378D01*
X121008385Y-124897374D01*
X120892625Y-124781614D01*
X120892617Y-124781608D01*
X120751695Y-124698268D01*
X120751692Y-124698266D01*
X120594479Y-124652591D01*
X120594473Y-124652590D01*
X120557747Y-124649700D01*
X120557740Y-124649700D01*
X120081860Y-124649700D01*
X120081852Y-124649700D01*
X120045126Y-124652590D01*
X120045123Y-124652591D01*
X119964204Y-124676101D01*
X119926083Y-124687176D01*
X119891489Y-124692100D01*
X119093165Y-124692100D01*
X119058570Y-124687176D01*
X119048319Y-124684198D01*
X119030205Y-124678935D01*
X119030202Y-124678934D01*
X118994181Y-124676100D01*
X118495830Y-124676100D01*
X118495808Y-124676101D01*
X118459794Y-124678935D01*
X118305611Y-124723729D01*
X118305606Y-124723731D01*
X118167404Y-124805463D01*
X118167396Y-124805469D01*
X118053869Y-124918996D01*
X118053863Y-124919004D01*
X117972131Y-125057206D01*
X117972129Y-125057211D01*
X117927335Y-125211391D01*
X117927334Y-125211397D01*
X117924500Y-125247411D01*
X117924500Y-125645769D01*
X117924501Y-125645791D01*
X117927335Y-125681805D01*
X117972129Y-125835988D01*
X117972132Y-125835995D01*
X118006128Y-125893481D01*
X118023309Y-125961205D01*
X118006128Y-126019719D01*
X117972132Y-126077204D01*
X117972129Y-126077211D01*
X117927335Y-126231391D01*
X117927334Y-126231397D01*
X117924500Y-126267411D01*
X117924500Y-126665769D01*
X117924501Y-126665791D01*
X117927334Y-126701800D01*
X117927334Y-126701803D01*
X117927335Y-126701804D01*
X117972131Y-126855993D01*
X118001364Y-126905424D01*
X118020232Y-126937327D01*
X118037500Y-127000448D01*
X118037500Y-129653798D01*
X118017815Y-129720837D01*
X117965011Y-129766592D01*
X117960780Y-129768345D01*
X117958848Y-129769228D01*
X117707690Y-129906370D01*
X117707682Y-129906375D01*
X117478612Y-130077854D01*
X117478594Y-130077870D01*
X117276270Y-130280194D01*
X117276254Y-130280212D01*
X117104775Y-130509282D01*
X117104770Y-130509290D01*
X116967635Y-130760433D01*
X116867628Y-131028562D01*
X116806804Y-131308166D01*
X116786390Y-131593598D01*
X116786390Y-131593601D01*
X116806804Y-131879033D01*
X116867628Y-132158637D01*
X116867630Y-132158643D01*
X116867631Y-132158646D01*
X116935120Y-132339590D01*
X116967635Y-132426766D01*
X117104770Y-132677909D01*
X117104775Y-132677917D01*
X117276254Y-132906987D01*
X117276270Y-132907005D01*
X117478594Y-133109329D01*
X117478612Y-133109345D01*
X117707685Y-133280826D01*
X117708867Y-133281586D01*
X117709175Y-133281942D01*
X117711230Y-133283480D01*
X117710895Y-133283926D01*
X117754621Y-133334390D01*
X117764564Y-133403549D01*
X117735538Y-133467104D01*
X117676759Y-133504878D01*
X117641826Y-133509900D01*
X114594300Y-133509900D01*
X114527261Y-133490215D01*
X114481506Y-133437411D01*
X114470300Y-133385900D01*
X114470300Y-119605246D01*
X114470301Y-119605225D01*
X114470301Y-119450485D01*
X114441306Y-119304727D01*
X114441305Y-119304721D01*
X114439170Y-119299567D01*
X114410506Y-119230365D01*
X114384430Y-119167411D01*
X114301859Y-119043834D01*
X114301857Y-119043831D01*
X114124368Y-118866342D01*
X114037800Y-118808500D01*
X114000789Y-118783770D01*
X114000786Y-118783768D01*
X114000785Y-118783768D01*
X113920355Y-118750453D01*
X113863480Y-118726895D01*
X113839294Y-118722084D01*
X113821538Y-118718552D01*
X113717714Y-118697899D01*
X113717712Y-118697899D01*
X113569088Y-118697899D01*
X113562974Y-118697899D01*
X113562954Y-118697900D01*
X110742899Y-118697900D01*
X110675860Y-118678215D01*
X110630105Y-118625411D01*
X110618899Y-118573900D01*
X110618899Y-118404529D01*
X110618898Y-118404523D01*
X110618845Y-118404031D01*
X110612491Y-118344917D01*
X110562196Y-118210069D01*
X110562195Y-118210068D01*
X110562193Y-118210064D01*
X110475947Y-118094855D01*
X110475944Y-118094852D01*
X110360735Y-118008606D01*
X110360728Y-118008602D01*
X110225882Y-117958308D01*
X110225883Y-117958308D01*
X110166283Y-117951901D01*
X110166281Y-117951900D01*
X110166273Y-117951900D01*
X110166264Y-117951900D01*
X108070529Y-117951900D01*
X108070523Y-117951901D01*
X108010914Y-117958309D01*
X107904632Y-117997949D01*
X107834940Y-118002933D01*
X107773618Y-117969447D01*
X107740133Y-117908123D01*
X107737300Y-117881767D01*
X107737300Y-115485385D01*
X107756985Y-115418346D01*
X107809789Y-115372591D01*
X107878947Y-115362647D01*
X107942503Y-115391672D01*
X107952523Y-115401395D01*
X108098656Y-115560138D01*
X108294891Y-115712874D01*
X108294893Y-115712875D01*
X108505725Y-115826972D01*
X108513590Y-115831228D01*
X108748786Y-115911971D01*
X108994065Y-115952900D01*
X109242735Y-115952900D01*
X109488014Y-115911971D01*
X109723210Y-115831228D01*
X109941909Y-115712874D01*
X110138144Y-115560138D01*
X110306564Y-115377185D01*
X110347707Y-115314211D01*
X110381113Y-115263079D01*
X110434259Y-115217722D01*
X110484922Y-115206900D01*
X120627641Y-115206900D01*
X120694680Y-115226585D01*
X120740435Y-115279389D01*
X120750379Y-115348547D01*
X120742202Y-115378353D01*
X120711895Y-115451519D01*
X120711894Y-115451522D01*
X120710028Y-115460898D01*
X120710029Y-115460899D01*
X120682899Y-115597285D01*
X120682899Y-115752025D01*
X120682900Y-115752046D01*
X120682900Y-117844123D01*
X120667140Y-117901734D01*
X120667630Y-117901946D01*
X120666142Y-117905383D01*
X120665635Y-117907239D01*
X120664533Y-117909101D01*
X120664529Y-117909111D01*
X120619735Y-118063291D01*
X120619734Y-118063297D01*
X120616900Y-118099311D01*
X120616900Y-118497669D01*
X120616901Y-118497691D01*
X120619735Y-118533705D01*
X120664529Y-118687888D01*
X120664532Y-118687895D01*
X120698528Y-118745381D01*
X120715709Y-118813105D01*
X120698528Y-118871619D01*
X120664532Y-118929104D01*
X120664529Y-118929111D01*
X120619735Y-119083291D01*
X120619734Y-119083297D01*
X120616900Y-119119311D01*
X120616900Y-119517669D01*
X120616901Y-119517691D01*
X120619735Y-119553705D01*
X120664529Y-119707888D01*
X120664531Y-119707893D01*
X120746263Y-119846095D01*
X120746269Y-119846103D01*
X120859796Y-119959630D01*
X120859800Y-119959633D01*
X120859802Y-119959635D01*
X120998007Y-120041369D01*
X121038668Y-120053182D01*
X121152191Y-120086164D01*
X121152194Y-120086164D01*
X121152196Y-120086165D01*
X121188219Y-120089000D01*
X121686580Y-120088999D01*
X121722604Y-120086165D01*
X121750970Y-120077924D01*
X121785565Y-120073000D01*
X123037655Y-120073000D01*
X123061330Y-120076370D01*
X123061495Y-120075471D01*
X123067723Y-120076608D01*
X123067725Y-120076609D01*
X123104460Y-120079500D01*
X123104468Y-120079500D01*
X123580332Y-120079500D01*
X123580340Y-120079500D01*
X123617075Y-120076609D01*
X123617077Y-120076608D01*
X123617079Y-120076608D01*
X123774292Y-120030933D01*
X123774293Y-120030932D01*
X123774297Y-120030931D01*
X123915220Y-119947590D01*
X124030990Y-119831820D01*
X124114331Y-119690897D01*
X124114332Y-119690893D01*
X124114333Y-119690892D01*
X124160008Y-119533679D01*
X124160009Y-119533673D01*
X124161268Y-119517680D01*
X124162900Y-119496940D01*
X124162900Y-119413396D01*
X129479035Y-119413396D01*
X129479035Y-119413403D01*
X129499230Y-119592649D01*
X129499231Y-119592654D01*
X129558811Y-119762923D01*
X129603535Y-119834100D01*
X129654784Y-119915662D01*
X129782338Y-120043216D01*
X129935078Y-120139189D01*
X130105345Y-120198768D01*
X130105350Y-120198769D01*
X130284597Y-120218965D01*
X130284600Y-120218965D01*
X130358593Y-120210627D01*
X130387350Y-120211841D01*
X130387433Y-120211002D01*
X130393491Y-120211598D01*
X130393497Y-120211600D01*
X134944196Y-120211600D01*
X135011235Y-120231285D01*
X135056990Y-120284089D01*
X135060378Y-120292268D01*
X135076101Y-120334426D01*
X135076103Y-120334430D01*
X135108967Y-120378330D01*
X135133384Y-120443794D01*
X135133700Y-120452641D01*
X135133700Y-121046804D01*
X135114015Y-121113843D01*
X135097381Y-121134485D01*
X135070069Y-121161796D01*
X135070063Y-121161804D01*
X134988331Y-121300006D01*
X134988329Y-121300011D01*
X134943535Y-121454191D01*
X134943534Y-121454197D01*
X134940700Y-121490211D01*
X134940700Y-121888569D01*
X134940701Y-121888591D01*
X134943535Y-121924605D01*
X134988329Y-122078788D01*
X134988332Y-122078795D01*
X135022328Y-122136281D01*
X135039509Y-122204005D01*
X135022328Y-122262519D01*
X134988332Y-122320004D01*
X134988329Y-122320011D01*
X134943535Y-122474191D01*
X134943534Y-122474197D01*
X134940700Y-122510211D01*
X134940700Y-122908569D01*
X134940701Y-122908591D01*
X134943535Y-122944605D01*
X134988329Y-123098788D01*
X134988331Y-123098793D01*
X135070063Y-123236995D01*
X135070069Y-123237003D01*
X135183596Y-123350530D01*
X135183600Y-123350533D01*
X135183602Y-123350535D01*
X135321807Y-123432269D01*
X135362468Y-123444082D01*
X135475991Y-123477064D01*
X135475994Y-123477064D01*
X135475996Y-123477065D01*
X135512019Y-123479900D01*
X136010380Y-123479899D01*
X136046404Y-123477065D01*
X136200593Y-123432269D01*
X136332655Y-123354168D01*
X136395776Y-123336900D01*
X137016130Y-123336900D01*
X137083169Y-123356585D01*
X137092131Y-123362921D01*
X137093381Y-123363891D01*
X137133473Y-123387601D01*
X137234303Y-123447231D01*
X137234304Y-123447231D01*
X137234307Y-123447233D01*
X137391520Y-123492908D01*
X137391523Y-123492908D01*
X137391525Y-123492909D01*
X137428260Y-123495800D01*
X137428268Y-123495800D01*
X137904132Y-123495800D01*
X137904140Y-123495800D01*
X137940875Y-123492909D01*
X137940877Y-123492908D01*
X137940879Y-123492908D01*
X138098092Y-123447233D01*
X138098093Y-123447232D01*
X138098097Y-123447231D01*
X138239020Y-123363890D01*
X138354790Y-123248120D01*
X138438131Y-123107197D01*
X138438132Y-123107193D01*
X138438133Y-123107192D01*
X138483808Y-122949979D01*
X138483809Y-122949973D01*
X138486700Y-122913240D01*
X138486700Y-122487360D01*
X138483809Y-122450625D01*
X138469309Y-122400716D01*
X138438133Y-122293407D01*
X138438131Y-122293404D01*
X138438131Y-122293403D01*
X138428979Y-122277928D01*
X138411797Y-122210206D01*
X138428981Y-122151686D01*
X138437670Y-122136993D01*
X138437671Y-122136992D01*
X138483194Y-121980301D01*
X138483193Y-121980300D01*
X138177557Y-121980300D01*
X138114436Y-121963032D01*
X138098095Y-121953368D01*
X138098092Y-121953366D01*
X137940879Y-121907691D01*
X137940873Y-121907690D01*
X137904147Y-121904800D01*
X137904140Y-121904800D01*
X137428260Y-121904800D01*
X137428252Y-121904800D01*
X137391526Y-121907690D01*
X137391520Y-121907691D01*
X137234307Y-121953366D01*
X137234304Y-121953368D01*
X137217964Y-121963032D01*
X137154843Y-121980300D01*
X136849207Y-121980300D01*
X136812004Y-122029849D01*
X136809801Y-122028195D01*
X136794524Y-122051829D01*
X136730891Y-122080684D01*
X136713571Y-122081900D01*
X136698319Y-122081900D01*
X136631280Y-122062215D01*
X136585525Y-122009411D01*
X136575581Y-121940253D01*
X136578337Y-121927492D01*
X136578864Y-121924607D01*
X136578865Y-121924604D01*
X136581700Y-121888581D01*
X136581699Y-121490220D01*
X136580918Y-121480298D01*
X136849205Y-121480298D01*
X136849207Y-121480300D01*
X137416200Y-121480300D01*
X137916200Y-121480300D01*
X138483193Y-121480300D01*
X138483194Y-121480298D01*
X138437671Y-121323607D01*
X138437669Y-121323604D01*
X138416366Y-121287583D01*
X142140500Y-121287583D01*
X142140500Y-123387601D01*
X142140501Y-123387618D01*
X142151000Y-123490396D01*
X142151001Y-123490399D01*
X142164447Y-123530975D01*
X142206186Y-123656934D01*
X142298288Y-123806256D01*
X142422344Y-123930312D01*
X142571666Y-124022414D01*
X142738203Y-124077599D01*
X142840991Y-124088100D01*
X144941008Y-124088099D01*
X145043797Y-124077599D01*
X145210334Y-124022414D01*
X145359656Y-123930312D01*
X145483712Y-123806256D01*
X145575814Y-123656934D01*
X145630999Y-123490397D01*
X145641500Y-123387609D01*
X145641499Y-121287592D01*
X145630999Y-121184803D01*
X145575814Y-121018266D01*
X145483712Y-120868944D01*
X145359656Y-120744888D01*
X145210334Y-120652786D01*
X145043797Y-120597601D01*
X145043795Y-120597600D01*
X144941010Y-120587100D01*
X142840998Y-120587100D01*
X142840981Y-120587101D01*
X142738203Y-120597600D01*
X142738200Y-120597601D01*
X142571668Y-120652785D01*
X142571663Y-120652787D01*
X142422342Y-120744889D01*
X142298289Y-120868942D01*
X142206187Y-121018263D01*
X142206185Y-121018268D01*
X142196729Y-121046804D01*
X142151001Y-121184803D01*
X142151001Y-121184804D01*
X142151000Y-121184804D01*
X142140500Y-121287583D01*
X138416366Y-121287583D01*
X138354393Y-121182791D01*
X138354387Y-121182783D01*
X138238716Y-121067112D01*
X138238708Y-121067106D01*
X138097897Y-120983831D01*
X138097892Y-120983829D01*
X137940803Y-120938190D01*
X137940791Y-120938188D01*
X137916200Y-120936252D01*
X137916200Y-121480300D01*
X137416200Y-121480300D01*
X137416200Y-120936254D01*
X137391602Y-120938189D01*
X137234507Y-120983829D01*
X137234502Y-120983831D01*
X137093691Y-121067106D01*
X137093683Y-121067112D01*
X136978012Y-121182783D01*
X136978006Y-121182791D01*
X136894730Y-121323604D01*
X136894728Y-121323607D01*
X136849205Y-121480298D01*
X136580918Y-121480298D01*
X136578865Y-121454196D01*
X136534069Y-121300007D01*
X136452335Y-121161802D01*
X136452333Y-121161800D01*
X136452330Y-121161796D01*
X136425019Y-121134485D01*
X136391534Y-121073162D01*
X136388700Y-121046804D01*
X136388700Y-120486571D01*
X136408385Y-120419532D01*
X136413433Y-120412260D01*
X136438833Y-120378330D01*
X136471696Y-120334431D01*
X136521991Y-120199583D01*
X136528400Y-120139973D01*
X136528400Y-120139944D01*
X136924900Y-120139944D01*
X136931301Y-120199472D01*
X136931303Y-120199479D01*
X136981545Y-120334186D01*
X136981549Y-120334193D01*
X137067709Y-120449287D01*
X137067712Y-120449290D01*
X137182806Y-120535450D01*
X137182813Y-120535454D01*
X137317520Y-120585696D01*
X137317527Y-120585698D01*
X137377055Y-120592099D01*
X137377072Y-120592100D01*
X137428900Y-120592100D01*
X137928900Y-120592100D01*
X137980728Y-120592100D01*
X137980744Y-120592099D01*
X138040272Y-120585698D01*
X138040279Y-120585696D01*
X138174986Y-120535454D01*
X138174993Y-120535450D01*
X138290087Y-120449290D01*
X138290090Y-120449287D01*
X138376250Y-120334193D01*
X138376254Y-120334186D01*
X138426496Y-120199479D01*
X138426498Y-120199472D01*
X138432899Y-120139944D01*
X138432900Y-120139927D01*
X138432900Y-119834100D01*
X137928900Y-119834100D01*
X137928900Y-120592100D01*
X137428900Y-120592100D01*
X137428900Y-119834100D01*
X136924900Y-119834100D01*
X136924900Y-120139944D01*
X136528400Y-120139944D01*
X136528399Y-119028228D01*
X136521991Y-118968617D01*
X136507256Y-118929111D01*
X136470116Y-118829532D01*
X136465132Y-118759840D01*
X136498617Y-118698517D01*
X136559941Y-118665033D01*
X136586291Y-118662199D01*
X136867035Y-118662199D01*
X136934074Y-118681884D01*
X136979829Y-118734688D01*
X136989773Y-118803846D01*
X136983217Y-118829532D01*
X136931303Y-118968720D01*
X136931301Y-118968727D01*
X136924900Y-119028255D01*
X136924900Y-119334100D01*
X137428900Y-119334100D01*
X137928900Y-119334100D01*
X138432900Y-119334100D01*
X138432900Y-119028272D01*
X138432899Y-119028255D01*
X138426498Y-118968727D01*
X138426496Y-118968720D01*
X138376254Y-118834013D01*
X138376250Y-118834006D01*
X138290090Y-118718912D01*
X138290087Y-118718909D01*
X138174993Y-118632749D01*
X138174986Y-118632745D01*
X138040279Y-118582503D01*
X138040272Y-118582501D01*
X137980744Y-118576100D01*
X137928900Y-118576100D01*
X137928900Y-119334100D01*
X137428900Y-119334100D01*
X137428900Y-118576100D01*
X137428521Y-118575721D01*
X137395036Y-118514398D01*
X137400020Y-118444706D01*
X137416935Y-118413730D01*
X137424196Y-118404031D01*
X137474491Y-118269183D01*
X137480900Y-118209573D01*
X137480900Y-117657365D01*
X137480900Y-116337593D01*
X140485700Y-116337593D01*
X140485700Y-116337606D01*
X140504864Y-116568897D01*
X140504866Y-116568908D01*
X140561842Y-116793900D01*
X140655075Y-117006448D01*
X140782016Y-117200747D01*
X140782019Y-117200751D01*
X140782021Y-117200753D01*
X140939216Y-117371513D01*
X140939219Y-117371515D01*
X140939222Y-117371518D01*
X141122365Y-117514064D01*
X141122371Y-117514068D01*
X141122374Y-117514070D01*
X141326497Y-117624536D01*
X141422125Y-117657365D01*
X141546015Y-117699897D01*
X141546017Y-117699897D01*
X141546019Y-117699898D01*
X141774951Y-117738100D01*
X141774952Y-117738100D01*
X142007048Y-117738100D01*
X142007049Y-117738100D01*
X142235981Y-117699898D01*
X142455503Y-117624536D01*
X142659626Y-117514070D01*
X142662646Y-117511720D01*
X142806627Y-117399655D01*
X142842784Y-117371513D01*
X142999979Y-117200753D01*
X143126924Y-117006449D01*
X143220157Y-116793900D01*
X143277134Y-116568905D01*
X143277135Y-116568897D01*
X143296300Y-116337606D01*
X143296300Y-116337593D01*
X143277135Y-116106308D01*
X143277134Y-116106295D01*
X143276691Y-116104546D01*
X143276718Y-116103811D01*
X143276290Y-116101243D01*
X143276818Y-116101154D01*
X143279306Y-116034729D01*
X143309209Y-115986414D01*
X153363563Y-105932060D01*
X153363566Y-105932059D01*
X153468659Y-105826966D01*
X153551229Y-105703390D01*
X153551230Y-105703389D01*
X153584546Y-105622955D01*
X153608105Y-105566080D01*
X153612915Y-105541894D01*
X153625864Y-105476798D01*
X153637101Y-105420313D01*
X153637101Y-105266578D01*
X153637100Y-105266552D01*
X153637100Y-103087495D01*
X154256332Y-103087495D01*
X154256332Y-103087504D01*
X154275377Y-103341654D01*
X154312324Y-103503531D01*
X154332092Y-103590137D01*
X154425207Y-103827388D01*
X154552641Y-104048112D01*
X154711550Y-104247377D01*
X154898383Y-104420732D01*
X155108966Y-104564305D01*
X155108971Y-104564307D01*
X155108972Y-104564308D01*
X155108973Y-104564309D01*
X155230928Y-104623038D01*
X155338592Y-104674887D01*
X155338593Y-104674887D01*
X155338596Y-104674889D01*
X155582142Y-104750013D01*
X155834165Y-104788000D01*
X156089035Y-104788000D01*
X156341058Y-104750013D01*
X156434764Y-104721107D01*
X156504625Y-104720158D01*
X156558993Y-104751918D01*
X157755981Y-105948905D01*
X157789466Y-106010228D01*
X157792300Y-106036586D01*
X157792300Y-109420564D01*
X157772615Y-109487603D01*
X157719811Y-109533358D01*
X157650653Y-109543302D01*
X157587097Y-109514277D01*
X157560913Y-109482564D01*
X157525117Y-109420564D01*
X157499959Y-109376988D01*
X157341050Y-109177723D01*
X157154217Y-109004368D01*
X156943634Y-108860795D01*
X156943630Y-108860793D01*
X156943627Y-108860791D01*
X156943626Y-108860790D01*
X156714006Y-108750212D01*
X156714008Y-108750212D01*
X156470466Y-108675089D01*
X156470462Y-108675088D01*
X156470458Y-108675087D01*
X156349231Y-108656814D01*
X156218440Y-108637100D01*
X156218435Y-108637100D01*
X155963565Y-108637100D01*
X155963559Y-108637100D01*
X155806609Y-108660757D01*
X155711542Y-108675087D01*
X155711539Y-108675088D01*
X155711533Y-108675089D01*
X155467992Y-108750212D01*
X155238373Y-108860790D01*
X155238372Y-108860791D01*
X155027782Y-109004368D01*
X154840952Y-109177721D01*
X154840950Y-109177723D01*
X154682041Y-109376988D01*
X154554608Y-109597709D01*
X154461492Y-109834962D01*
X154461490Y-109834969D01*
X154404777Y-110083445D01*
X154385732Y-110337595D01*
X154385732Y-110337604D01*
X154404777Y-110591754D01*
X154431261Y-110707789D01*
X154461492Y-110840237D01*
X154554607Y-111077488D01*
X154682041Y-111298212D01*
X154840950Y-111497477D01*
X155027783Y-111670832D01*
X155238366Y-111814405D01*
X155238371Y-111814407D01*
X155238372Y-111814408D01*
X155238373Y-111814409D01*
X155360328Y-111873138D01*
X155467992Y-111924987D01*
X155467993Y-111924987D01*
X155467996Y-111924989D01*
X155711542Y-112000113D01*
X155963565Y-112038100D01*
X156218435Y-112038100D01*
X156470458Y-112000113D01*
X156714004Y-111924989D01*
X156943634Y-111814405D01*
X157154217Y-111670832D01*
X157341050Y-111497477D01*
X157499959Y-111298212D01*
X157560913Y-111192636D01*
X157611479Y-111144420D01*
X157680086Y-111131196D01*
X157744951Y-111157164D01*
X157785480Y-111214078D01*
X157792300Y-111254635D01*
X157792300Y-121420564D01*
X157772615Y-121487603D01*
X157719811Y-121533358D01*
X157650653Y-121543302D01*
X157587097Y-121514277D01*
X157560913Y-121482564D01*
X157544535Y-121454196D01*
X157499959Y-121376988D01*
X157341050Y-121177723D01*
X157154217Y-121004368D01*
X156943634Y-120860795D01*
X156943630Y-120860793D01*
X156943627Y-120860791D01*
X156943626Y-120860790D01*
X156714006Y-120750212D01*
X156714008Y-120750212D01*
X156470466Y-120675089D01*
X156470462Y-120675088D01*
X156470458Y-120675087D01*
X156349231Y-120656814D01*
X156218440Y-120637100D01*
X156218435Y-120637100D01*
X155963565Y-120637100D01*
X155963559Y-120637100D01*
X155806609Y-120660757D01*
X155711542Y-120675087D01*
X155711539Y-120675088D01*
X155711533Y-120675089D01*
X155467992Y-120750212D01*
X155238373Y-120860790D01*
X155238372Y-120860791D01*
X155027782Y-121004368D01*
X154840952Y-121177721D01*
X154840950Y-121177723D01*
X154682041Y-121376988D01*
X154554608Y-121597709D01*
X154461492Y-121834962D01*
X154461490Y-121834969D01*
X154404777Y-122083445D01*
X154385732Y-122337595D01*
X154385732Y-122337604D01*
X154404777Y-122591754D01*
X154456545Y-122818566D01*
X154461492Y-122840237D01*
X154554607Y-123077488D01*
X154682041Y-123298212D01*
X154840950Y-123497477D01*
X155027783Y-123670832D01*
X155238366Y-123814405D01*
X155238371Y-123814407D01*
X155238372Y-123814408D01*
X155238373Y-123814409D01*
X155360328Y-123873138D01*
X155467992Y-123924987D01*
X155467993Y-123924987D01*
X155467996Y-123924989D01*
X155711542Y-124000113D01*
X155963565Y-124038100D01*
X156218435Y-124038100D01*
X156470458Y-124000113D01*
X156714004Y-123924989D01*
X156943634Y-123814405D01*
X157154217Y-123670832D01*
X157341050Y-123497477D01*
X157499959Y-123298212D01*
X157583162Y-123154098D01*
X157633727Y-123105885D01*
X157690548Y-123092100D01*
X158455154Y-123092100D01*
X158455174Y-123092101D01*
X158461288Y-123092101D01*
X158609914Y-123092101D01*
X158731494Y-123067915D01*
X158731494Y-123067916D01*
X158731500Y-123067913D01*
X158755680Y-123063105D01*
X158791542Y-123048249D01*
X158812544Y-123039551D01*
X158812547Y-123039549D01*
X158812555Y-123039546D01*
X158892989Y-123006230D01*
X159016566Y-122923659D01*
X159056890Y-122883335D01*
X159121659Y-122818566D01*
X159132859Y-122807366D01*
X159215429Y-122683790D01*
X159272305Y-122546480D01*
X159301300Y-122400712D01*
X159301300Y-105753146D01*
X159301301Y-105753125D01*
X159301301Y-105598385D01*
X159277115Y-105476805D01*
X159277114Y-105476798D01*
X159272307Y-105452628D01*
X159272306Y-105452625D01*
X159272305Y-105452624D01*
X159272305Y-105452620D01*
X159242137Y-105379789D01*
X159215430Y-105315311D01*
X159172938Y-105251717D01*
X159132859Y-105191734D01*
X159132857Y-105191731D01*
X159023447Y-105082321D01*
X159023424Y-105082300D01*
X157628447Y-103687322D01*
X157594962Y-103625999D01*
X157595237Y-103572048D01*
X157621255Y-103458053D01*
X157647822Y-103341657D01*
X157666868Y-103087500D01*
X157647822Y-102833343D01*
X157591108Y-102584863D01*
X157497993Y-102347612D01*
X157370559Y-102126888D01*
X157211650Y-101927623D01*
X157024817Y-101754268D01*
X156814234Y-101610695D01*
X156814230Y-101610693D01*
X156814227Y-101610691D01*
X156814226Y-101610690D01*
X156584606Y-101500112D01*
X156584608Y-101500112D01*
X156341066Y-101424989D01*
X156341062Y-101424988D01*
X156341058Y-101424987D01*
X156219831Y-101406714D01*
X156089040Y-101387000D01*
X156089035Y-101387000D01*
X155834165Y-101387000D01*
X155834159Y-101387000D01*
X155680259Y-101410198D01*
X155582142Y-101424987D01*
X155582139Y-101424988D01*
X155582133Y-101424989D01*
X155338592Y-101500112D01*
X155108973Y-101610690D01*
X155108972Y-101610691D01*
X154898382Y-101754268D01*
X154711552Y-101927621D01*
X154711550Y-101927623D01*
X154552641Y-102126888D01*
X154425208Y-102347609D01*
X154332092Y-102584862D01*
X154332090Y-102584869D01*
X154275377Y-102833345D01*
X154256332Y-103087495D01*
X153637100Y-103087495D01*
X153637100Y-91087495D01*
X154256332Y-91087495D01*
X154256332Y-91087504D01*
X154275377Y-91341654D01*
X154323431Y-91552193D01*
X154332092Y-91590137D01*
X154378588Y-91708607D01*
X154425208Y-91827390D01*
X154428101Y-91832400D01*
X154552641Y-92048112D01*
X154711550Y-92247377D01*
X154898383Y-92420732D01*
X155108966Y-92564305D01*
X155108971Y-92564307D01*
X155108972Y-92564308D01*
X155108973Y-92564309D01*
X155230928Y-92623038D01*
X155338592Y-92674887D01*
X155338593Y-92674887D01*
X155338596Y-92674889D01*
X155582142Y-92750013D01*
X155834165Y-92788000D01*
X156089035Y-92788000D01*
X156341058Y-92750013D01*
X156584604Y-92674889D01*
X156814234Y-92564305D01*
X157024817Y-92420732D01*
X157211650Y-92247377D01*
X157370559Y-92048112D01*
X157497993Y-91827388D01*
X157591108Y-91590137D01*
X157647822Y-91341657D01*
X157666868Y-91087500D01*
X157665782Y-91073011D01*
X157647822Y-90833345D01*
X157627413Y-90743928D01*
X157591108Y-90584863D01*
X157497993Y-90347612D01*
X157370559Y-90126888D01*
X157211650Y-89927623D01*
X157024817Y-89754268D01*
X156814234Y-89610695D01*
X156814230Y-89610693D01*
X156814227Y-89610691D01*
X156814226Y-89610690D01*
X156584606Y-89500112D01*
X156584608Y-89500112D01*
X156341066Y-89424989D01*
X156341062Y-89424988D01*
X156341058Y-89424987D01*
X156219831Y-89406714D01*
X156089040Y-89387000D01*
X156089035Y-89387000D01*
X155834165Y-89387000D01*
X155834159Y-89387000D01*
X155677209Y-89410657D01*
X155582142Y-89424987D01*
X155582139Y-89424988D01*
X155582133Y-89424989D01*
X155338592Y-89500112D01*
X155108973Y-89610690D01*
X155108972Y-89610691D01*
X154898382Y-89754268D01*
X154711552Y-89927621D01*
X154711550Y-89927623D01*
X154552641Y-90126888D01*
X154425208Y-90347609D01*
X154332092Y-90584862D01*
X154332090Y-90584869D01*
X154275377Y-90833345D01*
X154256332Y-91087495D01*
X153637100Y-91087495D01*
X153637100Y-89898885D01*
X153656785Y-89831846D01*
X153673414Y-89811209D01*
X157148163Y-86336460D01*
X157148166Y-86336459D01*
X157253259Y-86231366D01*
X157298883Y-86163084D01*
X157319788Y-86131798D01*
X157328195Y-86119215D01*
X157335830Y-86107789D01*
X157371529Y-86021604D01*
X157376101Y-86010566D01*
X157376101Y-86010565D01*
X157382814Y-85994358D01*
X157392705Y-85970480D01*
X157399594Y-85935845D01*
X157421701Y-85824712D01*
X157421701Y-85676088D01*
X157421701Y-85670978D01*
X157421700Y-85670952D01*
X157421700Y-82280000D01*
X157441385Y-82212961D01*
X157494189Y-82167206D01*
X157498413Y-82165456D01*
X157500352Y-82164570D01*
X157500361Y-82164567D01*
X157751515Y-82027426D01*
X157980595Y-81855939D01*
X158182939Y-81653595D01*
X158354426Y-81424515D01*
X158491567Y-81173361D01*
X158591569Y-80905246D01*
X158591571Y-80905237D01*
X158652395Y-80625633D01*
X158652395Y-80625632D01*
X158652396Y-80625628D01*
X158672810Y-80340200D01*
X158652396Y-80054772D01*
X158646549Y-80027895D01*
X158591571Y-79775162D01*
X158591570Y-79775160D01*
X158591569Y-79775154D01*
X158491567Y-79507039D01*
X158459919Y-79449081D01*
X158354429Y-79255890D01*
X158354424Y-79255882D01*
X158182945Y-79026812D01*
X158182929Y-79026794D01*
X157980605Y-78824470D01*
X157980587Y-78824454D01*
X157751517Y-78652975D01*
X157751509Y-78652970D01*
X157500366Y-78515835D01*
X157500367Y-78515835D01*
X157390114Y-78474713D01*
X157232246Y-78415831D01*
X157232243Y-78415830D01*
X157232237Y-78415828D01*
X156952633Y-78355004D01*
X156667201Y-78334590D01*
X156667199Y-78334590D01*
X156381766Y-78355004D01*
X156102162Y-78415828D01*
X155834033Y-78515835D01*
X155582890Y-78652970D01*
X155582882Y-78652975D01*
X155353812Y-78824454D01*
X155353794Y-78824470D01*
X155151470Y-79026794D01*
X155151454Y-79026812D01*
X154979975Y-79255882D01*
X154979970Y-79255890D01*
X154842835Y-79507033D01*
X154742828Y-79775162D01*
X154682004Y-80054766D01*
X154661590Y-80340198D01*
X154661590Y-80340201D01*
X154682004Y-80625633D01*
X154742828Y-80905237D01*
X154742830Y-80905243D01*
X154742831Y-80905246D01*
X154824228Y-81123480D01*
X154842835Y-81173366D01*
X154979970Y-81424509D01*
X154979975Y-81424517D01*
X155151454Y-81653587D01*
X155151470Y-81653605D01*
X155353794Y-81855929D01*
X155353812Y-81855945D01*
X155582882Y-82027424D01*
X155582890Y-82027429D01*
X155834033Y-82164564D01*
X155834036Y-82164565D01*
X155834039Y-82164567D01*
X155834042Y-82164568D01*
X155838062Y-82166404D01*
X155837403Y-82167846D01*
X155887947Y-82205662D01*
X155912382Y-82271120D01*
X155912700Y-82280000D01*
X155912700Y-85386512D01*
X155893015Y-85453551D01*
X155876381Y-85474193D01*
X152296543Y-89054030D01*
X152296537Y-89054038D01*
X152213973Y-89177604D01*
X152213968Y-89177614D01*
X152211058Y-89184640D01*
X152158635Y-89311203D01*
X152158634Y-89311206D01*
X152157098Y-89314912D01*
X152157094Y-89314926D01*
X152128099Y-89460686D01*
X152128099Y-89615425D01*
X152128100Y-89615446D01*
X152128100Y-104982112D01*
X152108415Y-105049151D01*
X152091781Y-105069793D01*
X142238514Y-114923059D01*
X142177191Y-114956544D01*
X142130424Y-114957687D01*
X142007049Y-114937100D01*
X141774951Y-114937100D01*
X141729164Y-114944740D01*
X141546015Y-114975302D01*
X141326504Y-115050661D01*
X141326495Y-115050664D01*
X141122371Y-115161131D01*
X141122365Y-115161135D01*
X140939222Y-115303681D01*
X140939219Y-115303684D01*
X140782016Y-115474452D01*
X140655075Y-115668751D01*
X140561842Y-115881299D01*
X140504866Y-116106291D01*
X140504864Y-116106302D01*
X140485700Y-116337593D01*
X137480900Y-116337593D01*
X137480900Y-115935686D01*
X137500585Y-115868647D01*
X137517219Y-115848005D01*
X139864622Y-113500602D01*
X142215863Y-111149360D01*
X142277184Y-111115877D01*
X142346876Y-111120861D01*
X142402809Y-111162733D01*
X142410929Y-111175043D01*
X142452949Y-111247823D01*
X142482041Y-111298212D01*
X142640950Y-111497477D01*
X142827783Y-111670832D01*
X143038366Y-111814405D01*
X143038371Y-111814407D01*
X143038372Y-111814408D01*
X143038373Y-111814409D01*
X143160328Y-111873138D01*
X143267992Y-111924987D01*
X143267993Y-111924987D01*
X143267996Y-111924989D01*
X143511542Y-112000113D01*
X143763565Y-112038100D01*
X144018435Y-112038100D01*
X144270458Y-112000113D01*
X144514004Y-111924989D01*
X144743634Y-111814405D01*
X144954217Y-111670832D01*
X145141050Y-111497477D01*
X145299959Y-111298212D01*
X145427393Y-111077488D01*
X145520508Y-110840237D01*
X145577222Y-110591757D01*
X145596268Y-110337600D01*
X145577222Y-110083443D01*
X145520508Y-109834963D01*
X145427393Y-109597712D01*
X145299959Y-109376988D01*
X145141050Y-109177723D01*
X144954217Y-109004368D01*
X144743634Y-108860795D01*
X144743630Y-108860793D01*
X144743627Y-108860791D01*
X144743626Y-108860790D01*
X144514006Y-108750212D01*
X144514008Y-108750212D01*
X144270466Y-108675089D01*
X144270462Y-108675088D01*
X144270458Y-108675087D01*
X144149231Y-108656814D01*
X144018440Y-108637100D01*
X144018435Y-108637100D01*
X143763565Y-108637100D01*
X143763559Y-108637100D01*
X143606609Y-108660757D01*
X143511542Y-108675087D01*
X143511539Y-108675088D01*
X143511533Y-108675089D01*
X143267992Y-108750212D01*
X143038373Y-108860790D01*
X143038372Y-108860791D01*
X142827782Y-109004368D01*
X142642338Y-109176435D01*
X142640950Y-109177723D01*
X142482041Y-109376988D01*
X142398837Y-109521101D01*
X142348273Y-109569315D01*
X142291452Y-109583100D01*
X142041046Y-109583100D01*
X142041026Y-109583099D01*
X142034912Y-109583099D01*
X141886288Y-109583099D01*
X141886286Y-109583099D01*
X141812825Y-109597712D01*
X141764705Y-109607284D01*
X141750140Y-109610181D01*
X141740518Y-109612095D01*
X141740517Y-109612095D01*
X141683645Y-109635653D01*
X141603212Y-109668968D01*
X141584337Y-109681580D01*
X141579569Y-109684767D01*
X141519661Y-109724795D01*
X141479633Y-109751541D01*
X141427087Y-109804087D01*
X141374541Y-109856634D01*
X141374539Y-109856636D01*
X136140343Y-115090830D01*
X136140342Y-115090831D01*
X136057772Y-115214407D01*
X136057766Y-115214418D01*
X136000896Y-115351716D01*
X136000893Y-115351726D01*
X135971899Y-115497485D01*
X135971899Y-115652225D01*
X135971900Y-115652246D01*
X135971900Y-118209570D01*
X135971901Y-118209576D01*
X135978308Y-118269183D01*
X136030183Y-118408267D01*
X136035167Y-118477959D01*
X136001681Y-118539282D01*
X135940358Y-118572766D01*
X135914001Y-118575600D01*
X135472029Y-118575600D01*
X135472023Y-118575601D01*
X135412416Y-118582008D01*
X135277571Y-118632302D01*
X135277564Y-118632306D01*
X135162355Y-118718552D01*
X135162352Y-118718555D01*
X135076106Y-118833764D01*
X135076101Y-118833773D01*
X135060378Y-118875932D01*
X135018508Y-118931866D01*
X134953044Y-118956284D01*
X134944196Y-118956600D01*
X131010386Y-118956600D01*
X130943347Y-118936915D01*
X130919771Y-118915630D01*
X130919340Y-118916062D01*
X130786862Y-118783584D01*
X130634123Y-118687611D01*
X130463854Y-118628031D01*
X130463849Y-118628030D01*
X130284604Y-118607835D01*
X130284596Y-118607835D01*
X130105350Y-118628030D01*
X130105345Y-118628031D01*
X129935076Y-118687611D01*
X129782337Y-118783584D01*
X129654784Y-118911137D01*
X129558811Y-119063876D01*
X129499231Y-119234145D01*
X129499230Y-119234150D01*
X129479035Y-119413396D01*
X124162900Y-119413396D01*
X124162900Y-119071060D01*
X124160009Y-119034325D01*
X124160008Y-119034320D01*
X124114333Y-118877107D01*
X124114331Y-118877104D01*
X124114331Y-118877103D01*
X124105179Y-118861628D01*
X124087997Y-118793906D01*
X124105181Y-118735386D01*
X124113870Y-118720693D01*
X124113871Y-118720692D01*
X124159394Y-118564001D01*
X124159393Y-118564000D01*
X123853757Y-118564000D01*
X123790636Y-118546732D01*
X123774295Y-118537068D01*
X123774292Y-118537066D01*
X123617079Y-118491391D01*
X123617073Y-118491390D01*
X123580347Y-118488500D01*
X123580340Y-118488500D01*
X123104460Y-118488500D01*
X123104452Y-118488500D01*
X123067726Y-118491390D01*
X123067720Y-118491391D01*
X122910507Y-118537066D01*
X122910504Y-118537068D01*
X122894164Y-118546732D01*
X122831043Y-118564000D01*
X122381900Y-118564000D01*
X122314861Y-118544315D01*
X122269106Y-118491511D01*
X122257900Y-118440000D01*
X122257899Y-118099330D01*
X122257898Y-118099308D01*
X122257548Y-118094854D01*
X122255120Y-118063998D01*
X122525405Y-118063998D01*
X122525407Y-118064000D01*
X123092400Y-118064000D01*
X123092400Y-117511720D01*
X123592400Y-117511720D01*
X123592400Y-118064000D01*
X124159393Y-118064000D01*
X124159394Y-118063998D01*
X124113871Y-117907307D01*
X124113869Y-117907304D01*
X124030593Y-117766491D01*
X124030587Y-117766483D01*
X123914916Y-117650812D01*
X123914908Y-117650806D01*
X123785409Y-117574221D01*
X123737726Y-117523152D01*
X123725222Y-117454410D01*
X123751867Y-117389821D01*
X123805198Y-117351307D01*
X123851184Y-117334155D01*
X123851193Y-117334150D01*
X123966287Y-117247990D01*
X123966290Y-117247987D01*
X124052450Y-117132893D01*
X124052454Y-117132886D01*
X124102696Y-116998179D01*
X124102698Y-116998172D01*
X124109099Y-116938644D01*
X124109100Y-116938627D01*
X124109100Y-116632800D01*
X123605100Y-116632800D01*
X123605100Y-117414935D01*
X123609554Y-117423092D01*
X123604570Y-117492784D01*
X123592400Y-117511720D01*
X123092400Y-117511720D01*
X123092400Y-117495101D01*
X123089785Y-117490730D01*
X123092031Y-117420896D01*
X123105100Y-117399655D01*
X123105100Y-116632800D01*
X122601100Y-116632800D01*
X122601100Y-116938644D01*
X122607501Y-116998172D01*
X122607503Y-116998179D01*
X122657745Y-117132886D01*
X122657749Y-117132893D01*
X122743909Y-117247987D01*
X122743912Y-117247990D01*
X122859006Y-117334150D01*
X122859015Y-117334155D01*
X122889425Y-117345497D01*
X122945359Y-117387367D01*
X122969777Y-117452831D01*
X122954926Y-117521104D01*
X122909214Y-117568411D01*
X122769892Y-117650805D01*
X122769883Y-117650812D01*
X122654212Y-117766483D01*
X122654206Y-117766491D01*
X122570930Y-117907304D01*
X122570928Y-117907307D01*
X122525405Y-118063998D01*
X122255120Y-118063998D01*
X122255065Y-118063296D01*
X122227799Y-117969447D01*
X122209524Y-117906541D01*
X122204600Y-117871946D01*
X122204600Y-116298499D01*
X122204599Y-116298485D01*
X122204599Y-116292900D01*
X122224284Y-116225861D01*
X122277088Y-116180106D01*
X122328599Y-116168900D01*
X123030154Y-116168900D01*
X123030174Y-116168901D01*
X123036288Y-116168901D01*
X123184914Y-116168901D01*
X123306494Y-116144715D01*
X123306494Y-116144716D01*
X123306500Y-116144713D01*
X123330680Y-116139905D01*
X123330683Y-116139903D01*
X123336504Y-116138139D01*
X123372497Y-116132800D01*
X124109100Y-116132800D01*
X124109100Y-115826972D01*
X124109099Y-115826955D01*
X124102698Y-115767427D01*
X124102696Y-115767420D01*
X124054999Y-115639536D01*
X124050015Y-115569844D01*
X124083496Y-115508527D01*
X126972963Y-112619060D01*
X126972966Y-112619059D01*
X127078059Y-112513966D01*
X127160629Y-112390390D01*
X127160630Y-112390389D01*
X127160633Y-112390385D01*
X127217503Y-112253083D01*
X127217505Y-112253079D01*
X127246501Y-112107312D01*
X127246501Y-111958688D01*
X127246501Y-111953578D01*
X127246500Y-111953552D01*
X127246500Y-110716139D01*
X127266185Y-110649100D01*
X127318989Y-110603345D01*
X127388147Y-110593401D01*
X127436473Y-110611146D01*
X127437535Y-110611813D01*
X127437538Y-110611816D01*
X127496875Y-110649100D01*
X127590275Y-110707788D01*
X127760545Y-110767368D01*
X127760550Y-110767369D01*
X127939796Y-110787565D01*
X127939800Y-110787565D01*
X127939804Y-110787565D01*
X128119049Y-110767369D01*
X128119052Y-110767368D01*
X128119055Y-110767368D01*
X128289322Y-110707789D01*
X128415500Y-110628505D01*
X128481472Y-110609500D01*
X132370404Y-110609500D01*
X132370405Y-110609499D01*
X132491635Y-110585386D01*
X132572384Y-110551937D01*
X132605833Y-110538083D01*
X132708608Y-110469411D01*
X132796011Y-110382008D01*
X136843484Y-106334535D01*
X136904807Y-106301050D01*
X136974499Y-106306034D01*
X137005476Y-106322949D01*
X137056773Y-106361350D01*
X137057368Y-106361795D01*
X137057371Y-106361797D01*
X137192217Y-106412091D01*
X137192216Y-106412091D01*
X137199144Y-106412835D01*
X137251827Y-106418500D01*
X139011272Y-106418499D01*
X139070883Y-106412091D01*
X139205731Y-106361796D01*
X139320946Y-106275546D01*
X139407196Y-106160331D01*
X139457491Y-106025483D01*
X139463900Y-105965873D01*
X139463899Y-105311328D01*
X139457491Y-105251717D01*
X139453681Y-105241503D01*
X139407197Y-105116872D01*
X139407196Y-105116869D01*
X139378029Y-105077907D01*
X139353613Y-105012448D01*
X139368464Y-104944175D01*
X139378021Y-104929302D01*
X139407196Y-104890331D01*
X139457491Y-104755483D01*
X139463900Y-104695873D01*
X139463899Y-104041328D01*
X139457491Y-103981717D01*
X139441917Y-103939962D01*
X139407197Y-103846872D01*
X139407196Y-103846869D01*
X139378029Y-103807907D01*
X139353613Y-103742448D01*
X139368464Y-103674175D01*
X139378021Y-103659302D01*
X139407196Y-103620331D01*
X139457491Y-103485483D01*
X139463900Y-103425873D01*
X139463899Y-102771328D01*
X139457491Y-102711717D01*
X139441917Y-102669962D01*
X139410180Y-102584869D01*
X139407196Y-102576869D01*
X139378029Y-102537907D01*
X139353613Y-102472448D01*
X139368464Y-102404175D01*
X139378021Y-102389302D01*
X139407196Y-102350331D01*
X139457491Y-102215483D01*
X139463900Y-102155873D01*
X139463899Y-101665699D01*
X139483583Y-101598661D01*
X139536387Y-101552906D01*
X139587899Y-101541700D01*
X140320604Y-101541700D01*
X140320605Y-101541699D01*
X140441835Y-101517586D01*
X140549000Y-101473196D01*
X140556033Y-101470283D01*
X140598785Y-101441717D01*
X140645958Y-101410198D01*
X140712635Y-101389320D01*
X140714848Y-101389300D01*
X142099070Y-101389300D01*
X142166109Y-101408985D01*
X142211864Y-101461789D01*
X142221808Y-101530947D01*
X142192783Y-101594503D01*
X142186751Y-101600981D01*
X142168889Y-101618842D01*
X142076787Y-101768163D01*
X142076786Y-101768166D01*
X142021601Y-101934703D01*
X142021601Y-101934704D01*
X142021600Y-101934704D01*
X142011100Y-102037483D01*
X142011100Y-104137501D01*
X142011101Y-104137518D01*
X142021600Y-104240296D01*
X142021601Y-104240299D01*
X142023947Y-104247378D01*
X142076786Y-104406834D01*
X142168888Y-104556156D01*
X142292944Y-104680212D01*
X142442266Y-104772314D01*
X142608803Y-104827499D01*
X142711591Y-104838000D01*
X144811608Y-104837999D01*
X144914397Y-104827499D01*
X145080934Y-104772314D01*
X145230256Y-104680212D01*
X145354312Y-104556156D01*
X145446414Y-104406834D01*
X145501599Y-104240297D01*
X145512100Y-104137509D01*
X145512099Y-102037492D01*
X145501599Y-101934703D01*
X145446414Y-101768166D01*
X145354312Y-101618844D01*
X145336449Y-101600981D01*
X145302964Y-101539658D01*
X145307948Y-101469966D01*
X145349820Y-101414033D01*
X145415284Y-101389616D01*
X145424130Y-101389300D01*
X149571460Y-101389300D01*
X149612415Y-101396259D01*
X149680737Y-101420166D01*
X149680743Y-101420167D01*
X149680745Y-101420168D01*
X149680746Y-101420168D01*
X149680750Y-101420169D01*
X149859996Y-101440365D01*
X149860000Y-101440365D01*
X149860004Y-101440365D01*
X150039249Y-101420169D01*
X150039252Y-101420168D01*
X150039255Y-101420168D01*
X150209522Y-101360589D01*
X150362262Y-101264616D01*
X150489816Y-101137062D01*
X150585789Y-100984322D01*
X150645368Y-100814055D01*
X150645369Y-100814049D01*
X150665565Y-100634803D01*
X150665565Y-100634796D01*
X150645369Y-100455550D01*
X150645368Y-100455545D01*
X150624385Y-100395580D01*
X150585789Y-100285278D01*
X150489816Y-100132538D01*
X150362262Y-100004984D01*
X150345410Y-99994395D01*
X150209523Y-99909011D01*
X150039254Y-99849431D01*
X150039249Y-99849430D01*
X149860004Y-99829235D01*
X149859996Y-99829235D01*
X149680750Y-99849430D01*
X149680737Y-99849433D01*
X149612415Y-99873341D01*
X149571460Y-99880300D01*
X140902086Y-99880300D01*
X140835047Y-99860615D01*
X140814405Y-99843981D01*
X138997777Y-98027352D01*
X138964292Y-97966029D01*
X138969276Y-97896337D01*
X138997777Y-97851989D01*
X138997850Y-97851915D01*
X138997856Y-97851912D01*
X139121912Y-97727856D01*
X139214014Y-97578534D01*
X139269199Y-97411997D01*
X139279700Y-97309209D01*
X139279700Y-97087493D01*
X140356300Y-97087493D01*
X140356300Y-97087506D01*
X140375464Y-97318797D01*
X140375466Y-97318808D01*
X140432442Y-97543800D01*
X140525675Y-97756348D01*
X140652616Y-97950647D01*
X140652619Y-97950651D01*
X140652621Y-97950653D01*
X140809816Y-98121413D01*
X140809819Y-98121415D01*
X140809822Y-98121418D01*
X140992965Y-98263964D01*
X140992971Y-98263968D01*
X140992974Y-98263970D01*
X141197097Y-98374436D01*
X141282311Y-98403690D01*
X141416615Y-98449797D01*
X141416617Y-98449797D01*
X141416619Y-98449798D01*
X141645551Y-98488000D01*
X141645552Y-98488000D01*
X141877648Y-98488000D01*
X141877649Y-98488000D01*
X142106581Y-98449798D01*
X142326103Y-98374436D01*
X142530226Y-98263970D01*
X142537027Y-98258677D01*
X142626571Y-98188982D01*
X142713384Y-98121413D01*
X142870579Y-97950653D01*
X142997524Y-97756349D01*
X143090757Y-97543800D01*
X143147734Y-97318805D01*
X143147735Y-97318797D01*
X143166900Y-97087506D01*
X143166900Y-97087493D01*
X143147735Y-96856202D01*
X143147733Y-96856191D01*
X143090757Y-96631199D01*
X142997524Y-96418651D01*
X142870583Y-96224352D01*
X142870580Y-96224349D01*
X142870579Y-96224347D01*
X142713384Y-96053587D01*
X142713379Y-96053583D01*
X142713377Y-96053581D01*
X142530234Y-95911035D01*
X142530228Y-95911031D01*
X142326104Y-95800564D01*
X142326095Y-95800561D01*
X142106584Y-95725202D01*
X141934882Y-95696550D01*
X141877649Y-95687000D01*
X141645551Y-95687000D01*
X141599764Y-95694640D01*
X141416615Y-95725202D01*
X141197104Y-95800561D01*
X141197095Y-95800564D01*
X140992971Y-95911031D01*
X140992965Y-95911035D01*
X140809822Y-96053581D01*
X140809819Y-96053584D01*
X140652616Y-96224352D01*
X140525675Y-96418651D01*
X140432442Y-96631199D01*
X140375466Y-96856191D01*
X140375464Y-96856202D01*
X140356300Y-97087493D01*
X139279700Y-97087493D01*
X139279699Y-94359192D01*
X139269199Y-94256403D01*
X139214014Y-94089866D01*
X139121912Y-93940544D01*
X138997856Y-93816488D01*
X138905088Y-93759269D01*
X138848536Y-93724387D01*
X138848531Y-93724385D01*
X138847062Y-93723898D01*
X138681997Y-93669201D01*
X138681995Y-93669200D01*
X138579210Y-93658700D01*
X137754198Y-93658700D01*
X137754180Y-93658701D01*
X137651403Y-93669200D01*
X137651400Y-93669201D01*
X137484868Y-93724385D01*
X137484863Y-93724387D01*
X137335542Y-93816489D01*
X137211489Y-93940542D01*
X137119387Y-94089863D01*
X137119385Y-94089868D01*
X137119315Y-94090080D01*
X137064201Y-94256403D01*
X137064201Y-94256404D01*
X137064200Y-94256404D01*
X137053700Y-94359183D01*
X137053700Y-97309201D01*
X137053701Y-97309218D01*
X137064200Y-97411996D01*
X137064201Y-97411999D01*
X137119385Y-97578531D01*
X137119387Y-97578536D01*
X137154269Y-97635088D01*
X137211488Y-97727856D01*
X137335544Y-97851912D01*
X137353296Y-97862861D01*
X137400020Y-97914806D01*
X137412200Y-97968400D01*
X137412200Y-98183852D01*
X137412199Y-98183878D01*
X137412199Y-98188988D01*
X137412199Y-98337612D01*
X137412199Y-98337614D01*
X137412198Y-98337614D01*
X137432943Y-98441897D01*
X137432943Y-98441900D01*
X137432944Y-98441900D01*
X137440663Y-98480710D01*
X137441193Y-98483370D01*
X137441196Y-98483382D01*
X137498068Y-98620686D01*
X137498278Y-98621078D01*
X137498325Y-98621306D01*
X137500401Y-98626317D01*
X137499450Y-98626710D01*
X137512514Y-98689482D01*
X137487509Y-98754724D01*
X137483600Y-98758603D01*
X137483600Y-99318000D01*
X138028024Y-99318000D01*
X138053009Y-99303054D01*
X138122843Y-99305298D01*
X138171786Y-99335411D01*
X138911395Y-100075019D01*
X138944880Y-100136342D01*
X138939896Y-100206033D01*
X138898024Y-100261967D01*
X138832560Y-100286384D01*
X138823714Y-100286700D01*
X138010040Y-100286700D01*
X137943001Y-100267015D01*
X137897246Y-100214211D01*
X137887302Y-100145053D01*
X137903308Y-100099579D01*
X137965631Y-99994195D01*
X137965633Y-99994190D01*
X138010744Y-99838918D01*
X138010745Y-99838912D01*
X138012390Y-99818000D01*
X137357600Y-99818000D01*
X137290561Y-99798315D01*
X137244806Y-99745511D01*
X137233600Y-99694000D01*
X137233600Y-99568000D01*
X137178100Y-99568000D01*
X137111061Y-99548315D01*
X137065306Y-99495511D01*
X137054100Y-99444000D01*
X137054100Y-99333317D01*
X137054099Y-99333302D01*
X137051243Y-99297008D01*
X137051242Y-99297002D01*
X137006095Y-99141608D01*
X137006092Y-99141600D01*
X137000866Y-99132763D01*
X136983600Y-99069645D01*
X136983600Y-98763494D01*
X136983598Y-98763493D01*
X136837409Y-98805965D01*
X136837406Y-98805967D01*
X136817208Y-98817912D01*
X136749484Y-98835092D01*
X136690970Y-98817910D01*
X136669997Y-98805507D01*
X136669990Y-98805504D01*
X136514597Y-98760357D01*
X136514591Y-98760356D01*
X136478297Y-98757500D01*
X136478290Y-98757500D01*
X136068910Y-98757500D01*
X136068902Y-98757500D01*
X136032608Y-98760356D01*
X136032602Y-98760357D01*
X135877209Y-98805504D01*
X135877206Y-98805505D01*
X135737915Y-98887881D01*
X135737907Y-98887887D01*
X135721614Y-98904181D01*
X135660291Y-98937666D01*
X135633933Y-98940500D01*
X135053867Y-98940500D01*
X134986828Y-98920815D01*
X134966186Y-98904181D01*
X134949892Y-98887887D01*
X134949884Y-98887881D01*
X134829185Y-98816500D01*
X134810595Y-98805506D01*
X134810594Y-98805505D01*
X134810593Y-98805505D01*
X134810590Y-98805504D01*
X134655197Y-98760357D01*
X134655191Y-98760356D01*
X134618897Y-98757500D01*
X134618890Y-98757500D01*
X134209510Y-98757500D01*
X134207075Y-98757500D01*
X134207075Y-98756603D01*
X134142728Y-98740373D01*
X134094973Y-98689371D01*
X134081700Y-98633553D01*
X134081700Y-93009599D01*
X134101385Y-92942560D01*
X134154189Y-92896805D01*
X134205696Y-92885599D01*
X134615180Y-92885599D01*
X134651204Y-92882765D01*
X134805393Y-92837969D01*
X134937455Y-92759868D01*
X135000576Y-92742600D01*
X135584927Y-92742600D01*
X135651966Y-92762285D01*
X135672608Y-92778919D01*
X135672774Y-92779085D01*
X135672778Y-92779088D01*
X135672780Y-92779090D01*
X135813703Y-92862431D01*
X135813704Y-92862431D01*
X135813707Y-92862433D01*
X135970920Y-92908108D01*
X135970923Y-92908108D01*
X135970925Y-92908109D01*
X136007660Y-92911000D01*
X136007668Y-92911000D01*
X136483532Y-92911000D01*
X136483540Y-92911000D01*
X136520275Y-92908109D01*
X136520277Y-92908108D01*
X136520279Y-92908108D01*
X136677492Y-92862433D01*
X136677493Y-92862432D01*
X136677497Y-92862431D01*
X136818420Y-92779090D01*
X136934190Y-92663320D01*
X137017531Y-92522397D01*
X137017532Y-92522393D01*
X137017533Y-92522392D01*
X137063208Y-92365179D01*
X137063209Y-92365173D01*
X137066099Y-92328447D01*
X137066100Y-92328440D01*
X137066100Y-91902560D01*
X137063209Y-91865825D01*
X137053499Y-91832402D01*
X137017533Y-91708607D01*
X137017531Y-91708604D01*
X137017531Y-91708603D01*
X137008379Y-91693128D01*
X136991197Y-91625406D01*
X137008381Y-91566886D01*
X137017070Y-91552193D01*
X137017071Y-91552192D01*
X137062594Y-91395501D01*
X137062593Y-91395500D01*
X136756957Y-91395500D01*
X136693836Y-91378232D01*
X136677495Y-91368568D01*
X136677492Y-91368566D01*
X136520279Y-91322891D01*
X136520273Y-91322890D01*
X136483547Y-91320000D01*
X136483540Y-91320000D01*
X136369600Y-91320000D01*
X136302561Y-91300315D01*
X136256806Y-91247511D01*
X136245600Y-91196000D01*
X136245600Y-91145500D01*
X136119600Y-91145500D01*
X136052561Y-91125815D01*
X136006806Y-91073011D01*
X135995600Y-91021500D01*
X135995600Y-90895500D01*
X136495600Y-90895500D01*
X137062593Y-90895500D01*
X137062594Y-90895498D01*
X137017071Y-90738807D01*
X137017069Y-90738804D01*
X136933793Y-90597991D01*
X136933787Y-90597983D01*
X136818116Y-90482312D01*
X136818108Y-90482306D01*
X136677297Y-90399031D01*
X136677292Y-90399029D01*
X136520203Y-90353390D01*
X136520191Y-90353388D01*
X136495600Y-90351452D01*
X136495600Y-90895500D01*
X135995600Y-90895500D01*
X135995600Y-90351454D01*
X135971002Y-90353389D01*
X135813907Y-90399029D01*
X135813902Y-90399031D01*
X135673091Y-90482306D01*
X135673083Y-90482312D01*
X135557412Y-90597983D01*
X135557406Y-90597991D01*
X135474131Y-90738802D01*
X135474129Y-90738808D01*
X135427502Y-90899298D01*
X135389896Y-90958184D01*
X135326423Y-90987390D01*
X135257237Y-90977644D01*
X135204302Y-90932040D01*
X135184808Y-90874427D01*
X135183665Y-90859896D01*
X135138869Y-90705707D01*
X135057135Y-90567502D01*
X135057133Y-90567500D01*
X135057130Y-90567496D01*
X135042519Y-90552885D01*
X135009034Y-90491562D01*
X135006200Y-90465204D01*
X135006200Y-89709306D01*
X135025885Y-89642267D01*
X135030933Y-89634995D01*
X135049128Y-89610690D01*
X135076496Y-89574131D01*
X135126791Y-89439283D01*
X135133200Y-89379673D01*
X135133200Y-89379644D01*
X135529700Y-89379644D01*
X135536101Y-89439172D01*
X135536103Y-89439179D01*
X135586345Y-89573886D01*
X135586349Y-89573893D01*
X135672509Y-89688987D01*
X135672512Y-89688990D01*
X135787606Y-89775150D01*
X135787613Y-89775154D01*
X135922320Y-89825396D01*
X135922327Y-89825398D01*
X135981855Y-89831799D01*
X135981872Y-89831800D01*
X136033700Y-89831800D01*
X136533700Y-89831800D01*
X136585528Y-89831800D01*
X136585544Y-89831799D01*
X136645072Y-89825398D01*
X136645079Y-89825396D01*
X136779786Y-89775154D01*
X136779793Y-89775150D01*
X136894887Y-89688990D01*
X136894890Y-89688987D01*
X136981050Y-89573893D01*
X136981054Y-89573886D01*
X137031296Y-89439179D01*
X137031298Y-89439172D01*
X137037699Y-89379644D01*
X137037700Y-89379627D01*
X137037700Y-89073800D01*
X136533700Y-89073800D01*
X136533700Y-89831800D01*
X136033700Y-89831800D01*
X136033700Y-89073800D01*
X135529700Y-89073800D01*
X135529700Y-89379644D01*
X135133200Y-89379644D01*
X135133199Y-88267928D01*
X135126791Y-88208317D01*
X135120801Y-88192258D01*
X135074916Y-88069232D01*
X135069932Y-87999540D01*
X135103417Y-87938217D01*
X135164741Y-87904733D01*
X135191091Y-87901899D01*
X135471835Y-87901899D01*
X135538874Y-87921584D01*
X135584629Y-87974388D01*
X135594573Y-88043546D01*
X135588017Y-88069232D01*
X135536103Y-88208420D01*
X135536101Y-88208427D01*
X135529700Y-88267955D01*
X135529700Y-88573800D01*
X137037700Y-88573800D01*
X137037700Y-88267972D01*
X137037699Y-88267955D01*
X137031298Y-88208427D01*
X137031296Y-88208420D01*
X136981054Y-88073713D01*
X136981050Y-88073706D01*
X136894890Y-87958612D01*
X136894887Y-87958609D01*
X136778079Y-87871166D01*
X136736208Y-87815232D01*
X136731224Y-87745541D01*
X136764710Y-87684218D01*
X136826033Y-87650734D01*
X136852390Y-87647900D01*
X139203613Y-87647900D01*
X139270652Y-87667585D01*
X139291294Y-87684219D01*
X142094753Y-90487678D01*
X142128238Y-90549001D01*
X142127963Y-90602952D01*
X142075377Y-90833345D01*
X142056332Y-91087495D01*
X142056332Y-91087504D01*
X142075377Y-91341654D01*
X142123431Y-91552193D01*
X142132092Y-91590137D01*
X142178588Y-91708607D01*
X142225208Y-91827390D01*
X142228101Y-91832400D01*
X142352641Y-92048112D01*
X142511550Y-92247377D01*
X142698383Y-92420732D01*
X142908966Y-92564305D01*
X142908971Y-92564307D01*
X142908972Y-92564308D01*
X142908973Y-92564309D01*
X143030928Y-92623038D01*
X143138592Y-92674887D01*
X143138593Y-92674887D01*
X143138596Y-92674889D01*
X143382142Y-92750013D01*
X143634165Y-92788000D01*
X143889035Y-92788000D01*
X144141058Y-92750013D01*
X144384604Y-92674889D01*
X144614234Y-92564305D01*
X144824817Y-92420732D01*
X145011650Y-92247377D01*
X145170559Y-92048112D01*
X145297993Y-91827388D01*
X145391108Y-91590137D01*
X145447822Y-91341657D01*
X145466868Y-91087500D01*
X145465782Y-91073011D01*
X145447822Y-90833345D01*
X145427413Y-90743928D01*
X145391108Y-90584863D01*
X145297993Y-90347612D01*
X145170559Y-90126888D01*
X145011650Y-89927623D01*
X144824817Y-89754268D01*
X144614234Y-89610695D01*
X144614230Y-89610693D01*
X144614227Y-89610691D01*
X144614226Y-89610690D01*
X144384606Y-89500112D01*
X144384608Y-89500112D01*
X144141066Y-89424989D01*
X144141062Y-89424988D01*
X144141058Y-89424987D01*
X144019831Y-89406714D01*
X143889040Y-89387000D01*
X143889035Y-89387000D01*
X143634165Y-89387000D01*
X143634159Y-89387000D01*
X143477209Y-89410657D01*
X143382142Y-89424987D01*
X143382139Y-89424988D01*
X143382125Y-89424991D01*
X143288434Y-89453890D01*
X143218571Y-89454840D01*
X143164205Y-89423080D01*
X140048469Y-86307343D01*
X140048468Y-86307342D01*
X139924892Y-86224772D01*
X139924891Y-86224771D01*
X139924889Y-86224770D01*
X139924887Y-86224769D01*
X139924885Y-86224768D01*
X139806647Y-86175793D01*
X139806645Y-86175792D01*
X139787581Y-86167895D01*
X139787582Y-86167895D01*
X139777960Y-86165981D01*
X139763394Y-86163084D01*
X139641814Y-86138899D01*
X139641812Y-86138899D01*
X139493188Y-86138899D01*
X139487074Y-86138899D01*
X139487054Y-86138900D01*
X136087945Y-86138900D01*
X136020906Y-86119215D01*
X135988679Y-86089212D01*
X135953569Y-86042312D01*
X135929151Y-85976848D01*
X135944002Y-85908575D01*
X135993406Y-85859169D01*
X136052835Y-85844000D01*
X136198800Y-85844000D01*
X136698800Y-85844000D01*
X136876628Y-85844000D01*
X136876644Y-85843999D01*
X136936172Y-85837598D01*
X136936176Y-85837597D01*
X137040466Y-85798699D01*
X137110157Y-85793715D01*
X137127134Y-85798699D01*
X137231423Y-85837597D01*
X137231427Y-85837598D01*
X137290955Y-85843999D01*
X137290972Y-85844000D01*
X137468800Y-85844000D01*
X137968800Y-85844000D01*
X138146628Y-85844000D01*
X138146644Y-85843999D01*
X138206172Y-85837598D01*
X138206179Y-85837596D01*
X138340886Y-85787354D01*
X138340893Y-85787350D01*
X138455987Y-85701190D01*
X138455990Y-85701187D01*
X138542150Y-85586093D01*
X138542154Y-85586086D01*
X138592396Y-85451379D01*
X138592398Y-85451372D01*
X138598799Y-85391844D01*
X138598800Y-85391827D01*
X138598800Y-84959000D01*
X137968800Y-84959000D01*
X137968800Y-85844000D01*
X137468800Y-85844000D01*
X137468800Y-84959000D01*
X136698800Y-84959000D01*
X136698800Y-85844000D01*
X136198800Y-85844000D01*
X136198800Y-84959000D01*
X134158800Y-84959000D01*
X134158800Y-85844000D01*
X134336628Y-85844000D01*
X134336644Y-85843999D01*
X134396172Y-85837598D01*
X134396176Y-85837597D01*
X134500466Y-85798699D01*
X134570157Y-85793715D01*
X134587135Y-85798700D01*
X134669775Y-85829524D01*
X134725708Y-85871395D01*
X134750124Y-85936860D01*
X134735272Y-86005133D01*
X134724081Y-86020091D01*
X134724968Y-86020755D01*
X134633406Y-86143064D01*
X134633402Y-86143071D01*
X134583108Y-86277917D01*
X134576701Y-86337516D01*
X134576700Y-86337535D01*
X134576700Y-86741519D01*
X134557015Y-86808558D01*
X134504211Y-86854313D01*
X134435053Y-86864257D01*
X134371497Y-86835232D01*
X134365019Y-86829200D01*
X133591500Y-86055681D01*
X133558015Y-85994358D01*
X133562999Y-85924666D01*
X133604871Y-85868733D01*
X133651434Y-85851365D01*
X133658800Y-85844000D01*
X133658800Y-84959000D01*
X133028800Y-84959000D01*
X133028800Y-85193619D01*
X133009115Y-85260658D01*
X132956311Y-85306413D01*
X132887153Y-85316357D01*
X132823597Y-85287332D01*
X132817119Y-85281300D01*
X131561974Y-84026155D01*
X133028800Y-84026155D01*
X133028800Y-84459000D01*
X133658800Y-84459000D01*
X134158800Y-84459000D01*
X134928800Y-84459000D01*
X135428800Y-84459000D01*
X136198800Y-84459000D01*
X136698800Y-84459000D01*
X137468800Y-84459000D01*
X137968800Y-84459000D01*
X138598800Y-84459000D01*
X138598800Y-84026172D01*
X138598799Y-84026155D01*
X138595189Y-83992586D01*
X142946601Y-83992586D01*
X142957094Y-84095297D01*
X143012241Y-84261719D01*
X143012243Y-84261724D01*
X143104284Y-84410945D01*
X143228254Y-84534915D01*
X143377475Y-84626956D01*
X143377480Y-84626958D01*
X143543902Y-84682105D01*
X143543909Y-84682106D01*
X143646619Y-84692599D01*
X143996599Y-84692599D01*
X144496600Y-84692599D01*
X144846572Y-84692599D01*
X144846586Y-84692598D01*
X144949297Y-84682105D01*
X145115719Y-84626958D01*
X145115724Y-84626956D01*
X145264945Y-84534915D01*
X145388915Y-84410945D01*
X145480956Y-84261724D01*
X145480958Y-84261719D01*
X145536105Y-84095297D01*
X145536106Y-84095290D01*
X145546599Y-83992586D01*
X145546600Y-83992573D01*
X145546600Y-82942600D01*
X144496600Y-82942600D01*
X144496600Y-84692599D01*
X143996599Y-84692599D01*
X143996600Y-84692598D01*
X143996600Y-82942600D01*
X142946601Y-82942600D01*
X142946601Y-83992586D01*
X138595189Y-83992586D01*
X138592398Y-83966627D01*
X138592396Y-83966620D01*
X138542154Y-83831913D01*
X138542150Y-83831906D01*
X138455990Y-83716812D01*
X138455987Y-83716809D01*
X138340893Y-83630649D01*
X138340886Y-83630645D01*
X138206179Y-83580403D01*
X138206172Y-83580401D01*
X138146644Y-83574000D01*
X137968800Y-83574000D01*
X137968800Y-84459000D01*
X137468800Y-84459000D01*
X137468800Y-83574000D01*
X137290955Y-83574000D01*
X137231427Y-83580401D01*
X137231417Y-83580403D01*
X137127132Y-83619299D01*
X137057441Y-83624283D01*
X137040468Y-83619299D01*
X136936182Y-83580403D01*
X136936172Y-83580401D01*
X136876644Y-83574000D01*
X136698800Y-83574000D01*
X136698800Y-84459000D01*
X136198800Y-84459000D01*
X136198800Y-83574000D01*
X136020955Y-83574000D01*
X135961427Y-83580401D01*
X135961417Y-83580403D01*
X135857132Y-83619299D01*
X135787441Y-83624283D01*
X135770468Y-83619299D01*
X135666182Y-83580403D01*
X135666172Y-83580401D01*
X135606644Y-83574000D01*
X135428800Y-83574000D01*
X135428800Y-84459000D01*
X134928800Y-84459000D01*
X134928800Y-83574000D01*
X134750955Y-83574000D01*
X134691427Y-83580401D01*
X134691417Y-83580403D01*
X134587132Y-83619299D01*
X134517441Y-83624283D01*
X134500468Y-83619299D01*
X134396182Y-83580403D01*
X134396172Y-83580401D01*
X134336644Y-83574000D01*
X134158800Y-83574000D01*
X134158800Y-84459000D01*
X133658800Y-84459000D01*
X133658800Y-83574000D01*
X133480955Y-83574000D01*
X133421427Y-83580401D01*
X133421420Y-83580403D01*
X133286713Y-83630645D01*
X133286706Y-83630649D01*
X133171612Y-83716809D01*
X133171609Y-83716812D01*
X133085449Y-83831906D01*
X133085445Y-83831913D01*
X133035203Y-83966620D01*
X133035201Y-83966627D01*
X133028800Y-84026155D01*
X131561974Y-84026155D01*
X129592233Y-82056414D01*
X129558748Y-81995091D01*
X129560139Y-81936639D01*
X129567621Y-81908716D01*
X129571835Y-81892991D01*
X129591134Y-81672400D01*
X129571835Y-81451809D01*
X129514523Y-81237920D01*
X129420942Y-81037233D01*
X129293932Y-80855845D01*
X129137355Y-80699268D01*
X128955967Y-80572258D01*
X128905197Y-80548584D01*
X128832708Y-80514782D01*
X128780268Y-80468610D01*
X128761116Y-80401417D01*
X128781331Y-80334536D01*
X128832708Y-80290018D01*
X128848618Y-80282599D01*
X128955967Y-80232542D01*
X129137355Y-80105532D01*
X129293932Y-79948955D01*
X129420942Y-79767567D01*
X129514523Y-79566880D01*
X129571835Y-79352991D01*
X129591134Y-79132400D01*
X129590664Y-79127033D01*
X129581895Y-79026794D01*
X129571835Y-78911809D01*
X129560139Y-78868159D01*
X129561802Y-78798309D01*
X129592233Y-78748385D01*
X130587800Y-77752819D01*
X130649123Y-77719334D01*
X130675481Y-77716500D01*
X132910964Y-77716500D01*
X132978003Y-77736185D01*
X133023758Y-77788989D01*
X133034254Y-77827252D01*
X133034708Y-77831482D01*
X133085002Y-77966328D01*
X133085006Y-77966335D01*
X133171252Y-78081544D01*
X133171255Y-78081547D01*
X133286464Y-78167793D01*
X133286471Y-78167797D01*
X133421317Y-78218091D01*
X133421316Y-78218091D01*
X133428244Y-78218835D01*
X133480927Y-78224500D01*
X134336672Y-78224499D01*
X134396283Y-78218091D01*
X134500470Y-78179231D01*
X134570158Y-78174248D01*
X134587117Y-78179227D01*
X134691317Y-78218091D01*
X134750927Y-78224500D01*
X135606672Y-78224499D01*
X135666283Y-78218091D01*
X135770470Y-78179231D01*
X135840158Y-78174248D01*
X135857117Y-78179227D01*
X135961317Y-78218091D01*
X136020927Y-78224500D01*
X136876672Y-78224499D01*
X136936283Y-78218091D01*
X137040470Y-78179231D01*
X137110158Y-78174248D01*
X137127117Y-78179227D01*
X137231317Y-78218091D01*
X137290927Y-78224500D01*
X138146672Y-78224499D01*
X138206283Y-78218091D01*
X138341131Y-78167796D01*
X138456346Y-78081546D01*
X138542596Y-77966331D01*
X138592891Y-77831483D01*
X138599300Y-77771873D01*
X138599299Y-76406128D01*
X138592891Y-76346517D01*
X138591665Y-76343231D01*
X138542597Y-76211671D01*
X138542593Y-76211664D01*
X138456347Y-76096455D01*
X138336841Y-76006992D01*
X138296592Y-75955179D01*
X138274883Y-75902767D01*
X138269623Y-75894895D01*
X138206211Y-75799992D01*
X138118808Y-75712589D01*
X135778242Y-73372023D01*
X133431211Y-71024991D01*
X133431210Y-71024990D01*
X133408983Y-71010139D01*
X133408982Y-71010138D01*
X133328439Y-70956320D01*
X133328426Y-70956313D01*
X133294985Y-70942462D01*
X133214235Y-70909014D01*
X133214227Y-70909012D01*
X133093007Y-70884900D01*
X133093003Y-70884900D01*
X129490860Y-70884900D01*
X129423821Y-70865215D01*
X129389285Y-70832023D01*
X129293935Y-70695849D01*
X129293934Y-70695847D01*
X129293932Y-70695845D01*
X129137355Y-70539268D01*
X128955967Y-70412258D01*
X128832707Y-70354781D01*
X128780268Y-70308610D01*
X128761116Y-70241417D01*
X128781331Y-70174536D01*
X128832708Y-70130018D01*
X128833300Y-70129742D01*
X128955967Y-70072542D01*
X129137355Y-69945532D01*
X129293932Y-69788955D01*
X129420942Y-69607567D01*
X129514523Y-69406880D01*
X129571835Y-69192991D01*
X129591134Y-68972400D01*
X129571835Y-68751809D01*
X129514523Y-68537920D01*
X129420942Y-68337233D01*
X129293932Y-68155845D01*
X129137355Y-67999268D01*
X128955967Y-67872258D01*
X128832707Y-67814781D01*
X128780268Y-67768610D01*
X128761116Y-67701417D01*
X128781331Y-67634536D01*
X128832708Y-67590018D01*
X128955967Y-67532542D01*
X129137355Y-67405532D01*
X129293932Y-67248955D01*
X129300360Y-67239775D01*
X129354938Y-67196151D01*
X129401934Y-67186900D01*
X132022513Y-67186900D01*
X132089552Y-67206585D01*
X132110194Y-67223219D01*
X142909781Y-78022805D01*
X142943266Y-78084128D01*
X142946100Y-78110486D01*
X142946100Y-78474713D01*
X142926415Y-78541752D01*
X142909781Y-78562394D01*
X141084594Y-80387581D01*
X141023271Y-80421066D01*
X140996913Y-80423900D01*
X140928340Y-80423900D01*
X140887385Y-80416941D01*
X140819062Y-80393033D01*
X140819049Y-80393030D01*
X140639804Y-80372835D01*
X140639796Y-80372835D01*
X140460550Y-80393030D01*
X140460545Y-80393031D01*
X140290276Y-80452611D01*
X140137537Y-80548584D01*
X140009984Y-80676137D01*
X139914011Y-80828876D01*
X139854431Y-80999145D01*
X139854430Y-80999150D01*
X139834235Y-81178396D01*
X139834235Y-81178403D01*
X139854430Y-81357649D01*
X139854431Y-81357654D01*
X139914011Y-81527923D01*
X139935439Y-81562025D01*
X140009984Y-81680662D01*
X140137538Y-81808216D01*
X140183381Y-81837021D01*
X140289822Y-81903903D01*
X140290278Y-81904189D01*
X140383015Y-81936639D01*
X140460545Y-81963768D01*
X140460550Y-81963769D01*
X140639796Y-81983965D01*
X140639800Y-81983965D01*
X140639804Y-81983965D01*
X140819049Y-81963769D01*
X140819051Y-81963768D01*
X140819055Y-81963768D01*
X140819058Y-81963766D01*
X140819062Y-81963766D01*
X140887385Y-81939859D01*
X140928340Y-81932900D01*
X141280354Y-81932900D01*
X141280374Y-81932901D01*
X141286488Y-81932901D01*
X141435114Y-81932901D01*
X141556694Y-81908715D01*
X141556694Y-81908716D01*
X141556700Y-81908713D01*
X141580880Y-81903905D01*
X141629231Y-81883877D01*
X141637744Y-81880351D01*
X141637747Y-81880349D01*
X141637755Y-81880346D01*
X141718189Y-81847030D01*
X141841766Y-81764459D01*
X142213611Y-81392613D01*
X142946600Y-81392613D01*
X142946600Y-82442600D01*
X143996600Y-82442600D01*
X144496600Y-82442600D01*
X145546599Y-82442600D01*
X145546599Y-81392628D01*
X145546598Y-81392613D01*
X145536105Y-81289902D01*
X145480958Y-81123480D01*
X145480956Y-81123475D01*
X145388915Y-80974254D01*
X145264945Y-80850284D01*
X145115724Y-80758243D01*
X145115719Y-80758241D01*
X144949297Y-80703094D01*
X144949290Y-80703093D01*
X144846586Y-80692600D01*
X144496600Y-80692600D01*
X144496600Y-82442600D01*
X143996600Y-82442600D01*
X143996600Y-80692600D01*
X143646628Y-80692600D01*
X143646612Y-80692601D01*
X143543902Y-80703094D01*
X143377480Y-80758241D01*
X143377475Y-80758243D01*
X143228254Y-80850284D01*
X143104284Y-80974254D01*
X143012243Y-81123475D01*
X143012241Y-81123480D01*
X142957094Y-81289902D01*
X142957093Y-81289909D01*
X142946600Y-81392613D01*
X142213611Y-81392613D01*
X143324345Y-80281878D01*
X143385666Y-80248395D01*
X143451023Y-80251854D01*
X143543803Y-80282599D01*
X143646591Y-80293100D01*
X144846608Y-80293099D01*
X144949397Y-80282599D01*
X145115934Y-80227414D01*
X145265256Y-80135312D01*
X145389312Y-80011256D01*
X145481414Y-79861934D01*
X145536599Y-79695397D01*
X145547100Y-79592609D01*
X145547100Y-78792335D01*
X149586700Y-78792335D01*
X149586700Y-81888070D01*
X149586701Y-81888076D01*
X149593108Y-81947683D01*
X149643402Y-82082528D01*
X149643406Y-82082535D01*
X149729652Y-82197744D01*
X149729655Y-82197747D01*
X149844864Y-82283993D01*
X149844871Y-82283997D01*
X149979717Y-82334291D01*
X149979716Y-82334291D01*
X149986644Y-82335035D01*
X150039327Y-82340700D01*
X153135072Y-82340699D01*
X153194683Y-82334291D01*
X153329531Y-82283996D01*
X153444746Y-82197746D01*
X153530996Y-82082531D01*
X153581291Y-81947683D01*
X153587700Y-81888073D01*
X153587699Y-78792328D01*
X153581291Y-78732717D01*
X153551547Y-78652970D01*
X153530997Y-78597871D01*
X153530993Y-78597864D01*
X153444747Y-78482655D01*
X153444744Y-78482652D01*
X153329535Y-78396406D01*
X153329528Y-78396402D01*
X153194682Y-78346108D01*
X153194683Y-78346108D01*
X153135083Y-78339701D01*
X153135081Y-78339700D01*
X153135073Y-78339700D01*
X153135064Y-78339700D01*
X150039329Y-78339700D01*
X150039323Y-78339701D01*
X149979716Y-78346108D01*
X149844871Y-78396402D01*
X149844864Y-78396406D01*
X149729655Y-78482652D01*
X149729652Y-78482655D01*
X149643406Y-78597864D01*
X149643402Y-78597871D01*
X149593108Y-78732717D01*
X149591424Y-78748385D01*
X149586701Y-78792323D01*
X149586700Y-78792335D01*
X145547100Y-78792335D01*
X145547099Y-76992592D01*
X145539400Y-76917228D01*
X145536599Y-76889803D01*
X145536598Y-76889800D01*
X145498558Y-76775004D01*
X145481414Y-76723266D01*
X145389312Y-76573944D01*
X145265256Y-76449888D01*
X145115934Y-76357786D01*
X144949397Y-76302601D01*
X144949395Y-76302600D01*
X144846610Y-76292100D01*
X143646598Y-76292100D01*
X143646581Y-76292101D01*
X143543803Y-76302600D01*
X143543796Y-76302602D01*
X143451026Y-76333343D01*
X143381198Y-76335744D01*
X143324342Y-76303318D01*
X132867369Y-65846343D01*
X132867368Y-65846342D01*
X132826173Y-65818817D01*
X132743789Y-65763770D01*
X132743786Y-65763768D01*
X132743785Y-65763768D01*
X132663355Y-65730453D01*
X132606480Y-65706895D01*
X132582294Y-65702084D01*
X132460714Y-65677899D01*
X132460712Y-65677899D01*
X132312088Y-65677899D01*
X132305974Y-65677899D01*
X132305954Y-65677900D01*
X129401934Y-65677900D01*
X129334895Y-65658215D01*
X129300360Y-65625025D01*
X129296516Y-65619535D01*
X129293932Y-65615845D01*
X129137355Y-65459268D01*
X128955967Y-65332258D01*
X128955963Y-65332256D01*
X128755286Y-65238679D01*
X128755275Y-65238675D01*
X128541392Y-65181365D01*
X128541385Y-65181364D01*
X128320802Y-65162066D01*
X128320798Y-65162066D01*
X128100214Y-65181364D01*
X128100207Y-65181365D01*
X127886324Y-65238675D01*
X127886313Y-65238679D01*
X127685636Y-65332256D01*
X127685634Y-65332257D01*
X127504244Y-65459268D01*
X127347668Y-65615844D01*
X127220657Y-65797234D01*
X127220656Y-65797236D01*
X127127079Y-65997913D01*
X127127075Y-65997924D01*
X127069765Y-66211807D01*
X127069764Y-66211814D01*
X127050466Y-66432398D01*
X127050466Y-66432401D01*
X127069764Y-66652985D01*
X127069765Y-66652992D01*
X127127075Y-66866875D01*
X127127079Y-66866886D01*
X127220656Y-67067563D01*
X127220658Y-67067567D01*
X127347668Y-67248955D01*
X127504245Y-67405532D01*
X127685633Y-67532542D01*
X127733675Y-67554944D01*
X127808891Y-67590018D01*
X127861331Y-67636190D01*
X127880483Y-67703383D01*
X127860267Y-67770265D01*
X127808891Y-67814782D01*
X127685636Y-67872256D01*
X127685634Y-67872257D01*
X127504244Y-67999268D01*
X127347668Y-68155844D01*
X127220657Y-68337234D01*
X127220656Y-68337236D01*
X127127079Y-68537913D01*
X127127075Y-68537924D01*
X127069765Y-68751807D01*
X127069764Y-68751814D01*
X127050466Y-68972398D01*
X127050466Y-68972401D01*
X127069764Y-69192985D01*
X127069765Y-69192992D01*
X127127075Y-69406875D01*
X127127079Y-69406886D01*
X127220541Y-69607316D01*
X127220658Y-69607567D01*
X127347668Y-69788955D01*
X127504245Y-69945532D01*
X127685633Y-70072542D01*
X127747628Y-70101450D01*
X127808891Y-70130018D01*
X127861331Y-70176190D01*
X127880483Y-70243383D01*
X127860267Y-70310265D01*
X127808891Y-70354782D01*
X127685636Y-70412256D01*
X127685634Y-70412257D01*
X127504244Y-70539268D01*
X127347668Y-70695844D01*
X127220657Y-70877234D01*
X127220656Y-70877236D01*
X127127079Y-71077913D01*
X127127075Y-71077924D01*
X127069765Y-71291807D01*
X127069764Y-71291814D01*
X127050466Y-71512398D01*
X127050466Y-71512401D01*
X127069764Y-71732985D01*
X127069765Y-71732992D01*
X127127075Y-71946875D01*
X127127079Y-71946886D01*
X127217083Y-72139900D01*
X127220658Y-72147567D01*
X127347668Y-72328955D01*
X127504245Y-72485532D01*
X127685633Y-72612542D01*
X127747628Y-72641450D01*
X127808891Y-72670018D01*
X127861331Y-72716190D01*
X127880483Y-72783383D01*
X127860267Y-72850265D01*
X127808891Y-72894782D01*
X127685636Y-72952256D01*
X127685634Y-72952257D01*
X127504244Y-73079268D01*
X127347668Y-73235844D01*
X127220657Y-73417234D01*
X127220656Y-73417236D01*
X127127079Y-73617913D01*
X127127075Y-73617924D01*
X127069765Y-73831807D01*
X127069764Y-73831814D01*
X127050466Y-74052398D01*
X127050466Y-74052401D01*
X127069764Y-74272985D01*
X127069765Y-74272992D01*
X127127075Y-74486875D01*
X127127079Y-74486886D01*
X127217083Y-74679900D01*
X127220658Y-74687567D01*
X127347668Y-74868955D01*
X127504245Y-75025532D01*
X127685633Y-75152542D01*
X127742512Y-75179065D01*
X127808891Y-75210018D01*
X127861331Y-75256190D01*
X127880483Y-75323383D01*
X127860267Y-75390265D01*
X127808891Y-75434782D01*
X127685636Y-75492256D01*
X127685634Y-75492257D01*
X127504244Y-75619268D01*
X127347668Y-75775844D01*
X127220657Y-75957234D01*
X127220656Y-75957236D01*
X127127079Y-76157913D01*
X127127075Y-76157924D01*
X127069765Y-76371807D01*
X127069764Y-76371814D01*
X127050466Y-76592398D01*
X127050466Y-76592401D01*
X127069764Y-76812985D01*
X127069765Y-76812992D01*
X127127075Y-77026875D01*
X127127079Y-77026886D01*
X127186528Y-77154375D01*
X127220658Y-77227567D01*
X127347668Y-77408955D01*
X127504245Y-77565532D01*
X127685633Y-77692542D01*
X127737012Y-77716500D01*
X127808891Y-77750018D01*
X127861331Y-77796190D01*
X127880483Y-77863383D01*
X127860267Y-77930265D01*
X127808891Y-77974782D01*
X127685636Y-78032256D01*
X127685634Y-78032257D01*
X127504244Y-78159268D01*
X127347668Y-78315844D01*
X127220657Y-78497234D01*
X127220656Y-78497236D01*
X127127079Y-78697913D01*
X127127075Y-78697924D01*
X127069765Y-78911807D01*
X127069764Y-78911814D01*
X127050466Y-79132398D01*
X127050466Y-79132401D01*
X127069764Y-79352985D01*
X127069765Y-79352992D01*
X127127075Y-79566875D01*
X127127079Y-79566886D01*
X127187004Y-79695395D01*
X127220658Y-79767567D01*
X127347668Y-79948955D01*
X127504245Y-80105532D01*
X127685633Y-80232542D01*
X127747628Y-80261450D01*
X127808891Y-80290018D01*
X127861331Y-80336190D01*
X127880483Y-80403383D01*
X127860267Y-80470265D01*
X127808891Y-80514782D01*
X127685636Y-80572256D01*
X127685634Y-80572257D01*
X127504244Y-80699268D01*
X127347668Y-80855844D01*
X127220657Y-81037234D01*
X127220656Y-81037236D01*
X127127079Y-81237913D01*
X127127075Y-81237924D01*
X127069765Y-81451807D01*
X127069764Y-81451814D01*
X127050466Y-81672398D01*
X127050466Y-81672401D01*
X127069764Y-81892985D01*
X127069765Y-81892992D01*
X127127075Y-82106875D01*
X127127079Y-82106886D01*
X127207803Y-82280000D01*
X127220658Y-82307567D01*
X127347668Y-82488955D01*
X127504245Y-82645532D01*
X127685633Y-82772542D01*
X127747628Y-82801450D01*
X127808891Y-82830018D01*
X127861331Y-82876190D01*
X127880483Y-82943383D01*
X127860267Y-83010265D01*
X127808891Y-83054782D01*
X127685636Y-83112256D01*
X127685634Y-83112257D01*
X127504244Y-83239268D01*
X127347668Y-83395844D01*
X127220657Y-83577234D01*
X127220656Y-83577236D01*
X127127079Y-83777913D01*
X127127075Y-83777924D01*
X127069765Y-83991807D01*
X127069764Y-83991814D01*
X127050466Y-84212398D01*
X127050466Y-84212401D01*
X127069764Y-84432985D01*
X127069765Y-84432992D01*
X127127075Y-84646875D01*
X127127079Y-84646886D01*
X127194700Y-84791900D01*
X127220658Y-84847567D01*
X127347668Y-85028955D01*
X127504245Y-85185532D01*
X127685633Y-85312542D01*
X127747628Y-85341450D01*
X127808891Y-85370018D01*
X127861331Y-85416190D01*
X127880483Y-85483383D01*
X127860267Y-85550265D01*
X127808891Y-85594782D01*
X127685636Y-85652256D01*
X127685634Y-85652257D01*
X127504244Y-85779268D01*
X127504241Y-85779271D01*
X127424344Y-85859169D01*
X127347668Y-85935845D01*
X127288678Y-86020091D01*
X127220657Y-86117234D01*
X127220656Y-86117236D01*
X127127079Y-86317913D01*
X127127075Y-86317924D01*
X127069765Y-86531807D01*
X127069764Y-86531814D01*
X127050466Y-86752398D01*
X127050466Y-86752401D01*
X127069764Y-86972985D01*
X127069765Y-86972992D01*
X127127075Y-87186875D01*
X127127079Y-87186886D01*
X127190241Y-87322337D01*
X127220658Y-87387567D01*
X127347668Y-87568955D01*
X127504245Y-87725532D01*
X127685633Y-87852542D01*
X127725573Y-87871166D01*
X127808891Y-87910018D01*
X127861331Y-87956190D01*
X127880483Y-88023383D01*
X127860267Y-88090265D01*
X127808891Y-88134782D01*
X127685636Y-88192256D01*
X127685634Y-88192257D01*
X127504244Y-88319268D01*
X127347668Y-88475844D01*
X127220657Y-88657234D01*
X127220656Y-88657236D01*
X127127079Y-88857913D01*
X127127075Y-88857924D01*
X127069765Y-89071807D01*
X127069764Y-89071814D01*
X127050466Y-89292398D01*
X127050466Y-89292401D01*
X127069764Y-89512985D01*
X127069765Y-89512992D01*
X127127075Y-89726875D01*
X127127079Y-89726886D01*
X127203482Y-89890733D01*
X127220658Y-89927567D01*
X127347668Y-90108955D01*
X127504245Y-90265532D01*
X127685633Y-90392542D01*
X127747628Y-90421450D01*
X127808891Y-90450018D01*
X127861331Y-90496190D01*
X127880483Y-90563383D01*
X127860267Y-90630265D01*
X127808891Y-90674782D01*
X127685636Y-90732256D01*
X127685634Y-90732257D01*
X127504244Y-90859268D01*
X127347668Y-91015844D01*
X127220657Y-91197234D01*
X127220656Y-91197236D01*
X127127079Y-91397913D01*
X127127075Y-91397924D01*
X127069765Y-91611807D01*
X127069764Y-91611814D01*
X127050466Y-91832398D01*
X127050466Y-91832401D01*
X127069764Y-92052985D01*
X127069765Y-92052992D01*
X127127075Y-92266875D01*
X127127079Y-92266886D01*
X127203482Y-92430733D01*
X127220658Y-92467567D01*
X127347668Y-92648955D01*
X127504245Y-92805532D01*
X127685633Y-92932542D01*
X127707117Y-92942560D01*
X127808891Y-92990018D01*
X127861331Y-93036190D01*
X127880483Y-93103383D01*
X127860267Y-93170265D01*
X127808891Y-93214782D01*
X127685636Y-93272256D01*
X127685634Y-93272257D01*
X127504244Y-93399268D01*
X127347671Y-93555841D01*
X127347666Y-93555847D01*
X127341240Y-93565025D01*
X127286662Y-93608649D01*
X127239666Y-93617900D01*
X126637246Y-93617900D01*
X126637226Y-93617899D01*
X126631112Y-93617899D01*
X126482488Y-93617899D01*
X126482486Y-93617899D01*
X126360905Y-93642084D01*
X126346340Y-93644981D01*
X126336718Y-93646895D01*
X126336717Y-93646895D01*
X126308217Y-93658700D01*
X126308218Y-93658701D01*
X126199414Y-93703768D01*
X126199407Y-93703772D01*
X126075831Y-93786342D01*
X125905942Y-93956231D01*
X125823372Y-94079807D01*
X125823366Y-94079818D01*
X125766496Y-94217116D01*
X125766493Y-94217126D01*
X125737499Y-94362885D01*
X125737499Y-94517625D01*
X125737500Y-94517646D01*
X125737500Y-111669112D01*
X125717815Y-111736151D01*
X125701181Y-111756793D01*
X123368780Y-114089194D01*
X123307457Y-114122679D01*
X123237765Y-114117695D01*
X123181832Y-114075823D01*
X123157415Y-114010359D01*
X123157099Y-114001513D01*
X123157099Y-113896529D01*
X123157098Y-113896523D01*
X123150691Y-113836916D01*
X123100397Y-113702071D01*
X123100393Y-113702064D01*
X123014147Y-113586855D01*
X123014144Y-113586852D01*
X122898935Y-113500606D01*
X122898928Y-113500602D01*
X122764086Y-113450310D01*
X122764085Y-113450309D01*
X122764083Y-113450309D01*
X122704473Y-113443900D01*
X122704463Y-113443900D01*
X122100729Y-113443900D01*
X122100723Y-113443901D01*
X122041116Y-113450308D01*
X121906271Y-113500602D01*
X121906264Y-113500606D01*
X121791055Y-113586852D01*
X121745121Y-113648212D01*
X121689187Y-113690082D01*
X121645855Y-113697900D01*
X110484922Y-113697900D01*
X110417883Y-113678215D01*
X110381113Y-113641721D01*
X110306566Y-113527617D01*
X110279083Y-113497763D01*
X110138144Y-113344662D01*
X109941909Y-113191926D01*
X109941907Y-113191925D01*
X109941906Y-113191924D01*
X109723211Y-113073572D01*
X109723202Y-113073569D01*
X109488016Y-112992829D01*
X109242735Y-112951900D01*
X108994065Y-112951900D01*
X108748783Y-112992829D01*
X108513597Y-113073569D01*
X108513588Y-113073572D01*
X108294893Y-113191924D01*
X108098657Y-113344661D01*
X107952530Y-113503397D01*
X107892642Y-113539388D01*
X107822804Y-113537287D01*
X107765188Y-113497763D01*
X107738087Y-113433363D01*
X107737300Y-113419414D01*
X107737300Y-93709318D01*
X107756985Y-93642279D01*
X107809789Y-93596524D01*
X107878947Y-93586580D01*
X107891691Y-93589334D01*
X107894594Y-93589864D01*
X107894596Y-93589865D01*
X107930619Y-93592700D01*
X108328980Y-93592699D01*
X108365004Y-93589865D01*
X108519193Y-93545069D01*
X108657398Y-93463335D01*
X108770935Y-93349798D01*
X108852669Y-93211593D01*
X108897465Y-93057404D01*
X108900300Y-93021381D01*
X108900299Y-92523020D01*
X108897465Y-92486996D01*
X108893535Y-92473471D01*
X108891223Y-92465509D01*
X108886300Y-92430917D01*
X108886300Y-89640565D01*
X108891224Y-89605969D01*
X108899465Y-89577604D01*
X108902300Y-89541581D01*
X108902299Y-89043220D01*
X108899465Y-89007196D01*
X108891223Y-88978825D01*
X108886300Y-88944233D01*
X108886300Y-86084565D01*
X108891224Y-86049969D01*
X108899465Y-86021604D01*
X108902300Y-85985581D01*
X108902299Y-85487220D01*
X108899465Y-85451196D01*
X108892659Y-85427769D01*
X108891223Y-85422825D01*
X108886300Y-85388233D01*
X108886300Y-82313256D01*
X108891224Y-82278660D01*
X108903968Y-82234796D01*
X108925465Y-82160804D01*
X108928300Y-82124781D01*
X108928299Y-81626420D01*
X108925465Y-81590396D01*
X108917223Y-81562025D01*
X108912300Y-81527433D01*
X108912300Y-76700846D01*
X108912301Y-76700825D01*
X108912301Y-76546086D01*
X108902682Y-76497733D01*
X108900299Y-76473540D01*
X108900299Y-76343231D01*
X108900298Y-76343206D01*
X108897465Y-76307197D01*
X108897465Y-76307196D01*
X108889223Y-76278825D01*
X108884300Y-76244233D01*
X108884300Y-74416287D01*
X108903985Y-74349248D01*
X108920622Y-74328603D01*
X108931057Y-74318168D01*
X108931057Y-74318167D01*
X108931059Y-74318166D01*
X109013629Y-74194590D01*
X109013630Y-74194589D01*
X109013630Y-74194588D01*
X109013633Y-74194585D01*
X109070503Y-74057283D01*
X109070505Y-74057279D01*
X109080986Y-74004592D01*
X109099501Y-73911514D01*
X109099501Y-73757778D01*
X109099500Y-73757752D01*
X109099500Y-71800937D01*
X109106459Y-71759982D01*
X109115903Y-71732992D01*
X109130368Y-71691655D01*
X109150565Y-71512400D01*
X109130368Y-71333145D01*
X109070789Y-71162878D01*
X108974816Y-71010138D01*
X108847262Y-70882584D01*
X108838746Y-70877233D01*
X108694523Y-70786611D01*
X108524254Y-70727031D01*
X108524249Y-70727030D01*
X108345004Y-70706835D01*
X108344996Y-70706835D01*
X108165750Y-70727030D01*
X108165745Y-70727031D01*
X107995476Y-70786611D01*
X107842737Y-70882584D01*
X107715184Y-71010137D01*
X107619211Y-71162876D01*
X107559631Y-71333145D01*
X107559630Y-71333150D01*
X107539435Y-71512396D01*
X107539435Y-71512403D01*
X107559630Y-71691646D01*
X107559632Y-71691656D01*
X107583541Y-71759982D01*
X107590500Y-71800937D01*
X107590500Y-73140905D01*
X107570815Y-73207944D01*
X107518011Y-73253699D01*
X107448853Y-73263643D01*
X107431906Y-73259982D01*
X107345002Y-73234734D01*
X107308981Y-73231900D01*
X106910630Y-73231900D01*
X106910608Y-73231901D01*
X106874594Y-73234735D01*
X106720411Y-73279529D01*
X106720406Y-73279531D01*
X106582204Y-73361263D01*
X106582196Y-73361269D01*
X106554885Y-73388581D01*
X106493562Y-73422066D01*
X106467204Y-73424900D01*
X104090860Y-73424900D01*
X104023821Y-73405215D01*
X103989285Y-73372023D01*
X103981752Y-73361265D01*
X103921028Y-73274542D01*
X103893935Y-73235849D01*
X103893934Y-73235847D01*
X103893932Y-73235845D01*
X103737355Y-73079268D01*
X103555967Y-72952258D01*
X103432707Y-72894781D01*
X103380268Y-72848610D01*
X103361116Y-72781417D01*
X103381331Y-72714536D01*
X103432708Y-72670018D01*
X103555967Y-72612542D01*
X103737355Y-72485532D01*
X103893932Y-72328955D01*
X104020942Y-72147567D01*
X104114523Y-71946880D01*
X104171835Y-71732991D01*
X104191134Y-71512400D01*
X104171835Y-71291809D01*
X104114523Y-71077920D01*
X104082916Y-71010139D01*
X104077243Y-70997972D01*
X104020942Y-70877233D01*
X103893932Y-70695845D01*
X103737355Y-70539268D01*
X103555967Y-70412258D01*
X103555963Y-70412256D01*
X103432117Y-70354506D01*
X103379677Y-70308334D01*
X103360525Y-70241141D01*
X103380741Y-70174259D01*
X103432117Y-70129742D01*
X103555711Y-70072109D01*
X103555719Y-70072105D01*
X103621141Y-70026295D01*
X103058374Y-69463528D01*
X103117653Y-69447645D01*
X103233947Y-69380502D01*
X103328902Y-69285547D01*
X103396045Y-69169253D01*
X103411928Y-69109974D01*
X103974695Y-69672741D01*
X104020505Y-69607319D01*
X104020509Y-69607311D01*
X104114049Y-69406714D01*
X104114054Y-69406700D01*
X104171338Y-69192909D01*
X104171340Y-69192899D01*
X104190632Y-68972400D01*
X104190632Y-68972399D01*
X104171340Y-68751900D01*
X104171338Y-68751890D01*
X104114054Y-68538099D01*
X104114050Y-68538090D01*
X104020506Y-68337484D01*
X103974694Y-68272057D01*
X103411928Y-68834824D01*
X103396045Y-68775547D01*
X103328902Y-68659253D01*
X103233947Y-68564298D01*
X103117653Y-68497155D01*
X103058374Y-68481271D01*
X103621141Y-67918504D01*
X103620757Y-67914114D01*
X103584614Y-67868899D01*
X103577420Y-67799400D01*
X103608942Y-67737045D01*
X103669171Y-67701631D01*
X103699361Y-67697899D01*
X103733672Y-67697899D01*
X103793283Y-67691491D01*
X103928131Y-67641196D01*
X104043346Y-67554946D01*
X104129596Y-67439731D01*
X104179891Y-67304883D01*
X104186300Y-67245273D01*
X104186299Y-65619528D01*
X104179891Y-65559917D01*
X104142351Y-65459268D01*
X104129597Y-65425071D01*
X104129593Y-65425064D01*
X104043347Y-65309855D01*
X104043344Y-65309852D01*
X103928135Y-65223606D01*
X103928128Y-65223602D01*
X103793282Y-65173308D01*
X103793283Y-65173308D01*
X103733683Y-65166901D01*
X103733681Y-65166900D01*
X103733673Y-65166900D01*
X103733664Y-65166900D01*
X102107929Y-65166900D01*
X102107923Y-65166901D01*
X102048316Y-65173308D01*
X101913471Y-65223602D01*
X101913464Y-65223606D01*
X101798255Y-65309852D01*
X101798252Y-65309855D01*
X101712006Y-65425064D01*
X101712002Y-65425071D01*
X101661708Y-65559917D01*
X101655301Y-65619516D01*
X101655301Y-65619523D01*
X101655300Y-65619535D01*
X101655300Y-67245270D01*
X101655301Y-67245276D01*
X101661708Y-67304883D01*
X101712002Y-67439728D01*
X101712006Y-67439735D01*
X101798252Y-67554944D01*
X101798255Y-67554947D01*
X101913464Y-67641193D01*
X101913471Y-67641197D01*
X102048317Y-67691491D01*
X102048316Y-67691491D01*
X102055244Y-67692235D01*
X102107927Y-67697900D01*
X102142235Y-67697899D01*
X102209272Y-67717582D01*
X102255028Y-67770385D01*
X102264973Y-67839543D01*
X102235950Y-67903099D01*
X102220594Y-67916947D01*
X102220457Y-67918504D01*
X102783225Y-68481271D01*
X102723947Y-68497155D01*
X102607653Y-68564298D01*
X102512698Y-68659253D01*
X102445555Y-68775547D01*
X102429671Y-68834824D01*
X101866904Y-68272057D01*
X101866903Y-68272058D01*
X101821095Y-68337480D01*
X101727549Y-68538090D01*
X101727545Y-68538099D01*
X101670261Y-68751890D01*
X101670259Y-68751900D01*
X101650968Y-68972399D01*
X101650968Y-68972400D01*
X101670259Y-69192899D01*
X101670261Y-69192909D01*
X101727545Y-69406700D01*
X101727549Y-69406709D01*
X101821093Y-69607316D01*
X101821095Y-69607320D01*
X101866903Y-69672741D01*
X101866904Y-69672741D01*
X102429671Y-69109974D01*
X102445555Y-69169253D01*
X102512698Y-69285547D01*
X102607653Y-69380502D01*
X102723947Y-69447645D01*
X102783225Y-69463528D01*
X102220457Y-70026294D01*
X102285884Y-70072107D01*
X102409483Y-70129742D01*
X102461922Y-70175914D01*
X102481074Y-70243108D01*
X102460858Y-70309989D01*
X102409483Y-70354506D01*
X102285633Y-70412257D01*
X102104244Y-70539268D01*
X101947668Y-70695844D01*
X101820657Y-70877234D01*
X101820656Y-70877236D01*
X101727079Y-71077913D01*
X101727075Y-71077924D01*
X101669765Y-71291807D01*
X101669764Y-71291814D01*
X101650466Y-71512398D01*
X101650466Y-71512401D01*
X101669764Y-71732985D01*
X101669765Y-71732992D01*
X101727075Y-71946875D01*
X101727079Y-71946886D01*
X101817083Y-72139900D01*
X101820658Y-72147567D01*
X101947668Y-72328955D01*
X102104245Y-72485532D01*
X102285633Y-72612542D01*
X102347628Y-72641450D01*
X102408891Y-72670018D01*
X102461331Y-72716190D01*
X102480483Y-72783383D01*
X102460267Y-72850265D01*
X102408891Y-72894782D01*
X102285636Y-72952256D01*
X102285634Y-72952257D01*
X102104244Y-73079268D01*
X101947671Y-73235841D01*
X101947664Y-73235849D01*
X101877438Y-73336142D01*
X101859848Y-73361265D01*
X101852315Y-73372023D01*
X101797738Y-73415648D01*
X101750740Y-73424900D01*
X100764792Y-73424900D01*
X100643572Y-73449012D01*
X100643564Y-73449014D01*
X100581308Y-73474802D01*
X100529368Y-73496316D01*
X100529366Y-73496317D01*
X100508413Y-73510316D01*
X100508414Y-73510317D01*
X100426593Y-73564987D01*
X100419594Y-73571987D01*
X100412592Y-73578989D01*
X100373668Y-73617913D01*
X100325186Y-73666394D01*
X100325185Y-73666396D01*
X100255833Y-73770189D01*
X100254186Y-73774793D01*
X100209214Y-73883364D01*
X100209212Y-73883372D01*
X100190372Y-73978089D01*
X100185100Y-74004592D01*
X100185100Y-79397718D01*
X100165415Y-79464757D01*
X100148781Y-79485399D01*
X92669398Y-86964781D01*
X92608075Y-86998266D01*
X92581717Y-87001100D01*
X89972129Y-87001100D01*
X89972123Y-87001101D01*
X89912516Y-87007508D01*
X89777671Y-87057802D01*
X89777664Y-87057806D01*
X89662455Y-87144052D01*
X89662452Y-87144055D01*
X89576206Y-87259264D01*
X89576202Y-87259271D01*
X89525908Y-87394117D01*
X89519501Y-87453716D01*
X89519500Y-87453735D01*
X89519500Y-90549470D01*
X89519501Y-90549476D01*
X89525908Y-90609083D01*
X89576202Y-90743928D01*
X89576206Y-90743935D01*
X89662452Y-90859144D01*
X89662455Y-90859147D01*
X89777664Y-90945393D01*
X89777671Y-90945397D01*
X89912517Y-90995691D01*
X89912516Y-90995691D01*
X89919444Y-90996435D01*
X89972127Y-91002100D01*
X93067872Y-91002099D01*
X93127483Y-90995691D01*
X93262331Y-90945396D01*
X93377546Y-90859146D01*
X93463796Y-90743931D01*
X93514091Y-90609083D01*
X93520500Y-90549473D01*
X93520499Y-87939879D01*
X93540184Y-87872841D01*
X93556813Y-87852204D01*
X101300011Y-80109008D01*
X101354210Y-80027893D01*
X101368683Y-80006233D01*
X101392674Y-79948313D01*
X101401952Y-79925916D01*
X101406913Y-79913937D01*
X101415986Y-79892035D01*
X101440100Y-79770803D01*
X101440100Y-79647197D01*
X101440100Y-79437742D01*
X101459785Y-79370703D01*
X101512589Y-79324948D01*
X101581747Y-79315004D01*
X101645303Y-79344029D01*
X101683077Y-79402807D01*
X101683875Y-79405648D01*
X101727075Y-79566875D01*
X101727079Y-79566886D01*
X101787004Y-79695395D01*
X101820658Y-79767567D01*
X101947668Y-79948955D01*
X102104245Y-80105532D01*
X102285633Y-80232542D01*
X102347628Y-80261450D01*
X102408891Y-80290018D01*
X102461331Y-80336190D01*
X102480483Y-80403383D01*
X102460267Y-80470265D01*
X102408891Y-80514782D01*
X102285636Y-80572256D01*
X102285634Y-80572257D01*
X102104244Y-80699268D01*
X101947668Y-80855844D01*
X101820657Y-81037234D01*
X101820656Y-81037236D01*
X101727079Y-81237913D01*
X101727075Y-81237924D01*
X101669765Y-81451807D01*
X101669764Y-81451814D01*
X101650466Y-81672398D01*
X101650466Y-81672401D01*
X101669764Y-81892985D01*
X101669765Y-81892992D01*
X101727075Y-82106875D01*
X101727079Y-82106886D01*
X101807803Y-82280000D01*
X101820658Y-82307567D01*
X101947668Y-82488955D01*
X102104245Y-82645532D01*
X102285633Y-82772542D01*
X102347628Y-82801450D01*
X102408891Y-82830018D01*
X102461331Y-82876190D01*
X102480483Y-82943383D01*
X102460267Y-83010265D01*
X102408891Y-83054782D01*
X102285636Y-83112256D01*
X102285634Y-83112257D01*
X102104244Y-83239268D01*
X101947671Y-83395841D01*
X101947664Y-83395849D01*
X101852315Y-83532023D01*
X101797738Y-83575648D01*
X101750740Y-83584900D01*
X101020127Y-83584900D01*
X100995936Y-83582517D01*
X100969376Y-83577234D01*
X100950604Y-83573500D01*
X100950603Y-83573500D01*
X100798203Y-83573500D01*
X100674597Y-83573500D01*
X100674595Y-83573500D01*
X100553370Y-83597613D01*
X100553360Y-83597616D01*
X100439173Y-83644913D01*
X100439160Y-83644920D01*
X100336392Y-83713588D01*
X100336388Y-83713591D01*
X100248991Y-83800988D01*
X100248988Y-83800992D01*
X100180320Y-83903760D01*
X100180313Y-83903773D01*
X100133016Y-84017960D01*
X100133013Y-84017970D01*
X100108900Y-84139194D01*
X100108900Y-115690518D01*
X100089215Y-115757557D01*
X100072581Y-115778199D01*
X92485102Y-123365677D01*
X92423779Y-123399162D01*
X92354088Y-123394178D01*
X92200518Y-123336900D01*
X92085046Y-123293831D01*
X92085042Y-123293830D01*
X92085039Y-123293829D01*
X91805433Y-123233004D01*
X91520001Y-123212590D01*
X91519999Y-123212590D01*
X91234566Y-123233004D01*
X90954962Y-123293828D01*
X90686833Y-123393835D01*
X90435690Y-123530970D01*
X90435682Y-123530975D01*
X90206612Y-123702454D01*
X90206594Y-123702470D01*
X90004270Y-123904794D01*
X90004254Y-123904812D01*
X89832775Y-124133882D01*
X89832770Y-124133890D01*
X89695635Y-124385033D01*
X89595628Y-124653162D01*
X89534804Y-124932766D01*
X89514390Y-125218198D01*
X85500500Y-125218198D01*
X85500500Y-118590355D01*
X89520000Y-118590355D01*
X89520000Y-119888200D01*
X90800936Y-119888200D01*
X90789207Y-119916516D01*
X90760000Y-120063347D01*
X90760000Y-120213053D01*
X90789207Y-120359884D01*
X90800936Y-120388200D01*
X89520000Y-120388200D01*
X89520000Y-121686044D01*
X89526401Y-121745572D01*
X89526403Y-121745579D01*
X89576645Y-121880286D01*
X89576649Y-121880293D01*
X89662809Y-121995387D01*
X89662812Y-121995390D01*
X89777906Y-122081550D01*
X89777913Y-122081554D01*
X89912620Y-122131796D01*
X89912627Y-122131798D01*
X89972155Y-122138199D01*
X89972172Y-122138200D01*
X91270000Y-122138200D01*
X91270000Y-120857264D01*
X91298316Y-120868993D01*
X91445147Y-120898200D01*
X91594853Y-120898200D01*
X91741684Y-120868993D01*
X91770000Y-120857264D01*
X91770000Y-122138200D01*
X93067828Y-122138200D01*
X93067844Y-122138199D01*
X93127372Y-122131798D01*
X93127379Y-122131796D01*
X93262086Y-122081554D01*
X93262093Y-122081550D01*
X93377187Y-121995390D01*
X93377190Y-121995387D01*
X93463350Y-121880293D01*
X93463354Y-121880286D01*
X93513596Y-121745579D01*
X93513598Y-121745572D01*
X93519999Y-121686044D01*
X93520000Y-121686027D01*
X93520000Y-120388200D01*
X92239064Y-120388200D01*
X92250793Y-120359884D01*
X92280000Y-120213053D01*
X92280000Y-120063347D01*
X92250793Y-119916516D01*
X92239064Y-119888200D01*
X93520000Y-119888200D01*
X93520000Y-118590372D01*
X93519999Y-118590355D01*
X93513598Y-118530827D01*
X93513596Y-118530820D01*
X93463354Y-118396113D01*
X93463350Y-118396106D01*
X93377190Y-118281012D01*
X93377187Y-118281009D01*
X93262093Y-118194849D01*
X93262086Y-118194845D01*
X93127379Y-118144603D01*
X93127372Y-118144601D01*
X93067844Y-118138200D01*
X91770000Y-118138200D01*
X91770000Y-119419135D01*
X91741684Y-119407407D01*
X91594853Y-119378200D01*
X91445147Y-119378200D01*
X91298316Y-119407407D01*
X91270000Y-119419135D01*
X91270000Y-118138200D01*
X89972155Y-118138200D01*
X89912627Y-118144601D01*
X89912620Y-118144603D01*
X89777913Y-118194845D01*
X89777906Y-118194849D01*
X89662812Y-118281009D01*
X89662809Y-118281012D01*
X89576649Y-118396106D01*
X89576645Y-118396113D01*
X89526403Y-118530820D01*
X89526401Y-118530827D01*
X89520000Y-118590355D01*
X85500500Y-118590355D01*
X85500500Y-108100135D01*
X89464900Y-108100135D01*
X89464900Y-111195870D01*
X89464901Y-111195876D01*
X89471308Y-111255483D01*
X89521602Y-111390328D01*
X89521606Y-111390335D01*
X89607852Y-111505544D01*
X89607855Y-111505547D01*
X89723064Y-111591793D01*
X89723071Y-111591797D01*
X89857917Y-111642091D01*
X89857916Y-111642091D01*
X89864844Y-111642835D01*
X89917527Y-111648500D01*
X93013272Y-111648499D01*
X93072883Y-111642091D01*
X93207731Y-111591796D01*
X93322946Y-111505546D01*
X93409196Y-111390331D01*
X93459491Y-111255483D01*
X93465900Y-111195873D01*
X93465899Y-108100128D01*
X93459491Y-108040517D01*
X93409196Y-107905669D01*
X93409195Y-107905668D01*
X93409193Y-107905664D01*
X93322947Y-107790455D01*
X93322944Y-107790452D01*
X93207735Y-107704206D01*
X93207728Y-107704202D01*
X93072882Y-107653908D01*
X93072883Y-107653908D01*
X93013283Y-107647501D01*
X93013281Y-107647500D01*
X93013273Y-107647500D01*
X93013264Y-107647500D01*
X89917529Y-107647500D01*
X89917523Y-107647501D01*
X89857916Y-107653908D01*
X89723071Y-107704202D01*
X89723064Y-107704206D01*
X89607855Y-107790452D01*
X89607852Y-107790455D01*
X89521606Y-107905664D01*
X89521602Y-107905671D01*
X89471308Y-108040517D01*
X89464901Y-108100116D01*
X89464901Y-108100123D01*
X89464900Y-108100135D01*
X85500500Y-108100135D01*
X85500500Y-104567998D01*
X89460291Y-104567998D01*
X89460291Y-104568001D01*
X89480700Y-104853362D01*
X89541509Y-105132895D01*
X89641491Y-105400958D01*
X89778591Y-105652038D01*
X89778596Y-105652046D01*
X89885282Y-105794562D01*
X89885283Y-105794563D01*
X90780168Y-104899678D01*
X90791897Y-104927995D01*
X90875070Y-105052472D01*
X90980928Y-105158330D01*
X91105405Y-105241503D01*
X91133720Y-105253231D01*
X90238835Y-106148115D01*
X90238836Y-106148116D01*
X90381353Y-106254803D01*
X90381361Y-106254808D01*
X90632442Y-106391908D01*
X90632441Y-106391908D01*
X90900504Y-106491890D01*
X91180037Y-106552699D01*
X91465399Y-106573109D01*
X91465401Y-106573109D01*
X91750762Y-106552699D01*
X92030295Y-106491890D01*
X92298358Y-106391908D01*
X92549438Y-106254808D01*
X92549439Y-106254807D01*
X92691963Y-106148115D01*
X91797079Y-105253231D01*
X91825395Y-105241503D01*
X91949872Y-105158330D01*
X92055730Y-105052472D01*
X92138903Y-104927995D01*
X92150631Y-104899679D01*
X93045515Y-105794563D01*
X93152207Y-105652039D01*
X93152208Y-105652038D01*
X93289308Y-105400958D01*
X93389290Y-105132895D01*
X93450099Y-104853362D01*
X93470509Y-104568001D01*
X93470509Y-104567998D01*
X93450099Y-104282637D01*
X93389290Y-104003104D01*
X93289308Y-103735041D01*
X93152208Y-103483961D01*
X93152203Y-103483953D01*
X93045516Y-103341436D01*
X93045515Y-103341435D01*
X92150631Y-104236320D01*
X92138903Y-104208005D01*
X92055730Y-104083528D01*
X91949872Y-103977670D01*
X91825395Y-103894497D01*
X91797078Y-103882767D01*
X92691963Y-102987883D01*
X92691962Y-102987882D01*
X92549446Y-102881196D01*
X92549438Y-102881191D01*
X92298357Y-102744091D01*
X92298358Y-102744091D01*
X92030295Y-102644109D01*
X91750762Y-102583300D01*
X91465401Y-102562891D01*
X91465399Y-102562891D01*
X91180037Y-102583300D01*
X90900504Y-102644109D01*
X90632441Y-102744091D01*
X90381361Y-102881191D01*
X90381353Y-102881196D01*
X90238835Y-102987882D01*
X91133721Y-103882767D01*
X91105405Y-103894497D01*
X90980928Y-103977670D01*
X90875070Y-104083528D01*
X90791897Y-104208005D01*
X90780168Y-104236321D01*
X89885282Y-103341435D01*
X89778596Y-103483953D01*
X89778591Y-103483961D01*
X89641491Y-103735041D01*
X89541509Y-104003104D01*
X89480700Y-104282637D01*
X89460291Y-104567998D01*
X85500500Y-104567998D01*
X85500500Y-99487998D01*
X89459790Y-99487998D01*
X89459790Y-99488001D01*
X89480204Y-99773433D01*
X89541028Y-100053037D01*
X89541030Y-100053043D01*
X89541031Y-100053046D01*
X89601143Y-100214211D01*
X89641035Y-100321166D01*
X89778170Y-100572309D01*
X89778175Y-100572317D01*
X89949654Y-100801387D01*
X89949670Y-100801405D01*
X90151994Y-101003729D01*
X90152012Y-101003745D01*
X90381082Y-101175224D01*
X90381090Y-101175229D01*
X90632233Y-101312364D01*
X90632232Y-101312364D01*
X90632236Y-101312365D01*
X90632239Y-101312367D01*
X90900354Y-101412369D01*
X90900360Y-101412370D01*
X90900362Y-101412371D01*
X91179966Y-101473195D01*
X91179968Y-101473195D01*
X91179972Y-101473196D01*
X91433620Y-101491337D01*
X91465399Y-101493610D01*
X91465400Y-101493610D01*
X91465401Y-101493610D01*
X91493995Y-101491564D01*
X91750828Y-101473196D01*
X91750861Y-101473189D01*
X92030437Y-101412371D01*
X92030437Y-101412370D01*
X92030446Y-101412369D01*
X92298561Y-101312367D01*
X92549715Y-101175226D01*
X92778795Y-101003739D01*
X92981139Y-100801395D01*
X93152626Y-100572315D01*
X93289767Y-100321161D01*
X93389769Y-100053046D01*
X93425917Y-99886875D01*
X93450595Y-99773433D01*
X93450595Y-99773432D01*
X93450596Y-99773428D01*
X93471010Y-99488000D01*
X93450596Y-99202572D01*
X93437333Y-99141605D01*
X93389771Y-98922962D01*
X93389770Y-98922960D01*
X93389769Y-98922954D01*
X93289767Y-98654839D01*
X93279395Y-98635845D01*
X93152629Y-98403690D01*
X93152624Y-98403682D01*
X92981145Y-98174612D01*
X92981129Y-98174594D01*
X92778805Y-97972270D01*
X92778787Y-97972254D01*
X92549717Y-97800775D01*
X92549709Y-97800770D01*
X92298566Y-97663635D01*
X92298567Y-97663635D01*
X92191315Y-97623632D01*
X92030446Y-97563631D01*
X92030443Y-97563630D01*
X92030437Y-97563628D01*
X91750833Y-97502804D01*
X91465401Y-97482390D01*
X91465399Y-97482390D01*
X91179966Y-97502804D01*
X90900362Y-97563628D01*
X90632233Y-97663635D01*
X90381090Y-97800770D01*
X90381082Y-97800775D01*
X90152012Y-97972254D01*
X90151994Y-97972270D01*
X89949670Y-98174594D01*
X89949654Y-98174612D01*
X89778175Y-98403682D01*
X89778170Y-98403690D01*
X89641035Y-98654833D01*
X89541028Y-98922962D01*
X89480204Y-99202566D01*
X89459790Y-99487998D01*
X85500500Y-99487998D01*
X85500500Y-83921598D01*
X89514891Y-83921598D01*
X89514891Y-83921601D01*
X89535300Y-84206962D01*
X89596109Y-84486495D01*
X89696091Y-84754558D01*
X89833191Y-85005638D01*
X89833196Y-85005646D01*
X89939882Y-85148162D01*
X89939883Y-85148163D01*
X90834768Y-84253278D01*
X90846497Y-84281595D01*
X90929670Y-84406072D01*
X91035528Y-84511930D01*
X91160005Y-84595103D01*
X91188320Y-84606831D01*
X90293435Y-85501715D01*
X90293436Y-85501716D01*
X90435953Y-85608403D01*
X90435961Y-85608408D01*
X90687042Y-85745508D01*
X90687041Y-85745508D01*
X90955104Y-85845490D01*
X91234637Y-85906299D01*
X91519999Y-85926709D01*
X91520001Y-85926709D01*
X91805362Y-85906299D01*
X92084895Y-85845490D01*
X92352958Y-85745508D01*
X92604038Y-85608408D01*
X92604039Y-85608407D01*
X92746563Y-85501715D01*
X91851679Y-84606831D01*
X91879995Y-84595103D01*
X92004472Y-84511930D01*
X92110330Y-84406072D01*
X92193503Y-84281595D01*
X92205231Y-84253279D01*
X93100115Y-85148163D01*
X93206807Y-85005639D01*
X93206808Y-85005638D01*
X93343908Y-84754558D01*
X93443890Y-84486495D01*
X93504699Y-84206962D01*
X93525109Y-83921601D01*
X93525109Y-83921598D01*
X93504699Y-83636237D01*
X93443890Y-83356704D01*
X93343908Y-83088641D01*
X93206808Y-82837561D01*
X93206803Y-82837553D01*
X93100116Y-82695036D01*
X93100115Y-82695035D01*
X92205231Y-83589920D01*
X92193503Y-83561605D01*
X92110330Y-83437128D01*
X92004472Y-83331270D01*
X91879995Y-83248097D01*
X91851678Y-83236367D01*
X92746563Y-82341483D01*
X92746562Y-82341482D01*
X92604046Y-82234796D01*
X92604038Y-82234791D01*
X92352957Y-82097691D01*
X92352958Y-82097691D01*
X92084895Y-81997709D01*
X91805362Y-81936900D01*
X91520001Y-81916491D01*
X91519999Y-81916491D01*
X91234637Y-81936900D01*
X90955104Y-81997709D01*
X90687041Y-82097691D01*
X90435961Y-82234791D01*
X90435953Y-82234796D01*
X90293435Y-82341482D01*
X91188321Y-83236367D01*
X91160005Y-83248097D01*
X91035528Y-83331270D01*
X90929670Y-83437128D01*
X90846497Y-83561605D01*
X90834768Y-83589921D01*
X89939882Y-82695035D01*
X89833196Y-82837553D01*
X89833191Y-82837561D01*
X89696091Y-83088641D01*
X89596109Y-83356704D01*
X89535300Y-83636237D01*
X89514891Y-83921598D01*
X85500500Y-83921598D01*
X85500500Y-78841598D01*
X89514390Y-78841598D01*
X89514390Y-78841601D01*
X89534804Y-79127033D01*
X89595628Y-79406637D01*
X89595630Y-79406643D01*
X89595631Y-79406646D01*
X89685352Y-79647197D01*
X89695635Y-79674766D01*
X89832770Y-79925909D01*
X89832775Y-79925917D01*
X90004254Y-80154987D01*
X90004270Y-80155005D01*
X90206594Y-80357329D01*
X90206612Y-80357345D01*
X90435682Y-80528824D01*
X90435690Y-80528829D01*
X90686833Y-80665964D01*
X90686832Y-80665964D01*
X90686836Y-80665965D01*
X90686839Y-80665967D01*
X90954954Y-80765969D01*
X90954960Y-80765970D01*
X90954962Y-80765971D01*
X91234566Y-80826795D01*
X91234568Y-80826795D01*
X91234572Y-80826796D01*
X91488220Y-80844937D01*
X91519999Y-80847210D01*
X91520000Y-80847210D01*
X91520001Y-80847210D01*
X91548595Y-80845164D01*
X91805428Y-80826796D01*
X92085046Y-80765969D01*
X92353161Y-80665967D01*
X92604315Y-80528826D01*
X92833395Y-80357339D01*
X93035739Y-80154995D01*
X93207226Y-79925915D01*
X93344367Y-79674761D01*
X93444369Y-79406646D01*
X93456042Y-79352985D01*
X93505195Y-79127033D01*
X93505195Y-79127032D01*
X93505196Y-79127028D01*
X93525610Y-78841600D01*
X93505196Y-78556172D01*
X93496421Y-78515835D01*
X93444371Y-78276562D01*
X93444370Y-78276560D01*
X93444369Y-78276554D01*
X93344367Y-78008439D01*
X93321376Y-77966335D01*
X93207229Y-77757290D01*
X93207224Y-77757282D01*
X93035745Y-77528212D01*
X93035729Y-77528194D01*
X92833405Y-77325870D01*
X92833387Y-77325854D01*
X92604317Y-77154375D01*
X92604309Y-77154370D01*
X92353166Y-77017235D01*
X92353167Y-77017235D01*
X92245915Y-76977232D01*
X92085046Y-76917231D01*
X92085043Y-76917230D01*
X92085037Y-76917228D01*
X91805433Y-76856404D01*
X91520001Y-76835990D01*
X91519999Y-76835990D01*
X91234566Y-76856404D01*
X90954962Y-76917228D01*
X90686833Y-77017235D01*
X90435690Y-77154370D01*
X90435682Y-77154375D01*
X90206612Y-77325854D01*
X90206594Y-77325870D01*
X90004270Y-77528194D01*
X90004254Y-77528212D01*
X89832775Y-77757282D01*
X89832770Y-77757290D01*
X89695635Y-78008433D01*
X89595628Y-78276562D01*
X89534804Y-78556166D01*
X89514390Y-78841598D01*
X85500500Y-78841598D01*
X85500500Y-59002700D01*
X85520185Y-58935661D01*
X85572989Y-58889906D01*
X85624500Y-58878700D01*
X161375500Y-58878700D01*
X161442539Y-58898385D01*
G37*
%TD.AperFunction*%
%TD*%
M02*
